<svg xmlns="http://www.w3.org/2000/svg" width="460" height="155" viewBox="0 0 460 155" preserveAspectRatio="xMinYMid" aria-hidden="true" focusable="false"><path d="M7.33,26.78l7.19-2.19v41.3H36.23v6.55H7.33Zm35.81,1.85h7.73v6.79H43.14Zm.29,12.7h7.24V72.44H43.43Zm16.46,0H67v4.89a18.19,18.19,0,0,1,1.68-2.12,10.77,10.77,0,0,1,8-3.43q5.3,0,8.17,3.28a12.6,12.6,0,0,1,2.89,8.73V72.44h-7.2V54.78a8.26,8.26,0,0,0-1.73-5.62,6.09,6.09,0,0,0-4.87-2,6.59,6.59,0,0,0-5,2A8,8,0,0,0,67,54.9V72.44H59.89Zm51,31.81a16.09,16.09,0,0,1-11.56-4.71A15.85,15.85,0,0,1,96,63.3,16,16,0,0,1,94.76,57v-.12a16.44,16.44,0,0,1,4.6-11.47,16.47,16.47,0,0,1,5.15-3.51,17.88,17.88,0,0,1,13.81.17,17.37,17.37,0,0,1,5.11,3.9L119,50.79A17,17,0,0,0,115.49,48a9,9,0,0,0-4.57-1.09,8.27,8.27,0,0,0-3.6.8,9,9,0,0,0-2.83,2.18A10.2,10.2,0,0,0,102.62,53,11.28,11.28,0,0,0,102,56.8v.12a11,11,0,0,0,.68,3.9,9.17,9.17,0,0,0,13.09,5.07,16.81,16.81,0,0,0,3.64-2.8l4.3,4.25a19.48,19.48,0,0,1-5.25,4.22A15.36,15.36,0,0,1,110.92,73.14Zm34,0a16.93,16.93,0,0,1-6.55-1.26,16.39,16.39,0,0,1-5.25-3.45,15.49,15.49,0,0,1-3.44-5.13A15.83,15.83,0,0,1,128.47,57v-.12a16,16,0,0,1,1.27-6.31,16.39,16.39,0,0,1,15.36-10,17,17,0,0,1,6.64,1.27,15.91,15.91,0,0,1,9.94,14.89v.12a15.74,15.74,0,0,1-1.29,6.24,16.24,16.24,0,0,1-8.74,8.67A16.84,16.84,0,0,1,145,73.14Zm.11-6.19A9.08,9.08,0,0,0,151.94,64a9.55,9.55,0,0,0,1.87-3.16,11.22,11.22,0,0,0,.65-3.81v-.12a11,11,0,0,0-.71-3.89,9.85,9.85,0,0,0-2-3.19,9.33,9.33,0,0,0-3-2.18,9.58,9.58,0,0,0-7.64,0,9.36,9.36,0,0,0-3,2.18A8.82,8.82,0,0,0,136.32,53a11.38,11.38,0,0,0-.65,3.83v.12a10.65,10.65,0,0,0,.7,3.87,10.44,10.44,0,0,0,2,3.19,9.22,9.22,0,0,0,3,2.18A8.74,8.74,0,0,0,145.07,67Zm24.25-38.67,7.2-2.18V72.44h-7.2Zm16.46,13H193v4.89a16.29,16.29,0,0,1,1.68-2.12,10.23,10.23,0,0,1,2.12-1.76,10.52,10.52,0,0,1,5.9-1.67q5.31,0,8.19,3.28a12.64,12.64,0,0,1,2.88,8.73V72.44h-7.21V54.78a8.2,8.2,0,0,0-1.72-5.62,6.13,6.13,0,0,0-4.88-2,6.57,6.57,0,0,0-5,2A7.88,7.88,0,0,0,193,54.9V72.44h-7.2ZM233,73a21.11,21.11,0,0,1-6.81-1.14,22,22,0,0,1-6.37-3.57L223,63.47a20.35,20.35,0,0,0,5.16,2.86,14.28,14.28,0,0,0,5,1,6,6,0,0,0,3.57-.9A2.88,2.88,0,0,0,238.09,64v-.12a2.34,2.34,0,0,0-.57-1.53A4.75,4.75,0,0,0,236,61.21a18.09,18.09,0,0,0-2.25-.88c-.84-.29-1.71-.56-2.62-.83-1.14-.32-2.29-.69-3.44-1.09a12.83,12.83,0,0,1-3.14-1.68,8.35,8.35,0,0,1-2.27-2.57,7.35,7.35,0,0,1-.88-3.76v-.12a8.73,8.73,0,0,1,3.21-7,10.22,10.22,0,0,1,3.54-1.87,14.12,14.12,0,0,1,4.37-.66,19.46,19.46,0,0,1,6,1,21.46,21.46,0,0,1,5.46,2.62l-2.84,5.1a23.12,23.12,0,0,0-4.54-2.18,13.12,13.12,0,0,0-4.25-.8,5.19,5.19,0,0,0-3.22.88,2.76,2.76,0,0,0-1.14,2.19v.12a2,2,0,0,0,.59,1.44,5.91,5.91,0,0,0,1.56,1.09,20.15,20.15,0,0,0,2.25.94c.84.3,1.71.58,2.62.85q1.71.52,3.42,1.23A14.48,14.48,0,0,1,241.47,57a8.35,8.35,0,0,1,2.27,2.5,6.92,6.92,0,0,1,.9,3.59v.11a9.83,9.83,0,0,1-.9,4.3,8.27,8.27,0,0,1-2.44,3,11,11,0,0,1-3.69,1.83A16.18,16.18,0,0,1,233,73Zm18.82-44.75,7.21-2.18V46.18a15.33,15.33,0,0,1,1.67-2.11,10.73,10.73,0,0,1,2.11-1.76,11.36,11.36,0,0,1,2.65-1.22,10.74,10.74,0,0,1,3.28-.45,10.34,10.34,0,0,1,8.17,3.27,12.68,12.68,0,0,1,2.89,8.73v19.8h-7.2V54.78a8.25,8.25,0,0,0-1.72-5.62,6.15,6.15,0,0,0-4.89-2,6.54,6.54,0,0,0-5,2,7.88,7.88,0,0,0-1.93,5.68V72.44h-7.21Zm36.7.35h7.7v6.79h-7.72Zm.29,12.66h7.21V72.44h-7.21ZM345,73.14A16.48,16.48,0,0,1,338.75,72a15,15,0,0,1-8.46-8.4A17.1,17.1,0,0,1,329.05,57V56.9a17.93,17.93,0,0,1,1.09-6.32,15.88,15.88,0,0,1,3.17-5.16,14.73,14.73,0,0,1,4.8-3.47,14.44,14.44,0,0,1,6.17-1.31A14.79,14.79,0,0,1,350.83,42a13.34,13.34,0,0,1,4.61,3.69A15.74,15.74,0,0,1,358.25,51a21.32,21.32,0,0,1,.95,6.39v1c0,.32-.06.67-.09,1H336.19a8.64,8.64,0,0,0,9,7.91,10.47,10.47,0,0,0,4.61-.94,15,15,0,0,0,3.83-2.78l4.19,3.72a17.49,17.49,0,0,1-5.34,4.25A16.06,16.06,0,0,1,345,73.14Zm7.08-18.45a12.23,12.23,0,0,0-.76-3.28,8.43,8.43,0,0,0-1.61-2.54,7.66,7.66,0,0,0-2.4-1.74,7.79,7.79,0,0,0-8.61,1.62,10.27,10.27,0,0,0-2.63,5.94ZM76.29,93.87a9.23,9.23,0,0,1-3.64.6c-4.47,0-7.19-2.66-7.19-6.75,0-4.36,3.27-7.07,7.52-7.07a8.56,8.56,0,0,1,3.43.59l-.57,2a7.19,7.19,0,0,0-2.75-.52,4.57,4.57,0,0,0-5,4.16,4,4,0,0,0,0,.77,4.52,4.52,0,0,0,4.15,4.85,5,5,0,0,0,.77,0,7.41,7.41,0,0,0,2.79-.5Zm19.35-6.44c0,4.5-2.86,7.06-6.75,7.06s-6.47-2.89-6.47-6.82c0-4.12,2.72-7,6.69-7S95.64,83.61,95.64,87.43Zm-10.5.2c0,2.72,1.44,4.89,3.91,4.89s3.88-2.19,3.88-5c0-2.52-1.32-4.91-3.88-4.91S85.14,84.86,85.14,87.63Zm20.49-6.76v7.81c0,2.62,1.14,3.84,2.88,3.84s3-1.22,3-3.84V80.87H114v7.64c0,4.14-2.18,6-5.61,6s-5.37-1.72-5.37-5.94V80.9Zm16.59,13.4V80.87h2.92l3.63,5.74a37.33,37.33,0,0,1,2.41,4.5h0c-.17-1.79-.23-3.53-.23-5.57V80.87h2.38v13.4h-2.65l-3.61-5.89a45.1,45.1,0,0,1-2.53-4.63h-.06c.11,1.73.13,3.49.13,5.71v4.79Zm22-11.36h-4v-2h10.63v2h-4.05V94.27h-2.58Zm17,11.36V88.68l-4.45-7.81h2.92l1.69,3.44c.48,1,.84,1.74,1.21,2.66h0c.37-.85.76-1.69,1.24-2.66l1.69-3.44h3l-4.68,7.75v5.65Zm33.67-.4a9.18,9.18,0,0,1-3.63.6c-4.48,0-7.18-2.66-7.18-6.75,0-4.36,3.2-7.07,7.5-7.07a8.53,8.53,0,0,1,3.43.59l-.55,2a7.29,7.29,0,0,0-2.77-.52,4.58,4.58,0,0,0-4.93,4.18,4.7,4.7,0,0,0,0,.75A4.52,4.52,0,0,0,191,92.45a4.82,4.82,0,0,0,.76,0,7.23,7.23,0,0,0,2.8-.5Zm19.36-6.44c0,4.5-2.86,7.06-6.74,7.06s-6.48-2.89-6.48-6.82c0-4.12,2.71-7,6.69-7S214.3,83.61,214.3,87.43Zm-10.51.2c0,2.72,1.44,4.89,3.91,4.89s3.89-2.19,3.89-5c0-2.52-1.32-4.91-3.89-4.91S203.79,84.86,203.79,87.63Zm20.49-6.76v7.81c0,2.62,1.16,3.84,2.88,3.84s3-1.22,3-3.84V80.87h2.58v7.64c0,4.14-2.24,6-5.62,6s-5.37-1.73-5.37-6V80.89Zm16.59,13.4V80.87h2.93l3.63,5.74a38,38,0,0,1,2.4,4.5h0c-.17-1.79-.24-3.53-.24-5.57V80.87H252v13.4h-2.65l-3.68-5.89a47.11,47.11,0,0,1-2.53-4.63h-.05c.09,1.73.12,3.49.12,5.71v4.79Zm29.43-.4a9.23,9.23,0,0,1-3.64.6c-4.46,0-7.18-2.66-7.18-6.75,0-4.36,3.22-7.07,7.52-7.07a8.56,8.56,0,0,1,3.43.59l-.57,2a7.24,7.24,0,0,0-2.76-.52,4.57,4.57,0,0,0-4.92,4.93,4.49,4.49,0,0,0,4.12,4.84,4.07,4.07,0,0,0,.78,0,7.23,7.23,0,0,0,2.8-.5Zm10-13v13.4H277.7V80.87Zm8.17,0H291V92.22h5.79v2h-8.35ZM312.5,47.66a19.66,19.66,0,0,1,1.66-2.56A13.82,13.82,0,0,1,317.68,42a9.56,9.56,0,0,1,5.67-1.7h1.23l1.48.14a8.05,8.05,0,0,1,1.4.21l1.58.29.55.11c-.19.45-.36.88-.55,1.32s-.32.73-.5,1.09-.33.71-.46,1a8.79,8.79,0,0,1-.7,1.09,7.07,7.07,0,0,1-.65.78,3,3,0,0,1-1.28.77,2,2,0,0,1-1.09,0c-.57-.15-1.09-.31-1.63-.47a5.36,5.36,0,0,0-1.54-.22c-2.37,0-3.8,1.2-5.76,3.59a13.38,13.38,0,0,0-2.89,8.66V72.44h-7.21V41.33h7.21Z" fill="#1d1d1b"/><path d="M165.28,109.15q.19,5.35-3.4,16.28-3,9.09-4.62,11.68l-2.74,4.54c-1.29,1.82-2.56,2.72-3.79,2.71a4.15,4.15,0,0,1-3.19-1.69A6.76,6.76,0,0,1,146,139.6a39.14,39.14,0,0,1-.37-7.57,33.08,33.08,0,0,1,.6-6.28q-.47.72-4.46,8.83c-2.18,4.51-3.63,6.81-4.22,6.88a2.86,2.86,0,0,1-1.32-.23c-.52-.2-.81-.46-.85-.8a19.31,19.31,0,0,1,.37-2.4c.28-1.45.5-2.49.69-3.11l4.36-14.76a48.5,48.5,0,0,1,1.16-5.32,2.4,2.4,0,0,1,.55-.79,1.36,1.36,0,0,1,.7-.5,2,2,0,0,1,1.82,1.34,6.23,6.23,0,0,1-.54,3c-1,2.48-1.53,3.92-1.67,4.37-.52,1.9-1.37,4.69-2.54,8.4a2,2,0,0,0,.33.43c1-2.09,2.18-4.49,3.78-7.22q3.66-6.45,5-6.62a1.17,1.17,0,0,1,1.1.65,2.31,2.31,0,0,1,.42.93,15.12,15.12,0,0,1-.6,2.09,21.16,21.16,0,0,0-.91,3.13q-.51,2.7-.86,6.31a35.69,35.69,0,0,0-.15,7q.42,3.44,2.82,3.47c.55,0,1.31-.71,2.28-2.19L155,136a42.92,42.92,0,0,0,3.86-8.84c.9-2.93,1.77-5.87,2.64-8.81a22.17,22.17,0,0,0,1.09-5.82c0-.81-.09-1.61-.16-2.38,0-1.1.16-1.68.59-1.93a2,2,0,0,1,.68-.19,1.38,1.38,0,0,1,.94.34A1.25,1.25,0,0,1,165.28,109.15Zm5.45,24a11.47,11.47,0,0,1-2,4.28c-1.24,1.7-2.43,2.63-3.59,2.77a2.74,2.74,0,0,1-2.78-1.54,7.71,7.71,0,0,1-1-3.2,9.32,9.32,0,0,1,1.09-4.44,19.71,19.71,0,0,1,2.12-3.84,7.32,7.32,0,0,1,1.93-1.79,4.55,4.55,0,0,1,1.47-.75q2.59-.37,3.06,3.27A17.08,17.08,0,0,1,170.73,133.13Zm-2.27.13a12.07,12.07,0,0,0,.6-4.88c-.08-.7-.25-1.09-.48-1.09-.74,1-1.18,1.5-1.32,1.51s-.17,0-.18-.12-.09-.13-.23-.11c-.85.1-1.66,1.17-2.4,3.2a10.11,10.11,0,0,0-.86,3.71,4.39,4.39,0,0,0,.51,1.57,1.33,1.33,0,0,0,1.23.81c.6,0,1.28-.69,2-2.07a10.57,10.57,0,0,0,1.11-2.53ZM182.07,127a4,4,0,0,1-.16,1.58,2.17,2.17,0,0,1-.83,1.3,1.48,1.48,0,0,1-.56-.78l-.16-.76a2.22,2.22,0,0,1,0-.89,3.93,3.93,0,0,0,0-.84q-.11-.77-.75-.69c-.72.1-1.6,1.09-2.61,3a21.06,21.06,0,0,0-2.1,6c0,.66-.06,1.33-.11,2a3.21,3.21,0,0,1-.65,1.83,5.65,5.65,0,0,1-1-.55c-.57-.4-.87-.78-.91-1.09a19,19,0,0,1,.21-2c.31-1.55.67-3.46,1.1-5.73a19.68,19.68,0,0,1,.34-2.41,3.71,3.71,0,0,1,.88-1.77.75.75,0,0,1,.7.45,3.4,3.4,0,0,0,.44.79l1.84-2.07a4.27,4.27,0,0,1,2.38-1.35,1.15,1.15,0,0,1,1.21.63A9.64,9.64,0,0,1,182.07,127Zm24.87,1.24c.07.65-.65,1.87-2.19,3.67s-2.55,2.72-3,2.77l-.78.16c-.42.08-.69.14-.81.15a2.57,2.57,0,0,1-2.1-.92,3.87,3.87,0,0,1-1.19-2.18,16.17,16.17,0,0,1,1-5.11c.76-2.64,1.41-4,1.92-4.06a1.84,1.84,0,0,1,1.84,1.09c-.09.26-.63,1.62-1.6,4a8.09,8.09,0,0,0-.77,3.81,3.84,3.84,0,0,0,.11.59,1.28,1.28,0,0,0,1.27.34,6.61,6.61,0,0,0,3.34-2.19,25.9,25.9,0,0,1,2.84-2.6s0,.07.11.16A.66.66,0,0,1,206.94,128.27Zm-.63-14a12.16,12.16,0,0,1-2,2.26,6.4,6.4,0,0,1-1.93,1.5,1.27,1.27,0,0,1-1.09-.48,1.94,1.94,0,0,1-.62-1.09.81.81,0,0,1,0-.31c.44-.32.87-.63,1.27-.94a8.76,8.76,0,0,1,2.46-1.24l1.17-.33c.2,0,.44.19.73.63Zm5.45,16.08a9.93,9.93,0,0,1,.11-2.83c.19-1.39.28-2.05.28-2q-1.41,1.9-2.25,3.18a21.57,21.57,0,0,0-2.09,3.8,1.69,1.69,0,0,0-.59.28,2.07,2.07,0,0,1-.58.28,1.14,1.14,0,0,1-.88-.42,2.12,2.12,0,0,1-.53-.61c0-.1.12-1.41.42-3.75s.56-4.18.79-5.53a1.09,1.09,0,0,1,.52-.67,2.1,2.1,0,0,1,.81-.35,1.29,1.29,0,0,1,.54.15,4.91,4.91,0,0,0,.57.25,6.07,6.07,0,0,1-.23,2.47,10.19,10.19,0,0,0-.42,2.32.31.31,0,0,0,.14.26,31,31,0,0,0,1.89-2.79,24.27,24.27,0,0,1,1.85-2.77,3.63,3.63,0,0,1,2.18-1.35c.49-.06.79.33.89,1.17a13.79,13.79,0,0,1-.61,4.37,14.3,14.3,0,0,0-.66,4.11c.15,1.23.7,1.79,1.63,1.68a12.91,12.91,0,0,0,3.17-2.09l.27.13a.21.21,0,0,1,.11.25,7.47,7.47,0,0,1-1.64,2.41,4.08,4.08,0,0,1-2.11,1.44C213.44,133.92,212.27,132.8,211.76,130.34Zm18.92-12c0,.21.1.38.15.54a1.31,1.31,0,0,1,.09.28,5.63,5.63,0,0,1-.56,1.8,12.68,12.68,0,0,0-.79,3.28c-.12,1.09-.21,2.18-.29,3.27-.55,6.17-1.57,9.68-3.09,12.72-2.24,4.45-4.44,6.38-9.6,7.2-1.4.22-4.37.33-6-1.09a6.85,6.85,0,0,1-2.61-3.93,9.74,9.74,0,0,1,.2-3.84,5.27,5.27,0,0,1,1.79-3.28l.13.73a8.1,8.1,0,0,0-.34,1.61,10.59,10.59,0,0,0-.19,2.81c.16,1.89.57,2.29,2.3,3.6,1.24.95,2.66.95,5,.66,3.27-.4,6.92-3.27,8.43-7.7a35,35,0,0,0,1.49-6.28c.22-1.92.42-2.74.61-4.65-2.81,3.22-5,5-6.55,5.23-2,.3-3.06-.25-3.27-1.69a7.78,7.78,0,0,1,.94-4.46,19.09,19.09,0,0,1,4-4.84q2.91-2.82,4.29-3.19a1.43,1.43,0,0,1,.41-.09,1.63,1.63,0,0,1,.79.1,2.25,2.25,0,0,0,.44.14,1.26,1.26,0,0,0,.47-.25,1,1,0,0,1,.5-.26C230.08,116.57,230.5,117.14,230.68,118.36Zm-2.91,2.27-1-.3q-1.47.21-4.3,3.27c-1.89,2-2.84,3.69-2.68,4.76a.55.55,0,0,0,.31.41.66.66,0,0,0,.54.12c1.11-.16,2.57-1.25,4.36-3.27S227.75,121.93,227.77,120.63Zm27.13-3.8a1.61,1.61,0,0,1-.72,1.1c-2.62,1-4.21,1.49-4.73,1.6a21.61,21.61,0,0,0-3.5,1.21c-.52,2.12-1.15,5.32-1.9,9.62-.78,4.46-1.4,7.64-1.86,9.71a.84.84,0,0,1-.72.73,1.52,1.52,0,0,1-1.3-.48,1.26,1.26,0,0,1-.44-.76q0,.09,1.83-7.38t1.66-8.91c0-.12-.37-.45-1.09-1a2.24,2.24,0,0,1-.79-1.21c-.06-.51.31-1,1.09-1.45.51-.22,1-.47,1.57-.72q1-3.57,2.91-10.73a16.71,16.71,0,0,1,1.39-3.89,7.24,7.24,0,0,1,1.27-1.54,3.37,3.37,0,0,1,1.7-1.09c.56-.06,1.09.31,1.63,1.09a3.86,3.86,0,0,1,.79,1.79,6.37,6.37,0,0,1-.29,2.56c-.32,1.09-.72,1.64-1.21,1.7a2.75,2.75,0,0,1-.84-.22,15.07,15.07,0,0,1,.08-2.3c-.08-.61-.26-.88-.56-.79s-.79,1-1.52,2.66a25.9,25.9,0,0,0-1.33,3.56q-.59,1.92-1.51,6.21c1-.19,2.29-.48,3.86-.86l2.23-.59h.89a11.85,11.85,0,0,0,1.19-.06s0,.07.11.15A.65.65,0,0,1,254.9,116.83Zm7.38,5.09a11.89,11.89,0,0,1-2,4.28c-1.23,1.7-2.42,2.63-3.59,2.77a2.73,2.73,0,0,1-2.77-1.54,7.54,7.54,0,0,1-1-3.2,9.45,9.45,0,0,1,1.09-4.45A20.13,20.13,0,0,1,256.1,116a7.36,7.36,0,0,1,1.94-1.79,4.55,4.55,0,0,1,1.47-.75c1.74-.27,2.75.83,3.06,3.27A17.39,17.39,0,0,1,262.28,121.92Zm-2.28.13a12.11,12.11,0,0,0,.59-4.89c-.08-.7-.24-1.09-.48-1.09a5.83,5.83,0,0,1-1.31,1.51c-.1,0-.17,0-.18-.12s-.09-.13-.23-.11c-.86.1-1.66,1.16-2.4,3.2a10.52,10.52,0,0,0-.86,3.71,4.39,4.39,0,0,0,.51,1.57,1.27,1.27,0,0,0,1.22.79c.61,0,1.29-.7,2-2.05a10.78,10.78,0,0,0,1.1-2.48Zm13.6-6.23a4,4,0,0,1-.16,1.58,2.17,2.17,0,0,1-.83,1.3,1.55,1.55,0,0,1-.56-.77l-.16-.77a2.22,2.22,0,0,1,0-.89,3.93,3.93,0,0,0,0-.84c-.06-.51-.32-.74-.75-.69-.72.09-1.6,1.09-2.61,3a21.06,21.06,0,0,0-2.1,6c0,.66-.07,1.33-.11,2a3,3,0,0,1-.63,1.78,4.27,4.27,0,0,1-1-.54c-.57-.41-.88-.77-.92-1.09a18.44,18.44,0,0,1,.22-2c.3-1.54.67-3.44,1.09-5.72a19.41,19.41,0,0,1,.34-2.41,4,4,0,0,1,.88-1.78.69.69,0,0,1,.69.45,3.14,3.14,0,0,0,.46.79c.59-.68,1.21-1.37,1.83-2.06a4.21,4.21,0,0,1,2.38-1.35,1.15,1.15,0,0,1,1.21.63A9.77,9.77,0,0,1,273.6,115.82Zm28.11,2.62c0,1-.77,2.18-2.27,3.53a7.59,7.59,0,0,1-3.57,2.19,1.93,1.93,0,0,1-.34,0,1,1,0,0,0-.34,0,2.65,2.65,0,0,1-1.62-.58,3.83,3.83,0,0,1-1.09-1,6.52,6.52,0,0,1-1-2.71,5.46,5.46,0,0,1,0-1l-2.83,3.2a6,6,0,0,1-3.44,2c-.39,0-.81-.25-1.27-.91a3.22,3.22,0,0,1-.71-1.46c-.18-1.44.74-3.58,2.77-6.39s3.7-4.3,5-4.45a.93.93,0,0,1,.9.32c.19.26.38.52.54.79.13-.38.26-.74.4-1.1.25-.66.52-1,.83-1.09a1.89,1.89,0,0,1,1.23.53c.19.25.21.8,0,1.66a9.71,9.71,0,0,0-.85,2,20.34,20.34,0,0,0-.47,2.81,11.79,11.79,0,0,0-.14,2,4.86,4.86,0,0,0,.78,2.18,2.08,2.08,0,0,0,2,1.09,5.31,5.31,0,0,0,2.49-1.36c.86-.72,1.7-1.43,2.54-2.12Zm-10.14-4.21a1.51,1.51,0,0,1-.52-.11,1.26,1.26,0,0,0-.57-.11c-.39,0-.93.46-1.61,1.22-.41.47-.83,1-1.23,1.46a10.27,10.27,0,0,0-1.43,2.26,6.33,6.33,0,0,0-.72,2.33.33.33,0,0,1,.23.13.44.44,0,0,0,.33.11c.37,0,1.27-.89,2.72-2.52a25.51,25.51,0,0,0,2.18-2.79,6.56,6.56,0,0,0,.59-2Zm29-3.18q.5,3.21-2.18,6.92c-1.78,2.49-3.64,3.93-5.63,4.37l-1.34.3a2.12,2.12,0,0,1-1.6-.62,2.53,2.53,0,0,1-1-1.4,6.17,6.17,0,0,1,.77-3.81,8,8,0,0,1,2.74-3.35c.3-.08.47,0,.54.3a1.31,1.31,0,0,1-.27,1.09,7.82,7.82,0,0,0-1.69,5.2.82.82,0,0,0,.7.27,1.17,1.17,0,0,0,.32-.09l.23-.12a6.84,6.84,0,0,0,2.09-.86,10.65,10.65,0,0,0,3.2-3.51,6.12,6.12,0,0,0,1.17-4.36,3.48,3.48,0,0,0-1.18-2.19,2.19,2.19,0,0,0-2.07-.4c-.75.19-1.64,1.09-2.69,2.66a9.68,9.68,0,0,1-1.84,2.43,1,1,0,0,1-1-.34,2,2,0,0,1-.53-.93,93.05,93.05,0,0,1,2.85-9.06q.42-1.76,1.49-5.46a14.94,14.94,0,0,1,.41-2.18l1.19-.63a1.75,1.75,0,0,1,1.27,1.18,2.31,2.31,0,0,1-.16,1.55,90,90,0,0,0-3.4,9.12,20,20,0,0,1,2.87-.81,3.16,3.16,0,0,1,3.14,1.42A6.8,6.8,0,0,1,320.6,111.05Zm11.9-3.76q.24,2-2.73,5.22c-2,2.15-3.84,3.41-5.6,3.73a2.75,2.75,0,0,0,1.4,1.82,2.79,2.79,0,0,0,1.78.41,9.3,9.3,0,0,0,2.94-1.2c1.48-.84,2.18-1.28,2.18-1.3a.9.9,0,0,1,.9.18,10,10,0,0,1-2.77,2.54,8.74,8.74,0,0,1-3.46,1.79,4.17,4.17,0,0,1-3.53-1.09,5.09,5.09,0,0,1-1.54-3q-.4-2.77,2.29-6.75t5.52-4.37a2.18,2.18,0,0,1,1.63.58A2.24,2.24,0,0,1,332.5,107.29Zm-2.27.81a.84.84,0,0,0-.52-.22,5.56,5.56,0,0,0-3.28,2.35,9.7,9.7,0,0,0-1.85,3.34,4.12,4.12,0,0,0,1.92-.76,21.13,21.13,0,0,0,1.73-1.54A7.56,7.56,0,0,0,330.23,108.1Zm15.24-3.63a.51.51,0,0,0,.06.27.41.41,0,0,1,.13.23,1,1,0,0,1-.33.64,28.48,28.48,0,0,0-4.89,2,14.73,14.73,0,0,0-2.38,1.67,4.71,4.71,0,0,1-.17,1.59,5.5,5.5,0,0,0-.19,1.61,3.25,3.25,0,0,0,.14.66,4.74,4.74,0,0,0,.16.65,15.58,15.58,0,0,1-.27,2.72c-.26,1.73-.58,2.62-1,2.67s-.89-.31-1.4-1.09a3.85,3.85,0,0,1-.68-1.48,25.27,25.27,0,0,1,.44-2.58c.19-.87.34-1.74.45-2.62a1.49,1.49,0,0,0-.32-.54,2.08,2.08,0,0,1-.34-.48,6.44,6.44,0,0,1-.54-1.78,2.13,2.13,0,0,1,.47-1c.32-.48.55-.74.68-.75a1.14,1.14,0,0,0,.33-.08l.31-.07c.24,0,.57-1.1,1.09-3,.23-1.09.46-2.07.67-3.1.47-1.56,1-3.85,1.69-6.85a1.45,1.45,0,0,1,.56-.71.8.8,0,0,0,.37-.33l.63-.08a3.81,3.81,0,0,0,.38.85,3.12,3.12,0,0,1,.43,1.17,17.63,17.63,0,0,1-1.29,5,49.21,49.21,0,0,0-1.86,6.09l.24.22a15.84,15.84,0,0,1,2.63-.76C343,105,344.28,104.74,345.47,104.47Zm9.24-1.14a.25.25,0,0,0,.07.28.47.47,0,0,1,.13.24,1,1,0,0,1-.34.64,27.81,27.81,0,0,0-4.83,2,14.73,14.73,0,0,0-2.38,1.67,4.8,4.8,0,0,1-.17,1.6,5.4,5.4,0,0,0-.19,1.6,3.66,3.66,0,0,0,.14.68,4.47,4.47,0,0,0,.16.63,15.58,15.58,0,0,1-.27,2.72c-.26,1.74-.59,2.63-1,2.67s-.89-.3-1.4-1.09a3.8,3.8,0,0,1-.68-1.47,25.46,25.46,0,0,1,.44-2.59c.19-.86.34-1.74.45-2.62a1.41,1.41,0,0,0-.32-.52,2.38,2.38,0,0,1-.34-.49,6.65,6.65,0,0,1-.54-1.78,2.1,2.1,0,0,1,.47-1c.32-.49.55-.74.68-.77a.88.88,0,0,0,.33-.07,1.08,1.08,0,0,1,.31-.07c.22,0,.57-1.09,1.09-3,.23-1.09.44-2.08.67-3.09.47-1.57,1-3.87,1.68-6.87a1.66,1.66,0,0,1,.57-.71.73.73,0,0,0,.37-.32l.63-.08a3.19,3.19,0,0,0,.38.84,3.16,3.16,0,0,1,.43,1.19,17.89,17.89,0,0,1-1.29,5,47.81,47.81,0,0,0-1.87,6.07l.24.22a14.91,14.91,0,0,1,2.63-.75C352.22,103.87,353.47,103.61,354.71,103.33Zm8.21.21c.16,1.32-.75,3.07-2.73,5.22s-3.84,3.39-5.6,3.73a2.73,2.73,0,0,0,1.4,1.81,2.86,2.86,0,0,0,1.78.42,9,9,0,0,0,2.93-1.22c1.48-.84,2.19-1.26,2.19-1.29a.92.92,0,0,1,.9.17,9.77,9.77,0,0,1-2.77,2.55,8.81,8.81,0,0,1-3.46,1.79,4.2,4.2,0,0,1-3.54-1.09,5,5,0,0,1-1.53-3c-.28-1.86.49-4.12,2.28-6.76s3.64-4.09,5.53-4.36a2.28,2.28,0,0,1,1.63.58A2.32,2.32,0,0,1,362.92,103.54Zm-2.28.81a.72.72,0,0,0-.51-.22,5.56,5.56,0,0,0-3.28,2.35,9.7,9.7,0,0,0-1.85,3.34,4.17,4.17,0,0,0,1.93-.77,21.09,21.09,0,0,0,1.73-1.54,7.46,7.46,0,0,0,2-3.13Zm13.6-.81a4.17,4.17,0,0,1-.16,1.57,2.24,2.24,0,0,1-.83,1.31,1.52,1.52,0,0,1-.56-.78l-.16-.76a2,2,0,0,1,0-.9,5.75,5.75,0,0,0,0-.83c-.07-.51-.32-.74-.76-.69-.72.09-1.59,1.09-2.61,3a21.1,21.1,0,0,0-2.09,6c0,.66-.08,1.33-.11,2a3,3,0,0,1-.67,1.82,4.3,4.3,0,0,1-1-.55c-.58-.4-.88-.76-.92-1.09a16.65,16.65,0,0,1,.22-2c.3-1.55.67-3.45,1.09-5.72a22,22,0,0,1,.34-2.42,4,4,0,0,1,.88-1.77.69.69,0,0,1,.69.45,3.2,3.2,0,0,0,.46.8l1.83-2.08a4.3,4.3,0,0,1,2.38-1.35,1.18,1.18,0,0,1,1.21.63A9.94,9.94,0,0,1,374.24,103.54Zm23.21-4.17c.05.33-.19.69-.72,1.09q-3.93,1.44-4.72,1.61a20.29,20.29,0,0,0-3.49,1.21q-.79,3.18-1.91,9.61c-.78,4.47-1.39,7.64-1.85,9.72a.87.87,0,0,1-.73.73,1.54,1.54,0,0,1-1.3-.48,1.51,1.51,0,0,1-.45-.77c0,.08.63-2.39,1.85-7.37s1.77-8,1.65-8.91c0-.12-.38-.45-1.1-1a2.31,2.31,0,0,1-.78-1.22c-.06-.51.3-1,1.09-1.44.51-.23,1-.47,1.57-.73q1-3.56,2.91-10.73a17.28,17.28,0,0,1,1.39-3.88,7.24,7.24,0,0,1,1.27-1.54,3.41,3.41,0,0,1,1.7-1.09c.56-.07,1.09.3,1.63,1.09a4,4,0,0,1,.75,1.78,6.67,6.67,0,0,1-.29,2.55c-.32,1.09-.72,1.65-1.2,1.7a2.53,2.53,0,0,1-.86-.21,17.49,17.49,0,0,1,.08-2.31c-.08-.61-.27-.87-.56-.78s-.78,1-1.51,2.66a26.92,26.92,0,0,0-1.34,3.57q-.57,1.9-1.5,6.2c1-.2,2.28-.48,3.86-.86l2.19-.59h2.07l.11.14A.67.67,0,0,1,397.45,99.37Zm14.64,7.06a8,8,0,0,1-1.65,2.19,5.28,5.28,0,0,1-2.93,1.7,3.31,3.31,0,0,1-2.84-1.09,4.9,4.9,0,0,1-1.49-3,4.82,4.82,0,0,1,0-.93l-2.36,3.28c-1,1.23-1.8,1.88-2.45,2-1.58.2-2.5-.71-2.74-2.71q-.15-1.2,1.21-5.67T399,97.49c.25,0,.54.24.88.72a3.15,3.15,0,0,1,.55,1.19s-.44,1.09-1.31,3.39a15.83,15.83,0,0,0-1.32,5.29.19.19,0,0,0,.09.2c1-.53,2.4-2.25,4.21-5.19.35-.49.85-1.33,1.54-2.52.22-.52.45-1.09.7-1.54a2.33,2.33,0,0,1,1.22-1.21l.85.81a1.19,1.19,0,0,1,.44.73,10.83,10.83,0,0,0-.81,2.49,14.1,14.1,0,0,0-.7,4.28,2.93,2.93,0,0,0,.53,1.35c.41.68.88,1,1.42.93a6,6,0,0,0,2.37-1.09,11.39,11.39,0,0,1,2.33-1.43Zm8.23-11.13a.27.27,0,0,0,.07.27.79.79,0,0,1,.14.23,1.06,1.06,0,0,1-.35.65,27.66,27.66,0,0,0-4.89,2,15.67,15.67,0,0,0-2.38,1.67,4.33,4.33,0,0,1-.16,1.6,5.09,5.09,0,0,0-.19,1.6,5.28,5.28,0,0,0,.13.67c.08.31.13.52.17.63a15.69,15.69,0,0,1-.27,2.73c-.26,1.73-.59,2.62-1,2.67s-.89-.3-1.41-1.09a4,4,0,0,1-.67-1.47c0-.12.13-1,.44-2.59a23.1,23.1,0,0,0,.44-2.62,1.2,1.2,0,0,0-.32-.53,1.89,1.89,0,0,1-.33-.5,6,6,0,0,1-.54-1.76,2,2,0,0,1,.46-1c.33-.48.56-.74.69-.75a1.16,1.16,0,0,0,.32-.08l.31-.07c.24,0,.59-1.09,1.09-3,.23-1.09.46-2.07.69-3.1.47-1.56,1-3.85,1.67-6.85a1.47,1.47,0,0,1,.57-.71.74.74,0,0,0,.37-.33l.62-.07a4.19,4.19,0,0,0,.39.83,3.34,3.34,0,0,1,.43,1.19,17.66,17.66,0,0,1-1.3,5,52.6,52.6,0,0,0-1.77,6.06l.24.21a17.44,17.44,0,0,1,2.63-.74C417.83,95.82,419.08,95.57,420.32,95.3Zm14,8.41a8,8,0,0,1-1.65,2.19,5.19,5.19,0,0,1-2.94,1.7,3.34,3.34,0,0,1-2.84-1.09,4.92,4.92,0,0,1-1.48-3,3.62,3.62,0,0,1,0-.93L423,105.91c-1,1.23-1.8,1.88-2.46,2-1.58.2-2.49-.71-2.74-2.7-.1-.79.32-2.69,1.22-5.68s1.65-4.68,2.11-4.68c.26,0,.56.24.88.72a3.1,3.1,0,0,1,.56,1.19s-.45,1.09-1.32,3.38a16.42,16.42,0,0,0-1.3,5.3.24.24,0,0,0,.1.19q1.49-.78,4.21-5.18.51-.73,1.53-2.52c.22-.53.46-1.1.7-1.54a2.31,2.31,0,0,1,1.23-1.21l.84.8a1.08,1.08,0,0,1,.45.73,10.59,10.59,0,0,0-.81,2.5,14.16,14.16,0,0,0-.7,4.28,3.19,3.19,0,0,0,.52,1.36c.41.68.89,1,1.43.92a5.83,5.83,0,0,0,2.37-1.09,11.69,11.69,0,0,1,2.28-1.37Zm7.26-8.42a4,4,0,0,1-.15,1.57,2.21,2.21,0,0,1-.84,1.31,1.54,1.54,0,0,1-.56-.79l-.16-.75a2,2,0,0,1,0-.91,5.61,5.61,0,0,0,0-.82c-.06-.51-.31-.74-.76-.69-.72.08-1.58,1.09-2.6,3a21.41,21.41,0,0,0-2.09,6c0,.66-.08,1.33-.11,2a3.05,3.05,0,0,1-.67,1.81,4,4,0,0,1-1-.54c-.57-.41-.87-.77-.91-1.09a16.63,16.63,0,0,1,.21-2c.32-1.55.67-3.46,1.09-5.72a22,22,0,0,1,.35-2.42,3.78,3.78,0,0,1,.87-1.77.69.69,0,0,1,.7.45,3.34,3.34,0,0,0,.45.8l1.83-2.08a4.33,4.33,0,0,1,2.39-1.35,1.2,1.2,0,0,1,1.22.63A10.43,10.43,0,0,1,441.54,95.29Zm10.56-2.66c.17,1.32-.74,3.06-2.71,5.21s-3.84,3.4-5.6,3.74a2.78,2.78,0,0,0,1.38,1.81,2.83,2.83,0,0,0,1.79.41,9.14,9.14,0,0,0,2.94-1.21c1.47-.84,2.18-1.27,2.18-1.3a.93.93,0,0,1,.92.18,9.91,9.91,0,0,1-2.77,2.55,9.08,9.08,0,0,1-3.46,1.79,4.22,4.22,0,0,1-3.54-1.09,5.08,5.08,0,0,1-1.55-3c-.27-1.85.5-4.1,2.29-6.75s3.64-4.11,5.53-4.37A2.73,2.73,0,0,1,452.1,92.63Zm-2.27.8a.71.71,0,0,0-.52-.22A5.58,5.58,0,0,0,446,95.56a10,10,0,0,0-1.86,3.34,4.11,4.11,0,0,0,1.93-.76c.28-.21.87-.72,1.74-1.54a7.61,7.61,0,0,0,2-3.15ZM185.22,133.89c0,.67-.08,1.36-.11,2a3,3,0,0,1-.67,1.81,4.27,4.27,0,0,1-1-.54c-.58-.4-.88-.76-.92-1.09a14.79,14.79,0,0,1,.23-2c.14-1.09,1-5.87,2.18-10.66,1-4,1.68-6.56,2.1-7.81.16-.77.31-1.54.46-2.31.42-1.5,1-2.25,1.63-2.26s1.09.48,1.09,1.5c-.84,2.57-1.55,4.86-2.18,6.84-1.41,4.7-2.09,7.49-2.06,8.33a1,1,0,0,0,0,.38l3.18-4.64c2.13-2.88,3.56-4.37,4.29-4.37a1.46,1.46,0,0,1,.61.42c.3.27.45.46.46.54-.08.3-.2.71-.34,1.25a6.47,6.47,0,0,1-1,1.09l-1.16,1a16.77,16.77,0,0,0-2.76,4,10.9,10.9,0,0,0-1.43,5.1,3.47,3.47,0,0,0,1.09,2.73,3,3,0,0,0,2.11.76c1.09,0,3-1.16,5.67-3.42h.54a1.78,1.78,0,0,1,.13.47c-2.19,3.34-4.37,5-6.55,5.06a5.23,5.23,0,0,1-4.56-2.57,5.4,5.4,0,0,1-.28-1.44c-.13-.64-.23-1-.29-1S185.3,133.2,185.22,133.89ZM379.91,63.38c13.84-13.84,40.23,3.28,36.24-.75-9.18-9.17-20.8-13.57-30.49-12.47a20.38,20.38,0,0,0-12.41,5.7,20.13,20.13,0,0,0-3.75,5.31c-4.53,9.1-2.42,22.4,9.15,34C382.63,99.17,366.11,77.21,379.91,63.38ZM415,37.25c-2.44,1.35-13.95,6.9-39.3-2-28.76-10.08-38.29-2.19-40.6.83-.18.26,0,.5.28.25,2.75-2,12.78-6.38,42.83,6.34,26.71,11.3,35.8-2.61,37.11-5.27C415.46,37.1,415.31,37.06,415,37.25ZM367.42,60.13a19,19,0,0,1,4.14-6,21.84,21.84,0,0,1,13.83-6.28c.21,0,.16-.12,0-.14a55.08,55.08,0,0,1-8.26-2.91c-3-1.21-5.33-2.18-6.55-2.59a.5.5,0,0,0-.59.2,20.22,20.22,0,0,0-3.75,11.44,21,21,0,0,0,1,6.24C367.3,60.27,367.36,60.23,367.42,60.13ZM388,36a9.77,9.77,0,0,0,8-4.11c4.79.72,7.18-1,8-1.8.46-.54.45-.69.26-1.09a15,15,0,0,0-2-2.62,9.47,9.47,0,0,0,5.28-5.78c.73-1.91.74-2.65.49-3.28s-.73-.51-1.55,0c-3.28,2.29-5.18,2.59-8,1.83-1.09-3.49-5.15-5.65-9.45-6.82-4-1.09-8.24-1.37-10.76.7-2.79-.95-4.19-2.18-5.69-6-.39-.87-.56-1.3-1.28-.85s-1,1-1.42,3A9.42,9.42,0,0,0,371,16.93,16.34,16.34,0,0,0,367.86,18c-.4.29-.49.4-.4,1.09.2,1.1,1.26,3.87,5.63,5.92a10,10,0,0,0,3.62,7.24A18.81,18.81,0,0,0,388,36Z" fill="#bcbe00"/></svg>