<svg width="16" height="16" viewBox="0 0 16 16" fill="none" xmlns="http://www.w3.org/2000/svg">
<path d="M7.53125 7.53125L7.56371 7.51542C7.66522 7.4647 7.77915 7.44414 7.89199 7.45617C8.00482 7.46819 8.11185 7.5123 8.2004 7.58327C8.28895 7.65424 8.3553 7.7491 8.39161 7.85661C8.42791 7.96413 8.43265 8.07979 8.40525 8.18992L7.84475 10.4351C7.81716 10.5453 7.82174 10.661 7.85796 10.7687C7.89419 10.8763 7.96052 10.9713 8.04911 11.0424C8.13769 11.1135 8.24481 11.1577 8.35775 11.1697C8.47068 11.1818 8.58471 11.1612 8.68629 11.1104L8.71875 11.0938M15.25 8.125C15.25 9.06067 15.0657 9.98717 14.7076 10.8516C14.3496 11.7161 13.8248 12.5015 13.1631 13.1631C12.5015 13.8248 11.7161 14.3496 10.8516 14.7076C9.98717 15.0657 9.06067 15.25 8.125 15.25C7.18933 15.25 6.26283 15.0657 5.39838 14.7076C4.53394 14.3496 3.74848 13.8248 3.08686 13.1631C2.42525 12.5015 1.90042 11.7161 1.54236 10.8516C1.18429 9.98717 1 9.06067 1 8.125C1 6.23533 1.75067 4.42306 3.08686 3.08686C4.42306 1.75067 6.23533 1 8.125 1C10.0147 1 11.8269 1.75067 13.1631 3.08686C14.4993 4.42306 15.25 6.23533 15.25 8.125ZM8.125 5.15625H8.13133V5.16258H8.125V5.15625Z" stroke="#EC944A" stroke-width="1.5" stroke-linecap="round" stroke-linejoin="round"/>
</svg>
