<?xml version="1.0" encoding="utf-8"?>
<!-- Generator: Adobe Illustrator 26.0.0, SVG Export Plug-In . SVG Version: 6.00 Build 0)  -->
<svg version="1.1" id="Layer_1" xmlns="http://www.w3.org/2000/svg" xmlns:xlink="http://www.w3.org/1999/xlink" x="0px" y="0px"
	 viewBox="0 0 2628 1444" style="enable-background:new 0 0 2628 1444;" xml:space="preserve">
<style type="text/css">
	.st0{clip-path:url(#SVGID_00000133510852725538023990000015284106062722234792_);}
	.st1{clip-path:url(#SVGID_00000113348322314271799840000007939150924108575624_);}
	.st2{clip-path:url(#SVGID_00000072281239007012348450000013979576602765165470_);fill:#FFFFFF;}
	.st3{clip-path:url(#SVGID_00000072281239007012348450000013979576602765165470_);}
</style>
<g>
	<defs>
		<rect id="SVGID_1_" x="150" y="245.6" width="2324.4" height="884.4"/>
	</defs>
	<clipPath id="SVGID_00000152966645837768436300000000814250560176854403_">
		<use xlink:href="#SVGID_1_"  style="overflow:visible;"/>
	</clipPath>
	<g style="clip-path:url(#SVGID_00000152966645837768436300000000814250560176854403_);">
		<defs>
			<rect id="SVGID_00000021119873129434782730000009570358515756061594_" x="147.5" y="423.3" width="2331.7" height="529.8"/>
		</defs>
		<clipPath id="SVGID_00000084497491104445605770000012529206954633872021_">
			<use xlink:href="#SVGID_00000021119873129434782730000009570358515756061594_"  style="overflow:visible;"/>
		</clipPath>
		<g style="clip-path:url(#SVGID_00000084497491104445605770000012529206954633872021_);">
			<defs>
				<rect id="SVGID_00000114796582424215808700000005295093209635137689_" x="147.5" y="423.3" width="2331.7" height="529.8"/>
			</defs>
			<clipPath id="SVGID_00000151513916536763560350000008219512353009559463_">
				<use xlink:href="#SVGID_00000114796582424215808700000005295093209635137689_"  style="overflow:visible;"/>
			</clipPath>
			<path style="clip-path:url(#SVGID_00000151513916536763560350000008219512353009559463_);fill:#FFFFFF;" d="M1191.6,423.3
				c0.6,0.4,1.2,1,1.9,1.1c3.4,0.4,6.9,0.6,10.4,1c5.4,0.7,10.8,1.7,16.2,2.5c3.8,0.6,7.6,1.2,11.3,2c3.7,0.8,7.5,1.8,11.1,2.9
				c7.1,2.2,14.1,4.5,21.1,6.9c3.6,1.2,7.3,2.5,10.8,4.1c7.9,3.6,15.8,7.2,23.3,11.3c7.8,4.3,15.3,9,22.7,14
				c6.5,4.4,12.5,9.5,18.9,14.2c11,8.2,20.4,18.2,29.7,28.2c6.8,7.3,13.3,15.1,18.7,23.7c3.7,6,7.9,11.6,11.4,17.7
				c5.3,9.2,10.4,18.6,15.1,28.2c3.3,6.8,5.7,14,8.3,21.1c2.2,5.8,4.3,11.6,6.1,17.5c1.2,4.1,2,8.3,2.9,12.4
				c0.9,3.7,1.7,7.4,2.5,11.1c0.4,1.8,0.6,3.6,0.9,5.4c0.4,2.7,0.7,5.4,1.1,8.1c0.6,4.6,1.2,9.2,1.7,13.8c0.1,0.8,0.1,1.7,0.1,2.5
				c0,12.2,0,24.5,0,36.7c0,2,0,3.2,2.6,3.4c4.2,0.2,8.3,1,12.5,1.7c3.3,0.5,6.6,1.1,10,1.7c2.2,0.4,4.5,0.7,6.8,1
				c3.3,0.4,6.6,0.5,9.8,0.9c3.1,0.4,6.3,1.1,9.4,1.6c0.6,0.1,1.3,0.1,1.9,0.2c4,0.6,7.9,1.2,11.9,1.7c2.4,0.3,4.9,0.6,7.3,0.9
				c3.3,0.4,6.6,0.6,9.8,1c3.2,0.4,6.3,1,9.4,1.5c0.5,0.1,0.9,0.2,1.4,0.2c5.6,0.6,11.3,1.2,16.9,1.9c3.2,0.4,6.4,1.1,9.7,1.7
				c2.8,0.5,3.3,0,3.3-3.1c0-47.3,0-94.6,0-141.9c0-0.7-0.2-1.6,0.1-2.2c0.2-0.6,0.8-1.3,1.4-1.5c0.7-0.3,1.6-0.1,2.5-0.1
				c34.7,0,69.4,0.1,104.1-0.1c4.3,0,8.5,1,12.4,2.3c6.1,2,12.3,4.5,17.9,7.7c5.4,3.1,10.9,6,15.3,10.7c4.9,5.2,9.3,10.7,12.2,17.2
				c2,4.4,3.6,9,5.3,13.5c0.2,0.7-0.1,1.6,0.2,2.2c0.5,1.2,1,2.7,2,3.3c4.6,2.8,9.4,5.4,14.1,8.1c7.1,4.1,14.1,8.3,21.1,12.4
				c4.2,2.4,8.5,4.8,12.7,7.2c8.4,4.8,16.9,9.7,25.3,14.5c8.8,5,17.6,9.9,26.4,14.9c1.9,1.1,3.8,2.2,5.7,3.3c0.4,0.2,1,0.2,1.5,0.3
				c0-0.5,0.2-1.1,0.1-1.6c-2-7.1-4.1-14.1-6-21.2c-2.1-7.7-4.2-15.4-6.2-23.1c-2.1-7.8-4.2-15.6-6.2-23.4c-0.1-0.5,0.3-1.4,0.8-1.9
				c4.5-5.1,9-10.2,13.5-15.3c3.7-4.2,7.3-8.5,10.9-12.8c2.5-3,5.4-5.9,7.3-9.3c1.2-2.2,3.1-3.4,4.5-5.2c1.2-1.5,2.5-1.4,4-0.1
				c5,4.5,10,8.9,15.1,13.3c4.5,3.9,9,7.9,13.6,11.7c3.1,2.7,6.5,5.1,9.6,7.9c2.7,2.4,3.5,2.7,1.9,6.3c-0.1,0.2-0.1,0.5-0.1,0.8
				c-0.3,4.7-0.6,9.4-1,14c-0.4,4.2-1.1,8.3-1.6,12.5c0,0.4-0.1,0.7-0.1,1.1c-0.3,4.4-0.5,8.8-1,13.2c-0.4,4-1.1,7.9-1.7,11.9
				c-0.1,1-0.1,2-0.1,3.1c0,21.7,0,43.4,0,65.1c0,1.5,0.1,2.6,1.8,3.6c5.4,3.3,10.6,6.9,15.8,10.4c6.1,4.1,12,8.4,18.1,12.4
				c1.5,1,3.4,1.7,5,1.7c6.1-0.1,12.1-0.5,18.2-0.8c3.5-0.2,6.9-0.6,10.4-0.9c4-0.3,8-0.6,12.1-0.9c3.8-0.3,7.7-0.6,11.5-0.9
				c3.9-0.3,7.8-0.6,11.8-0.9c3.9-0.3,7.9-0.6,11.8-0.9c3.8-0.3,7.7-0.5,11.5-0.9c1.6-0.2,3.4-0.3,4.8-1.1c0.9-0.5,1.2-2.1,1.6-3.3
				c1.9-4.9,3.7-9.9,5.6-14.8c1.4-3.8,2.9-7.7,4.3-11.5c1.7-4.6,3.5-9.2,5.2-13.8c2.2-5.9,4.4-11.8,6.6-17.7
				c2.2-5.7,4.4-11.4,6.6-17.1c2-5.4,3.9-10.7,6-16.1c1.7-4.5,3.6-9,5.3-13.5c2.2-5.8,4.3-11.6,6.5-17.4c1.7-4.3,3.5-8.6,5.1-12.9
				c2.3-5.9,4.4-11.9,6.6-17.9c1.9-5.1,3.9-10.2,5.9-15.3c2-5.2,6.6-8.2,10.3-11.8c1.3-1.3,3.5,0.1,4.9,1.1c2.7,2.2,5.3,4.6,7.9,6.9
				c0.5,0.5,0.8,1.2,1.1,1.9c2,5.3,4,10.5,6,15.8c1.6,4.3,3.1,8.5,4.7,12.8c1.7,4.5,3.4,9,5.1,13.5c1.7,4.6,3.4,9.2,5.1,13.8
				c2.3,6.4,4.5,12.8,6.9,19.2c2.5,6.6,5.2,13.2,7.7,19.9c1.7,4.6,3.1,9.3,4.9,13.9c2,5.2,3.8,10.4,8.2,14.6
				c5.1,5,9.3,10.9,13.9,16.3c1.9,2.3,3.9,4.6,5.9,6.9c2.9,3.2,5.9,6.4,8.7,9.6c4.5,5.3,8.9,10.7,13.4,16c2.6,3.1,4.9,6.4,7.8,9.2
				c1.5,1.4,3.9,1.8,6,2.4c7.4,2.4,14.8,4.7,22.2,7.1c6.6,2.1,13.2,4.2,19.8,6.3c5.9,1.9,11.8,3.7,17.8,5.6c2.6,0.8,2.6,0.8,2.6-2.1
				c0-0.3,0-0.6,0-0.8c0-67,0-133.9,0-200.9c0-2.7,0.7-4.9,2.6-6.7c0.5-0.5,0.8-1.2,1.2-1.8c2.5-4.1,6.9-4,9.6-0.1
				c1.9,2.7,3.8,5.4,6,8c5.1,5.9,11.7,9.8,17.6,14.7c4.9,4.1,9.9,8.2,14.9,12.2c4.8,3.8,9.8,7.4,14.6,11.2c3.4,2.6,6.8,5.3,10,8.2
				c1.1,0.9,1.8,1,2.9,0.4c5.7-2.8,11.4-5.5,17.2-8.2c8.7-4.1,17.3-8.1,26-12.1c8.3-3.8,16.5-7.6,24.8-11.4
				c9.2-4.3,18.3-8.6,27.5-12.8c2.7-1.2,5.2-2.2,5.6-5.6c0.1-0.5,0.8-0.9,1.3-1.4c1.4-1.7,2.8-3.3,4.2-5.1c1-1.3,2-1.3,2.9,0
				c1.4,2.1,2.8,4.3,4.1,6.5v261.5c-2.6,5-7.3,5.3-10.4,0.9c-0.7-1-2-1.9-3-2c-5.4-0.5-10.8-0.7-16.2-1c-0.6,0-1.3,0-1.9-0.1
				c-5.7-0.5-11.5-1.3-17.2-1.6c-7.5-0.5-15.1-0.7-22.7-1c-0.2,0-0.4,0-0.6,0c-5.7-0.6-11.5-1.2-17.2-1.7c-4.1-0.4-8.2-0.6-12.4-0.9
				c-4.8-0.3-9.6-0.6-14.3-0.9c-4.3-0.3-8.6-0.7-12.9-0.9c-4.8-0.3-9.6-0.5-14.3-0.8c-4.2-0.3-8.4-0.7-12.7-0.9
				c-6.3-0.4-12.7-0.7-19-0.9c-3.8-0.1-3.8,0-3.8,3.7c0,3.2,0.5,6.4-1.8,9.2c-2.4,2.8-4.4,5.4-8.1,1c-0.7-0.8-1.6-1.7-2.5-2.1
				c-1.5-0.7-1.9-1.8-1.9-3.3c0.1-5.4,0-10.8,0-16.1c0-7.8,0-15.6,0-23.4c0-2.5-0.2-2.6-2.5-1.6c-4.7,2.2-9.3,4.3-14,6.5
				c-4.1,1.9-8.2,3.8-12.2,5.7c-6.4,3-12.8,6.1-19.2,9.2c-3.8,1.9-7.6,3.8-11.4,5.7c-4.7,2.3-9.5,4.4-14.2,6.7
				c-1.4,0.7-1.8,1.8-1,3.3c0.4,0.6,0.7,1.3,1,2c1.2,2.4,1.5,4.7,0.4,7.3c-0.8,2-2.5,1.5-4,1.9c-0.4,0.1-0.8,0.5-1.1,0.8
				c-1.2,1.1-2.2,1-3.4-0.1c-1.8-1.6-3.6-3.3-5.6-4.4c-1.8-1-2.5-2.4-2.9-4.1c-1.1-3.9-2.6-5-6.7-5.1c-14.1-0.4-28.3-0.2-42.4-0.5
				c-20.6-0.6-41.3-1.2-61.9,0.5c-9.3,0.7-18.6-0.5-27.9,0.9c-4.9,0.7-10,0.1-15,0.2c-6.7,0.2-13.4,0.5-20.2,0.9
				c-0.9,0.1-2.4,1.1-2.5,1.9c-1,5.5-5.8,7.5-9.5,10.4c-0.4,0.3-1.5,0.2-2.1-0.1c-3.3-1.9-4.6-5.7-7.2-8.3c-0.3-0.3,0.1-1.5,0.4-2.3
				c1.3-3.3,2.6-6.6,3.9-9.9c2.2-5.8,4.3-11.6,6.5-17.4c1.7-4.4,3.5-8.8,5.2-13.2c2.2-5.7,4.3-11.4,6.4-17.1c1.5-4,3-8,4.5-12
				c0.2-0.6,0.2-1.4,0.3-2.1c-0.7,0.2-1.4,0.3-2,0.6c-6.8,3.5-13.5,7.1-20.3,10.6c-8.3,4.3-16.7,8.6-25,12.9
				c-8.8,4.5-17.5,9-26.3,13.6c-8,4.2-15.9,8.6-24,12.5c-9.4,4.5-18.2,10.1-28.2,13.3c-10.3,3.3-20.5,6.8-30.7,10.4
				c-2.7,0.9-5.2,1.8-7.1,4.6c-2.8,4.3-3.3,4.1-7,0.4c-0.8-0.8-1.5-1.6-2.4-2.3c-0.5-0.4-1-0.8-1.6-0.9c-6.1-1.9-12.2-3.7-18.4-5.4
				c-1.5-0.4-1.5-1.3-1-2.3c0.7-1.3,1.6-2.5,2.4-3.7c4.1-6.4,8-12.9,12.2-19.2c2.7-4,5.1-8,4.1-13.2c-0.1-0.7-0.1-1.5,0-2.2
				c0.8-4.6-1.6-7.9-4.3-11.2c-2.3-2.8-4.4-5.8-6.6-8.8c-1.9-2.6-3.7-5.2-5.6-7.8c-2.9-4.1-5.9-8.1-8.9-12.2
				c-1.1-1.5-1.9-3.4-3.3-4.3c-1.8-1.1-4.1-1.5-6.2-1.7c-4.7-0.5-9.5-0.7-14.3-1c-0.2,0-0.4,0-0.6-0.1c-4.1-0.6-8.1-1.3-12.2-1.7
				c-4.7-0.5-9.5-0.7-14.3-1c-0.2,0-0.4,0-0.6-0.1c-4.2-0.6-8.3-1.3-12.5-1.7c-4.7-0.5-9.3-0.7-14-1c-0.2,0-0.4,0-0.6-0.1
				c-4-0.6-7.9-1.3-11.9-1.7c-4.8-0.5-9.5-0.6-14.3-0.9c-0.2,0-0.4,0-0.6,0c-5.5-0.6-11.1-1.2-16.6-1.8c-0.9-0.1-1.8-0.3-2.7-0.5
				c-2.2-0.7-4.2-0.7-5.7,1.4c-2.3,3-4.5,6-6.8,9c-1.9,2.6-3.8,5.4-5.7,8c-2.3,3.2-4.8,6.2-7,9.5c-2.1,3.2-4.6,5.8-7.9,7.8
				c-7,4.2-13.9,8.5-20.7,13c-11.3,7.5-22.5,15.2-33.7,22.7c-11.6,7.8-23.3,15.6-35,23.2c-1.9,1.2-2.9,2.3-2.7,4.6
				c0.1,0.7-0.6,1.5-1.1,2.1c-1.8,2-4.5,2.8-6.1,5.1c-0.7,0.9-1.8,0.7-2.7-0.6c-1-1.5-2.3-3.4-3.8-3.9c-2.8-0.9-4.4-3-6.2-4.8
				c-2.5-2.5-4.7-5.4-7.2-8c-6.3-6.7-12.8-13.4-19.1-20c-6.3-6.5-12.5-13.1-18.8-19.6c-6.5-6.8-13-13.6-19.5-20.5
				c-6.1-6.4-12.2-12.8-18.3-19.3c-6.4-6.7-12.7-13.4-19.1-20c-5.8-6.1-11.7-12.1-17.6-18.1c-0.2-0.2-0.5-0.4-0.6-0.3
				c-0.2,0.1-0.3,0.4-0.4,0.7c-0.6,5.1-1.1,10.1-1.8,15.2c-0.5,4.1-1.2,8.3-1.8,12.4c-0.3,1.8-0.7,3.6-1.2,5.3
				c-0.7,2.9-1.6,5.8-2.3,8.6c-1.3,5-2.6,10-4.1,14.9c-0.8,2.8-2,5.5-3.1,8.2c-2.8,7.2-5.4,14.6-8.7,21.5c-3.6,7.6-7.8,15-12.1,22.2
				c-4.1,6.9-8.5,13.6-13.2,20.2c-4.6,6.6-9.4,13.1-14.7,19.1c-4.9,5.7-10.5,10.8-15.9,16c-4.1,4-8.3,7.8-12.6,11.7
				c-2.2,2-4.5,4.1-6.9,5.9c-5.9,4.3-11.8,8.6-18,12.6c-7.2,4.6-14.4,9.1-21.9,13.1c-7.9,4.2-16.1,7.8-24.2,11.4
				c-4.4,1.9-9.1,3.4-13.6,5c-1.5,0.6-3.1,1.2-4.6,1.6c-4.9,1.4-9.8,2.7-14.8,4c-4.5,1.1-9,2.3-13.5,3.2c-4.2,0.8-8.5,1.4-12.7,1.9
				c-4.9,0.6-9.8,1.1-14.7,1.8c-0.9,0.1-1.7,0.7-2.5,1.1h-43.4c-0.6-0.4-1.2-1-1.9-1.1c-6.1-0.7-12.2-0.9-18.3-1.9
				c-6.8-1.1-13.5-2.8-20.3-4.4c-6.2-1.4-12.5-2.7-18.5-4.6c-8.1-2.6-16.1-5.4-23.9-8.6c-8.3-3.4-16.6-7.1-24.5-11.3
				c-8.2-4.4-16.2-9.4-23.9-14.6c-6.5-4.4-12.6-9.5-18.9-14.2c-9.3-6.9-17.2-15.4-25.3-23.6c-4.9-5.1-9.7-10.3-14.1-15.9
				c-5.7-7.3-11.1-15-16.3-22.7c-2.7-3.9-4.8-8.2-7.1-12.4c-3.4-6.3-7-12.5-9.9-19.1c-3.5-7.9-6.5-16-9.6-24.1
				c-1.5-3.9-2.8-7.9-3.9-11.9c-1.2-4.1-2.2-8.2-3.3-12.3c-0.9-3.3-1.8-6.6-2.5-10c-0.5-2.1-0.7-4.3-1-6.5
				c-0.6-5.1-1.2-10.1-1.8-15.2c-0.3-2.7-0.3-5.5-1-8.1c-1.2-4.7-0.7-9.3-0.9-14c0-0.4-0.3-0.8-0.5-1.2c-0.4,0.2-0.8,0.4-1.1,0.7
				c-4.5,3.3-9,6.6-13.4,10c-1.5,1.2-3,2.4-4.5,3.6c-3.4,2.8-6.8,5.6-10.2,8.3c-3.8,3-5.7,7.4-8.1,11.4c-4.2,6.9-8.2,13.8-12.3,20.8
				c-2.4,4.1-4.7,8.3-7.1,12.4c-3.9,6.7-7.9,13.4-11.9,20.1c-0.9,1.6-2.2,3-2.7,4.7c-1,3-3.3,4.2-5.8,5.5
				c-7.9,4.3-15.8,8.7-23.6,13.1c-6.9,3.9-13.7,7.8-20.6,11.7c-6.2,3.5-12.4,7.1-18.6,10.8c-0.6,0.4-1,1.4-1.1,2.2
				c-0.1,3.6-0.2,7.2,0,10.8c0.2,3.2-1.3,5.4-3.6,7.1c-1.8,1.3-4,2.1-6,3.2c-0.3,0.2-0.8,0.3-1.1,0.1c-2.2-1.4-4.9-2.5-6.3-4.5
				c-1.3-1.8-1.7-4.6-1.9-7c-0.3-3.4-0.1-6.9,0-10.3c0-1.7-0.4-2.7-2-3.5c-8.5-4-16.9-8.2-25.4-12.3c-5-2.4-10-4.7-15-7
				c-4.3-2-8.7-4.1-13-6c-0.6-0.2-1.4-0.2-2,0c-7.1,2.9-14.2,6-21.3,8.8c-9,3.6-18.1,6.9-27.1,10.4c-5.3,2.1-10.5,4.4-15.7,6.5
				c-5.2,2.1-10.3,4.2-15.6,6c-4.5,1.6-5,2.6-3.3,6.8c0.6,1.4,1.8,3.3,1.3,4.2c-1,2.2-2.9,3.9-4.6,5.8c-0.6,0.7-1.4,1.2-2.3,1.5
				c-0.8,0.3-1.9,0.5-2.5,0.1c-3.3-1.8-6-4.1-6.6-8.2c-0.2-1.4-1.1-2.7-1.8-4c-0.2-0.4-0.6-0.7-1-0.8c-2.4-0.4-4.9-0.9-7.3-1
				c-24.8-0.4-49.6-0.6-74.4-0.9c-2.4,0-4.8,0-7.2,0c-15,0.3-30,0-44.9,1.1c-9.3,0.7-18.4,0.2-27.7,0.7c-4.9,0.3-9.7,0.5-14.6,1
				c-0.8,0.1-2.1,1.1-2.3,1.9c-0.9,4.4-3,7.8-7.1,9.9c-0.8,0.4-2.2,0.7-2.7,0.3c-2-1.7-3.8-3.6-5.5-5.6c-1.9-2.3-0.3-4.5,0.4-6.6
				c2.5-6.8,5-13.6,7.6-20.5c2-5.2,4-10.4,5.9-15.6c2.1-5.7,4.2-11.4,6.3-17.1c0.1-0.4,0.1-0.9,0.2-1.3c-0.5,0-1.1-0.2-1.5,0
				c-7.9,3-15.8,6.2-23.8,9.2c-6.2,2.3-12.6,4.4-18.8,6.7c-6.7,2.5-13.3,5.2-20,7.7c-6.2,2.3-12.6,4.4-18.8,6.8
				c-5.7,2.1-11.4,4.5-17.1,6.7c-4.4,1.7-9,3.1-13.4,4.9c-2.7,1.2-5.3,2.8-7.7,4.5c-6.8,4.7-14,8.8-21.5,12.3
				c-5,2.3-10,4.5-15.3,6.2c-3.5,1.1-7,2.4-10.9,2.3c-32-0.2-64-0.1-96-0.1c-3.4,0-3.4,0-3.4-3.5c0-88.2,0-176.4,0-264.6
				c0-3.3,0-3.3,3.3-3.3c33.4,0,66.8-0.1,100.2,0.1c4.1,0,8.4,1.7,12.4,3c5.9,2,11.7,4.3,17.3,6.9c3.9,1.8,7.6,4.2,10.9,6.9
				c6.4,5.4,12.8,10.9,18.6,16.9c4,4.1,7.5,8.8,10.7,13.5c3,4.4,5.6,9.1,7.8,13.9c2.8,6.1,5.6,12.2,7,18.9c0.9,4.5,2.4,8.9,3.4,13.4
				c0.6,2.8,0.8,5.8,1,8.7c1.8,19.1,0.6,38.3,0.8,57.4c0,4.4-1,8.8-1.6,13.2c-0.3,2.1-0.5,4.2-1,6.2c-1,4.7-2.1,9.3-3.3,14
				c-0.5,1.9-0.3,2.5,1.9,2.5c5.2,0,10.5,0.6,15.6-0.1c12.7-1.6,25.4,0.2,37.9-0.9c9.3-0.9,18.6-0.4,28-0.7c1.3,0,1.7-0.5,2.2-1.8
				c2.4-6.8,5.2-13.4,7.7-20.1c2.6-7.1,5-14.3,7.6-21.3c2.1-5.7,4.4-11.4,6.6-17.1c1.7-4.4,3.3-8.9,4.9-13.3
				c1.7-4.7,3.5-9.4,5.2-14.1c2.3-6.3,4.4-12.7,6.8-19c2.1-5.7,4.6-11.3,6.7-17c1.8-4.7,3.2-9.5,4.9-14.2c1.5-4.2,3.2-8.3,4.8-12.5
				c2.4-6.5,4.6-13,7.1-19.5c2.5-6.6,5.3-13,7.5-19.7c0.9-2.8,2.2-4.9,4.3-6.8c2.9-2.7,7.5-2.7,10.5-0.1c1.1,1,2.3,1.8,3.4,2.7
				c0.4,0.3,0.9,0.7,1.1,1.2c1.9,5.4,3.6,10.8,5.6,16.2c2,5.6,4.3,11.2,6.4,16.8c2.1,5.4,4.1,10.9,6.2,16.3
				c2.1,5.5,4.2,11.1,6.3,16.6c2.1,5.7,4.3,11.4,6.4,17.1c2,5.4,4.1,10.7,6.2,16.1c2.2,5.8,4.3,11.6,6.5,17.4
				c1.6,4.3,3.4,8.6,5.1,12.9c1.6,4.3,3.2,8.7,4.8,13c1.6,4.3,3.3,8.5,4.9,12.8c2.7,7.1,5.2,14.2,7.9,21.2
				c2.8,7.2,5.7,14.4,8.6,21.6c0.8,2,1.4,4.1,2.1,6.2c0.5,1.4,1.3,1.5,2.6,0.8c6.1-3.1,12.2-6.1,18.3-9.2c5.7-2.9,11.4-6,17.1-9
				c7.5-3.9,15.1-7.8,22.6-11.7c6-3.1,11.9-6.3,17.8-9.4c7.2-3.8,14.4-7.5,21.5-11.3c6.3-3.3,12.6-6.6,18.8-9.9
				c1.1-0.6,2.1-1.5,2.8-2.6c4.4-7.4,8.7-14.8,13-22.3c5.7-9.7,11.5-19.4,17.2-29c2.6-4.4,5.3-8.8,7.9-13.2c0.6-1,0.8-2.2,0.8-3.4
				c0-20,0-40.1,0-60.1c0-3,0-3-3.1-3c-28.6,0-57.1-0.1-85.7,0.1c-3.4,0-5.3-1.6-7.2-3.7c-0.7-0.8-1.4-1.8-1.8-2.7
				c-0.7-1.7-0.9-3.3,0.4-4.9c5.1-5.8,5-5.9,12.7-5.9c64,0,128,0,192,0c2.2,0,3.9,0.5,5.4,2.2c1.9,2.1,4,4.2,6.1,6.1
				c1.4,1.3,1.3,2.4-0.1,3.4c-1.4,1-2.9,1.9-4.4,2.8c-1.5,0.9-2,2-1.1,3.7c3.9,7.1,7.7,14.2,11.5,21.3c3.8,7.1,7.6,14.2,11.6,21.3
				c3.8,6.7,7.7,13.3,11.7,19.9c3.7,6.1,7.6,12.1,11.4,18.2c0.2,0.3,0.6,0.5,0.9,0.7c0.1-0.3,0.3-0.7,0.3-1
				c0.3-4.8,0.4-9.7,0.9-14.5c0.3-3.3,1.1-6.6,1.6-9.9c0.4-2.6,0.6-5.3,1-7.8c0.7-3.8,1.6-7.6,2.4-11.4c0.7-3,1.3-6,2.1-9
				c1.3-4.8,2.7-9.6,4.2-14.3c1.8-5.6,3.8-11.2,5.7-16.8c0.6-1.8,1.2-3.6,2.1-5.4c3.8-8,7.4-16.2,11.7-24
				c4.4-8.1,9.5-15.9,14.5-23.6c2.8-4.3,6.3-8.3,9.5-12.4c3.4-4.4,6.9-8.8,10.5-13.1c2-2.3,4.3-4.4,6.4-6.5
				c4.8-4.8,9.4-9.7,14.4-14.3c4.3-3.9,9-7.5,13.6-11.1c4.1-3.2,8.2-6.5,12.4-9.6c2.9-2.2,5.9-4.4,9.1-6.2
				c10.2-5.7,20.3-11.6,30.8-16.6c8.7-4.2,18-7.3,27-10.7c5.2-1.9,10.5-3.6,15.9-5.1c3.2-0.9,6.6-1.4,9.9-2.1
				c3.6-0.8,7.3-1.7,10.9-2.4c2.5-0.5,5-0.8,7.5-1.2c3.6-0.6,7.2-1.2,10.8-1.6c1.9-0.2,3.9,0,5.8-0.2c1.1-0.1,2.2-0.7,3.3-1.1
				H1191.6z M587.6,832.6c-0.1,0.2-0.2,0.4-0.3,0.6c0.1,0,0.1,0.1,0.2,0.1C587.6,833,587.6,832.8,587.6,832.6
				c-0.8-2.1-1.5-4.3-2.3-6.4c-3.7-9.9-7.5-19.7-11.3-29.6c-1-2.6-2.1-3-4.7-2.1c-2.2,0.8-4.5,1.6-6.8,2.3
				c-5.9,1.7-11.9,3.4-17.9,5.1c-6.5,1.9-12.9,3.9-19.4,5.8c-0.4,0.1-0.7,0.6-1.1,0.9c0.4,0.3,0.8,0.6,1.3,0.8
				c3.4,1.4,6.8,2.7,10.2,4c3.4,1.3,6.8,2.8,10.2,4.1c7,2.7,14,5.3,21,8c6.1,2.3,12,4.8,18.1,7.1C585.7,833,586.8,832.6,587.6,832.6
				 M1180.7,927.5c-0.2,0-0.3,0.1-0.5,0.1c0.4,2,1.3,4.1,1.1,6.1c-0.4,3.6,1.6,5,4.4,5.9c0.7,0.2,1.8,0.2,2.4-0.2
				c1.7-1.4,3.4-2.9,4.9-4.5c12-12,23.9-24.1,35.8-36.2c57.9-58.5,115.9-117,173.8-175.5c6-6.1,12.1-12,17.9-18.2
				c1.2-1.3,2.5-4,2-5.2c-2.4-5.2-5.6-10.1-8.3-15.2c-5.2-9.7-10.3-19.5-15.5-29.2c-4.1-7.8-8.4-15.5-12.5-23.3
				c-5.1-9.5-10.1-19-15.1-28.5c-2.2-4.1-4.4-8.1-6.5-12.1c-4.9-9.2-9.8-18.5-14.7-27.7c-2.3-4.3-4.7-8.5-7-12.8
				c-4.7-8.8-9.4-17.7-14.1-26.5c-2.2-4.1-4.5-8.2-6.6-12.4c-3.6-6.8-7.2-13.7-10.8-20.5c-1.1-2-2.3-4-3.3-6
				c-1.4-2.7-3.3-5.3-3.9-8.2c-0.7-3.4-2.9-4.9-5.4-6.4c-0.5-0.3-1.3-0.2-2-0.1c-4,0.3-5,4-7,6.5c-3.6,4.5-6.6,9.4-10,14.1
				c-3.5,4.9-7.2,9.7-10.7,14.5c-3.4,4.7-6.5,9.5-9.9,14.2c-4.4,6.1-9,12-13.4,18.1c-4.5,6.2-8.9,12.4-13.4,18.6
				c-13,17.7-26.1,35.4-39.1,53.1c-10.3,14-20.6,27.9-30.9,41.9c-0.9,1.2-1.2,1.4-2.2,0c-3.2-4.4-6.7-8.5-9.9-12.8
				c-4.9-6.5-9.6-13.2-14.4-19.7c-6.2-8.4-12.5-16.7-18.7-25.1c-21.6-29.3-43.2-58.7-64.9-88c-5.2-7-10.4-14-15.5-21.1
				c-1.2-1.7-2.4-1.8-3.9-0.8c-1.8,1.1-0.9,2.4-0.2,3.5c2,2.8,4.2,5.6,6.2,8.4c2.8,3.9,5.6,7.9,8.4,11.9c1.8,2.5,3.6,4.9,5.4,7.3
				c2.9,3.9,5.8,7.7,8.7,11.6c2.1,2.9,4.1,5.8,6.2,8.7c2.8,3.9,5.6,7.7,8.3,11.6c1.9,2.6,3.7,5.2,5.6,7.8c2.9,4.1,5.9,8.1,8.9,12.2
				c2.4,3.3,4.7,6.8,7.1,10.1c2.9,3.9,5.9,7.7,8.8,11.6c3.8,5.2,7.4,10.4,11.2,15.6c2.6,3.6,5.2,7,7.8,10.6
				c2.8,3.9,5.5,7.9,8.4,11.8c2.9,3.9,5.9,7.7,8.7,11.6c2.9,4,5.7,8,8.6,12c0.6,0.9,1.3,1.8,1.8,2.8c0.3,0.6,2.6,1.1,0.3,1.9
				c-1,0.4-2.2,0.1-3.3,0.1c-0.1,0-0.2,0.1-0.3,0.1c-4.4,0.9-8.7,1.8-13.1,2.5c-4.5,0.7-9,1.2-13.5,1.9c-2,0.3-3.9,0.7-5.9,1.1
				c-4,0.8-8,1.8-12,2.4c-4.5,0.8-9,1.3-13.5,1.9c-2,0.3-4,0.6-5.9,1c-2.7,0.5-5.3,1.2-8,1.6c-2.6,0.4-5.3,0.6-7.9,1
				c-4.9,0.8-9.8,1.7-14.8,2.6c-2.2,0.4-4.3,0.7-6.5,1.1c-2.7,0.5-5.3,1.1-8,1.6c-2.6,0.4-5.3,0.6-7.9,1.1
				c-4.7,0.8-9.5,1.7-14.2,2.6c-2.2,0.4-4.5,0.7-6.8,1.1c-2.7,0.5-5.3,1.1-8,1.6c-2.6,0.4-5.3,0.6-7.9,1c-2,0.3-3.9,0.7-5.9,1.1
				c-2.6,0.5-5.2,1.1-7.8,1.5c-4.2,0.7-8.5,1.2-12.7,2c-4.4,0.8-8.7,1.8-13.1,2.5c-4.5,0.7-9,1.2-13.6,1.9c-2.1,0.3-4.1,0.7-6.2,1.1
				c-2.8,0.5-5.5,1-8.3,1.6c-1.7,0.3-3.5,0.5-5,1.2c-0.8,0.4-1.4,2-1.3,2.9c0.1,0.8,1.2,1.8,2.1,2.1c1,0.3,2.2,0.1,3.3-0.1
				c6.1-1.1,12.1-2.2,18.2-3.3c4.4-0.7,8.9-1.2,13.3-2c6.2-1.1,12.3-2.4,18.5-3.5c4.5-0.8,9-1.2,13.6-1.9c2.2-0.3,4.3-0.8,6.4-1.2
				c2.8-0.5,5.5-1,8.3-1.5c2.5-0.4,5.1-0.7,7.6-1.1c4.4-0.8,8.7-1.8,13.1-2.5c4.5-0.7,9-1.3,13.5-1.9c1.9-0.3,3.8-0.6,5.7-0.9
				c4.4-0.8,8.7-1.8,13.1-2.6c4.5-0.7,9-1.2,13.5-1.9c2-0.3,4-0.6,5.9-1c4.4-0.8,8.7-1.8,13.1-2.5c4.5-0.7,9-1.2,13.5-1.9
				c2-0.3,4-0.7,5.9-1c4.4-0.8,8.7-1.8,13.1-2.5c4.5-0.7,9-1.2,13.5-1.9c2-0.3,3.9-0.7,5.9-1c3.8-0.7,7.5-1.4,11.3-2
				c0.2,0,0.8,0.4,0.8,0.7c0.4,2.2,0.8,4.3,0.9,6.5c0.4,5,0.6,10.1,0.9,15.1c0,0.3,0.1,0.6,0.1,0.8c0.6,4.1,1.3,8.3,1.7,12.4
				c0.5,5.2,0.6,10.4,1,15.7c0,0.2,0,0.4,0,0.6c0.6,4.2,1.3,8.5,1.7,12.7c0.5,4.9,0.7,9.9,1,14.8c0,0.2,0,0.4,0.1,0.6
				c0.6,4.6,1.3,9.2,1.7,13.8c0.4,4.8,0.7,9.7,1,14.5c0,0.2,0,0.4,0.1,0.5c0.6,4.4,1.2,8.8,1.7,13.3c0.5,4.7,0.7,9.5,1,14.3
				c0,0.1,0,0.2,0,0.3c0.6,4.5,1.3,9,1.7,13.5c0.5,4.9,0.6,9.9,0.9,14.8c0,0.2,0,0.4,0.1,0.6c0.6,4.3,1.3,8.6,1.7,13
				c0.5,5,0.6,10.1,0.9,15.1c0,0.3,0,0.6,0.1,0.8c0.6,4.1,1.3,8.3,1.7,12.4c0.5,4.9,0.6,9.9,0.9,14.8c0,0.2,0,0.4,0,0.6
				c0.6,4.5,1.3,9,1.7,13.5c0.5,4.9,0.7,9.9,1,14.8c0,0.2,0,0.4,0.1,0.6C1179.5,917.3,1180.1,922.4,1180.7,927.5 M1560.2,786.1
				c0-17.2,0-34.5,0-51.7c0-0.7,0.1-1.5-0.1-2.2c-0.1-0.4-0.6-1-1-1.1c-2.6-0.4-5.2-0.7-7.9-1c-1-0.1-2,0-3-0.2
				c-3-0.5-6.1-1.2-9.1-1.6c-3.4-0.4-6.7-0.6-10.1-1c-2.3-0.2-4.5-0.6-6.8-1c-3.9-0.6-7.7-1.2-11.6-1.7c-3-0.4-6-0.6-9-1
				c-4.1-0.5-8.1-1.1-12.2-1.7c-0.5-0.1-1.1-0.1-1.7-0.1c-3.4-0.5-6.8-1.2-10.2-1.6c-3.1-0.4-6.2-0.6-9.3-1
				c-5.4-0.8-10.8-1.8-16.2-2.6c-3.5-0.5-7.1-0.7-10.7-1c-0.5,0-1-0.1-1.5-0.2c0.3,0.4,0.5,0.9,0.9,1.3c6.3,6.6,12.6,13.2,19,19.8
				c6.2,6.5,12.5,13.1,18.7,19.7c6.2,6.5,12.5,13.1,18.7,19.6c6.8,7.1,13.7,14.3,20.5,21.4c5.8,6.1,11.6,12.2,17.4,18.3
				c7.6,7.9,15.2,15.9,22.9,23.8c0.5,0.5,1.1,0.9,1.7,1.4c0.2-0.8,0.5-1.5,0.5-2.3C1560.2,821,1560.2,803.6,1560.2,786.1
				 M2348.2,795.9c5.1,0.6,11-0.6,16.2-4.8c4.9-3.9,10.3-7.4,15.5-10.9c8.3-5.6,16.6-11.1,24.9-16.7c2.1-1.4,2.3-2.4,0.9-4.4
				c-4.2-6.1-8.5-12.1-12.7-18.2c-3.1-4.4-6-8.9-9-13.4c-2.5-3.7-5-7.5-7.5-11.1c-3.9-5.6-8-11.2-11.9-16.8
				c-3.9-5.6-7.7-11.3-11.6-16.9c-0.2-0.3-0.5-0.5-0.7-0.7c-0.2,0.3-0.3,0.6-0.5,0.9c-2.8,6.4-5.7,12.9-8.5,19.3
				c-1.9,4.3-4,8.5-5.8,12.8c-2.4,5.6-4.4,11.2-6.8,16.8c-2.2,5.2-4.8,10.3-7.1,15.4c-3.4,7.5-6.6,15.1-10,22.6
				c-3.2,7.1-6.5,14.2-9.7,21.3c-0.9,2-1.7,4.1-2.6,6c-0.5,1.1-0.2,1.6,1,1.5c1.6-0.2,3.2-0.6,4.9-0.7c5.6-0.4,11.2,0,16.8-0.8
				C2331.5,796,2339.3,796.3,2348.2,795.9 M2466.5,650.4c0-18.3,0-36.5,0-54.8c0-2.5,0-2.5-2.2-1.5c-2.9,1.4-5.9,2.6-8.8,4
				c-8.4,3.9-16.8,7.8-25.2,11.7c-9,4.2-18,8.4-27,12.6c-6.8,3.2-13.6,6.5-20.4,9.7c-4.9,2.3-9.8,4.6-14.7,7
				c-1.3,0.6-2.3,0.9-0.2,2.2c4.1,2.6,8,5.5,12,8.2c11.2,7.5,22.4,15,33.5,22.6c11.1,7.5,22.1,15,33.2,22.4
				c6.1,4.1,12.2,8.1,18.3,12.2c1.1,0.7,1.5,0.6,1.5-0.7c0-0.6,0-1.1,0-1.7C2466.5,686.4,2466.5,668.4,2466.5,650.4 M166.1,700.3
				c-0.1,4.5-0.4,9,2.4,13.1c1.1,1.6,1.4,3.7,2.1,5.6c1.9,5.1,3.7,10.3,5.6,15.4c2,5.4,4.1,10.9,6.1,16.3c1.7,4.6,3.3,9.2,5,13.8
				c2.5,6.6,5.2,13.2,7.5,19.9c0.6,1.7,0.8,1.5,1.8,0.5c2.9-2.7,5.9-5.2,8.8-8c7.2-6.9,14.4-13.8,21.6-20.7
				c6-5.7,12.1-11.4,18.1-17.2c8.7-8.4,17.4-16.8,26.1-25.3c0.4-0.4,1-1.1,0.8-1.5c-0.2-0.5-0.9-0.9-1.5-1c-3.1-0.7-6.2-1.3-9.4-1.9
				c-5.3-1-10.6-1.8-15.9-2.8c-5.2-1-10.3-2.4-15.4-3.4c-6.2-1.3-12.5-2.4-18.7-3.6c-6.1-1.2-12.1-2.4-18.2-3.6
				c-6.3-1.2-12.7-2.4-19-3.6c-1.7-0.3-3.4-0.6-5.1-0.9c-1.9-0.3-3,0.3-2.8,2.5C166.2,696,166.1,698.1,166.1,700.3 M873.3,715.6
				c0.2-0.2,0.6-0.5,0.7-0.9c0.4-2.1,0.7-4.1,1-6.2c0.6-5.2,1.2-10.5,1.8-15.8c0.6-5.5,1.2-11.1,1.8-16.6c0.6-5.6,1.3-11.2,1.8-16.9
				c0.4-4.4,0.6-8.8,0.9-13.2c0.1-1.3,0.5-2.5,0.6-3.7c0-0.5-0.4-1.4-0.8-1.5c-2.8-1-5.7-1.9-8.6-2.7c-3.5-0.9-7.1-1.7-10.6-2.5
				c-2.7-0.6-5.3-1.4-8-1.9c-4.8-1-9.7-1.9-14.5-2.9c-3.7-0.8-7.4-1.9-11.1-2.8c-0.5-0.1-1.4,0.3-1.8,0.7c-2.9,3.9-5.6,7.9-8.4,11.8
				c-2.8,4-5.6,7.9-8.4,11.9c-2.6,3.8-5.1,7.6-7.7,11.4c-3.4,4.8-6.8,9.5-10.3,14.3c-1.2,1.7-0.8,2.7,0.9,3.4
				c1.8,0.8,3.6,1.4,5.3,2.2c7.9,3.4,15.8,6.8,23.8,10.1c6.2,2.7,12.5,5.3,18.7,8c9,3.9,18,7.8,27,11.7
				C869.3,714.1,871.2,714.8,873.3,715.6 M225,652.3c-1.4,0.4-3.7,0.9-5.9,1.7c-0.7,0.2-1.3,1-2,1.4c-4.5,2.6-9.1,5.3-13.6,7.8
				c-9,5-18,9.9-27.1,14.8c-3.1,1.7-6.4,3.3-9.3,5.3c-0.8,0.5-0.9,2.4-1,3.6c-0.1,0.5,0.5,1.5,0.9,1.7c2.8,0.7,5.7,1.3,8.5,1.9
				c2.4,0.5,4.9,0.7,7.3,1.2c3.7,0.8,7.4,1.7,11.2,2.4c3.9,0.7,7.9,1.2,11.9,2c4.3,0.8,8.5,1.8,12.8,2.6c2.1,0.4,4.2,0.6,6.2,1
				c4.2,0.8,8.4,1.7,12.6,2.6c2.5,0.5,5,1.1,7.5,1.6c2.1,0.4,4.1,0.7,6.2,1.1c3.9,0.8,7.8,1.7,11.8,2.4c3.2,0.6,6.5,1,9.8,1.4
				c0.5,0.1,1.3-0.6,1.6-1.1c1-2.3,1.9-4.7,2.7-7.1c3-8.6,5.9-17.2,8.9-25.7c1.5-4.2,3-8.4,4.5-12.6c1.1-3,0.3-4-2.8-4.2
				c-4.6-0.2-9.1-0.6-13.7-0.9c-0.2,0-0.4-0.1-0.5-0.1c-4.1-0.6-8.1-1.3-12.2-1.6c-5.9-0.5-11.7-0.7-17.6-1c-0.2,0-0.4,0-0.6,0
				C237.3,653.7,231.7,653,225,652.3 M274.5,715.7c-0.2-0.5-0.4-0.9-0.5-1.4c-0.4,0.3-0.9,0.5-1.3,0.8c-6.7,6.4-13.4,12.7-20.1,19.1
				c-12,11.6-23.9,23.2-35.8,34.9c-5.4,5.3-10.9,10.6-16.1,16.1c-2.5,2.6-3,4.7-0.1,6.9c1.8,1.3,3.5,2.7,5.1,4.2
				c4.1,3.7,8.1,7.5,12.2,11.3c4.5,4.2,9,8.4,13.5,12.7c5.4,5.1,10.8,10,16.1,15.2c1.7,1.7,3.1,0.3,4.6,0.1c0.6-0.1,1.3-0.9,1.4-1.5
				c1.3-5.3,2.5-10.6,3.8-15.8c1.4-5.4,3-10.8,4.3-16.2c1.1-4.2,1.9-8.5,2.9-12.7c1.4-6,3-11.9,4.3-17.9c1.1-5.4,2-10.9,2.7-16.4
				c0.6-4.5,0.7-9.1,0.9-13.7c0.3-4.2-0.2-8.4,0.8-12.6C274.3,724.5,272.6,720,274.5,715.7 M1688.9,684.6c0,0,0.1,0,0.1,0
				c0-1.1,0.1-2.2,0-3.3c-0.5-4.1-1-8.1-1.7-12.1c-0.8-4.7-0.4-9.5-3.4-13.8c-4.1-6-7.5-12.6-11.3-18.8c-4.8-7.8-9.9-15.4-14.7-23.1
				c-3.9-6.2-7.4-12.6-11.2-18.9c-1.2-2-2.8-2-3.8,0.2c-1.9,4-3.7,8-5.6,11.9c-5.3,11.1-10.7,22.2-16.1,33.2
				c-2.8,5.6-5.7,11.2-8.4,16.8c-0.3,0.6-1.7,1.5,0,2.5c3.6,2.1,7.2,4.5,10.8,6.6c6,3.6,11.9,7.2,17.9,10.8c3.1,1.8,6.1,3.7,9.2,5.5
				c4.8,3,9.6,6,14.5,9c3.7,2.3,7.5,4.6,11.3,6.9c4.5,2.8,9.1,5.5,13.6,8.2c0.4,0.2,1,0.2,1.5,0.3c0.1-0.6,0.3-1.2,0.3-1.8
				c-0.2-1.8-0.5-3.6-0.7-5.4c-0.1-0.9,0-1.9-0.2-2.8C1690.2,692.5,1689.6,688.6,1688.9,684.6 M1708.8,717.5c0,0.1,0.1,0.2,0.1,0.3
				c1.7-0.4,3.3-1,5-1.2c3.4-0.4,6.7-0.6,10.1-1c2.6-0.3,5.3-0.6,7.9-1.1c3.2-0.5,6.4-1.1,9.7-1.6c3-0.4,6-0.7,9-1
				c2.3-0.3,4.5-0.7,6.7-1c3.2-0.5,6.4-1.1,9.7-1.6c3.2-0.4,6.4-0.6,9.6-1c2.2-0.2,4.3-0.6,6.5-0.9c3-0.5,5.9-1.2,8.8-1.6
				c3.2-0.4,6.4-0.6,9.5-1c2.3-0.3,4.5-0.6,6.8-1c3.3-0.5,6.6-1.2,9.9-1.7c3.2-0.4,6.4-0.6,9.6-1c2.1-0.2,4.2-0.5,6.2-0.9
				c0.7-0.1,1.2-0.7,1.8-1c-0.4-0.5-0.7-1.2-1.2-1.5c-3.5-2.1-7.1-4.2-10.7-6.3c-7.9-4.5-15.7-9.1-23.6-13.6
				c-7.7-4.4-15.4-8.9-23.1-13.4c-7.9-4.5-15.7-9.1-23.6-13.6c-6.1-3.5-12.3-7-18.4-10.5c-0.4-0.2-0.9-0.2-1.3-0.3
				c0,0.5-0.2,1-0.1,1.5c0.1,1.1,0.5,2.1,0.5,3.2c0,8.4,0,16.9,0,25.3c0,3.9-0.7,7.6-2.6,11.1c-1,1.8-2,3.6-2.7,5.4
				c-2.5,6.8-6,13-10.7,18.4c-1.4,1.6-2.9,3-4.4,4.5c-1.9,1.9-3.9,3.8-5.8,5.8c-0.8,0.8-1.4,1.6-2.2,2.5c0.9-0.1,1.7-0.1,2.6-0.2
				C1708.6,717.5,1708.7,717.5,1708.8,717.5 M1906.1,777.8c0,0,0-0.1,0-0.1c-3.6,0.4-7.3,0.7-10.9,1.1c-1.2,0.1-1.3,0.6-0.9,1.7
				c0.6,2,1,4,1.4,6.1c0.7,3.8,1.3,7.5,2,11.3c0.8,4.5,1.7,8.9,2.6,13.4c0.4,2.1,0.9,4.3,1.4,6.4c0.8,3.6,1.7,7.3,2.2,11
				c0.5,3.4,1,3.9,4.1,2.3c8.2-4.2,16.4-8.5,24.5-12.7c8.5-4.4,17-8.8,25.5-13.2c9.6-4.9,19.2-9.9,28.7-14.8
				c2.1-1.1,4.2-1.9,6.3-2.9c5.4-2.9,10.8-5.9,16.3-8.8c5.5-2.9,11-5.6,16.6-8.4c0.4-0.2,0.7-0.7,1-1c-0.4-0.1-0.9-0.3-1.3-0.3
				c-3.5,0.3-6.9,0.7-10.4,0.9c-5,0.4-10.1,0.6-15.1,0.9c-5.7,0.3-11.4,0.6-17.1,0.9c-0.1,0-0.2,0-0.3,0c-5,0.6-10,1.3-15,1.7
				c-6.2,0.5-12.5,0.7-18.7,1c-0.5,0-0.9,0.1-1.4,0.1c-4.8,0.6-9.6,1.1-14.5,1.6c-3.6,0.4-7.3,0.7-10.9,0.9
				C1916.7,777.3,1911.4,777.6,1906.1,777.8 M655.3,796.8c0-0.1,0-0.2,0.1-0.3c2.4,0.4,4.8,1,7.3,1.2c5.7,0.4,11.4,0.6,17.1,1
				c1.5,0.1,3.1,0.3,4.6,0.7c4.1,1.1,5.8,0.1,6.7-4.1c0.1-0.4,0.4-0.8,0.5-1.3c0.7-2.9,1.5-5.8,2.2-8.7c0.8-3.4,1.5-6.7,2.3-10.1
				c0.7-3,1.6-6,2.2-9c0.7-3.5,1.3-7,2-10.4c1.1-4.8,2.3-9.5,3.4-14.2c0.8-3.3,1.7-6.7,2.4-10c0.1-0.6,0-1.2,0.1-1.8
				c-0.6,0.1-1.2,0.2-1.7,0.4c-3.7,1.9-7.3,3.9-10.9,5.9c-4,2.2-8.1,4.4-12.2,6.5c-9.6,5.1-19.2,10.2-28.7,15.3
				c-4.6,2.4-9.1,4.8-13.7,7.2c-9.5,5.1-19,10.2-28.5,15.2c-6.2,3.3-12.4,6.5-18.6,9.7c-0.5,0.2-0.9,0.6-1.3,0.9
				c0.4,0.3,0.8,0.7,1.3,0.9c0.6,0.2,1.2,0.4,1.8,0.4c3.8,0.3,7.7,0.6,11.5,0.9c3.7,0.3,7.3,0.6,11,0.9c3.9,0.3,7.9,0.6,11.8,0.9
				c3.8,0.3,7.7,0.7,11.5,0.9C644.6,796.3,650,796.5,655.3,796.8 M1624.7,719.3c11.5,0,23-0.2,34.5,0.1c6.8,0.1,13.4-0.5,19.7-2.8
				c3.8-1.4,7.5-2.9,11.2-4.5c0.7-0.3,1.7-1.2,1.6-1.6c-0.1-0.7-1-1.4-1.7-1.9c-0.7-0.5-1.7-0.8-2.5-1.3
				c-6.3-3.8-12.6-7.5-18.9-11.3c-3.4-2-6.8-4-10.2-6c-7.7-4.6-15.4-9.2-23.1-13.8c-3.7-2.2-7.3-4.5-11-6.7
				c-4.1-2.4-8.3-4.7-12.4-7.2c-1.4-0.8-1.8-0.5-2.5,0.8c-1.3,2.5-2.8,4.9-4.2,7.4c-3.6,6.6-7.3,13.2-10.8,19.8
				c-4.7,8.7-9.3,17.5-13.9,26.3c-1.5,2.8-1.4,2.8,1.9,2.8C1596.5,719.3,1610.6,719.3,1624.7,719.3 M2459.9,707.8c0-0.1,0-0.2,0-0.2
				c0.7,0,1.5,0.1,2.2,0.1c0.3,0,0.5,0,0.8,0c-0.2-0.3-0.3-0.7-0.5-0.9c-2.9-1.9-5.9-3.8-8.8-5.7c-6.8-4.5-13.6-9.1-20.3-13.6
				c-5.2-3.5-10.2-7.1-15.4-10.6c-8.6-5.8-17.2-11.5-25.9-17.2c-6.9-4.6-13.8-9.1-20.6-13.7c-2.8-1.9-5.7-3.6-8.4-5.6
				c-2.6-1.9-4.9-4.2-7.4-6.2c-1.6-1.4-3.3-2.7-4.9-3.9c-3.7-2.9-7.4-5.7-11.1-8.6c-3.5-2.7-6.8-5.6-10.2-8.4
				c-5.4-4.3-10.8-8.5-16.2-12.7c-0.3-0.3-0.7-0.5-1.1-0.7c0.2,0.4,0.3,0.8,0.5,1.1c4.9,7.3,9.7,14.6,14.7,21.8
				c3.8,5.6,7.9,10.9,11.8,16.5c3.2,4.5,6.3,9.2,9.4,13.8c3,4.5,6,8.9,9.1,13.4c2.6,3.9,5.2,7.8,7.8,11.6c4,5.7,8,11.4,11.9,17.1
				c1.1,1.5,2.2,2.5,4.3,2.5c3.2,0.1,6.4,0.6,9.6,1c3.7,0.5,7.4,1.1,11.1,1.6c3.4,0.4,6.8,0.6,10.1,1c2.5,0.3,4.9,0.6,7.4,0.9
				c3.3,0.5,6.6,1.2,10,1.6c3.5,0.4,6.9,0.7,10.4,1c2.5,0.3,5.1,0.6,7.6,1C2451.8,706.5,2455.8,707.2,2459.9,707.8 M2458.4,846
				c0,0.1,0,0.2,0,0.4c0.3,0,0.6,0,0.8,0c0.8-0.1,1.5-0.3,2.3-0.4c-0.7-0.4-1.3-1-2-1.3c-3.7-1.7-7.4-3.3-11-5
				c-11.9-5.6-23.8-11.2-35.7-16.9c-5.2-2.5-10.5-5-15.7-7.5c-6.4-3.1-12.8-6.1-19.2-9.2c-6-2.8-12-5.7-18-8.5
				c-0.6-0.3-1.5-0.4-1.9-0.1c-8.5,5.7-17,11.5-25.5,17.3c-4.5,3-8.9,6.1-13.4,9.1c-5.2,3.5-10.5,7.1-15.8,10.6
				c-1.1,0.7-0.7,1.2,0.1,1.5c0.6,0.3,1.2,0.3,1.9,0.3c4.3,0.3,8.6,0.6,12.9,0.9c5.1,0.3,10.3,0.6,15.4,0.9
				c4.2,0.3,8.4,0.6,12.7,0.9c4.6,0.3,9.2,0.7,13.8,0.9c6.4,0.4,12.9,0.7,19.3,1c1.9,0.1,3.7-0.1,5.6,0.1c5.7,0.5,11.3,1.2,17,1.7
				c4.3,0.4,8.6,0.6,12.9,0.9c5.1,0.3,10.3,0.6,15.4,0.9c4.1,0.3,8.2,0.7,12.4,0.9C2447.9,845.7,2453.1,845.9,2458.4,846
				 M2115.6,717.8c1.5-0.3,2.5-0.5,3.5-0.8c2.5-0.7,4.9-1.6,7.3-2.2c6.1-1.6,12.2-3.1,18.3-4.5c2.1-0.5,2.2-1.3,1.6-3.1
				c-2.1-5.5-4.2-11.1-6.3-16.7c-2.3-6.2-4.3-12.5-6.7-18.7c-3.1-8.2-6.5-16.2-9.5-24.4c-3.3-8.7-6.4-17.6-9.5-26.4
				c-2-5.5-4-11.1-6-16.7c-0.2-0.5-0.6-0.9-1-1.4c-0.3,0.5-0.7,1-0.9,1.5c-4.1,11.2-8.1,22.4-12.2,33.6c-2.7,7.4-5.6,14.8-8.4,22.2
				c-1,2.6-1.4,4.9,0.6,7.6c3.2,4.4,5.8,9.3,8.5,14.1c1.8,3.2,3.5,6.5,5.2,9.7c4.3,8.1,8.6,16.2,13,24.3
				C2113.9,716.8,2115,717.3,2115.6,717.8 M322.2,738.6c0,0-0.1,0-0.1,0c0-1.4,0.4-2.9-0.1-4.1c-1.8-5.1-3.8-10.2-5.8-15.3
				c-2.1-5.2-4.3-10.4-6.5-15.7c-2.7-6.5-5.2-13-7.9-19.5c-2.5-6-5.3-11.9-7.9-17.8c-0.3-0.7-0.6-1.4-1.1-1.9
				c-0.2-0.2-1.2,0-1.3,0.1c-1.6,4.3-3.1,8.5-4.5,12.8c-2.1,6.4-4.4,12.7-6.1,19.1c-1.5,5.7-5.1,11.1-3.5,17.4c0.2,0.9-0.3,2-0.4,3
				c-0.2,1.3-0.6,2.7-0.7,4c-0.3,3.8,0.1,7.6-0.7,11.5c-1,4.9-0.8,10-1.1,15.1c-0.2,3.6-0.5,7.3-0.9,10.9c-0.4,3.5,0.6,4.9,3.9,5.1
				c1.3,0.1,2.7,0.5,4,0.8c2.1,0.4,4.1,0.7,6.2,1c2.3,0.4,4.7,0.7,7,1.1c4.3,0.8,8.6,1.7,12.8,2.5c2.6,0.5,5.2,0.9,7.7,1.5
				c1.9,0.5,2.8,0.1,3.4-2c0.5-1.7,1.1-3.4,1.5-5.2c0.8-4,1.7-8,2.1-12.1C322.4,747,322.2,742.8,322.2,738.6 M539.8,704.9
				c-0.4-0.9-0.6-1.3-0.7-1.8c-1.2-4.2-3.8-7.8-4.8-12.1c-1.2-5.2-3.7-10.1-5.5-15.1c-1.7-4.7-3.2-9.5-5-14.1
				c-2.1-5.7-4.5-11.3-6.7-17c-3.3-8.8-6.5-17.6-9.6-26.4c-2-5.5-3.9-11.1-5.9-16.7c-0.2-0.4-0.6-0.8-0.9-1.2
				c-0.3,0.4-0.8,0.7-0.9,1.2c-1.4,4.1-2.7,8.3-4.2,12.3c-2.1,5.6-4.4,11.2-6.5,16.8c-2.4,6.4-4.6,12.8-6.9,19.2
				c-1.2,3.4-2.6,6.8-3.8,10.2c-0.2,0.7-0.1,1.7,0.3,2.3c3.3,5.5,6.8,10.8,10,16.3c2.5,4.3,4.6,8.8,6.9,13.2c3.7,7,7.3,14,11,21
				c0.5,0.9,0.7,1.5,2.2,1.1c4.1-1.3,8.3-2.1,12.5-3.2c5.2-1.4,10.4-2.8,15.5-4.3C537.8,706.3,538.7,705.5,539.8,704.9 M765.3,745.5
				c0.5,4.5,0.7,4.7,4.9,3.1c0.1,0,0.2-0.1,0.2-0.1c4.3-1.3,8.5-2.7,12.8-4c5.1-1.5,10.2-2.8,15.3-4.3c4.2-1.2,8.4-2.6,12.6-3.8
				c5.2-1.5,10.3-2.8,15.5-4.3c4.1-1.2,8.2-2.6,12.3-3.8c5.3-1.5,10.7-3,16-4.5c2.5-0.7,4.9-1.2,7.4-1.9c2.4-0.7,4.9-1.5,7.3-2.3
				c0.5-0.1,0.8-0.6,1.2-0.9c-0.4-0.3-0.7-0.6-1.1-0.7c-3.5-1.6-7-3.3-10.5-4.8c-6.9-3-13.8-6-20.6-9c-4.5-2-9-4.2-13.5-6.2
				c-7-3.1-14.1-6.1-21.2-9.2c-4.2-1.9-8.4-3.7-12.5-5.8c-1.5-0.8-2.4-0.3-2.9,0.9c-1.3,3.1-2.5,6.2-3.7,9.4
				c-2.2,5.8-4.3,11.6-6.5,17.4c-1.8,4.7-3.5,9.4-5.3,14c-1.8,4.6-3.7,9.1-5.4,13.7C766.7,740.7,766,743.1,765.3,745.5
				 M1824.1,753.5c0.2-0.2,0.9-0.6,1.2-1.2c0.5-1.2,0.6-2.4,1-3.7c1.9-6.4,3.7-12.7,5.6-19c2.5-8.4,5.2-16.8,7.8-25.2
				c0.1-0.2,0.1-0.7,0-0.8c-0.3-0.1-0.7-0.2-0.9-0.1c-1.8,0.6-3.6,1.2-5.4,1.8c-3.4,1-6.8,2.1-10.2,3c-4.1,1.1-8.3,2.2-12.4,3.3
				c-3.4,1-6.8,2-10.2,3c-4.9,1.4-9.8,2.7-14.7,4.1c-3.4,1-6.8,2.2-10.2,3.1c-6,1.6-12.2,3.1-18.2,4.7c-6.2,1.7-12.4,3.5-18.7,5.3
				c-8.4,2.4-16.8,4.8-25.2,7.2c-2,0.6-4,1.1-6,1.8c-0.4,0.1-0.7,0.7-1,1c0.4,0.2,0.7,0.5,1.1,0.7c0.3,0.1,0.7,0,1.1,0.1
				c5,0.3,10.1,0.6,15.1,0.9c0.2,0,0.4,0,0.6,0c4.5,0.6,9,1.3,13.6,1.7c4.9,0.5,9.9,0.7,14.8,1c0.2,0,0.4,0,0.6,0.1
				c5,0.6,10,1.2,14.9,1.7c4.5,0.4,9,0.6,13.5,0.9c0.2,0,0.4,0.1,0.5,0.1c4.5,0.6,9,1.3,13.6,1.7c4.8,0.4,9.7,0.6,14.6,0.9
				c0.3,0,0.5,0.1,0.8,0.1C1815.2,752.4,1819.4,752.9,1824.1,753.5 M868.4,722c-0.4,0.1-0.7,0.1-1.1,0.2c-7.3,2.1-14.5,4.2-21.8,6.3
				c-5.8,1.7-11.5,3.6-17.2,5.2c-5.7,1.6-11.4,3.1-17.1,4.8c-7.3,2.2-14.6,4.6-21.9,6.8c-7.1,2.2-14.3,4.2-21.5,6.3
				c-0.7,0.2-1.4,0.7-2,1c0.6,0.6,1.1,1.4,1.8,1.9c3.8,2.2,7.7,4.3,11.6,6.3c6.4,3.4,12.9,6.7,19.4,10.1c4.9,2.5,9.9,5,14.8,7.5
				c5.6,2.9,11.2,5.9,16.9,8.8c0.4,0.2,1.5,0,1.8-0.4c0.9-1.2,1.6-2.6,2.4-4c2.5-4.3,4.9-8.6,7.4-12.9c4.6-7.8,9.3-15.6,14-23.3
				c2.1-3.5,4.1-6.9,6.2-10.4c2.5-4.2,5-8.3,7.4-12.5C870.3,722.4,870,721.8,868.4,722 M2383,699.3c-0.4,0.2-1.3,0.4-2.1,0.8
				c0,0,0.2,0.8,0.4,1.2c1.5,2.2,3,4.3,4.6,6.5c3.6,4.8,7.2,9.6,10.8,14.5c3.5,4.8,6.8,9.8,10.2,14.6c2.5,3.6,5.3,7,7.8,10.6
				c2.5,3.5,4.7,7.2,7.2,10.7c3.1,4.4,6.4,8.7,9.5,13c1.1,1.5,1.8,1.5,2.7-0.1c0.8-1.4,1.8-2.8,2.6-4.2c4.2-8.1,8.4-16.1,12.6-24.2
				c5.1-9.8,10.2-19.6,15.2-29.4c1.6-3,1-3.8-2.4-4c-3.8-0.2-7.5-0.6-11.2-1c-3.3-0.4-6.6-1.2-10-1.6c-3.4-0.4-6.8-0.6-10.1-0.9
				c-2.6-0.3-5.3-0.7-7.9-1c-3.6-0.5-7.2-1.2-10.8-1.6c-3.5-0.4-6.9-0.6-10.4-1c-2.5-0.3-5.1-0.6-7.6-1
				C2390.5,700.6,2387,700,2383,699.3 M2408,763.3c-0.6,0.4-1.1,0.8-1.5,1.1c-2.6,1.8-5.2,3.7-7.9,5.5c-5.6,3.8-11.3,7.5-16.9,11.3
				c-6.3,4.3-12.5,8.6-18.8,12.9c-0.6,0.4-1,0.9-1.6,1.4c0.5,0.5,1,1.1,1.6,1.4c4.8,2.3,9.6,4.6,14.5,6.9c5.2,2.5,10.5,4.9,15.7,7.4
				c5.6,2.6,11.1,5.3,16.7,7.9c5.7,2.7,11.5,5.4,17.2,8.1c5.7,2.7,11.5,5.4,17.2,8.2c6,2.8,12,5.7,18,8.5c0.6,0.3,1.3,0.4,2,0.6
				c-0.4-0.7-0.7-1.3-1.1-2c-0.2-0.4-0.6-0.7-0.9-1.1c-3.6-5.4-7.3-10.7-10.9-16.1c-3.1-4.5-6.2-9-9.2-13.6
				c-2.6-3.9-5.2-7.8-7.8-11.6c-3.9-5.6-7.9-11.2-11.8-16.8c-4.2-6-8.2-12.1-12.3-18.1C2409.5,764.5,2408.7,764,2408,763.3
				 M290.8,656.2c0.6-0.3,1.8-0.8,2.6-1.7c3.4-3.5,6.6-7.2,9.9-10.8c1.1-1.2,2.2-2.3,3.3-3.3c1.2-1.2,1.3-2.2,0.2-3.6
				c-3-3.8-5.8-7.8-8.9-11.5c-2.9-3.5-5.9-7.2-9.4-10.1c-4.5-3.7-9.7-6.5-14.3-10.1c-4.8-3.7-10.3-5.5-15.8-7.3
				c-0.3-0.1-1.1,0.4-1.4,0.8c-1.9,2.8-3.7,5.7-5.5,8.5c-2.5,4-5,8-7.6,12.1c-2.5,4-5,8.1-7.6,12.1c-3.3,5.3-6.7,10.6-10,15.9
				c-0.2,0.4-0.7,0.8-0.6,1.2c0,0.5,0.4,1.3,0.7,1.4c2.2,0.4,4.5,0.8,6.8,1c4.8,0.4,9.5,0.6,14.3,0.9c0.2,0,0.4,0,0.6,0.1
				c4.1,0.6,8.3,1.4,12.4,1.7c5.2,0.5,10.5,0.6,15.7,0.9c0.3,0,0.6,0,0.8,0.1C281.5,655,285.8,655.6,290.8,656.2 M2141.7,773.4
				c-8.2,0-16.5,0-24.7,0c-0.6,0-1.4-0.2-1.9,0.1c-0.5,0.2-1.1,1-0.9,1.4c0.8,2.8,1.8,5.5,2.7,8.3c2.6,7.7,5.1,15.5,7.9,23.2
				c0.5,1.4-0.2,4.1,2.9,3.5c0.2,0,0.5,0.7,0.9,1c0.7,0.6,1.3,1.3,2.1,1.6c3.4,1.5,6.7,2.8,10.1,4.2c6.5,2.5,13,5,19.4,7.5
				c3.8,1.4,7.5,2.9,11.2,4.3c3.1,1.1,6.2,2.1,9.2,3.3c2.6,1.1,5.1,2.4,7.7,3.6c0.9,0.4,1.9,0.4,2.8,0.6c0-1.1,0-2.2,0-3.3
				c0-0.2-0.3-0.5-0.4-0.7c-1.9-5-3.9-10-5.7-15c-2.7-7.4-5.3-14.9-8.1-22.3c-2.3-6.3-5-12.5-7-18.9c-0.7-2.1-1.7-2.2-3.3-2.2
				C2158.4,773.4,2150.1,773.4,2141.7,773.4 M203.8,592.1c-11.7,0-23.4,0-35,0c-2,0-2.9,0.5-2.7,2.7c0.2,2.5,0.1,5,0,7.5
				c0,1.3,0.2,2.1,1.5,2.9c2.6,1.5,5,3.5,7.4,5.3c3.2,2.5,6.3,5.1,9.5,7.5c6,4.6,12.1,9.2,18.2,13.8c5,3.8,9.9,7.5,14.9,11.3
				c1.4,1,3,2.8,4.2,2.6c1.3-0.2,2.4-2.3,3.3-3.7c4.5-6.8,8.9-13.6,13.5-20.3c3.9-5.9,7.9-11.7,11.8-17.5c1.4-2,2.8-4,4.1-6.2
				c0.6-0.9,1.4-2.2-0.9-2.4c-1.3-0.1-2.7-0.6-4-1c-4.9-1.4-9.8-2.6-15.1-2.5C224.2,592.2,214,592.1,203.8,592.1 M2300.5,743.2
				L2300.5,743.2c0,16.2,0,32.4,0,48.6c0,0.6,0.2,1.2,0.4,1.7c0.4-0.5,0.9-0.8,1.1-1.4c1.4-3.5,2.7-7,4.2-10.4
				c3.2-7.1,6.4-14.2,9.7-21.3c1.1-2.5,2.3-5,3.4-7.5c2.8-6.4,5.4-12.8,8.2-19.1c2-4.4,4.1-8.8,6.1-13.2c4.1-9.3,8.1-18.6,12.2-28
				c1.4-3.2,2.9-6.3,4.4-9.5c0.9-1.8-0.1-1.9-1.4-1.7c-2.2,0.3-4.3,0.8-6.4,1.2c-3.9,0.8-7.9,1.6-11.8,2.4
				c-3.9,0.7-7.7,1.4-11.6,2.1c-4,0.8-8,1.8-12.1,2.4c-5.7,0.7-6.4,1.3-6.4,7.3C2300.5,712.2,2300.5,727.7,2300.5,743.2
				 M765.7,726.5c0,2.7,0,4.9,0,7.1c0,0.4,0.2,0.8,0.3,1.2c0.4-0.4,0.9-0.6,1-1.1c0.9-2.3,1.7-4.6,2.5-6.9c1.7-4.6,3.5-9.2,5.2-13.8
				c1.4-3.7,2.8-7.5,4.2-11.2c1.9-5,3.7-10.1,5.7-15c1.3-3.1,2.4-6.4,4.3-9.1c3.3-5,7.2-9.7,10.7-14.6c4.1-5.7,8-11.5,12-17.3
				c4.1-5.9,8.3-11.8,12.4-17.8c0.3-0.4,0.3-0.9,0.5-1.4c-0.5,0-1.1-0.1-1.6,0c-4.4,0.8-8.7,1.7-13.1,2.5c-4.2,0.7-8.5,1.2-12.7,1.9
				c-4.4,0.8-8.7,1.8-13.1,2.6c-4.5,0.8-9,1.2-13.5,1.9c-1.5,0.2-3,0.5-4.5,0.9c-0.5,0.1-1.1,0.7-1.2,1.2c-0.2,0.9-0.1,1.8-0.1,2.8
				C765.2,669.2,763.9,698.1,765.7,726.5 M765.8,791.1c0,10.7,0,21.3,0,32c0,2.6,0.1,2.7,2.3,1.5c3.9-2.2,7.8-4.6,11.7-6.8
				c7.6-4.3,15.2-8.5,22.8-12.8c8.5-4.7,17-9.4,25.6-14.1c0.4-0.2,0.8-0.6,1.3-0.9c-0.4-0.4-0.7-0.9-1.1-1.1
				c-4.2-2.3-8.5-4.5-12.7-6.7c-8.8-4.7-17.5-9.4-26.3-14.1c-6.9-3.7-13.9-7.3-20.8-10.8c-2.7-1.4-2.8-1.2-2.8,1.9
				C765.8,769.7,765.8,780.4,765.8,791.1 M1660.7,593c-3.2,0-6.5,0-9.7,0c-2.7,0-2.9,0.3-1.6,2.6c2.9,4.7,5.9,9.3,8.8,13.9
				c3.3,5.2,6.6,10.3,9.9,15.5c3.6,5.7,7.3,11.4,10.9,17.1c2.8,4.5,5.6,9,8.4,13.5c1.4,2.2,2,2.4,3.9,0.6c4.2-4,8.6-7.9,12.7-11.9
				c4.1-4,8.2-8.1,12.2-12.2c0.4-0.4,0.7-1.3,0.6-1.9c-0.5-1.6-1.1-3.3-2-4.8c-1.6-2.9-3.1-5.9-5.2-8.4c-3.3-4.1-6.7-8.5-10.8-11.8
				c-5-4.1-10.9-7.2-17.1-9.2c-4.7-1.5-9.3-3.5-14.4-3.1C1665.2,593.2,1662.9,593,1660.7,593 M316.4,774.6c-0.7-0.4-1.6-1-2.5-1.2
				c-1.9-0.4-3.8-0.6-5.7-0.9c-1.9-0.3-3.8-0.6-5.7-0.9c-2.3-0.4-4.7-0.7-7-1.1c-4.3-0.8-8.5-1.7-12.8-2.5c-2.4-0.5-4.9-0.6-7.3-1.3
				c-2.4-0.6-2.9-0.6-3.6,1.7c-0.5,1.6-0.7,3.2-1.1,4.8c-1.1,4.3-2.2,8.6-3.2,12.9c-0.8,3.3-1.5,6.5-2.2,9.8
				c-0.7,3.7-1.2,7.5-2,11.3c-1,4.9-2.3,9.7-3.4,14.5c-0.9,3.8-1.6,7.6-2.4,11.4c-0.1,0.3-0.1,0.7-0.1,1c0.4,0,0.8,0,1.2-0.2
				c2.7-1.2,5.4-2.2,8-3.6c2.9-1.4,5.6-3.2,8.5-4.6c6.4-3.2,11.6-8.1,16.8-12.8c3.2-2.9,5.9-6.3,8.7-9.6c1.2-1.4,2.4-2.8,3.3-4.4
				c3.6-6.4,7.1-12.8,10.5-19.3C315.2,778.3,315.6,776.6,316.4,774.6 M2300.5,647.8v8.1c0,10.3,0,20.6,0,30.9c0,1.4-0.3,2.7,2.1,2
				c3.2-0.9,6.6-1.3,9.9-1.9c4-0.7,7.9-1.3,11.9-2.1c4.1-0.8,8.2-1.7,12.4-2.4c3.5-0.6,7.1-1,10.6-1.6c0.7-0.1,1.7-1.1,1.7-1.6
				c-0.2-2.2-0.9-4.2-2.3-6.1c-3.5-4.7-6.8-9.5-10.2-14.3c-2.6-3.8-5.1-7.8-7.7-11.6c-3.9-5.5-7.9-10.9-11.8-16.5
				c-5-7.3-9.9-14.7-14.9-22c-0.3-0.5-0.8-0.9-1.2-1.4c-0.1,0.7-0.4,1.3-0.4,2C2300.5,622,2300.5,634.9,2300.5,647.8 M1609.8,593
				c-9.5,0-19.1,0-28.6,0c-3.1,0-3,0-1.6,2.8c5.4,10.5,10.8,20.9,16.1,31.4c4.5,8.9,8.9,17.8,13.3,26.7c0.4,0.7,0.9,1.3,1.3,2
				c0.5-0.6,1.1-1.2,1.4-1.9c3.2-6.5,6.3-13,9.4-19.6c3.4-7,6.7-14.1,10.1-21.1c2.9-5.9,5.8-11.7,8.7-17.5c1.3-2.6,1.3-2.7-1.6-2.7
				C1628.9,593,1619.4,593,1609.8,593 M166.1,643.9c0,11,0,22.1,0,33.1c0,2.5,0.1,2.6,2.2,1.6c5.2-2.7,10.5-5.4,15.6-8.3
				c7.2-4,14.4-8.1,21.6-12.2c4.5-2.5,9.1-4.9,13.6-7.3c1.3-0.7,1.5-1.1,0.1-2c-2-1.3-3.8-2.9-5.7-4.3c-3-2.4-6-4.8-9.1-7.1
				c-4.7-3.6-9.3-7.1-14-10.6c-3.2-2.5-6.3-5-9.5-7.5c-4.2-3.1-8.4-6.2-12.6-9.3c-0.6-0.4-1.2-0.9-1.7-1.3c-0.2,0.8-0.5,1.5-0.5,2.3
				C166.1,622,166.1,633,166.1,643.9 M418.9,777.7c0-0.3-0.1-0.6-0.1-0.8c-0.8-0.3-1.6-0.7-2.4-0.7c-6.9,0.1-13.8,0-20.7,0.7
				c-10.1,1-20.3-0.2-30.4,0.8c-9.7,1-19.5-0.3-29.3,1c-2.3,0.3-3.2,1.1-3.9,3c-1,2.7-1.8,5.4-3.1,7.9c-2.4,4.7-4.9,9.5-7.8,13.9
				c-3.2,4.7-6.9,9-10.4,13.4c-1.2,1.4-2.6,2.6-3.9,4c-0.5,0.5-0.8,1.3-1.2,1.9c0.7-0.2,1.3-0.3,2-0.6c2.4-0.9,4.8-1.8,7.2-2.8
				c5.5-2.1,11.1-4.2,16.6-6.4c3.7-1.4,7.3-3,11-4.4c7.2-2.8,14.4-5.5,21.5-8.2c4.5-1.7,9-3.6,13.5-5.3c4.7-1.8,9.4-3.6,14.1-5.4
				c4.8-1.8,9.6-3.6,14.3-5.5c3.7-1.5,7.5-3,11.2-4.6C417.7,779.3,418.2,778.3,418.9,777.7 M824.9,594.1
				C824.9,594,824.9,594,824.9,594.1c-9.3-0.1-18.5-0.1-27.8-0.1c-0.7,0-1.3,0.3-2,0.5c0.4,0.5,0.7,1.1,1.1,1.5
				c3.6,3.4,7.3,6.7,11,10.1c0.9,0.8,1.7,1.7,2.6,2.5c4.6,4,9.4,7.7,13.6,12c2.4,2.4,5.1,3.3,8.1,4c4.2,1,8.3,1.9,12.5,3
				c5,1.3,10,2.8,15,4.2c6.4,1.7,12.9,3.2,19.3,4.8c0.6,0.1,1.2,0.1,1.8,0.2c-0.2-0.7-0.2-1.4-0.5-1.9c-3-5.5-6.1-10.9-9-16.3
				c-4-7.4-8-14.8-11.9-22.3c-1.1-2-1.9-4.2-4.8-2.3c-0.3,0.2-0.9,0.1-1.4,0.1C843.2,594.1,834.1,594.1,824.9,594.1 M1577.3,657.4
				c0,19.2,0,38.4,0,57.6c0,0.6,0.2,1.2,0.2,1.8c0.5-0.5,1-0.9,1.3-1.4c3.4-6.1,6.8-12.2,10.1-18.3c4.9-9.1,9.7-18.2,14.5-27.2
				c1-1.9,2.3-3.7,3.3-5.7c1-2.1,2.6-3.8,1.1-6.8c-9.2-17.9-18-35.9-27-53.8c-0.7-1.4-1.4-2.8-2.2-4.2c-0.2-0.4-0.7-0.7-1-1.1
				c-0.1,0.4-0.3,0.8-0.3,1.2c0,0.3,0,0.6,0,0.8C1577.3,619.4,1577.3,638.4,1577.3,657.4 M519.9,754.5c8.1,0,16.1,0,24.2,0
				c0.7,0,1.4-0.2,2.1-0.3c-0.4-0.6-0.7-1.4-1.3-1.9c-3.2-3-6.5-5.9-9.8-8.9c-4.5-4.1-8.9-8.3-13.3-12.4c-4-3.8-8-7.6-12.2-11.2
				c-1.3-1.1-3.3-2.1-4.9-2c-3,0.2-5.9,1.1-8.8,1.8c-6.9,1.7-13.7,3.6-20.6,5.2c-7,1.6-14,3.1-21,4.6c-0.3,0.1-0.6,0.3-0.9,0.5
				c0.2,0.4,0.4,0.9,0.7,1.1c1.9,1.1,3.8,2.2,5.7,3.3c5.2,3.1,10.4,6.1,15.6,9.2c5.5,3.3,10.9,6.7,16.5,9.9c1.4,0.8,3.3,1.2,5,1.2
				C504.5,754.5,512.2,754.5,519.9,754.5 M2079,759.9c9,0,18-0.1,27,0.1c3.2,0.1,4.3-1.2,4.3-4.5c0-1.9-0.1-3.7,0.1-5.6
				c0.4-3.7,1.2-7.4,1.6-11.1c0.7-5.3,1.2-10.7,1.8-16.1c0.2-2.1-0.2-2.8-2.1-2.4c-3.1,0.6-6.3,1.3-9.4,2.1
				c-5.8,1.4-11.5,2.8-17.3,4.1c-3.5,0.8-6.9,1.7-10.4,2.5c-3.3,0.7-6.6,1.4-9.9,2c-3.2,0.6-6,1.8-7.2,5.3c-1,2.9-2.1,5.8-3.2,8.7
				c-1.5,4-2.9,8-4.5,12c-1.1,2.7-1.1,2.9,1.9,2.9C2060.8,759.9,2069.9,759.9,2079,759.9 M1577.3,783.3c0,15.3,0,30.6,0,45.9
				c0,0.8,0.3,1.6,0.4,2.3c0.7-0.6,1.5-1,2.1-1.7c3.7-4.8,7.3-9.6,11-14.4c1.5-1.9,3.1-3.7,4.5-5.6c3.1-4.2,6.1-8.5,9.2-12.6
				c3.3-4.3,6.7-8.5,10-12.8c0.2-0.3,0.1-1.2-0.1-1.6c-1.1-1.7-2.4-3.2-3.6-4.9c-3-4-5.9-8.1-8.9-12.2c-2.1-2.8-4.2-5.5-6.3-8.3
				c-2.7-3.5-5.3-7-8-10.5c-2.8-3.7-5.7-7.4-8.6-11c-0.3-0.4-0.8-0.7-1.2-1c-0.2,0.5-0.4,1-0.5,1.5c-0.1,0.5,0,1.1,0,1.7V783.3z
				 M2199,796.8c-3.9,0-4,0.2-2.8,3.4c1,2.5,1.9,4.9,2.8,7.4c1.7,4.7,3.5,9.4,5.2,14.1c1.7,4.5,3.4,9,5,13.5
				c0.6,1.8,1.5,2.2,3.3,1.3c4.7-2.4,9.6-4.6,14.4-6.9c5.1-2.4,10.2-4.7,15.2-7.1c8.5-4,16.9-8.1,25.4-12.2c2.1-1,4.2-1.7,6.3-2.7
				c3.4-1.6,6.8-3.4,10.1-5.1c0.3-0.1,0.5-0.5,0.7-0.7c-0.2-0.1-0.4-0.4-0.6-0.4c-2-0.3-3.9-0.7-5.9-0.8c-6.3-0.4-12.6,0.2-19-0.7
				c-7.6-1.1-15.4-0.7-23.2-1.1c-5.4-0.3-10.8,0.2-16.3-0.7C2212.7,796.9,2205.4,798.6,2199,796.8 M207.8,838.4
				c11.8,0,23.5,0,35.3,0c0.6,0,1.2-0.3,1.8-0.4c-0.3-0.5-0.5-1.1-0.9-1.5c-3.2-3-6.5-5.9-9.8-8.9c-4.2-3.9-8.4-7.8-12.6-11.7
				c-5.4-5-10.8-10.1-16.1-15.2c-2.4-2.3-4.7-4.7-7.1-7.1c-3.2-3.2-3.2-3.2-5.4,1c-3.3,6.3-6.6,12.5-9.9,18.8
				c-3.9,7.4-7.8,14.8-11.6,22.2c-1.4,2.7-1.3,2.8,1.8,2.8C184.8,838.4,196.3,838.4,207.8,838.4 M746.9,792c0-4.3,0-8.5,0-12.8
				c0-6.1,0-12.2,0-18.4c0-0.5-0.3-1-0.5-1.5c-0.4,0.2-0.8,0.4-1.2,0.7c-4.1,3.1-8.1,6.3-12.2,9.4c-6.5,4.9-13.1,9.6-19.7,14.5
				c-6,4.4-11.9,8.9-17.8,13.3c-2.1,1.6-2.1,2.2,0.2,3.3c8.6,4,17.2,8,25.7,12c7.7,3.7,15.4,7.4,23.1,11.2c2.1,1,2.3,1,2.3-1.4
				C746.9,812.3,746.9,802.2,746.9,792 M166.1,777.5v54c0,1.6-0.1,3.2,0,4.7c0,0.6,0.4,1.1,0.6,1.6c0.4-0.4,1-0.8,1.3-1.3
				c1.8-3.2,3.6-6.4,5.3-9.6c4.1-7.6,8.2-15.2,12.3-22.8c2.5-4.7,5.1-9.3,7.5-14.1c0.4-0.8,0.5-2,0.2-2.8
				c-2.3-6.3-4.8-12.6-7.2-18.9c-3.5-9.4-6.9-18.8-10.4-28.2c-1.7-4.7-3.5-9.4-5.2-14.1c-1-2.7-2.1-5.4-3.2-8.1
				c-0.1-0.3-0.6-0.5-0.9-0.8c-0.1,0.3-0.3,0.7-0.3,1c0,0.5,0,0.9,0,1.4C166.1,738.9,166.1,758.2,166.1,777.5 M2466.5,766.9
				c0-16.9,0-33.7,0-50.6c0-0.7-0.3-1.3-0.5-2c-0.4,0.5-0.8,1-1.1,1.5c-2.8,5.4-5.6,10.7-8.4,16.1c-7,13.7-13.9,27.4-21,41
				c-0.7,1.3-0.8,2.3,0.1,3.5c1.5,2.1,3,4.1,4.4,6.2c3.9,5.6,7.7,11.3,11.6,16.9c4.3,6.1,8.7,12.2,13.1,18.3c0.3,0.4,0.8,0.7,1.2,1
				c0.2-0.5,0.4-0.9,0.5-1.4c0.1-0.4,0-0.7,0-1.1C2466.5,799.9,2466.5,783.4,2466.5,766.9 M2080.6,807.8c0.7-0.4,1.8-0.8,2.6-1.5
				c1.6-1.7,3.1-3.6,4.6-5.4c1.7-2,3.4-4.1,5.1-6.1c3.4-4.2,6.7-8.5,10.1-12.7c1.7-2.1,3.5-4,5.1-6.1c0.5-0.6,0.5-1.5,0.7-2.3
				c-0.7-0.1-1.4-0.3-2.1-0.3c-19.4,0-38.7,0-58.1-0.1c-1.7,0-2.6,0.7-3.1,2.1c-2.6,6.8-5.1,13.6-7.8,20.4c-0.5,1.3-0.4,1.7,1,2
				c3.3,0.7,6.5,1.6,9.8,2.4c4.2,1,8.3,1.9,12.5,2.9c3.4,0.8,6.7,1.7,10,2.5C2074,806.4,2077,807.1,2080.6,807.8 M536,770.7
				c-8.9,0-17.8,0-26.7,0c-1.7,0-2.5,0-1.7,2.3c3.9,11,7.5,22.2,11.1,33.3c0.4,1.1,0.6,0.9,1.5,0.7c2.2-0.7,4.5-1.3,6.8-2
				c6.9-2,13.8-4,20.7-6c3.1-0.9,6.2-2.1,9.4-3c4.4-1.3,8.9-2.5,13.4-3.8c1.1-0.3,1.7-1.1,1.1-2.6c-2.2-5.4-4.5-10.8-6.3-16.3
				c-0.8-2.5-2.1-2.6-4.2-2.6C552.7,770.7,544.3,770.7,536,770.7 M593.2,795.5c-3.2-0.5-3.3-0.4-2.3,2.5c1.5,4.4,3.1,8.7,4.8,13
				c2.6,6.9,5.3,13.8,7.8,20.7c0.4,1,0.7,1.4,1.7,0.9c5.6-2.4,11.3-4.7,17-7.1c4-1.7,7.9-3.4,11.9-5c7.4-3,14.8-5.9,22.1-8.9
				c4.8-1.9,9.5-3.8,14.3-5.8c2.5-1,4.9-2.1,7.3-3.2c0.4-0.2,0.7-0.7,1.1-1c-0.4-0.3-0.8-0.8-1.3-0.9c-0.4-0.2-0.9-0.1-1.4-0.1
				c-4.3-0.3-8.6,0.1-12.9-0.7c-5.1-1-10.4-0.8-15.7-1.1c-4-0.3-8-0.6-12.1-0.9c-4.9-0.3-9.9-0.6-14.8-0.9
				c-4.1-0.3-8.2-0.7-12.4-0.8C603.2,795.7,598.2,795.7,593.2,795.5 M746.7,753.1c1-3.3-0.9-4.7-3.7-6c-4.8-2.3-9.4-5-14.2-7.4
				c-6-3.1-12-6-18.1-9c-2.1-1-2.5-0.8-2.8,1.4c-0.3,1.6-0.7,3.2-1,4.8c-1.1,4.7-2.3,9.3-3.4,14c-0.7,3.2-1.3,6.4-2,9.6
				c-1.1,4.7-2.3,9.3-3.4,14c-0.7,3.1-1.3,6.2-2,9.3c-0.8,3.8-1.8,7.6-2.6,11.4c-0.1,0.3-0.1,0.7-0.2,1.1c0.4-0.2,0.8-0.3,1.2-0.5
				c2.8-2.1,5.4-4.3,8.2-6.4c5.5-4.1,11.1-8.1,16.6-12.2c3.9-2.9,7.7-5.9,11.6-8.8c4.5-3.4,9-6.9,13.7-10.1
				C746.6,756.8,747.3,755.3,746.7,753.1 M2060.9,730.5c3-0.7,5.4-1.2,7.8-1.8c2.9-0.7,5.8-1.6,8.8-2.2c4.7-1,9.5-1.9,14.2-2.9
				c6.2-1.4,12.4-2.9,18.7-4.3c2.5-0.6,2.8-0.9,1.5-3.2c-3.8-7-7.6-14.1-11.5-21c-3.9-7-7.8-13.9-11.7-20.8c-1.2-2.1-2.4-4.1-3.8-6
				c-0.6-0.9-1.3-1.7-1.8,0.4c-0.7,2.8-1.9,5.5-3,8.2c-2.2,5.7-4.6,11.3-6.7,17c-3,7.9-5.9,15.8-8.7,23.8c-1.4,3.9-2.7,7.8-3.9,11.7
				C2060.6,729.6,2060.8,730,2060.9,730.5 M1611.2,731.9c-9.8,0-19.6,0-29.5,0c-0.7,0-1.4,0.3-2.1,0.4c0.2,0.7,0.3,1.5,0.7,2
				c2.1,2.9,4.4,5.7,6.5,8.5c2.2,2.8,4.4,5.7,6.5,8.5c2.7,3.5,5.3,7,7.9,10.5c2.8,3.7,5.7,7.4,8.6,11c1.8,2.3,3.7,4.6,5.6,6.8
				c0.2,0.3,1.4,0.2,1.5,0c2.4-4.1,4.8-8.2,7.1-12.4c2.3-4.2,4.4-8.5,6.8-12.6c3.7-6.6,7.6-13.2,11.3-19.8c1.5-2.6,1.2-2.9-1.8-2.9
				C1630.7,731.9,1620.9,731.9,1611.2,731.9 M746.9,705L746.9,705c0-13.2,0-26.3,0-39.5c0-0.6-0.3-1.1-0.5-1.7
				c-0.3,0.4-0.7,0.8-0.9,1.3c-2.4,4.1-4.6,8.3-7,12.4c-4,6.9-8.2,13.9-12.2,20.8c-1.4,2.4-2.7,5-4.2,7.4c-3.6,6.1-7.3,12.2-11,18.3
				c-1.1,1.9-0.5,3.1,1.2,4c5.9,3.3,11.9,6.6,17.9,9.8c4.7,2.5,9.6,4.8,14.3,7.2c2.5,1.2,2.5,1.2,2.5-1.5
				C746.9,730.8,746.9,717.9,746.9,705 M764.8,613.7c0,5.9,0,11.9,0,17.8c0,1-0.1,2.3,1.4,2.1c2.2-0.3,4.3-0.7,6.4-1.1
				c2.6-0.5,5.2-1.1,7.8-1.5c2.6-0.4,5.3-0.6,7.9-1c2-0.3,3.9-0.7,5.9-1.1c2.7-0.5,5.3-1.1,8-1.5c2.6-0.4,5.2-0.7,7.9-1.1
				c3.1-0.5,6.3-1.1,9.4-1.7c0.7-0.1,1.3-0.4,2-0.6c-0.3-0.6-0.5-1.4-1-1.8c-2-1.9-4.2-3.5-6.2-5.4c-7.5-7.1-14.9-14.3-22.4-21.4
				c-0.8-0.7-2.1-1.3-3.1-1.3c-7.1-0.1-14.3,0-21.4-0.1c-1.9,0-2.6,0.6-2.6,2.5C764.9,602.2,764.8,608,764.8,613.7 M413.5,834.5
				c1-0.4,1.5-0.7,2-0.9c4.7-2.4,9.4-4.7,14.1-7.1c13.4-6.7,26.7-13.4,40.1-20c1.7-0.8,2.1-1.5,0.5-2.8c-2.5-2.1-4.9-4.1-7.3-6.4
				c-7.2-6.8-14.3-13.7-21.4-20.5c-1.1-1-2.1-2.1-3.1-3.2c-1.2-1.3-2-1.1-2.6,0.5c-0.8,2.1-1.5,4.3-2.3,6.4
				c-2.2,5.7-4.6,11.3-6.7,17c-2.9,7.8-5.7,15.7-8.6,23.6c-1.5,4-3.1,8-4.7,11.9C413.3,833.5,413.5,834,413.5,834.5 M455,725.8
				c2.7-0.4,5-0.7,7.2-1.2c3.6-0.8,7.1-1.7,10.6-2.5c3.4-0.7,6.8-1.3,10.2-2c3.5-0.8,7.1-1.7,10.6-2.5c3-0.7,6.1-1.2,9.1-2
				c1.6-0.4,2.5-1.2,1.4-3.1c-2.5-4.5-4.8-9.1-7.3-13.6c-3.8-6.9-7.8-13.7-11.6-20.6c-2.1-3.8-4.2-7.8-6.3-11.6
				c-0.3-0.6-0.9-1.2-1.5-1.6c-0.2-0.1-1,0.1-1.1,0.3c-1.6,3.8-3.1,7.6-4.5,11.4c-2.3,6.2-4.3,12.5-6.7,18.7
				c-3.6,9.5-7.3,18.8-11,28.3C453.7,725,453.6,726.1,455,725.8 M1721.8,656.5c-0.4-4.2-0.5-8.4-1.1-12.4c-0.4-2.7-1.5-5.2-2.3-7.8
				c-0.5-1.6-1.1-1.5-2.2-0.4c-7.9,7.7-15.9,15.4-23.9,23.1c-1.7,1.7-3.3,2.9-2.4,6.1c1.3,4.5,1.4,9.3,1.9,14
				c0.6,5.2,1.3,10.5,1.8,15.7c0.4,4,0.7,8,0.9,12c0.1,1.6,0.6,2.2,2,1.1c1.9-1.5,3.8-2.9,5.5-4.6c4.8-4.5,8.9-9.5,11.9-15.4
				c2.2-4.4,3.9-8.9,5.2-13.8C1720.7,668.2,1721.2,662.3,1721.8,656.5 M2283.9,799.7c0.4-0.1,1-0.3,1.5-0.5c-0.5-0.4-1-1-1.6-1.3
				c-0.7-0.4-1.6-0.5-2.3-0.7c-4.8-1.6-9.5-3.3-14.3-4.8c-7.6-2.4-15.3-4.7-23-7.1c-5.6-1.8-11.1-3.7-16.6-5.5
				c-7.6-2.4-15.3-4.7-23-7.1c-5.6-1.8-11.1-3.7-16.6-5.5c-1.2-0.4-2.5-0.3-3.7-0.5c0.3,1.2,0.6,2.4,0.9,3.6
				c0.1,0.4,0.5,0.8,0.6,1.2c2.5,7.1,4.9,14.2,7.5,21.3c0.3,0.8,1.2,1.9,1.9,2.1c3.1,0.5,6.3,0.8,9.5,1c6.3,0.4,12.7-0.2,19.1,0.7
				c6.7,1,13.6-0.2,20.4,0.9c6.3,1,12.8-0.2,19.3,0.9C2270.2,799.6,2277.1,797.8,2283.9,799.7 M2090.3,838.3c0,0.1,0,0.2,0,0.3
				c6.1-0.4,12.1-0.8,18.2-1.2c0.4,0,0.8-0.2,1.2-0.4c-0.3-0.4-0.5-0.9-0.9-1.2c-1-0.9-2.2-1.6-3.2-2.6
				c-7.6-7.2-15.1-14.5-22.6-21.7c-0.9-0.8-1.5-1.3-2.9-0.6c-3.8,1.9-7.8,3.7-11.7,5.5c-5,2.3-10,4.6-15,7c-6,2.8-12,5.7-18,8.5
				c-2.4,1.2-4.8,2.4-7.2,3.6c-2.1,1-4.2,1.8-6.3,2.8c-0.4,0.2-0.6,0.7-1,1.1c0.5,0.2,0.9,0.6,1.4,0.7c0.5,0.1,1.1,0.1,1.7,0
				c7.7-0.4,15.5,0.1,23.2-0.7c10.1-1,20.3-0.8,30.4-1.1C2082,838.3,2086.2,838.3,2090.3,838.3 M2124.4,811.5
				c-0.3-1.4-0.5-2.4-0.8-3.4c-1.4-4.3-2.9-8.6-4.3-12.9c-2.1-6.5-4.2-12.9-6.4-19.4c-0.2-0.5-0.6-1-1.1-1.1c-0.4-0.1-1,0.4-1.3,0.8
				c-3.1,3.9-6.1,8-9.3,11.9c-4.8,5.8-9.7,11.5-14.5,17.2c-2.7,3.3-3,5.4,0.4,8.5c3.8,3.4,7.5,6.8,11.2,10.3
				c3.9,3.7,7.6,7.6,11.4,11.4c2.1,2.1,2.2,2.1,3.5-0.6c3-6.2,5.9-12.4,8.9-18.6C2122.8,814,2123.8,812.6,2124.4,811.5 M516.9,807.5
				c-0.2-0.3-0.4-0.6-0.6-0.9c-1.6-4.6-3.2-9.2-4.7-13.9c-1.9-6.1-3.7-12.3-5.6-18.5c-0.2-0.8-1-1.4-1.5-2.1
				c-0.4,0.6-0.8,1.2-1.3,1.7c-0.5,0.6-1,1.1-1.5,1.7c-2,2.4-4.2,4.7-6.1,7.1c-3.3,4.1-6.4,8.2-9.7,12.3c-2.4,3.1-5,6.1-7.4,9.2
				c-1.9,2.5-1.9,2.8,0.4,5c5.9,5.7,11.9,11.3,17.8,17c2.3,2.2,4.6,4.6,6.9,6.9c0.7,0.7,1.4,1.3,1.5-0.4c0-0.4,0.2-0.9,0.4-1.3
				c3.4-7,6.8-14.1,10.2-21.1C516.2,809.2,516.5,808.4,516.9,807.5 M1697.3,727.1c0.3,3.3,0.5,6.7,0.9,10c0.1,0.9,0.7,1.9,1.4,2.6
				c0.2,0.3,1.3-0.2,2-0.4c2.4-0.6,4.8-1.3,7.1-1.9c4-1.1,8.1-2.1,12.1-3.2c3.4-1,6.8-2.1,10.2-3.1c4.2-1.2,8.4-2.2,12.6-3.4
				c4.5-1.2,8.9-2.6,13.4-3.8c5.2-1.5,10.4-2.9,15.5-4.3c3.3-0.9,6.6-2,10-2.9c4.1-1.1,8.2-2.2,12.4-3.3c3.4-0.9,6.8-2,10.2-3
				c4-1.1,8.1-2.1,12.1-3.2c3.6-1,7.2-2,10.8-3.1c0.4-0.1,0.8-0.3,1.2-0.4c-0.4-0.2-0.9-0.5-1.3-0.5c-0.4,0-0.9,0.2-1.3,0.2
				c-3.1,0.5-6.3,1.1-9.4,1.5c-3,0.4-6,0.7-9,1c-2.3,0.3-4.5,0.6-6.8,1c-3.1,0.5-6.2,1.1-9.4,1.6c-3,0.4-6,0.6-9,1
				c-3.7,0.5-7.4,1.2-11,1.7c-2.4,0.4-4.9,0.6-7.3,1c-3.1,0.5-6.2,1.2-9.4,1.6c-3.1,0.4-6.2,0.6-9.3,1c-2.3,0.3-4.5,0.6-6.8,1
				c-3.1,0.5-6.3,1.2-9.4,1.6c-3,0.4-6,0.6-9,1c-2.2,0.3-4.3,0.6-6.5,0.9c-3.8,0.6-7.6,1.3-11.4,1.6
				C1699.2,721.4,1697.3,723.2,1697.3,727.1 M492.3,834.7c2.4,0,4.8,0,7.2,0c0.8,0,1.6-0.3,2.4-0.4c-0.4-0.7-0.8-1.4-1.3-1.9
				c-5.1-4.9-10.4-9.7-15.5-14.7c-2.9-2.8-5.8-5.7-8.6-8.7c-1.1-1.2-2-1.4-3.6-0.6c-3.5,1.8-7.2,3.3-10.8,5
				c-10.3,4.8-20.6,9.7-30.9,14.6c-4.6,2.2-9.1,4.5-13.6,6.8c-0.7,0.4-1.3,0.9-2,1.4c0.8,0.2,1.5,0.5,2.3,0.4
				c6.7-0.3,13.4-0.3,20.1-0.7C456,835,474.2,836.4,492.3,834.7 M1672.2,772.9c-0.2-0.6-0.3-0.9-0.5-1.1c-1.6-2.5-3.2-5.1-4.9-7.6
				c-3.1-4.8-6.2-9.5-9.2-14.3c-3.4-5.3-6.8-10.6-10.2-15.9c-0.5-0.8-1.1-1.2-1.7,0.1c-0.9,1.9-2.2,3.6-3.2,5.4
				c-4.1,7.5-8,15.1-12.1,22.5c-2.8,5.1-5.8,10.2-8.6,15.3c-0.6,1.1-1.2,2.3-1.6,3.5c-0.1,0.3,0.5,1.4,0.8,1.4
				c1.9-0.2,3.8-0.5,5.7-0.9c2.7-0.5,5.3-1.1,8-1.6c2.6-0.4,5.3-0.6,7.9-1c4.4-0.8,8.7-1.8,13.1-2.6c4.5-0.7,9.1-1.2,13.6-1.9
				C1670.1,774.1,1671.1,773.3,1672.2,772.9 M1669.4,777.2c-0.2-0.3-0.3-0.5-0.5-0.8c-0.4,0-0.8-0.1-1.2-0.1c-1,0.2-1.9,0.5-2.9,0.7
				c-2.3,0.4-4.7,0.7-7,1.2c-2.2,0.4-4.4,1.1-6.6,1.5c-4.2,0.7-8.5,1.2-12.7,1.9c-4.9,0.8-9.8,1.7-14.8,2.6c-1.7,0.3-3.5,0.4-5.1,1
				c-1,0.4-2,1.2-2.7,2.1c-2.7,3.2-5.3,6.6-7.9,9.9c-2.4,3-4.8,6-7.1,9.1c-3.7,4.8-7.3,9.6-10.9,14.4c-2.3,3-4.7,5.9-7,8.9
				c-1,1.3-2,2.6-2.9,4c-0.3,0.4-0.2,1-0.4,1.5c0.4-0.2,0.8-0.4,1.1-0.6c4.4-2.8,8.7-5.7,13.1-8.5c7.9-5,15.8-9.9,23.7-15
				c8.4-5.4,16.6-11.1,24.9-16.6c8.5-5.6,17-11.1,25.5-16.7C1668.5,777.5,1669,777.3,1669.4,777.2 M1852.4,675.2
				c0-9.4,0-18.7,0-28.1c0-0.9-0.5-2.3-1.1-2.7c-8.3-4.6-16.6-9-25-13.5c-0.5-0.2-1-0.3-1.5-0.4c0,0.6-0.2,1.3,0,1.8
				c1.1,3.8,2.3,7.7,3.4,11.5c1.2,4.2,2.2,8.4,3.3,12.6c1,3.7,2,7.3,3,11c1.1,4,2.1,8.1,3.1,12.1c1,4,2,8.1,3.2,12.1
				c1.4,4.4,1.7,9.5,7,11.6c0.7,0.3,1.3,0.7,1.9,1.1c0.8,0.4,1.5,0.8,2.3,1.2c0.2-1,0.5-1.9,0.5-2.9
				C1852.4,693.6,1852.4,684.4,1852.4,675.2 M322.2,673.5c-0.4-0.7-1.3-1.8-1.6-3c-1.4-4.4-2.3-9-3.9-13.3c-1.6-4.5-3.6-9-5.7-13.3
				c-1.2-2.4-1.8-2.4-3.6-0.4c-4.1,4.3-8.1,8.6-12.1,12.9c-1,1-1,4.9-0.4,6.2c1.6,3.2,3.2,6.4,4.6,9.6c2.5,5.9,4.7,11.8,7.2,17.7
				c1.4,3.3,3,6.5,4.4,9.8c3.1,7.2,6.2,14.4,9.4,21.6c0.3,0.7,0.9,1.2,1.4,1.8c0.1-0.7,0.3-1.4,0.3-2.1c0-8.5,0-17.1,0-25.6
				C322.1,688.4,322.2,681.3,322.2,673.5 M1660.4,731.9c-3.6,0-6.3,0-9.1,0c-1.4,0-1.7,0.5-1,1.7c1.1,1.9,2.2,3.8,3.4,5.7
				c3.4,5.3,6.8,10.6,10.1,15.9c3,4.8,5.9,9.7,8.9,14.5c0.9,1.5,1.9,1.9,3.2,0.3c2.2-2.9,4.6-5.7,6.7-8.7c3.3-4.6,6.6-9.2,9.5-14
				c1.6-2.7,4-4.9,4.1-8.8c0.1-4.1-0.9-7.9-1.5-11.8c-0.4-2.5-1.4-2.1-3.2-1.4c-3.9,1.5-7.8,2.9-11.8,4
				C1673.1,731.2,1666.5,732.3,1660.4,731.9 M907.3,687c0.1,0,0.1,0,0.2,0c-0.2-1.8,0-3.8-0.7-5.4c-1.3-2.9-3-5.7-4.7-8.4
				c-3.7-6-7.4-12-11.1-17.9c-2-3.2-4.1-6.3-6.1-9.5c-0.7-1.1-0.9-0.9-1.3,0.1c-0.2,0.5-0.6,1-0.7,1.5c-0.3,3.5-0.7,6.9-0.9,10.4
				c-0.4,5-0.6,10.1-1,15.1c0,0.3-0.1,0.5-0.1,0.8c-0.6,4.2-1.2,8.5-1.6,12.7c-0.5,4.8-0.6,9.7-1,14.5c0,0.4-0.2,0.7-0.3,1.1
				c-0.5,3.8-1.1,7.5-1.5,11.3c-0.2,1.3,0.5,1.5,1.5,0.8c1.1-0.8,2.2-1.7,3.3-2.5c6.1-4.6,12.2-9.3,18.4-13.9c2-1.5,4.2-3,6.1-4.6
				c0.7-0.6,1.2-1.7,1.4-2.7C907.5,689.2,907.3,688.1,907.3,687 M1869.5,838.6c0,1.3,0,2,0,2.8c0,3.2,0,3.3,2.9,2.3
				c9.5-3.2,19-6.6,28.6-9.7c2.4-0.8,1.9-1.9,1.6-3.5c-0.5-2.3-1-4.6-1.5-6.9c-0.5-2.3-1-4.6-1.4-6.9c-0.7-3.6-1.5-7.3-2.2-10.9
				c-0.8-4-1.4-8.1-2.1-12.1c-0.7-3.9-1.6-7.8-2.4-11.7c-0.1-0.6-0.4-1.1-0.6-1.6c-0.4,0.4-1,0.8-1.2,1.3c-1.2,2.9-2.3,5.9-3.6,8.9
				c-1.7,4.1-3.6,8.2-5.3,12.3c-3.2,7.9-6.5,15.8-9.5,23.8C1871.2,830.6,1868.6,834.5,1869.5,838.6 M470.7,770.7c-3.1,0-6.1,0-9.2,0
				c-6.7,0-13.3,0-20,0c-0.6,0-1.2,0.3-1.7,0.5c0.4,0.5,0.6,1.1,1.1,1.5c1.1,0.9,2.4,1.6,3.5,2.7c9.5,9.1,18.9,18.2,28.3,27.4
				c1.2,1.2,2.2,1.9,3.5,0.1c3-4,6.1-8,9.3-11.9c3.2-4,6.6-7.8,9.9-11.8c1.7-2,3.4-3.9,4.9-5.9c0.5-0.6,0.6-1.5,0.8-2.2
				c-0.7-0.1-1.4-0.3-2.1-0.3C489.6,770.7,480.1,770.7,470.7,770.7 M2145.3,838.3c0-0.1,0-0.2,0-0.3c9,0.4,18.1,0.9,27.1,1.2
				c6,0.2,12,0.1,18.1,0.1c0.4,0,0.8-0.3,1.2-0.4c-0.3-0.3-0.6-0.6-1-0.8c-2-0.8-4.2-1.4-6.1-2.4c-4.2-2.3-8.9-2.8-13.1-5.1
				c-5.1-2.7-10.7-4.4-16-6.5c-5.6-2.2-11.2-4.4-16.8-6.6c-3.7-1.4-7.3-2.8-10.9-4.4c-1.6-0.7-2.6-0.5-3.1,1.3
				c-0.4,1.5-0.8,3-1.4,4.3c-1.4,2.8-2.9,5.4-4.3,8.1c-1.5,2.9-2.9,5.9-4.5,8.9c-0.6,1.2-0.4,1.7,0.9,1.8c4,0.3,8,0.7,12.1,0.8
				C2133.3,838.4,2139.3,838.3,2145.3,838.3 M1852.4,736c0-8.3,0.1-16.7-0.1-25c0-1.2-0.7-2.8-1.5-3.5c-1.9-1.7-4.2-3-6.3-4.3
				c-1.4-0.9-2.5-0.9-2.9,1.2c-1.1,4.8-2.4,9.5-3.6,14.2c-1.8,6.4-3.6,12.7-5.4,19.1c-1.5,5.5-3,11-4.7,16.4
				c-0.5,1.7,0.3,1.9,1.4,2.2c1.7,0.5,3.4,0.8,5,1.3c5.3,1.6,10.6,3.3,15.8,5.1c2,0.7,2.4,0.1,2.4-1.9
				C1852.3,752.5,1852.4,744.3,1852.4,736 M1869.5,622.8c0,9.1,0,18.2,0,27.2c0,0.7,0.3,1.4,0.4,2.1c0.6-0.4,1.2-0.7,1.7-1.2
				c2.3-2.2,4.5-4.4,6.7-6.7c7.3-7.6,14.6-15.2,21.9-22.7c1-1,1.1-1.9,0-2.8c-0.9-0.7-2-1.3-2.9-2.1c-4.9-4.3-9.8-8.6-14.7-12.9
				c-3.5-3.1-6.9-6.3-10.4-9.5c-0.2-0.2-0.4-0.4-0.6-0.6c-1.1-0.9-1.9-0.8-2,0.8c-0.1,0.6,0,1.3,0,1.9
				C1869.5,605.2,1869.5,614,1869.5,622.8 M2162,759.9c0.8,0,1.3-0.1,1.7,0c1.8,0.3,2.4-0.3,1.6-2.1c-0.1-0.3,0-0.8-0.2-1.1
				c-2.5-6.5-5.1-13-7.6-19.6c-2.1-5.4-3.9-11-5.9-16.4c-1-2.8-2.2-5.6-3.4-8.3c-0.2-0.5-1.1-1.1-1.5-1c-3.6,0.8-7.1,1.7-10.6,2.6
				c-5.6,1.4-11.1,2.9-16.7,4.3c-0.6,0.2-1.2,0.4-1.8,0.6c0.3,0.6,0.5,1.4,1,1.8c4.6,4.4,9.3,8.7,13.9,13.1
				c8.3,7.9,16.5,15.9,24.8,23.9C2158.7,759.2,2160.1,760.4,2162,759.9 M2300.5,817.3c0,5,0,10,0,15c0,0.6,0.2,1.2,0.2,1.9
				c0.5-0.3,1.1-0.4,1.6-0.8c3.2-2.2,6.3-4.4,9.5-6.6c6.4-4.3,12.7-8.7,19.1-13c5.4-3.6,10.8-7.2,16.2-10.9c2.4-1.6,4.7-3.3,7-4.9
				c0.3-0.2,0.5-0.5,0.8-0.7c-0.4-0.1-0.8-0.4-1.2-0.4c-2.4,0.2-4.7,0.7-7.1,0.8c-6.2,0.4-12.3,0.6-18.5,0.9
				c-8.4,0.4-16.8,0.7-25.2,0.9c-2,0.1-2.5,0.9-2.4,2.7C2300.6,807.3,2300.5,812.3,2300.5,817.3 M1895.6,713.5c0-9,0-18,0-27
				c0-1.2-0.3-2.5-0.5-3.7c-1,0.8-2,1.5-2.9,2.4c-5.8,5.7-11.5,11.5-17.3,17.3c-5.6,5.6-5.6,5.5-5.5,13.4c0,0.2-0.1,0.4,0,0.6
				c0.3,0.8,0.5,1.8,1,2.4c7.6,8,15.3,16,23.1,24c0.5,0.5,1.2,0.7,1.7,1.1c0.1-0.6,0.3-1.2,0.3-1.8
				C1895.6,732.6,1895.6,723,1895.6,713.5 M543.5,834.7h34.2c0.6,0,1.1,0.1,1.7,0c0.3,0,0.6-0.3,0.8-0.5c-0.2-0.2-0.3-0.4-0.5-0.5
				c-0.4-0.2-0.8-0.5-1.2-0.6c-4.2-1.7-8.5-3.3-12.8-5c-3.4-1.3-6.8-2.8-10.2-4.1c-7.9-3.1-15.8-6.1-23.7-9.2
				c-3.7-1.5-7.5-2.8-11.2-4.4c-1.8-0.8-2.3-0.1-3,1.4c-3.1,6.6-6.3,13.2-9.5,19.8c-1.5,3.1-1.4,3.2,2.2,3.2
				C521.3,834.7,532.4,834.7,543.5,834.7 M553.8,754.5c1.3,0,2.3,0.1,3.2-0.1c0.3-0.1,0.9-0.9,0.8-1.1c-1.7-4.8-3.5-9.5-5.3-14.3
				c-2.5-6.8-5.1-13.6-7.6-20.4c-1-2.7-2-5.5-3.1-8.1c-0.3-0.7-1.2-1.6-1.8-1.6c-1.3,0-2.6,0.6-4,0.9c-4.3,1.1-8.6,2.1-12.9,3.3
				c-3.5,0.9-7,2-10.5,3c-1.6,0.5-2,1.2-0.5,2.6c4.5,4.1,8.9,8.3,13.4,12.4c3.3,3.1,6.7,6.1,10,9.1c4.3,3.9,8.6,7.8,12.7,11.9
				C549.9,753.7,551.6,755.1,553.8,754.5 M2133.8,759.9c6.5,0,13,0,19.5,0c0.9,0,1.7-0.3,2.6-0.5c-0.5-0.6-0.9-1.4-1.5-1.9
				c-4.4-4.2-8.9-8.3-13.3-12.5c-8-7.6-15.9-15.2-23.8-22.9c-0.1-0.1-0.3-0.3-0.4-0.4c-1.1-1-1.8-0.8-2,0.8
				c-0.3,2.9-0.6,5.8-0.9,8.7c-0.4,4.2-0.6,8.4-1,12.6c0,0.3,0,0.6-0.1,0.8c-0.6,4-1.3,7.9-1.6,11.9c-0.3,3.2-0.1,3.2,3.3,3.2
				C2121,759.9,2127.4,759.9,2133.8,759.9 M1868.9,658c0.2,0.1,0.4,0.2,0.6,0.3c-0.2,2,0.1,3.4,2.2,4.5c4.6,2.6,9,5.7,13.5,8.5
				c3.2,2,6.4,3.9,9.7,5.7c0.8,0.5,1.5,0.8,1.7-0.7c0.3-3.2,0.6-6.4,0.9-9.6c0.3-4.6,0.6-9.1,0.9-13.7c0-0.2,0-0.4,0.1-0.5
				c0.6-4.1,1.3-8.1,1.7-12.2c0.5-4.5,0.6-9,1-13.4c0-0.4,0.3-0.9,0.3-1.3c0.1-0.7,0.1-1.5,0.1-2.3c-0.6,0.4-1.2,0.7-1.7,1.2
				c-6.8,7.1-13.7,14.3-20.5,21.4c-2.6,2.7-5.5,5.3-8,8.1C1870.3,655.1,1869.7,656.6,1868.9,658 M2078.4,809.9
				c-0.7-0.4-1.3-1-1.9-1.2c-4-1-8-2-11.9-2.9c-4.5-1-9.1-2-13.6-3.1c-4.3-1-8.6-2.2-13-3.2c-0.7-0.1-2.1,0.6-2.4,1.3
				c-1.4,3-2.5,6-3.7,9.1c-3,8-5.9,16-8.9,24c-0.2,0.5-0.3,1-0.4,1.6c0.6-0.1,1.2-0.1,1.8-0.4c7.3-3.4,14.7-6.7,22-10.2
				c6.9-3.2,13.8-6.6,20.7-9.8c3.2-1.5,6.5-2.9,9.8-4.4C2077.3,810.7,2077.7,810.4,2078.4,809.9 M1869.5,794.6L1869.5,794.6
				c0,10.6,0,21.1,0,31.7c0,0.5,0.3,1.1,0.5,1.6c0.3-0.4,0.7-0.8,0.9-1.3c1.7-3.9,3.3-7.7,4.9-11.6c3-7.4,6-14.9,9-22.3
				c1.7-4.2,3.6-8.4,5.3-12.6c0.6-1.5,0.3-2.9-1.1-4c-1.7-1.4-3.4-2.8-5.1-4.1c-4.1-3.2-8.2-6.5-12.3-9.7c-0.5-0.4-1.2-0.7-1.8-1
				c-0.1,0.6-0.3,1.2-0.3,1.8C1869.5,773.6,1869.5,784.1,1869.5,794.6 M1852.4,619c0-6.5,0-13,0-19.5c0-1.1-0.4-2.2-0.5-3.3
				c-0.9,0.8-1.9,1.5-2.6,2.4c-4.4,5.2-8.7,10.6-13.2,15.8c-2.9,3.4-6.1,6.6-9.1,10.1c-2.7,3.1-2.6,3.2,0.5,5.5
				c0.4,0.3,0.7,0.7,1.1,0.9c7.1,3.7,14.2,7.4,21.3,11.1c2.3,1.2,2.5,1,2.5-1.8C1852.4,633.1,1852.4,626,1852.4,619 M2166,716.7
				c0,0.7-0.1,1,0,1.3c1.9,5.5,3.9,11,5.9,16.4c2.9,7.9,5.7,15.9,8.9,23.8c1.1,2.7,1.4,6.5,5.6,6.9c0.9,0.1,1.9,0.1,2.7,0.4
				c7.7,2.4,15.3,4.9,22.9,7.4c0.5,0.2,1,0.2,1.5,0.2c-0.1-0.5-0.2-1.1-0.4-1.5c-0.4-0.7-1-1.3-1.5-1.9c-1.1-1.2-2.4-2.3-3.5-3.6
				c-4.6-5.4-9-10.8-13.6-16.2c-2.8-3.3-5.8-6.4-8.7-9.6c-1.9-2.1-3.7-4.3-5.6-6.5c-3.2-3.8-6.4-7.6-9.6-11.4
				c-1-1.2-1.9-2.5-2.9-3.7C2167.3,718.2,2166.8,717.7,2166,716.7 M1869.5,684.5c0,6,0,12,0,18c0,0.6,0.2,1.2,0.3,1.8
				c0.5-0.3,1.1-0.5,1.5-0.9c7.5-7.4,14.9-14.9,22.4-22.3c1-1,1.6-1.7-0.3-2.6c-2-0.9-3.7-2.3-5.6-3.5c-5.3-3.3-10.5-6.6-15.8-9.8
				c-2.2-1.3-2.6-1.1-2.6,1.6C1869.4,672.7,1869.5,678.6,1869.5,684.5 M1927.6,774.5l0-0.2c0.8,0,1.7,0.1,2.5,0
				c0.7-0.1,1.4-0.3,2-0.5c-0.5-0.5-0.9-1-1.5-1.4c-7-4.8-14-9.6-21.1-14.4c-3.8-2.6-7.6-5.1-11.4-7.6c-0.3-0.2-1.5,0.3-1.5,0.6
				c-0.4,2.5-0.8,5-1.1,7.6c-0.3,2.8-0.6,5.6-0.9,8.4c-0.3,2.3-0.5,4.5-1,6.7c-0.6,2.7-0.3,3.3,2.5,3.2c1.8-0.1,3.6-0.7,5.4-0.9
				c3.6-0.4,7.3-0.6,10.9-0.9C1917.5,775,1922.5,774.7,1927.6,774.5 M465,754.5c6.7,0,13.3,0,20,0c0.5,0,1.1-0.4,1.6-0.6
				c-0.3-0.3-0.5-0.8-0.9-1c-4.9-3.1-9.8-6.1-14.7-9.1c-5.8-3.5-11.6-7-17.4-10.5c-2.2-1.4-2.7-1.2-3.5,1.2
				c-0.7,2.1-1.5,4.3-2.3,6.4c-1.4,3.8-2.7,7.5-4.1,11.2c-0.7,1.8-0.4,2.5,1.8,2.4C452.1,754.4,458.6,754.5,465,754.5 M1869.5,756
				c-0.2,0.1-0.4,0.1-0.5,0.2c0.6,1.2,1,2.7,2,3.5c3.6,3.1,7.5,5.9,11.2,8.8c2.7,2.1,5.5,4.2,8.2,6.5c1.8,1.5,1.7,0.2,1.7-1
				c0.1-1.3,0.1-2.6,0.3-3.8c0.5-3,1.1-5.9,1.5-8.9c0.6-3.7,1.1-7.4,1.7-11c0.2-1.1,0.3-1.7-1.3-1.4c-2.8,0.6-5.6,0.7-8.4,1.2
				c-4.5,0.8-8.9,2-13.4,2.5C1869.9,752.8,1869.1,753.6,1869.5,756 M1869.5,736.2c0,4.4,0,8.9,0,13.3c0,1.6,0.2,2.2,2.2,1.7
				c4-1,8.1-1.5,12.1-2.2c2.5-0.4,5-0.9,7.5-1.5c1.3-0.3,2.5-0.8,3.8-1.1c-1-1.1-2-2.2-3-3.2c-6.9-6.9-13.9-13.9-20.8-20.8
				c-0.4-0.4-0.9-0.6-1.3-0.9c-0.2,0.6-0.5,1.1-0.5,1.7C1869.4,727.5,1869.5,731.9,1869.5,736.2 M1852.4,778.8c0-3.8,0-7.6,0-11.4
				c0-1.7-0.5-2.8-2.4-3.1c-1.7-0.3-3.3-0.9-5-1.4c-5.8-1.8-11.6-3.7-17.4-5.6c-0.2-0.1-0.5,0-0.8,0.1c0,0.3,0,0.7,0.1,0.9
				c1.3,1.8,2.5,3.6,3.8,5.3c1.8,2.5,3.6,5,5.5,7.6c3,4.1,6,8.3,9,12.4c1.7,2.3,3.2,4.7,4.9,6.9c0.4,0.6,1.1,0.9,1.7,1.3
				c0.2-0.7,0.5-1.3,0.5-2C1852.4,786.2,1852.4,782.5,1852.4,778.8 M1852.4,830c0-4.3,0-8.7,0-13c0-0.5-0.4-1.1-0.6-1.6
				c-0.4,0.4-0.9,0.6-1.1,1.1c-4.8,7.3-9.4,14.8-14.3,22c-1.4,2.1-0.4,2.2,1.1,2.7c4.2,1.2,8.5,2.3,12.5,3.9
				c2.2,0.8,2.4,0.2,2.4-1.6C1852.4,838.9,1852.4,834.4,1852.4,830 M2028.7,768.4c0,0.1,0,0.1-0.1,0.2c0.1,0,0.1,0.1,0.2,0
				c0,0,0-0.1,0.1-0.2C2028.8,768.4,2028.7,768.4,2028.7,768.4 M1833,702.7c0-0.1-0.1-0.1-0.1-0.2c0,0.1,0,0.2,0,0.3
				C1832.9,702.8,1833,702.7,1833,702.7 M2192.9,836.9c-0.1,0-0.2,0-0.2,0.1c0,0,0,0.2,0.1,0.2c0.1,0,0.2,0,0.2-0.1
				C2193,837,2192.9,836.9,2192.9,836.9"/>
			<path style="clip-path:url(#SVGID_00000151513916536763560350000008219512353009559463_);fill:#FFFFFF;" d="M1191.8,928.4
				c0-0.8-0.1-1.3,0-1.7c1.1-4.9,2.3-9.7,3.5-14.6c3.8-15.9,7.6-31.7,11.4-47.6c2.3-9.6,4.7-19.2,7-28.9c2.2-9.3,4.4-18.7,6.6-28
				c1.3-5.5,2.9-11,4.2-16.5c1-4.3,1.9-8.6,2.9-12.8c1.1-4.4,2.3-8.8,3.3-13.3c1-4.2,2-8.5,3-12.7c0.9-4,1.9-7.9,2.9-11.9
				c0.8-3.4,1.6-6.9,2.5-10.3c1.1-4.3,2.2-8.6,3.3-12.9c0.7-2.8,1.4-5.6,2.1-8.4c1.1-4.5,2.3-8.9,3.4-13.4c1.1-4.5,1.9-9,3-13.5
				c1-4.1,2.2-8.2,3.2-12.3c0.7-2.9,1.4-5.8,2.2-8.7c1.1-4.4,2.3-8.8,3.3-13.1c0.7-3,1.3-6,2.1-9c1.1-4.6,2.3-9.1,3.4-13.7
				c1-4.2,1.9-8.5,2.9-12.7c1.1-4.2,2.4-8.4,3.4-12.6c1.1-4.2,1.9-8.5,2.9-12.7c1.4-5.7,2.9-11.4,4.3-17.1c1-4.1,1.9-8.3,2.9-12.4
				c1.4-5.4,2.9-10.8,4.2-16.3c0.8-3.3,1.3-6.6,2.1-9.8c0.9-4.1,2-8.1,3-12.1c0.8-3.1,1.6-6.1,2.4-9.2c1-4.1,2-8.3,3-12.4
				c0.8-3.2,1.6-6.3,2.4-9.5c0.1-0.5,0.6-1,0.8-1.5c0.4,0.4,0.8,0.7,1,1.1c2.7,4.9,5.3,9.9,7.9,14.8c4.9,9.2,9.8,18.5,14.7,27.7
				c1.9,3.5,3.8,6.9,5.7,10.4c5.3,10,10.5,20,15.8,30c2.1,4.1,4.3,8.1,6.5,12.1c4.8,8.9,9.5,17.8,14.3,26.7c2.2,4,4.4,8.1,6.5,12.1
				c5,9.5,10.1,19,15.1,28.5c2.1,4,4.3,7.9,6.4,11.9c4.8,9,9.6,18,14.4,27c1.7,3.2,3.5,6.5,5.4,9.6c0.9,1.5,0.7,2.4-0.5,3.5
				c-5.2,5.1-10.4,10.3-15.6,15.5c-13.3,13.5-26.5,27.1-39.8,40.7c-12.2,12.4-24.3,24.9-36.4,37.3c-12.7,13-25.5,26.1-38.2,39.1
				c-12.3,12.6-24.7,25.3-37,37.9c-12.9,13.2-25.8,26.3-38.6,39.5c-4.6,4.7-9,9.6-13.4,14.3C1193.2,927.1,1192.7,927.6,1191.8,928.4
				"/>
			<path style="clip-path:url(#SVGID_00000151513916536763560350000008219512353009559463_);fill:#FFFFFF;" d="M1184.1,902.4
				c-0.3-4.7-0.5-9.4-0.8-14c-0.2-3.2-0.4-6.4-0.9-9.5c-1-7-1.7-14-1.8-21c-0.1-3.2-0.5-6.4-0.8-9.6c-0.5-4.3-1.2-8.6-1.8-13
				c0-0.1,0-0.2,0-0.3c-0.3-5.4-0.4-10.8-0.9-16.2c-0.4-4.6-1.1-9.2-1.7-13.8c0-0.2,0-0.4-0.1-0.6c-0.3-4.9-0.5-9.7-0.9-14.5
				c-0.5-5.3-1.1-10.5-1.7-15.8c0-0.2,0-0.4,0-0.6c-0.3-5.6-0.5-11.2-1-16.8c-0.4-4.4-1.1-8.8-1.7-13.3c0-0.2,0-0.4,0-0.6
				c-0.3-5.5-0.5-11-1-16.5c-0.4-4.5-1.1-9-1.7-13.5c0-0.2,0-0.4-0.1-0.6c-0.3-5.4-0.5-10.8-1-16.2c-0.4-4.6-1.1-9.2-1.7-13.8
				c0-0.3,0-0.6-0.1-0.8c-0.3-5.6-0.6-11.2-0.9-16.8c0-0.1,0-0.2,0-0.3c-2.4-4.8,1.3-7.5,3.6-10.7c3.5-4.7,6.7-9.6,10.1-14.4
				c2.6-3.6,5.3-7.2,8-10.8c2.7-3.8,5.4-7.6,8.1-11.4c2.9-4,5.9-7.9,8.8-11.9c1.8-2.5,3.7-5,5.5-7.5c2.3-3.2,4.7-6.3,7-9.4
				c2.2-2.9,4.4-5.8,6.6-8.8c2.2-3,4.5-6,6.7-9c2.3-3.2,4.6-6.3,7-9.5c2.1-2.9,4.3-5.7,6.5-8.5c3.9-5.2,7.7-10.5,11.5-15.7
				c2.2-2.9,4.4-5.8,6.6-8.8c3.2-4.3,6.4-8.7,9.7-13c2.1-2.8,4.2-5.5,6.3-8.3c2.5-3.3,4.9-6.6,7.4-9.9c1.2-1.6,2.4-3.2,3.7-4.8
				c0.2-0.3,0.8-0.4,1.1-0.6c0.1,0.5,0.4,1,0.3,1.5c-1.4,6.3-2.9,12.5-4.5,18.7c-1.1,4.2-2.5,8.3-3.5,12.5
				c-1.1,4.4-1.8,8.9-2.8,13.3c-1.1,4.6-2.4,9.1-3.5,13.7c-1.3,5.6-2.4,11.3-3.7,17c-1,4.1-2.2,8.2-3.3,12.3
				c-0.8,3.3-1.4,6.6-2.2,9.8c-0.7,2.9-1.4,5.8-2.1,8.7c-0.8,3.1-1.6,6.1-2.3,9.2c-1.2,4.7-2.3,9.3-3.4,14c-0.8,3.3-1.3,6.6-2,9.9
				c-0.9,4.1-2,8.1-3,12.1c-0.8,3.4-1.6,6.9-2.4,10.3c-0.7,2.9-1.5,5.8-2.2,8.7c-1.1,4.6-2.1,9.2-3.2,13.7c-0.7,2.9-1.5,5.8-2.2,8.7
				c-1.1,4.7-2.2,9.3-3.3,14c-0.7,2.8-1.4,5.6-2.1,8.4c-0.8,3.5-1.6,7-2.4,10.6c-0.7,2.8-1.4,5.6-2.1,8.4c-0.8,3.1-1.6,6.1-2.4,9.2
				c-1.2,4.6-2.3,9.3-3.4,13.9c-1,4.5-1.9,9.1-3,13.5c-1,4.1-2.2,8.2-3.2,12.3c-0.8,3.3-1.4,6.5-2.2,9.8c-0.7,2.9-1.4,5.8-2.1,8.7
				c-0.8,3.5-1.6,7.1-2.4,10.6c-0.7,2.8-1.5,5.6-2.1,8.4c-1.1,4.7-2.2,9.3-3.3,14c-0.7,2.9-1.5,5.8-2.2,8.7c-0.8,3-1.5,6-2.3,8.9
				c-1.2,4.7-2.4,9.5-3.5,14.2c-1,4.5-1.8,9.1-2.9,13.6c-1,4.1-2.2,8.2-3.3,12.3c-0.8,3.2-1.4,6.4-2.1,9.6c-0.7,3-1.5,6-2.2,9
				c-0.8,3.4-1.6,6.9-2.3,10.3c-0.1,0.3,0,0.6-0.1,0.8c-0.4,0.5-0.8,0.9-1.2,1.4c-0.2-0.5-0.4-1-0.4-1.5c-0.3-4.2-0.6-8.4-0.9-12.7
				C1184.1,902.4,1184.1,902.4,1184.1,902.4"/>
			<polygon style="clip-path:url(#SVGID_00000151513916536763560350000008219512353009559463_);" points="1288.2,489.7 
				1288.5,489.8 1288.2,489.9 			"/>
		</g>
	</g>
</g>
</svg>
