<svg width="16" height="17" viewBox="0 0 16 17" fill="none" xmlns="http://www.w3.org/2000/svg">
<path d="M8 6.125V9.09375M15.125 8.5C15.125 9.43567 14.9407 10.3622 14.5826 11.2266C14.2246 12.0911 13.6998 12.8765 13.0381 13.5381C12.3765 14.1998 11.5911 14.7246 10.7266 15.0826C9.86217 15.4407 8.93567 15.625 8 15.625C7.06433 15.625 6.13783 15.4407 5.27338 15.0826C4.40894 14.7246 3.62348 14.1998 2.96186 13.5381C2.30025 12.8765 1.77542 12.0911 1.41736 11.2266C1.05929 10.3622 0.875 9.43567 0.875 8.5C0.875 6.61033 1.62567 4.79806 2.96186 3.46186C4.29806 2.12567 6.11033 1.375 8 1.375C9.88967 1.375 11.7019 2.12567 13.0381 3.46186C14.3743 4.79806 15.125 6.61033 15.125 8.5ZM8 11.4688H8.00633V11.4751H8V11.4688Z" stroke="currentColor" stroke-width="1.5" stroke-linecap="round" stroke-linejoin="round"/>
</svg>