<?xml version="1.0" encoding="UTF-8"?>
<svg id="Layer_2" data-name="Layer 2" xmlns="http://www.w3.org/2000/svg" width="90.6" height="90.6" xmlns:xlink="http://www.w3.org/1999/xlink" version="1.1" viewBox="0 0 90.6 90.6">
  <defs>
    <style>
      .cls-1, .cls-2, .cls-3, .cls-4, .cls-5, .cls-6, .cls-7, .cls-8, .cls-9 {
        stroke-width: 0px;
      }

      .cls-1, .cls-3, .cls-4, .cls-5 {
        fill-rule: evenodd;
      }

      .cls-1, .cls-9 {
        fill: #653a2b;
      }

      .cls-10 {
        clip-path: url(#clippath);
      }

      .cls-2 {
        fill: none;
      }

      .cls-3, .cls-8 {
        fill: #231f20;
      }

      .cls-4, .cls-6 {
        fill: #fefefe;
      }

      .cls-11 {
        clip-path: url(#clippath-1);
      }

      .cls-5 {
        fill: #00ae42;
      }

      .cls-7 {
        fill: #fff;
      }
    </style>
    <clipPath id="clippath">
      <rect class="cls-2" width="90.5" height="90.5"/>
    </clipPath>
    <clipPath id="clippath-1">
      <rect class="cls-2" width="90.6" height="90.6"/>
    </clipPath>
  </defs>
  <circle class="cls-7" cx="45.3" cy="45.3" r="45"/>
  <g id="Layer_1-2" data-name="Layer 1-2">
    <g>
      <g class="cls-10">
        <path class="cls-8" d="M45.3,90.6C20.3,90.6,0,70.3,0,45.3S20.3,0,45.3,0s45.3,20.3,45.3,45.3-20.3,45.3-45.3,45.3ZM45.3.7C20.7.7.7,20.7.7,45.3s20,44.5,44.6,44.5,44.6-20,44.6-44.6S69.9.7,45.3.7Z"/>
      </g>
      <g class="cls-11">
        <g>
          <path class="cls-6" d="M11.8,45.3c0-18.9,15.1-34.2,33.7-34.2s33.7,15.3,33.7,34.2-15.1,34.2-33.7,34.2S11.8,64.2,11.8,45.3"/>
          <path class="cls-8" d="M45.5,79.6c-18.7,0-33.9-15.4-33.9-34.3S26.8,11,45.5,11s33.9,15.4,33.9,34.3-15.2,34.3-33.9,34.3ZM45.5,11.3c-18.5,0-33.6,15.3-33.6,34s15.1,34,33.6,34,33.6-15.3,33.6-34S64,11.3,45.5,11.3Z"/>
          <polygon class="cls-8" points="35.2 16.1 34.9 16.2 34.3 14.5 35.5 14 35.6 14.2 34.6 14.6 34.8 15.1 35.7 14.8 35.8 15 34.9 15.3 35.2 16.1"/>
          <path class="cls-8" d="M36.9,13.8c-.4.1-.5.5-.4.9.1.4.5.7.8.6s.5-.5.4-.9c-.1-.4-.5-.7-.8-.6M37.4,15.5c-.7.2-1-.3-1.2-.7-.1-.4,0-1,.6-1.2.7-.2,1,.3,1.2.7.1.4,0,1-.6,1.2"/>
          <path class="cls-8" d="M39.7,13l.2,1.2c0,.4-.1.7-.6.8-.5,0-.8-.2-.8-.5l-.2-1.2h.2s.2,1.1.2,1.1c0,.4.3.5.6.4s.5-.2.4-.6l-.2-1.2h.2"/>
          <polygon class="cls-8" points="41.7 12.7 41.9 12.6 42.2 14.5 41.9 14.5 40.7 13.2 40.7 13.2 40.9 14.7 40.7 14.7 40.4 12.8 40.7 12.8 41.9 14.2 41.9 14.2 41.7 12.7"/>
          <path class="cls-8" d="M43,14.2h.5c.3,0,.5-.3.5-.8,0-.5-.3-.7-.6-.7h-.5s0,1.5,0,1.5M42.6,12.6h.8c.5,0,.8.3.8.8,0,.4-.1,1-.7,1h-.8c0,0-.1-1.8-.1-1.8Z"/>
          <polygon class="cls-8" points="46.2 14.3 44.8 14.3 44.8 12.5 46.2 12.4 46.2 12.7 45 12.7 45 13.2 46.1 13.2 46.1 13.5 45 13.5 45.1 14.1 46.2 14.1 46.2 14.3"/>
          <path class="cls-8" d="M46.9,14.1h.5c.3,0,.6-.2.6-.6,0-.5-.2-.7-.5-.8h-.5s0,1.4,0,1.4M46.8,12.4h.8c.5,0,.8.5.7,1,0,.4-.2.9-.9.9h-.8c0,0,.1-1.9.1-1.9h0Z"/>
          <path class="cls-8" d="M50.7,14.8h-.2s.2-1.3.2-1.3h-.4c0,0,0-.2,0-.2.3,0,.4,0,.5-.3h.2s-.3,1.8-.3,1.8"/>
          <path class="cls-8" d="M52.8,13.8c0-.1,0-.3-.3-.3-.2,0-.3.1-.4.2,0,.2,0,.3.2.4.2,0,.3,0,.4-.2M51.9,14.5c0,.1,0,.4.3.4.2,0,.4,0,.4-.3,0-.2,0-.4-.3-.4-.2,0-.4,0-.5.2M52.7,14.2c.2.2.2.4.2.5,0,.3-.3.5-.7.4,0,0-.3,0-.4-.2-.2-.2-.1-.4,0-.5,0-.2.2-.3.4-.4-.1,0-.2-.2-.2-.4,0-.2.2-.5.7-.4.4,0,.5.4.5.6,0,.3-.2.3-.3.3"/>
          <path class="cls-8" d="M53.5,14.1c.2-.6.6-.5.8-.5.3,0,.5.4.4.7,0,.3-.3.4-.6.4h-.2c-.3.1-.4.2-.4.3l1,.3v.2c0,0-1.3-.4-1.3-.4.1-.4.3-.5.6-.6h.3c.2-.1.4-.2.4-.4,0-.1,0-.3-.3-.4-.3-.1-.4.2-.5.3h-.2"/>
          <path class="cls-8" d="M55.1,15.2l.6.2.3-.8h0l-.8.6h0ZM55.8,15.6l-.2.4h-.2c0,0,.2-.5.2-.5l-.8-.3v-.2c0,0,1.2-.8,1.2-.8h.2c0,0-.4,1.2-.4,1.2h.2c0,0,0,.3,0,.3h-.2c0,0,0,0,0,0Z"/>
          <polygon class="cls-8" points="30.2 74.5 30 74.3 30.9 72.7 31.1 72.8 30.2 74.5"/>
          <polygon class="cls-8" points="32.8 73.7 33 73.8 32.2 75.5 32 75.4 31.8 73.6 31.8 73.6 31.1 74.9 30.9 74.8 31.7 73.2 32 73.3 32.2 75.1 32.2 75.1 32.8 73.7"/>
          <path class="cls-8" d="M34.6,75c0-.3-.2-.5-.3-.6-.3-.1-.7,0-.8.5-.2.4-.2.8.3.9.2,0,.5,0,.7-.3h.2c-.4.7-.9.5-1,.5-.4-.2-.7-.6-.4-1.2.2-.5.7-.8,1.2-.6.5.2.6.6.5.9h-.2"/>
          <path class="cls-8" d="M36.3,75.2c-.4-.1-.7,0-.9.5-.1.4,0,.8.4.9.4.1.7,0,.9-.5.1-.4,0-.8-.4-.9M35.7,76.9c-.7-.2-.7-.8-.5-1.2.1-.4.5-.9,1.2-.6.7.2.7.8.5,1.2-.1.4-.5.9-1.2.6"/>
          <path class="cls-8" d="M37.6,76.3h.6c.2.2.4.2.4-.1,0-.3-.1-.3-.3-.4h-.6c0-.1-.1.5-.1.5M37.4,77.3h-.2c0,0,.4-1.9.4-1.9l.8.2c.3,0,.6.2.5.6,0,.3-.2.3-.3.4,0,0,.2.1.1.4v.3c0,0,0,.1,0,.2h0s-.3,0-.3,0c0-.1,0-.4,0-.5,0-.2,0-.3-.2-.4h-.6c0-.1-.2.6-.2.6h0Z"/>
          <path class="cls-8" d="M39.7,76.8h.5c.2.1.4,0,.4-.2,0-.2,0-.3-.3-.4h-.5c0,0-.1.6-.1.6M39.5,77.8h-.2s.3-1.9.3-1.9l.8.2c.3,0,.5.3.5.6,0,.3-.2.5-.6.4h-.6c0,0-.1.7-.1.7h0Z"/>
          <path class="cls-8" d="M42.3,76.5c-.4,0-.7.2-.7.7,0,.4.2.8.5.8.4,0,.7-.2.7-.7,0-.4-.2-.8-.5-.8M42.1,78.2c-.7,0-.8-.7-.8-1.1,0-.4.3-.9,1-.9.7,0,.8.7.8,1.1,0,.4-.3.9-1,.9"/>
          <path class="cls-8" d="M43.9,77.3h.6c.2,0,.4,0,.4-.3,0-.3-.2-.3-.3-.3h-.6v.6M43.9,78.3h-.2v-1.9s.9,0,.9,0c.3,0,.6.1.6.5s-.2.4-.3.4c.1,0,.2,0,.2.4v.3c0,0,0,.1,0,.2h0s-.3,0-.3,0c0-.1,0-.4,0-.5,0-.2,0-.3-.3-.3h-.6v.8s0,0,0,0Z"/>
          <path class="cls-8" d="M46.7,77.5l-.3-.8h0l-.3.8h.6ZM46.1,77.8l-.2.6h-.3l.7-1.9h.3l.7,1.8h-.3l-.2-.5h-.8Z"/>
          <polygon class="cls-8" points="47.2 76.4 48.7 76.3 48.7 76.5 48.1 76.6 48.2 78.2 48 78.2 47.8 76.6 47.2 76.7 47.2 76.4"/>
          <polygon class="cls-8" points="50.8 77.9 49.4 78.1 49.2 76.2 50.5 76.1 50.5 76.3 49.5 76.4 49.5 77 50.5 76.9 50.6 77.1 49.6 77.2 49.7 77.8 50.8 77.7 50.8 77.9"/>
          <path class="cls-8" d="M51.6,77.6h.5c.3-.2.5-.5.4-.9s-.4-.7-.7-.6h-.5c0,0,.3,1.5.3,1.5M51,76l.7-.2c.5,0,.8.2,1,.7,0,.4,0,1-.6,1.1l-.7.2-.4-1.8Z"/>
          <path class="cls-8" d="M55.6,76.7h-.2c0,0-.4-1.2-.4-1.2h-.4c0,.1,0,0,0,0,.3-.1.4-.2.3-.5h.2c0,0,.6,1.7.6,1.7"/>
          <path class="cls-8" d="M56.5,75.9c0,.1.2.3.5.2.2,0,.3-.2.2-.5,0-.2-.3-.3-.5-.2-.2,0-.3.3-.2.5M56.8,74.8c0,0-.2-.2-.4-.1-.2,0-.2.3-.2.4,0,.2.2.2.4.1.2,0,.2-.2.2-.4M57,75.2c.3,0,.4.2.4.3.1.3,0,.6-.4.8,0,0-.3,0-.5,0-.2,0-.3-.2-.3-.3,0-.2,0-.4.1-.5-.2,0-.3,0-.4-.2,0-.2,0-.5.3-.7.4-.2.6,0,.7.2,0,.2,0,.4,0,.4"/>
          <path class="cls-8" d="M57.9,74.7c0,0,.1-.2.3-.2.3-.1.6,0,.8.3,0,.2.2.6-.3.9-.2,0-.5.1-.8-.2h.2c.1,0,.3,0,.5,0,.2,0,.3-.3.2-.5-.1-.2-.3-.3-.5-.2-.1,0-.2.2-.2.3h-.2c0,0-.3-.9-.3-.9l.9-.4v.2c0,0-.6.3-.6.3v.5"/>
          <path class="cls-8" d="M60.5,74.7h-.2c0,.1-.6-1.1-.6-1.1l-.4.2v-.2c.2-.2.3-.2.2-.5h.2c0,0,.8,1.5.8,1.5"/>
          <path class="cls-8" d="M5.1,48.4c-.4.2-1.3.5-1.1,1.9,0,.8.8,1.8,2.9,1.6,1.4-.2,2.6-.9,2.4-2.2-.1-.9-.7-1.5-1.7-1.5l-.2-1.6c1.7.1,3,1.1,3.2,3,.2,2-.9,3.7-3.6,4-2.7.3-4.3-1.1-4.5-3-.3-2.3,1.2-3.4,2.3-3.7l.2,1.6"/>
          <rect class="cls-8" x="5.6" y="40.2" width="1.6" height="7.8" transform="translate(-37.7 49.7) rotate(-89)"/>
          <polygon class="cls-8" points="11 38.6 10.7 40.2 4.4 39.1 4 41.4 2.6 41.2 3.7 35 5.1 35.2 4.7 37.5 11 38.6"/>
          <polygon class="cls-8" points="12.8 32.4 12.2 33.9 9.5 32.8 4 33.6 4.7 31.8 8.4 31.5 5.8 28.9 6.5 27.1 10.1 31.3 12.8 32.4"/>
          <path class="cls-8" d="M21.3,18.3c.7-.6,1.2-1.8-.2-3.4-1.4-1.6-2.7-1.2-3.4-.7-.7.6-1.2,1.8.2,3.4,1.4,1.6,2.7,1.2,3.4.7M16.8,13.1c.8-.7,3.1-2.1,5.5.6s.6,4.9-.1,5.5c-.8.7-3.1,2.1-5.5-.6-2.4-2.8-.6-4.9.1-5.5"/>
          <polygon class="cls-8" points="27.2 15.3 25.8 16.2 21.8 9.5 26.5 6.7 27.2 7.9 23.9 9.9 24.8 11.4 27.7 9.6 28.4 10.8 25.5 12.6 27.2 15.3"/>
          <path class="cls-8" d="M42.3,7.5h2s-1-3.1-1-3.1h0l-.9,3.1h0ZM41.3,10.4h-1.7s2.6-7.8,2.6-7.8h1.9s2.9,7.7,2.9,7.7h-1.8s-.5-1.6-.5-1.6h-2.9c0,0-.5,1.7-.5,1.7h0Z"/>
          <polygon class="cls-8" points="53.7 3.4 55.1 3.6 53.8 11.3 52.2 11 50 5 50 5 49.1 10.4 47.6 10.2 48.9 2.5 50.6 2.8 52.7 8.7 52.7 8.7 53.7 3.4"/>
          <polygon class="cls-8" points="62.1 6 63.5 6.5 60.7 13.8 59.2 13.2 58.3 6.9 58.2 6.9 56.2 12 54.8 11.5 57.6 4.3 59.2 4.9 60.2 11 60.2 11 62.1 6"/>
          <path class="cls-8" d="M73.2,19.6l1.3,1.5,1.7-2.7h0s-3,1.2-3,1.2h0ZM70.4,20.8l-1.1-1.3,7.7-3,1.2,1.4-4.1,7.1-1.2-1.3.9-1.4-1.9-2.2-1.6.6h0Z"/>
          <path class="cls-8" d="M79.8,26.5c.4.7.9,1,1.5.6.4-.2.8-.6.3-1.5l-1-1.8-1.8,1,.9,1.7M81.1,21.8l1.9,3.4c1,1.8-.2,2.9-.7,3.2-.8.4-1.6.4-2.2-.1,0,.7,0,1.1-1.2,1.8-1,.5-1.2.7-1.2,1h-.2c0,.1-.9-1.5-.9-1.5.3-.3.6-.5,1.3-.9.9-.5,1.2-.8.7-1.8l-.8-1.5-2.7,1.5-.8-1.4,6.8-3.8h0Z"/>
          <path class="cls-8" d="M82.8,32.1l.6,1.8c.2.6.6,1,1.2.8.6-.2.7-.7.4-1.4l-.6-1.8-1.6.5M79.5,33.1l.6,1.9c.2.8.7,1.1,1.5.8.7-.2.7-.8.5-1.4l-.6-2-2,.6h0ZM85.2,29.7l1.2,3.6c.6,1.8-.4,2.6-1.2,2.9-1.1.3-1.6-.2-1.8-.4,0,1-.7,1.5-1.4,1.7-.6.2-1.2.1-1.7-.1-.6-.3-.9-.6-1.4-2.1l-1-3.1,7.4-2.4h0Z"/>
          <path class="cls-8" d="M81.3,42.1c0,.9.7,2,2.9,1.9,2.2-.2,2.6-1.5,2.5-2.3,0-.9-.7-2-2.9-1.9-2.2.2-2.6,1.5-2.5,2.3M88.1,41.5c0,1-.1,3.8-3.7,4.1-3.6.3-4.3-2.3-4.4-3.4,0-1,.1-3.8,3.7-4.1,3.6-.3,4.3,2.3,4.4,3.4"/>
          <path class="cls-8" d="M84.3,50.6c0,.8.1,1.3.9,1.4.4,0,1,0,1.1-1l.2-2-2.1-.2-.2,1.9M88.1,47.6l-.5,3.9c-.2,2-1.8,2.2-2.5,2.2-.8,0-1.5-.6-1.7-1.4-.4.6-.6.9-2.1.7-1.1-.1-1.4-.2-1.6.2h-.2s.2-1.8.2-1.8c.4,0,.8,0,1.6,0,1.1.1,1.5.1,1.6-1.1l.2-1.7-3-.4.2-1.6,7.7,1h0Z"/>
          <polygon class="cls-8" points="22.4 82.3 21.2 81.4 25 76.2 25 76.2 20 80.6 18.7 79.6 21.4 73.6 21.3 73.6 17.5 78.8 16.3 77.9 20.9 71.6 22.8 73 20.3 78.8 20.3 78.8 25 74.7 26.9 76.1 22.4 82.3"/>
          <rect class="cls-8" x="23.4" y="79.7" width="7.8" height="1.6" transform="translate(-56.8 68.2) rotate(-63)"/>
          <path class="cls-8" d="M35.4,82.3c0-.5,0-1.4-1.2-1.8-.7-.2-2-.1-2.7,1.9-.5,1.3-.3,2.7,1,3.1.8.3,1.6,0,2.1-.8l1.5.5c-.9,1.5-2.3,2.2-4.1,1.6-2-.7-2.9-2.5-2-5,.9-2.6,2.8-3.4,4.7-2.7,2.2.8,2.6,2.6,2.3,3.7l-1.5-.5"/>
          <polygon class="cls-8" points="39.6 84.9 39.4 88.4 37.8 88.3 38.3 80.5 39.9 80.6 39.7 83.6 42.7 83.8 43 80.8 44.6 81 44 88.7 42.4 88.6 42.7 85.1 39.6 84.9"/>
          <rect class="cls-8" x="46.8" y="80.9" width="1.6" height="7.8" transform="translate(-5.8 3.5) rotate(-4)"/>
          <path class="cls-8" d="M54.3,83.5l3.2-.7.9,4.1-1,.2-.4-.9c-.3.6-.7,1.4-2.1,1.7-1.8.4-3.8-.5-4.4-3.2-.5-2.1.2-4.3,2.8-4.8,2.3-.5,3.6.8,3.9,1.8l-1.6.4c0-.3-.8-1.1-1.9-.9-1.1.3-2,1.3-1.5,3.2.5,2.1,1.7,2.3,2.8,2.1.3,0,1.5-.5,1.5-2.1l-1.8.4-.3-1.3"/>
          <path class="cls-8" d="M62,82.2l1.8-.8-2.1-2.4h0l.3,3.2h0ZM62.3,85.3l-1.6.7-.6-8.2,1.7-.8,5.6,6-1.6.7-1.1-1.3-2.6,1.2.2,1.7h0Z"/>
          <polygon class="cls-8" points="68.6 72.4 69.8 71.5 74.5 77.7 73.2 78.7 67.3 76.2 67.3 76.2 70.6 80.6 69.4 81.5 64.8 75.3 66.1 74.3 71.8 76.8 71.8 76.8 68.6 72.4"/>
          <path class="cls-3" d="M56.6,59.5c0,0,1,.4,1.1.5h0c0,0-.2.2-.2.3,0,0,0,0,0,0,0,.2.5,0,.8,0,0,0,.6-.2.7-.3.1.2.3.2.4.5h0c-.5.3-1.3.2-1.9.5-.2,0-.3.3-.4.4-.6.5-1.1,1-1.7,1.4-.2.2-.7.5-1.1.4-.5-.1-.8-.3-1.1-.5-.4-.3-.8-.4-1.2-.6-.2-.1-.5-.4-.7-.5-.3,0-.6,0-.8,0-.4-.2-.7-.3-1.3-.4,0,0-.1,0-.2.2-.1.2,0,.6,0,.8,0,.3-.1.7-.2,1.1,0,.2-.2.4-.2.7.5.4,1.1,1.3.8,2.4,0,.3-.5.7-.3,1.2,0,.2.3.5.4.8.2.6-.2,1.1.1,1.6.2.3.5.8.8.8.2,0,.5,0,.7,0,.2,0,.4.3.6.4.3,0,.5,0,.8,0,0,0,.2.2.4.2h.6c.3,0,.8.2,1,.4.2.1.3.3.6.4.3,0,.7.2,1,.2h.8c.4,0,.9.2,1.3.3,0,0,0,0,0,0,0,0,0,0,0,0,0,.2,0,.2-.2.2-.3.2-1.2.1-1.6,0-.3,0-.6,0-.9,0-.7-.2-1.8-.5-2.7-.3-.6.1-1.5.6-2.2.4-.3,0-.6-.4-.8-.5-.4-.1-.8.2-1.1.2-.7.2-1.3-.2-1.9-.3-.4,0-.8,0-1.1.1-.6.1-1.2-.1-1.7-.2-.6-.1-1.3.2-1.7.1-.2,0-.6,0-.9,0-.2,0-.4-.2-.6-.2-.4,0-.7.2-1.2.1-1.1-.2-2.6-.1-3.8-.1h0c0-.2.2-.4.3-.4.2-.1,1.3-.5,1.7-.4.4,0,.7.5,1.3.4.8-.2,1-1,1.7-1.2.4-.1.6.2.9.3.2,0,.4,0,.6,0,.2-.4.4-.8.5-1.3.3-1-.2-2.2,0-3.3,0-.3.4-1.8.3-2.1s-.4-.5-.5-.8c0-.3.1-.7.2-.8.3-1.2.8-2.2-.2-3-.2-.2-1.1-.6-1.3-.7-.2,0-.4,0-.6,0-.2,0-.3-.2-.5-.3-.3,0-.6,0-.8.1-.4,0-1.6-.2-1.9-.3s-1.7-1.1-1.8-1.3c-.2-.3-.1-.8-.3-1.1,0-.2-.3-.3-.5-.5.2-.2.5-.4.7-.6.5,0,.8.2,1.2.2,0,.3,0,.6.4.7,0,0,0,0,0-.1.1-.1.1-.4.1-.6.2,0,.3,0,.5,0,0,.4-.3,1.4,0,1.7.2.5.8.6,1.4.5.3-.5.3-.9,1.1-.9,0,0,.2,0,.2,0,.2.1.3.4.5.5.4.2.7,0,1,.3.3.2.3.5.8.5,0,0,0,0,0,0,.2-.3.4-.8.2-1.2,0-.1-.2-.3-.3-.5-.2-.5.2-1.1,0-1.5,0-.1-.2-.3-.2-.3.4-.6,1.1-1.2,2-1.2h0c0,.2-.1.4-.1.5,0,0,.2,0,.4,0,0,0,.2,0,.3,0,0,0,.2-.2.2-.3v-.5c.1,0,.2,0,.3,0,0,0,0,0,0,.2,0,0,0,0,.1,0,0-.1,0-.2,0-.2.7,0,1.5.1,2.1.4,0,.2.2.4.2.7-.2,0-.3.2-.4.3v.2c.2.2.5.5.5.8,0,0,0,.3-.2.4-.2.2-.4,0-.5.5.2.2.5.5.6.8,0,.1,0,.3.1.4,0,0,.2.1.3.2.1.2.1.4.3.5-.2.4-.3,1.1,0,1.5.2.3.9.2,1.2.4.3.1.4.4.7.5.8.3,1.6.5,2.3.8.2.1.3.4.5.5.3.2,1.2.2,1.5,0,.2-.2.1-1,.2-1.2.1,0,.3-.2.4-.3,0,.3,0,.7.3.7.2-.2.4-.5.6-.7v-.2"/>
          <path class="cls-1" d="M47.6,52.8c-.2.2-.7.4-.8.7,0,.2-.3,1.7-.2,2,.1.4.3.9.5,1.3.2.5.1,1.2.2,1.7.1,0,0,0,.3.1.2-.2.5-.2.7-.4.2-.2,0-.8,0-1-.1-.2-.1-.6-.3-.8-.3-.5-.8-.5-.8-1.3,0-.1.1-.3.2-.4,0,0,.3,0,.3-.1v-.3c-.3,0-.4-.3-.4-.7,0,0,0-.2,0-.3.1-.2.4-.3.5-.6h-.2"/>
          <path class="cls-1" d="M46.1,53.3c-.2.5-.2,1.4,0,1.8h0c0-.1,0-.2,0-.4.2-.3.2-1,.1-1.4h0c0,0-.2,0-.2,0"/>
          <path class="cls-1" d="M43.7,53.4c0,.2,0,.4,0,.6.2.2.1.5.4.6h0c.2-.4,0-1-.2-1.2,0,0,0,0,0,0"/>
          <path class="cls-1" d="M45.5,53.6c0,.2,0,.4,0,.6,0,0,0,.4,0,.5h.1c.1-.3,0-.7,0-1h0c0,0-.1,0-.1,0"/>
          <path class="cls-1" d="M44.9,54c-.1.3.3,1.6.4,2,.3,1.3-.7,1.8-.4,2.9,0,.2.2.4.4.6h0c.1-.3,0-.6.2-.8.5-1.6-.3-2.9-.4-4.5,0,0,0,0-.2,0"/>
          <path class="cls-1" d="M44.4,54.2c0,.2,0,.6.2.7v-.3c0,0,0-.2,0-.3,0,0,0,0-.1,0"/>
          <path class="cls-1" d="M43.4,54.8c0,0,0,0,0,.3-.1.2,0,.4,0,.6,0,0,.2.2.3.3,0,0,0,0,.1,0,0-.5,0-.8-.2-1.2h-.1"/>
          <path class="cls-1" d="M44.1,54.9c0,0,0,0,0,.1h0c0-.1,0-.1,0-.1"/>
          <path class="cls-1" d="M36.1,55.4c0-.2,0-.2-.1-.3,0,0,0,0,0,0,0,0,0,0,0,0,0,0,0,0,0,0,0,0,0,.1,0,.2h.1"/>
          <path class="cls-1" d="M44.6,58.3c0-.6.5-.9.4-1.6h-.1c0,.2,0,.4-.4.5,0,0,0,0,0,0,0,0,0-.2,0-.4.4-.5.2-1.4-.1-1.7,0,.3,0,.6,0,.9,0,.5.2,1.5-.4,1.5,0,0,0,0-.2,0,0,.1-.5.6-.5.7.3.2.7,0,.8.5.1.3-.4,1-.3,1.1,0,.2,0,.1.2.1,0-.1.2-.3.2-.5,0-.4-.2-1,.1-1.2,0,0,.2,0,.3,0"/>
          <path class="cls-1" d="M45.7,55.5c-.2.5.2.8.2,1.4,0,.5,0,1,0,1.4-.1.6-.2.8,0,1.4h0s0,0,0,0c0-.2.1-.3.2-.5v-.6c.2-.7.5-2.9-.4-3.1"/>
          <path class="cls-1" d="M36.2,56.5c0,0,0,.1,0,.2.1.1.2.3.4.4,0,0,0,0,.1,0,0-.2,0-.3,0-.5-.1,0-.2,0-.3-.2h-.2"/>
          <path class="cls-1" d="M40.3,57.3c0-.3-.1-.5-.4-.6,0,0,0,0,0,.1-.2.3.3.4.5.5"/>
          <path class="cls-1" d="M37.5,57.4v-.2c-.2,0-.2-.2-.4-.3,0,0,0,0,0,0,0,0,0,.2,0,.3.1,0,.2.1.4.1"/>
          <path class="cls-1" d="M46.6,57.1c0,1.4-.3,2.5-.4,4,0,0,0,0,.2,0h0c.5-.6.7-3.2.3-4.1h-.1"/>
          <path class="cls-1" d="M41,57.3c0,0,0,0,0,.2.1,0,.3,0,.5,0,0,0,0,0,0-.2h0c0,0-.2,0-.5,0"/>
          <path class="cls-1" d="M40.4,57.5c-.2.1-.5,0-.5.3.5.3,1.1.6,2,.7,0,0,0,0,0-.2-.1,0-.3-.2-.5-.3-.2,0-.4,0-.6,0s-.3-.3-.5-.4"/>
          <path class="cls-1" d="M38.5,57.7c0,0-.1,0-.2,0v.2c.3,0,.6.2,1,.1,0,0,0,0,0-.2,0,0,0,0,0,0-.2,0-.4-.1-.8-.1"/>
          <path class="cls-1" d="M42.5,58.2c0,.1,0,.3,0,.5.1,0,.1,0,.3,0,0,0,0,0,0-.1,0,0,0,0,0,0,0-.2-.2-.3-.3-.4"/>
          <path class="cls-1" d="M43.4,59c0,0,0,0,0,.2h0c.1-.2,0-.1,0-.2"/>
          <path class="cls-1" d="M47.6,62c0-.3-.1-.4,0-.6.2-.3.5-.3.6-.7h0s0,0,0,0c-.1,0-.2,0-.3.2,0,0,0,0,0,0,0,0,0,0,0-.1.2-.2.5-.4.7-.6,0,0,0,0,0,0,0-.2,0-.2-.2-.2-.2-.1-.5,0-.7,0,0,0,0,0,0-.1,0,0,0,0,.1,0,.4-.3.8,0,1.2.2.2,0,.3,0,.5,0,.3,0,.5.2.8.2,0,0,.1,0,0-.1-.2-.5-.6-.2-1.1-.3-.4-.1-.4-.5-.9-.6-.2.2-.7.4-.8.7,0,.1,0,.3,0,.4-.3.7-.5,1.3-.5,2.2,0,0,0,0,.1,0,0,0,0,0,.2,0,0,0,0,0,0-.2,0-.1,0-.4,0-.6,0,0,.1,0,.2,0,0,.2.1.5.4.5"/>
          <path class="cls-1" d="M44.6,59.3c-.6,1-1.4,2.6-1.4,4,.2.2.7.4.6.8-.1.7-.3,1.7-.5,2.4,0,.2,0,.4,0,.5,0,.1,0,.3,0,.4,0,.5,0,1,0,1.5-.2.7-.2,1.6-.6,2.1-.1.2-.7.5-1.1.4-.3,0-.4-.3-.8-.3-.2.2-.4.2-.5.4,0,0,0,0,0,.2h0c.2.1.4,0,.6,0,.7.2,1.7.3,2.2-.2.3-.4.5-1.2.6-1.7,0-.4,0-.8,0-1.2.1-.6-.1-1.3,0-2,.2-1.1.3-2.6,0-3.7,0-.4,0-1.2.1-1.4.2-.3.7-.3.8-.9.2-.5.2-1.2-.2-1.3"/>
          <path class="cls-1" d="M45.2,59.8c0,.5-.2,1.1-.5,1.5-.2.2-.5.3-.6.6,0,.2,0,.8,0,.9h0s0,0,0,0c.2-.2.2-.4.4-.6.2-.2.5-.3.6-.6.2-.4.1-1.4,0-1.8h-.1"/>
          <path class="cls-1" d="M49.3,60.5c0,0-.1,0,0,0,.2.1.4,0,.6.2.5.2.5.4,1.2.3,0,0,0,0,0-.1h0c-.2-.4-1.1-.4-1.7-.4"/>
          <path class="cls-1" d="M51.8,60.7c0,0,0,0,0,.1.2.3.5.4.9.5,0,0,0,0,0-.2-.3-.2-.5-.4-.9-.4"/>
          <path class="cls-1" d="M45.8,60.9c-.1.6-.4.9-.4,1.5,0,0,.2.2.2.3,0,0,0,0,0,0,.1,0,0,0,0-.2.2-.2,0-1.4,0-1.5"/>
          <path class="cls-1" d="M52.4,61.6c0,0,0,.1,0,.2.2.1.4.2.8.3,0,0,0,0,0-.2-.3-.1-.4-.3-.8-.3"/>
          <path class="cls-1" d="M54.7,61.8v.2c.3,0,.4,0,.7,0l.2-.2h0c-.3-.1-.6,0-.8,0"/>
          <path class="cls-1" d="M46.2,62.7c0,.3-.2.8-.3,1.1,0,.2,0,.4,0,.5,0,.3,0,.7,0,1,0,.2-.2.4-.2.5,0,.1,0,.3,0,.4,0,.5,0,1,0,1.4h0c0-.3,0-.6,0-.8,0-.2,0-.3,0-.4.2-.9.3-1.9.5-2.8,0-.3,0-.6,0-.9,0,0,0,0-.1,0"/>
          <path class="cls-1" d="M45.2,62.9c-.2.5.1,1.2.2,1.6,0,.6-.2,1.3-.3,1.8,0,.2.1,1,.2,1.2,0,.4-.1.9-.2,1.3-.2.6-.2,1.4-.5,2-.2.4-.6.6-.5,1.1.2,0,.4,0,.6,0,.2-.7.6-1.2.8-1.8.2-.9-.2-1.7-.2-2.6,0-.4,0-1.4,0-1.7,0-.2.2-.3.2-.5,0-.3,0-.7,0-.9v-1c0-.2-.1-.3-.2-.5h-.1"/>
          <rect class="cls-9" x="46.8" y="62.9" width=".1" height=".2"/>
          <path class="cls-1" d="M47.7,63s0,0-.1,0h0c0,.2,0,.2.3.2,0,0,0,0,0-.1h0s0,0,0,0c0,0,0,0,0,0h-.1"/>
          <path class="cls-1" d="M47.2,63.6c0,0,0,0,0,.2-.2.2-.2,1.5,0,1.9.2,0,.3,0,.5,0,0,.3,0,.8,0,1.1,0,.2,0,.4,0,.6h0c.3-.4.1-.8.2-1.4,0,0,0-.2,0-.3,0-.3-.4-.6-.5-1,0-.3,0-.8,0-1,0,0,0,0,0,0"/>
          <path class="cls-1" d="M44.9,63.7c-.1.4-.2,1.3,0,1.7,0,0,0,0,0,0,.2-.3.1-1.4,0-1.7"/>
          <path class="cls-1" d="M47.8,64.6c0,.1,0,.2,0,.4,0,.1.5.6.5.7,0,.2,0,.5,0,.6,0,.2,0,.4,0,.5h0s0,0,0,0c.3-1,.2-1.4-.4-2.1h-.2"/>
          <path class="cls-1" d="M44.3,65.1c0,.3-.6,1.9-.2,2.2h0c.2-.3.4-1.8.2-2.2"/>
          <path class="cls-1" d="M46.5,65.4c0,.2-.3.7,0,1,0-.4.2-.5.2-1h0"/>
          <path class="cls-1" d="M44.8,66.8h-.1c-.3.4-.4,1.8,0,2.1h0s0,0,0,0c.3-.4.1-1.6,0-2.1"/>
          <path class="cls-1" d="M46.7,67.7c0,.2,0,.3,0,.4h0c0-.1,0-.2,0-.4,0,0,0,0,0,0"/>
          <path class="cls-1" d="M48.9,70.6c0-.3-.2-.4-.3-.7-.2-.6.2-1.7-.4-2,0,0,0,0,0,0v.3c.3.4,0,.9.1,1.5,0,.2.1.4.1.6.1.1.2.2.4.3,0,0,0,0,.1,0"/>
          <path class="cls-1" d="M48,69.9c0-.7,0-1.3-.2-1.7,0,0,0,0-.1,0,0,.4-.2,1.4.2,1.7,0,0,0,0,.1,0"/>
          <path class="cls-1" d="M46.7,68.5c0,.4,0,.8.2,1.1,0-.4,0-.5,0-.8,0,0-.2-.2-.2-.2"/>
          <path class="cls-1" d="M44.1,68.7c0,.2,0,.3,0,.5,0,.2.2.4,0,.6-.1.5-.5,1.2-.5,1.7h.1c0-.1.1-.2.2-.3.3-.7.4-1.7.3-2.5,0,0,0,0-.1,0"/>
          <path class="cls-1" d="M46.3,69.5c0,.2,0,.4,0,.7,0,0,.1.2.2.3h0v-.2c-.1-.2,0-.6-.1-.8"/>
          <path class="cls-1" d="M46.8,69.8v.5s0,0,0,0h0c0,0,0,0,0,0,0,0,0-.1,0-.2,0-.1,0-.3-.2-.4"/>
          <path class="cls-1" d="M47.5,70.2c0,0,0,0,0,.3.2.2.4.6.8.7h0c-.3-.4-.3-.8-.7-.9"/>
          <path class="cls-1" d="M45.8,70.5c-.3.4-.6.8-.6,1.5,0,0,0,0,.1,0,0,0,1.5,0,1.7,0v-.2c-.4-.3-.7-1.2-1.2-1.3"/>
          <rect class="cls-9" x="46.5" y="70.6" width="0" height="0"/>
          <path class="cls-1" d="M46.6,70.8h0c.1.2.2.3.3.4,0-.2-.2-.3-.3-.4"/>
          <path class="cls-1" d="M48.5,71.4c0,.3.2.6.5.7,0,0,.3,0,.4,0,0,0,0,0,0-.1-.3-.2-.5-.3-.8-.4"/>
          <rect class="cls-9" x="50.4" y="71.5" width="0" height="0"/>
          <path class="cls-1" d="M51.8,71.8c0,0-.1,0-.2.1,0,0,0,0,0,0,0,.2,0,.2.2.2.2.1.8,0,1.1-.1h0c0-.1,0-.1,0-.1-.1,0-.9-.2-1.1-.2"/>
          <path class="cls-1" d="M50.5,72.1c0,0,0,0,0,.1,0,.1,0,.2,0,.4.1,0,.2,0,.3,0,.2-.1.4,0,.4-.4-.2-.1-.3-.2-.7-.2"/>
          <path class="cls-3" d="M58.8,60.2v-.3c-.2-.1-.2-.2-.5-.3-.2.1-.4.3-.7.3-.3-.2-.9-.2-.9-.7,0-.1,0-.3,0-.5,0-.2-.3-.3-.4-.5,0-.2-.1-.4-.2-.5,0,0-.1,0-.2-.1,0,0-.1,0-.2,0h-.1c.2.7.6,1.5.1,2,0,0-.2,0-.3.2,0,0-.1.2-.2.3q0,0-.2-.1c-.2.4-.5.6-1.1.6,0,0-.2,0-.3-.1-.2,0-.3-.3-.5-.4-.4-.2-.9.1-1.1-.4-.2-.2,0-.6,0-.9-.2-.1-.3-.2-.5-.4-.2-.4.1-.7-.5-.8-.4.3-1.1.2-1.4-.1-.2-.2,0-.3-.4-.4,0,0-.4.2-.4.2-.2-.1-.3-.4-.4-.6,0,0,.1,0,.2,0,0-.7,0-1.4-.2-2.1,0-.5,0-.9-.1-1.3-.1,0-.2,0-.3,0,0-.2,0-.5-.2-.7-.4-.3-1.5-.5-2.1-.3v-.6c-.2-.3-.2-1,0-1.3h0c0,0,.1,0,.2,0,0,0,0-.2,0-.2h-.5c0,0-.2,0-.3,0,0,0,0,0,0,.1-.2.3.2.9.3,1.1,0,.2,0,.8,0,1h0c0,0-.2,0-.3,0,0-.3,0-.5-.1-.8h0c0,0,0,0,0,0-.1,0,0,0,0,0,0,.2,0,.3,0,.5,0,.2-.2.2-.2.5-.7,0-1.2.4-1.5.7-.2.2-.3.5-.7.6-.3.2-.7-.2-1-.3-.5.4-.9.7-1.3,1.2-.4,0-.7,0-1,0-.3-.1-.4-.3-.8-.4,0,0-.2,0-.4.2,0,0,0,.2,0,.2h-.2c-.2.2-.4,0-.7,0,0,.2-.1.2-.4.2-.2-.1-.8-.3-1-.1-.3,0-.5.5-.7.6-.2,0-.3-.1-.5.1-.2.3-.4.7-.7.9-.3.2-1,0-1.3.3-.4.3-.6,1.3-1,1.5-.4.4-1.2,0-1.7.2-.5.2-.7.8-1.3.9-.6.2-.9-.3-1.4-.4-.2.2-.4.6-.7.7-.2.2-.7,0-.9,0-.7-.3-1.1-.8-1.3-1.5-.1-.4,0-.9-.2-1.1-.3-.2-.7-.1-1-.3-.5-.4-.5-1-1.2-.2-.2,0-.4,0-.6,0-.4-.2-.8-.9-.9-1.4,0-.2,0-.4,0-.7,0,0-.2-.1-.2-.2-.5,0-1,.1-1.5,0-.2-.2-.4-.5-.5-.8v-.6c0-.3-.4-.6-.3-1.1,0-.3.3-.5.3-.8,0-.5-.8-.7-.4-1.3.2-.5,1-.4,1.1-.9-.3-.2-.4-.6-.9-.6-.2.3-.3.6-.5.8-.5.2-1.1,0-1.5-.1-.2-.4,0-.6-.1-1-.1-.4-.6-1-.4-1.6.1-.4.5-.3.5-.8-.3-.3,0-.9.3-1,.3-.2,1.2,0,1.4.1.2.1.3.4.5.5.2,0,1.1-.2,1.2-.3v-.2c-.1-.1-.1-.2-.3-.3-.2-.1-.5,0-.8,0-.3,0-.9-.1-1.2-.3-.4-.2-.6-1.4-.4-2,.1-.2.4-.3.5-.6.1-.3-.1-.9-.2-1.2-.1-.4.1-.8.2-1.1.2-.1.9-.4,1-.6.1-.4-.3-1-.4-1.5,0,0,.1-.1.2-.2.2-.2.5,0,.8,0h0c.1-.3,0-1.1,0-1.3-.5-.3-1.1-.6-1.1-1.5.1-.2.2-.5.4-.7.3-.3,1.2-.8,1.6-.3.3.3.1.7.3,1.1,0,.3.3.4.5.6.3,0,.6,0,.9,0,.1-.2.2-.2.3-.5-.2-.2-.4-.4-.6-.6,0-.3,0-.5,0-.8.2,0,.4-.2.5-.5-.7-.4-.2-.8-.4-1.2,0-.2-.4-.3-.5-.5,0-.5.3-.9.2-1.2-.1-.4-.7-.5-.5-1.2,0-.2.3-.6.5-.7.3-.2.5,0,.5-.4-.5-.5-.4-1,0-1.4.4,0,.7,0,1.1,0,0,.1.2.2.3.3,0,.1,0,.3,0,.4.1.3.5.3.5.8-.1.2-.3.7-.1,1,0,.1.8,1,.9,1.1h.2c.1-.1.3-.1.5-.2l.3-.3c.3-.1.9,0,1.3,0,.1-.1.2-.2.4-.3.2-.2.3-.6.6-.8.2-.1.6-.1.7-.4-.2-.3,0-.5-.5-.5-.3.4-.7,1.2-1.3,1.2-.1-.2-.4-.5-.6-.6-.4-.1-.7,0-.9-.4-.2-.4-.4-1.2-.2-1.7,0-.1.2-.3.2-.5v-.5c.1-.5.2-.9.5-1.1.4-.3,1.1.1,1.3,0,.6-.2.7-.8.8-1.4.7-.4,1.1.1,1.8,0,.2-.3.6-.5,1.1-.5.1.1.3.1.4.3.1.2.2.5.4.6.2.1.4,0,.6.2.2,0,.3.2.5.3.5.2,1,0,1.2-.3,0-.1,0-.2,0-.5-.3-.3-.3-.6-.9-.6-.1.1-.3,0-.5.1-.8.2-.8-.6-1.1-1.1-.2-.3-.5-.3-.5-.9l.3-.3c.2,0,.4,0,.6,0,.3,0,.5-.3.9-.3,0,0,.2,0,.2.1.2.2.1.5.4.6.3.1.8-.4,1.3-.3.2,0,.4.5.7.3.2,0,.3-.1.4-.3,0-.2,0-.5,0-.7.1-.3.4-.5.5-.9-.7-.7.3-1.4.6-1.7.2,0,.5,0,.7,0,.2,0,.4.2.6.3.7.2,1.6-.4,1.8.3.1.2,0,.5.2.6,1,.6,1.4-.5,2.2-.2.5.2.7.7,1.3.8,0,0,.2-.1.4-.2.3-.2,1.1-1.2,1.6-.5.3.4-.3,1.3,0,1.4,0,0,.1,0,.2,0,.6-.1.2-.6.6-.9.2-.1.5,0,.7-.2.2-.2.3-.5.6-.7s.6,0,.8-.2c.3-.2.3-.5.5-.8.1-.1.3-.3.4-.4h.4c0,.1.5.7.6.7.1,0,.3,0,.5,0,0-.2.2-.6.4-.7.4-.3,1.1.5,1.2.7,1.2-.1,1,0,1.7.7,0,.5,0,.9,0,1.2.1,0,.1,0,.3,0,.2-.3.5-.7.9-.7.3.3.8.3,1.2.2.2-.3.4-.8.7-.9.6-.4,1.3.3,1.4.8,0,.2,0,.3,0,.5.2.5.7.1.6,1.2.5.3,1.6.8,1.1,1.9,0,0-.6.6-.7.7,0,.3.2.6,0,.8-.1.4-.6.3-.7.6-.1.2,0,.3,0,.5,0,.2,0,.5,0,.6-.2.1-.4.2-.6.3-.4.1-.8,0-1.2,0-.4.2-1.1,1.2-1.4,1.6-.2.2-.5.3-.5.7,0,.2.3.6.7.5.2,0,.4-.3.6-.4.7-.3,1.2-.5,2.3-.5.1-.3.2-.7.5-.9.4-.2,1.1-.3,1.2-.7,0-.4,0-.8,0-1.2,0-.2.3-.4.4-.6.2-.5,0-1.2.2-1.7,0-.2.3-.3.5-.5.3,0,.4,0,.6,0,0,.1.5.8.6.9.3.2.6.3.7.9,0,.1,0,.3-.2.4-.2.3-.6.3-.7.8.3.3.1.9.3,1h0s0,0,0,0c.2,0,.2-.2.3-.3,0-.1.3-.2.4-.3,0-.1,0-.2.1-.4.2-.2.5-.2.9-.2.2,0,.4,0,.5,0,.4.1.7.8.8,1.2,0,.1,0,.3-.2.4-.1.1-.3.2-.4.3,0,.1-.2.2-.3.3v.3c.3.4.4.6,1.1.6,0,0,0,0,0,0,.2-.2,0-.9,0-1.2.2-.1.6-.3.6-.5,0-.1,0-.4,0-.5.1-.3.8-.9,1.2-.6.4.1.7.5.7,1,0,.1-.2.4-.2.5,0,.3.4.5.3.9,0,.3-.4.3-.6.5-.6.4-.8.6-.8,1.6-.2.2-.5.6-.4,1,.4.1.6.3.8.6,0,.8-.5.8-.5,1.5.3.3.8,1,.8,1.5,0,0,0,.2-.2.3-.2.1-.4.1-.6.3-.4.5-.3,1.1-1.1,1.3-.7.2-1.2-.6-1.7-.2-.3.3,0,.9-.5,1.2-.2,0-.3.1-.5.2l-.4.5c-.3.3-.8.6-1.2.8-.5.2-1.1.3-1.1.9.7.4.5,1.1-.1,1.4,0,0,0,0,0,0,.1,0,.3,0,.5,0,.3,0,.7.6,1.1.2l.2-.2c.2-.6-.2-1.2.4-1.5.4-.3.9.3,1.1.6,0,0,0,0,0,0,.2-.2,0-.6.2-.8.3-.6,1.2-.6,1.9-.8,0-.1.2-.2.2-.4.1-.4,0-.5.2-.8.6-.8,1.5.2,1.8.6,0,.5-.2.6-.2.9.9.6,1,.3,1.6-.4.4,0,.5.2.9.2,0-.1,0-.2,0-.4-.3-.3-1.4-1.5-1.1-2.2.3-.6,1-.9,1-1.7,0,0,0-.2-.1-.3-.3-.3-.9-.3-1.2-.7-.2-.4,0-.7-.2-1.2,0-.3-.4-.6-.3-1.2.2-.5,1.5-1,2.1-.9.1.2.3.6.4.9,0,.3,0,.7,0,.9,1,0,.6.6.8,1.3.3,0,.6,0,.8.2.5.3.8,1.2.5,1.9-.1.3-.6.5-.8.8,0,.2,0,.3,0,.5.1.6-.2,1.1.4,1.2.2.1.5,0,.8,0,.2,0,.7.2.8.5.1.2.3.7.3,1,0,.2-.3.5-.1.7.1.3.5.5.6.8.2.7-.3,1.1-.4,1.6.4.1.8.4.9.8,0,.3-.2.5,0,.8.1.4.7.6.5,1.3,0,.1-.2.3-.2.4-.2.5,0,1.1-.5,1.3-.2.2-.5.1-.8.1-.2.3-.3.7-.5.9-.2.2-.6.3-.7.6-.2.4,0,.8,0,1.3,0,.1,0,.2-.1.4-.9.5-1.1-.2-1.8-.2-.3.5-.6,0-1,.4-.2.2-.4.6-.5.8-.2.2-.4.4-.7.6,0,0,0,.2-.2.3,0,.2,0,.4,0,.5.3.2.7.2.9.5.2.3.2.8.6,1.1.2.1.5,0,.8,0h0c.1-.3,0-.8,0-1.1.2-.1.2-.2.5-.2.3.2.7.4.9.6,0,0,0,0,0,0,.2,0,.1-.2.1-.5-.5-.7.7-1.7,1-2h.4c.5.7.9.9.9,2.1.3.2.8.4,1,.7.3.7.1,1.9-.4,2.2-.2,0-.6,0-.8,0,0,.2,0,.7-.2.9-.1.1-.2.2-.4.4-.1.2,0,.5-.2.7-.2.2-.6.2-.8.5,0,.1,0,.3,0,.4-.1.3-.5.5-.9.5-.2-.1-.5-.2-.8-.3-.3.3-1,1.2-1.6.9-.4-.2-.9-1.1-1.4-1.1-.1.2-.4.2-.5.4,0,0,0,.2-.2.3-.2.1-.4.2-.5.4-.2.2,0,.6,0,.8-.2.4-1.4,1.2-2,.8-.3,0-.5-.4-.6-.6-.2,0-.3,0-.4,0-.1.3,0,.7-.1,1-.4.6-1.3,0-1.8.1-.1.2-.2.4-.4.5-.7,0-1.3,0-1.7-.6-.1-.2-.2-.5-.4-.6-.1,0-.2,0-.4,0-.2-.1-.2-.4-.5-.5"/>
          <path class="cls-5" d="M41.9,23.4h.1c0,.4,0,1,.3,1.3,0-.2,0-.3.1-.4h0c0,.1,0,.1,0,.3.2.4.3,2.2.3,2.9h0s0,0,0,0c-.2-.2-.1-.6-.3-.8h0c-.2.4,0,1.2,0,1.4h.1c.2-.3.4-.6.7-.7.3,0,.8.1,1,0,.1-.1.1-.9.3-1.1.8-1.1,1.7.2,2.3.3.2-.2.6-.5,1-.4.3,0,.6.5.9.4.6,0,.8-.9,1.3-1.1h.4c.5,0,.8,0,1-.4.2-.2,0-.5.2-.8.3-.3.6-.6.9-.9.1-.2,0-.4,0-.7,0-.1,0-.2.1-.3.6-.3,1.4-.4,1.8.2.3.4,0,.7.8.7,0,0,.3,0,.5,0,.4.1.4.7.7.9.2.1.7,0,.8,0,.2,0,.3-.2.3-.5-.2-.3,0-.8.1-1,.1-.1.4-.1.5-.3.2-.2,0-.6,0-.9.2-.5.7-.4.7-1.2-.1-.1-.2-.3-.3-.4-.2-.1-.5-.1-.7-.3-.2-.2,0-.5-.1-.9,0-.2-.4-.3-.5-.5-.1-.2-.2-.8-.2-1-.2-.1-.3-.2-.7-.2-.2.4-.5.9-1,1-.5.1-.9-.3-1.2-.1-.5.2-.4.7-1.1.7-.2-.2-.5-.4-.5-.7s.3-.7,0-1c-.2-.7-.7-.4-1.3-.3-.2-.2-.5-.7-.9-.7-.3.4-.5.7-1.2.7,0,0-.2-.1-.3-.2-.1-.2,0-.3-.3-.4,0,0,0,0-.1,0-.2.4-.5.8-.8,1-.2.1-.5,0-.7.2-.2.2-.4.5-.6.7-.1,0-.3,0-.5.2-.2.2-.2.6-.5.8-.3.2-1,.5-1.2,0-.3-.4.2-.9,0-1.3,0,0-.2,0-.4,0-.3.3-.9.8-1.5.8-.3-.3-.8-.6-1.2-.8-.5-.1-1,.3-1.4.5-.2,0-.3,0-.5,0-.3,0-.5,0-.8,0,0,0,0,0,0-.2-.2-.2,0-.6,0-.9h0c-.2-.1-.5,0-.8,0-.2,0-.5,0-.7,0-.6-.2-.4-.3-1.1-.1-.2.2-.3.2-.3.6.5.6,0,1-.3,1.4,0,.2,0,.5,0,.8-.1.5-.6.9-1.2.9-.2-.2-.5-.4-.8-.4-.1.1-.3.1-.5.2-.3.2-.5.4-.9.4-.1-.2,0-.6-.2-.9,0,0-.1,0-.2,0-.2.2-.5.2-.7.4,0,.2.6,1.1.7,1.2.3.3.7-.2,1.1,0,.6.1,1,.7,1,1.5-.2.2-.3.5-.6.7-.4.2-1.1.2-1.5,0-.1,0-.2-.2-.3-.3-.4-.2-.8-.2-1.1-.5-.3-.2,0-.5-.6-.5-.3.2-.6.5-1,.5-.3-.2-.6-.4-1-.3,0,.3-.2.5-.2.9.1.1.2.4.3.5.1,0,.2,0,.3,0,.1,1.1.4,2.3.4,3.4,0,0,0,0,.2,0,.2-.2.4-.4.9-.4.2.2.4.3.8.3.2-.2.6-.6.9-.7.2,0,.5,0,.7-.1.3-.6,0-1,0-1.7h0s0,0,0,0c0,.2,0,.6.4.6.1-.2.1-.5.1-.9,0,0,0,0,.1,0,0,0,.2,0,.4,0,0,.1,0,.1.3.2.2-.1.3,0,.3.2.2.3,0,.7,0,1,0,.4,0,1,.2,1.3.2.1.5.2.7.4.4.3.4,1,1.1.6.2-.1.3-.1.4-.3.1-.2,0-.6-.1-.8,0-.3,0-.6,0-.9-.1-.4-.3-.9-.2-1.4h.2c0,.1,0,0,.1,0,.2-.2,0-1.2,0-1.6h0c.2.2,0,.6.2.8,0,.1.3.1.4.3.1.3,0,.7.2.9,0-.2,0-.4,0-.5,0,0,0,0,.2,0,0,.1,0,.1,0,.3.2.3.2,1.8.3,2.2h0c0,0,.2,0,.3,0v-.2c-.2-.3-.3-1.8-.3-2.2.2,0,.3-.2.4-.3,0,0,0,0,.1,0,.1.5,0,1.1.2,1.7,0,.2.1.7,0,.9,0,.3-.2.6-.2,1,0,0,0,0,.2,0,0-.1.3-.1.4-.3s0-.3.2-.4c.3-.4.8-.3,1.2-.2,0-.1,0-.1,0-.3-.2-.1-.4,0-.5-.4-.1-.2-.1-1.2,0-1.4,0,0,0,0,.1,0,0,.1,0,.3.1.4.1,0,.2-.1.3-.1,0,0,.2.2.2.2.1-.2,0-.5.1-.7,0,0,0,0,.1,0,0,.2,0,.5.2.5,0,0,.2,0,.3,0,0,0,.1.2.2.3,0,0,.2,0,.2,0,0,0,0,0,0,.1.1.2.2,1.3.2,1.6,0,.1-.1.2,0,.4,0,.1.2.3.2.4,0,.2,0,.3.1.4,0,0,0,0,0,0h0c.2-.4,0-1.1,0-1.4,0-1.2-.2-2.3-.3-3.5"/>
          <path class="cls-5" d="M46.9,30h.1c0-.1,0-.2,0-.4,0,0,0,0,.1,0,.2.2.2.7.3,1h0c0-.3,0-.6,0-.9h0c0,.1,0,.1,0,.3,0,.1,0,.6.1.8.2.1.6.2.6.5.3.5,0,1.9.3,2.4,0,0,0,0,.1,0,0-.1,0-.4,0-.6-.1-.2,0-.5,0-.8-.1-.6-.2-1.3-.2-2,0,0,0,0,.2,0,0,0,0,0,0,.1.1.2,0,.5,0,.8.2.8.3,2,.4,2.9,0,0,0,0,.2,0,0,0,0,0,0,0,0-.7,0-1.5-.2-2.1,0-.3,0-.6,0-.9,0-.3-.2-.8,0-1.1,0,0,0,0,0,0,.3.3.3,2.3.4,2.9,0,.4,0,1,.3,1.1,0,0,0,0,0,0,.1-.2.1-.7,0-1-.2-.7-.2-1.5-.2-2.3,0,0,0,0,0,0,0,0,0,0,0,0,.2.4.2,2.1.4,2.6,0,.4,0,.7.3.8.5.4.7,0,.8-.4.1-.2.3-.2.5-.4.2,0,.5,0,.7,0,0,0,0,0,0-.1.1-.2,0-.9,0-1.2v-.7c-.2-.7-.4-1.7-.3-2.5h.1c.2.4,0,.9.2,1.2.3,1.2.1,2.7.5,3.8,0,0,.1,0,.2,0,0,0,0,0,0,0,.1-1.2-.2-2.3-.3-3.5,0,0,0,0,.2,0,0,0,0,0,0,0,0,.9.2,2,.4,2.9,0,0,0,0,.2,0h0c.1-.3,0-.7,0-.8,0-.7-.1-1.1-.1-1.8h0s0,0,0,0c0,0,0,0,0,.2.3.5,0,1.7.4,2.2,0,0,0,0,.2,0,0,0,0,0,0,0,.2-1.2-.2-2.5-.3-3.8,0,0,0,0,0,0,0,0,0,0,0,0,.2.3,0,.9.2,1.3.2.9.3,1.9.5,2.7.1,0,.2.1.4.1h0c0-.3,0-.9,0-1.3,0-1.1-.3-2.1-.3-3.3h0s0,0,0,0c.3.4,0,1.3.2,1.9.2.7.2,1.7.4,2.4,0,0,.1,0,.3,0,0-.2,0-.5,0-.8,0-.1,0-.4,0-.6,0,0,0,0,.2,0,0,0,0,0,0,.3-.2.2,0,1.1.1,1.4.2.1.2.3.4.3,0-.6,0-1.3-.1-1.9,0-.5,0-.9,0-1.4,0-.3-.2-.7,0-1.1h.1c.2.4,0,.8.1,1.2.2.8.2,1.8.4,2.6,0,.3,0,1,.1,1.2,0,.2.2.4.5.4,0-.2,0-.4,0-.7-.1-.2,0-.5,0-.8-.2-.7-.5-2.5-.4-3.3h.1c.2.4,0,.8.1,1.1.2.8.2,1.9.4,2.7,0,.5-.1,1,.4,1,0,0,0,0,0,0,0-.2,0-.5,0-.8-.1-.2,0-.5,0-.8-.2-.7-.3-1.5-.3-2.4,0,0,0,0,0,0h0c.2.3,0,.7.1,1,.2.7.2,1.5.3,2.1,0,0,.1,0,.2,0,.1,0,0,0,.1-.1.2-.3-.2-1.8,0-2.3h.1c0,0,0,0,0,.1.4.6,0,1.7.4,2.2,0,0,0,0,0-.2-.2-.2,0-.7,0-1,0-.5,0-1-.1-1.4-.1-.6-.2-1.2-.2-1.8,0,0,0,0,0,0h0c0,.1,0,.1,0,.3.2.3,0,.7.1,1.1.3,1.2.1,2.8.5,3.9,0,0,0,0,0,0,0-.2,0-.6,0-.9-.2-.3,0-.7,0-1-.2-.9-.3-2-.3-3,0,0,0,0,0,0h0c0,.1,0,.1,0,.3.2.3,0,.9.1,1.3.2.9.2,2,.5,2.9h0s0,0,0,0v-.6c-.1-.2,0-.7,0-1,0,0,0,0,.1,0h0s0,0,0,0c0,0,0,0,0,.2.3.6-.2,1.8.7,1.9,0,0,0,0,0-.1.1-.2,0-1.3,0-1.7,0,0,0,0,.2,0,0,0,0,0,0,.1.2.3.2,1.3.3,1.7,0,0,0,0,.2,0,0,0,0,0,0,0,0,0,0-.2,0-.4-.2-.2,0-.5-.1-.8-.1-.6-.2-1.3-.2-2h0c0,0,0,0,.1,0,0,.6.2,1.2.3,1.9,0,0,0,0,.2,0,0-.2,0-.3,0-.6-.2-.2-.1-.8,0-1,0,0,0,0,.1,0,0,.5.1,1.1.2,1.6.2,0,.4,0,.6.1.3,0,.5.3,1,.3.2-.1.4-.2.5-.4.2-.3.2-.7.4-.9.2-.2.4,0,.4-.5-.3-.3-.9-.9-.6-1.5.1-.3.3-.6.4-.9,0,0,0,0-.3,0,0,0-.3,0-.4,0-.1-.2-.2-.3-.2-.7.1-.2.1-.4.2-.6,0-.1.3-.3.4-.5.1-.3-.1-.6,0-.9.3-.5,1.2-.8,1.3-1.3-.2-.1-.4-.4-.4-.7.2-.2.3-.4.4-.7,0,0,0,0-.2-.1,0,0-.2,0-.4,0-.2.1-.3.1-.3.5,0,.1,0,.4,0,.5-.2.3-.6.3-.6.6,0,.1,0,.8,0,1-.1,0-.2.2-.3.3-.8,0-1.3-.2-1.6-.8,0-.2-.2-.5,0-.7.1-.4.5-.6.8-.9,0-.4-.2-.8-.6-.8-.1,0-.4,0-.5,0-.2.4-.3.4-.6.6-.3.2-.6.9-1.2.5-.4-.3-.1-.6-.2-1.1,0-.2-.2-.3-.2-.6,0-.1.1-.3.2-.4.2-.3.6-.3.7-.8-.2-.1-.5-.3-.6-.5-.2-.3-.2-.6-.6-.6,0,0,0,0,0,0-.1.3-.2.6-.3,1,0,.3,0,.6,0,.9,0,.2-.3.5-.4.7-.1.5,0,.9-.2,1.3-.3.6-1.2.4-1.4.9-.2.3,0,.5-.4.7-.3.3-.8,0-1.2,0-.3,0-1,.4-1.3.5-.2.1-.3.4-.6.4-.3.2-.7-.4-1.1-.3-.5.1-.2.7-1,.7-.2-.2-1-.5-1.3-.5-.3.5-.4,1-1,1.2-.2,0-.4,0-.5,0-.2,0-.6.2-.8,0-.2,0-.4-.3-.5-.5-.6,0-.7.3-1.2.2-.2-.2-.3-.8-.6-.9,0,0-.2,0-.3,0-.3.3-.8.4-.8,1,.1,0,.2,0,.3.2.2.3,0,1,.3,1.3,0-.4,0-.9,0-1.2h.2s0,0,0,0c0,.2,0,.5.1.7"/>
          <path class="cls-4" d="M54.3,22.8c0,0,0,0-.1.2-.2.3-.4,1.4-.3,1.8h.1c.3-.3.8-.4.8-1.1-.2-.3-.1-.7-.5-.9"/>
          <path class="cls-5" d="M26.8,23.6c-.5.4-1,0-1.6,0-.3.5-.3.6-.3,1.4h0c0,0,.1,0,.2,0,.1-.2.3-.5.5-.6,0,0,.3,0,.5,0,0,.1.1.2.2.3.3,0,.5,0,.6-.4,0-.1,0-.6,0-.7,0-.1,0-.1-.1-.2"/>
          <path class="cls-4" d="M55.7,23.6c0,0-.2,0-.3.1-.3.2-.4.6-.6.9-.3.5-.8.6-.9,1.3,0,0,.1.1.2.2,0,0,0,0,0,0,.5-.2.8-.6,1-1,.3-.5.8-.6.8-1.4,0,0,0,0-.2,0,0,0,0,0-.1,0"/>
          <path class="cls-4" d="M52.5,24.5c-.3.6-.3,1.1-1,1.3-.5.2-1,0-1.3.2-.4.3-.5.9-1.2.9-.1-.1-1-.4-1.1-.4,0,0-.1,0-.2,0-.2.5-.3,1.6.5,1.6.5-.4,1.1,0,1.4.4.5,0,1.3-.2,1.5-.5.2-.4,0-.6.4-.8.4-.2,1.2.5,1.8.4.1-.3.2-.5.4-.8,0-.4-.3-1.5-.4-1.7-.2-.2-.4-.4-.5-.7h-.2"/>
          <path class="cls-4" d="M33.2,25v.3h0v-.2s0,0,0,0"/>
          <path class="cls-4" d="M36.9,25c0,.4.2,1.1,0,1.2-.2.2-.5,0-.6,0v.8s0,0,0,0h.2c.3-.2.8-.2.8-.8-.2-.3,0-1-.3-1.3"/>
          <path class="cls-4" d="M40.6,25.5c0,.8.3,1.8,0,2.4h.2c0-.1.1-.1.1-.4-.3-.4,0-1.6-.3-2"/>
          <path class="cls-4" d="M32.5,25.6c-.2.2-.2.7-.4.9-.2.2-.8.1-1.1.3-.4.2-.7.8-1.3.6-.3,0-.4-.2-.7-.2-.2.1-.5.2-.5.5,0,0,0,0,0,0,.4,0,1.6.8,1.7.7.9-.3.5-1.2,1.8-1.2,0,.1.3.7.4.8.3.2.7.2,1.1.3.4.1.9.5,1.2.7.4.3.4.9.8,1.2.2.2.7.2.8.4.2.3,0,.6.5.6,0,0,0-.2,0-.4-.1-.2,0-.5-.1-.8-.2-.6-.6-1.4-1-1.7-.2-.2-.7-.1-.9-.3-.3-.2-.5-.7-.9-.9-.6-.2-1,.2-1.2-.4-.2-.3,0-.7,0-1.2,0,0,0,0-.1,0"/>
          <path class="cls-4" d="M27.8,25.8c0,.1,0,.2,0,.2,0,0,0,0,0,0h0c0-.1,0-.1,0-.3,0,0,0,0-.1,0"/>
          <path class="cls-4" d="M33.3,25.8c0,0,0,0,0,.1-.1.1,0,.4,0,.6,0,0,0,0,.2,0,0-.1,0-.3,0-.6,0,0,0-.2-.1-.2"/>
          <path class="cls-5" d="M22.2,40.2h.2c.8-1.2,1.7-.2,2.8,0,0-.1.1-.1.1-.4-.1,0-.2-.1-.3-.2-.2-.3,0-.8-.2-1.2-.1-.6-.4-2.2-.2-2.7h0c0,0,0,0,0,.2.2.3,0,.8.1,1.2.2.8.2,1.7.3,2.4h.1c.2-.2.6-.4.7-.7,0,0,0-.6-.1-.8-.1-.5,0-.8,0-1.3,0-.4-.2-.8,0-1.2,0,0,0,0,.2,0,0,0,0,0,0,0,.2.3,0,.8.2,1.3.1.7.2,1.4.2,2.1.1,0,.1,0,.3,0,0,0,0,0,0-.1.1-.2,0-.6,0-.8,0-.7-.2-1.3-.2-2.1,0,0,0,0,0,0,0,0,.1,0,.2,0,0,.8.1,1.7.3,2.4.1.5,0,.9.2,1.3,0,0,0,0,.1,0,0-.4,0-1,0-1.3-.1-.7,0-1.2-.1-1.8-.1-.6-.2-1.4-.2-2.1,0,0,0,0,.2,0,0,0,0,0,0,0,.1,1,.2,2.2.5,3.2.1.6,0,1.2.2,1.7h0v-.7c-.2-.3-.2-1.4-.2-1.8.4-.2.4-.4.4-1,0,0,0,0,0,0h0c0,0,0,0,0,.3.1.2,0,.4,0,.7.1.6.1,1.3.3,1.9,0,.3-.1.7,0,.7.2.2.6.1.9,0,0-.1,0-.2,0-.4-.1-.2,0-.5,0-.7-.1-.6-.4-1.5-.2-2.2,0,0,0,0,0,0,0,0,0,0,0,0,.2.2.1.4.2.8,0,.3,0,.9,0,1.2,0,.4,0,1,.2,1.4,0,0,.1,0,.2,0,0-.2,0-.4,0-.6-.2-.4,0-1-.2-1.5-.2-.8-.2-1.9-.2-3h.1c.2.4.1,1.3.2,1.7,0,.3.1.8.2,1.2v.8c.1.4.2,1,.2,1.5,0,0,0,0,.2.1h0c.1-.2,0-.7,0-.9-.1-.8-.2-1.5-.3-2.3,0-.3-.2-.7,0-1,0,0,0,0,.1,0,0,0,0,0,0,.1.1.2,0,.5,0,.8.2.8,0,2.3.5,3,0,0,0,0,.1,0,0-.4,0-1,0-1.3v-.6c-.2-.7-.4-2.1-.2-2.9h.1c0,.1.1.4.2.5,0,0,.2,0,.2.1,0,.1.1.3.2.5.3.1.5.2.9.3,0-.2,0-.4,0-.6h0c0,0,0,0,.1,0,.1.7.2,1.5.3,2.2,0,.4,0,.9.1,1.2,0-1.3-.3-2.3-.3-3.6,0,0,0,0,.2,0h0c.2.2,0,.6.1.9.2.6.1,1.5.4,2.1.1,0,.1,0,.3,0,0,0,0,0,0,.1.3.4,0,1.1.2,1.7,0,.2.1.5.2.7h.1c0-.1,0-.4,0-.6-.2-.2-.1-1.3-.1-1.7,0,0,0,0,.2,0,0,0,0,0,0,.1.2.4.1,1.7.4,2.2,0,0,0,0,.1,0v-1.2c-.1-.2,0-.5,0-.7-.2-.8-.2-1.6-.2-2.5,0,0,0,0,.1,0,.2.3,0,.7.1,1.1.2,1,.2,2.2.5,3.2,0,0,.1,0,.3,0,0,0,0,0,0,0,.4-.8,0-2.3,0-3.3,0,0,0,0,.2,0h0c.2.4.2,1.4.3,1.8.1.5-.2,1,.4,1,0,0,0,0,.1-.2.2-.3,0-1,0-1.3h.2c.2.4,0,1.2.4,1.3.2.1.5,0,.8.1.4.1.6.4,1.2.5.8-.8,1.7-.5,2.4.2.2,0,.4-.2.5-.2.5-.2,1.1,0,1.7,0,0-.1.2-.2.3-.4,0-.2,0-.6,0-.8.1,0,.3-.2.4-.3.3,0,.5-.2.8-.3,0-.1.2-.3.3-.4,0-.6-.1-.9-.1-1.5.4-.3.4-.4,1.2-.4,0-.1,0-.3,0-.5-.2-.2-.4-.4-.5-.6,0,0-.1,0-.2,0,0-.1-.2-.3-.2-.4-.3-.2-.7,0-.9-.4-.2-.3,0-.9-.3-1.2-.2-.2-.9-.2-1.2-.2,0-.2-.2-.3-.3-.5,0-.2-.1-.4-.2-.6,0,0-.1,0-.2,0-.3.3-.7.5-.9.8h-.4c-.3-.3-.5-.6-.8-.9,0,0-.1,0-.2,0-.1.1-.2.3-.3.5,0,.1-.3.2-.4.3-1.3,0-.5-1-1.9-1-.2.2-.5.6-.9.6-.3-.2-.9-.2-1.1-.5,0-.1,0-.3-.1-.5-.1-.2-.5-.2-.6-.5-.2-.4-.3-.9-.7-1.2-.3-.2-.8-.5-1.2-.6-.3-.1-.7,0-1-.2-.3-.1-.3-.6-.7-.6-.3.3-.9,1.1-1.2,1.2-.5.1-.7-.3-.9-.4-.3-.2-1.4-.6-2-.5s-.7,1-1.2,1.2c-.3.1-1-.1-1.3,0-.2.1-1,.8-1.4.5-.2-.1-.2-.4-.4-.7-.2-.3-.6-.5-.8-.9,0-.3,0-.6,0-.9,0-.2-.3-.3-.4-.5,0-.2,0-.4-.2-.5,0,0-.2,0-.3,0,0,.1,0,.2,0,.4.2.2.4.4.4.8-.1.1-.1.2-.3.3-.3.2-.7,0-.9.4-.1.1,0,.2,0,.5.5.3.4.9.4,1.5.1,0,.1,0,.3,0,.1,0,.2,0,.3,0,0,0,0,.2.1.2,0,.6-.3.6-.3,1.1.4.2.7.6.7,1.1,0,0,0,.2-.2.2-.1,0-.4,0-.5,0,0,0,0,.1,0,.3.3.2.4.6.8.7,0-.2,0-.2.2-.2.3.5.1,1.2.3,2,.2.8.3,2.2.3,3.1,0,0,0,0-.2,0,0,0,0,0,0-.1-.1-.2,0-.4,0-.7-.2-.8-.2-1.9-.4-2.6,0-.1,0-.3,0-.4,0,1.6.3,2.9.3,4.5,0,0,0,0,0,0-.1,0-.2,0-.3,0,0,0,0,.2,0,.3,0,0,0,0,0,.1"/>
          <path class="cls-4" d="M45.7,26.4c0,.4,0,.9,0,1.4,0,0,0,0,.2,0,0-.2,0-.5,0-.7,0-.2,0-.4,0-.6,0,0,0,0,0,0h-.1"/>
          <path class="cls-4" d="M45.1,26.7c0,.4-.1.7-.1,1.2,0,0,0,0,.3,0,0,0,0,0,0,0,0-.5.1-.7,0-1.2h-.2"/>
          <path class="cls-4" d="M46.3,26.8c0,.1,0,.3,0,.5.2.1.7.2.7-.2-.2-.1-.5-.2-.7-.3"/>
          <path class="cls-4" d="M39.5,27.2c0,0-.2.1-.3.2-.2.2-.3.5-.5.7-.1,0-.2,0-.4.1-.2.1-1,1.3-1.1,1.5,0,.3.1.6.2.9.3.2,1,.1,1.3.3.4.2.3.8.9.8.1-.2.3-.7.6-.8.1-.1.5-.1.6,0,.3.1.3.6.6.7,0,0,0,0,.2,0,.1-.1.3-.1.4-.3.2-.3-.3-1-.5-1.2-.7-1-1.8-1.3-1.8-2.9,0,0,0,0-.2-.1"/>
          <path class="cls-4" d="M37.5,27.2s0,0-.1,0c-.2.3-.7,1.2-.4,1.6,0,0,0,0,.2,0,.1-.2.4-.5.5-.6,0-.3,0-.6,0-.9,0,0,0,0-.1,0"/>
          <path class="cls-4" d="M43.6,27.9c0,0-.2.1-.3.2-.2.2-.2.5-.4.6-.3.2-1,.2-1,.7-.2.3.3,1.3.5,1.3.2.2.5,0,.7.3.3.4,0,1.1.6,1.2.2-.4.3-.9.2-1.4-.2-.1-.5-.2-.7-.3,0,0-.1-.2-.2-.3,0-1,.8-1.8,1.3-2.2h0c0,0,0-.1,0-.2h-.7"/>
          <path class="cls-4" d="M41.3,28.2c-.2.2-.4.2-.4.5.2.1.2.2.5.3,0,0,0,0,0,0,0-.2,0-.4,0-.7,0,0,0,0,0,0h-.2"/>
          <path class="cls-4" d="M44.8,28.7c0,0,0,0-.2,0h0c0,0,.2,0,.2,0,0,0,0,0,.1,0,.1,0,0,0,.1,0,.1.2.1.6.2.8h0v-.3c0-.1,0-.4,0-.6,0,0,0,0,0,0h-.5"/>
          <path class="cls-4" d="M44.2,29c-.2.2-.7.8-.6,1,0,.1,0,0,0,.1s.1,0,.3,0c0-.1,0-.3,0-.5-.1-.2.2-.4.2-.7,0,0,0,0,0,0"/>
          <path class="cls-5" d="M53.2,40.3c0,0,0,0,.1,0,.2.3,0,.9.2,1.3.3,1.2.1,2.9.5,3.9,0,0,0,0,.2,0,0,0,0,0,0,0,0-.7,0-1.6-.2-2.2v-.5c0-.4-.2-1.2,0-1.5,0,0,0,0,0,0,.2.2,0,.7.2,1.1.2.8.2,1.8.4,2.5,0,0,0,0,.2,0,0-.2,0-.6,0-.8-.1-.2-.2-1.3-.2-1.7h0c0,0,0,0,.1,0,0,.4.2,2.1.4,2.2,0,0,0,0,.1,0,.1-.5,0-1.1,0-1.8h0c0,0,0,0,.1,0,0,.5.1,1.2.2,1.7,0,0,.1,0,.2,0,0,0,0,0,0,0v-.7c-.3-.4,0-1.2-.2-1.8-.1-.6-.2-1.2-.2-1.8,0,0,0,0,.2,0h0c.2.4,0,1.3.2,1.8.1.5.1,1.3.3,1.9v.5c0,.3.2.7.3,1,0,.2,0,.5,0,.7.1,0,.2.1.4.1.2-.2.1-.7.1-1.1-.1-.2,0-.6,0-.9-.2-.8-.4-2.5-.4-3.3h0s0,0,0,0c.2.2,0,.5.1.9.2.8.2,1.8.4,2.6.1.5,0,1.4.5,1.4,0,0,0,0,0,0,0-.6,0-1.4-.1-1.9v-.7c0-.3-.2-.9,0-1.3,0,0,0,0,.1,0,0,1,.2,2.3.4,3.3,0,.3,0,.8.3.9,0,0,0,0,.2,0,0-.2,0-.6,0-.9-.2-.3-.2-1.5-.2-1.8h.2c0,1.1.2,2.2.5,3.2.2.1.2.2.5.2,0,0,0,0,0-.1.2-.2,0-.8,0-1.1,0-1-.2-1.8-.3-2.9h0c0,0,0,0,0,0,.2.2,0,.6.1.9.2.6.1,1.5.3,2.1,0,.4,0,1,.3,1.2,0,0,0,0,.2,0,0,0,0,0,0,0,.2-.2,0-.7,0-1.1,0-.8-.2-1.7-.2-2.5,0,0,0,0,.1,0,.2.3,0,.7.1,1.1.1.6.2,1.4.4,2h.2c0-.2,0-.6,0-.9-.2-.2-.1-.8,0-1.1h.1s0,0,0,.1c.2.3.2,1.6.4,2,0,0,0,0,.1,0h0c.2-.3,0-1.2,0-1.6,0,0,0,0,.2,0h0c.2.3.3,1.5.3,1.8,0,0,0,0,.2,0,0-.2,0-.5,0-.8-.1-.2,0-.7,0-.9h.2s0,0,0,0c0,.4.2,2.1.4,2.2,0,0,0,0,0,0h0c.2-.3,0-1,0-1.4,0-.4,0-.9,0-1.3-.1-.5-.2-1.2-.1-1.7h0s0,0,0,0c0,.8.2,1.7.3,2.4.1.6,0,1.1.2,1.6,0,0,.1,0,.2,0,0-.1.1-.1.1-.3.1-.2-.1-1.7-.1-2.2,0,0,0,0,0,0,0,0,0,0,0,0,.2.3.3,1.8.4,2.3,0,0,0,0,.2,0,0-.2,0-.3,0-.6-.2-.3,0-.9,0-1.3,0,0,0,0,.1,0,.3.3.2,1.6.4,2h.1c0-.5,0-1.1,0-1.7,0,0,0,0,.2,0,0,.3.2.7.3,1h0c0-.2,0-.2.1-.2h0s0,0,0,0c0,0,0,0,.1,0,0,.6.2,1.3.1,1.9-.2,0-.2,0-.3.3.2.2.2.5.4.5.4.3.5-.4.4-.8-.2-1-.3-2.2-.4-3.4,0,0,0,0,.1,0,.2.3,0,.8.2,1.2.2.9.2,2,.4,2.9.1,0,.2,0,.4,0,.2,0,.4,0,.6,0,.3,0,.6-.3.9-.5.5-.2,1.2.1,1.6.2.4-.1.2-.5.7-.5.3.3.8.6,1.3.6,0,0,0,0,0-.1.2-.3,0-1.1.2-1.5.3-.3.7-.7,1-1,.2-.4,0-.9,0-1.4,0,0,0,0,.1,0,0,0,0,0,.2,0,.2.2.5.6.8.7,0,0,0,0,.1-.1.1-.2.4-1.4.3-1.7-.1-.3-.5-.5-.6-.8,0-.3.2-.6,0-.9-.4-.2-1.1-.3-1.1-.9.4-.3.7-.6.7-1.3-.2-.3-.6-.5-.7-.9-.1-.6.4-.9,0-1.4-.2-.3-1.1-.3-1.5-.4-.2-.3-.4-.6-.5-1,0-.2,0-.5,0-.8,0-.3-.2-.5-.1-.8.2-.1.6-.3.8-.5,0,0,0-.2.2-.3,0-.5,0-1-.4-1.2-.2-.1-.6,0-.8,0-.2-.4-.1-.6-.2-1.1-.3-.1-.7-.2-.7-.7,0-.1,0-.5,0-.7,0-.2-.1-.4-.2-.6,0,0-.1,0-.3,0-.3.2-.9.2-1,.6-.2.3.2.7.2.9,0,.3,0,.5,0,.9.2.1.3.3.4.4.2.1.5.1.7.3.1,0,.2.3.3.5,0,.9-.2.9-.5,1.3-.1.2-.1.4-.2.5-.2.2-.3.2-.3.6.2.2.3.5.5.8.2.3.6.6.7,1,.1.5-.3.9-.8.8-.1,0-.3-.1-.4-.1-.7.8-.7.7-1.7.4-.2,0-.4,0-.6,0-.3-.1-.2-.5-.6-.5-.6.4-2.2,0-2.3.8-.2.4.3.7,0,1-.7.5-1.2-.6-1.4-.5-.1,0,0,0,0,.1-.1.2,0,.6,0,.8,0,.3-.4.5-.6.7-.6,0-.8-.2-1.1-.3-.6-.2-1.1.1-1.2-.4,0,0,0-.1,0-.3,0,0,0-.2.2-.4.2-.2.5-.2.5-.5-.3-.2-.9-.3-1.3-.4,0-.1-.2-.2-.2-.4,0-.1,0-.3,0-.4,0,0-.9-.7-1.1-.7,0,0,0,0-.2,0l-.3.3c0,.2-.1.3-.2.5,0,0-.2.1-.3.2-.5,0-.7-.1-1-.2-.4,0-.7,0-1,.1-.2,0-.4,0-.5,0-.1-.2-.2-.2-.2-.6.1-.2,0-.3,0-.5,0,0-.1,0-.2,0-.6.2-.8.7-1.6.6,0-.2-.2-.6-.4-.7-.1,0-.2,0-.4,0-.2.3-.3.8-.5.9-.4.3-.9-.1-1.3-.1-.2.4-.2.8-.4,1.2,0,0-.1,0-.2.1-.5,0-.8-.2-1.2-.1,0,.1-.1.1-.1.4,0,0,.1,0,.2,0,.2-.2.3,0,.4.1,0,0,.2,0,.3,0,0,.2.1.7.3.8,0,0,.2,0,.3.2.2.3.1,1.2.3,1.6.4,0,.8,0,1.2-.1,0,0,0,0,0-.1.1-.2,0-.5,0-.7,0-.5-.1-1.1-.1-1.7h0c0,0,0,0,0,0h.1c0,.5,0,.9.1,1.2,0,.5,0,.9.1,1.3,0,.2,0,.4.2.5h0s0,0,0,0c.1,0,0-.3,0-.5-.2-.2-.2-1.6-.3-2,0-.2,0-.5.1-.5h0s0,0,0,0c.1.2,0,.4,0,.7,0,.7.2,1.4.3,2.2.2.1.6.2.9.3,0-.2,0-.5,0-.8-.1-.2,0-.5,0-.8-.2-.7-.2-1.7-.2-2.5h0s0,0,0,0c.3.3.2,1.4.3,1.9.1.5,0,1.1.2,1.7,0,.4.1,1,.2,1.4v.6c.1.7.2,1.4.3,2.1.1,0,.1.1.4.1,0-.1.1-.1.1-.4-.2-.3,0-1-.2-1.5-.1-.5,0-1-.2-1.6-.1-.6-.3-1.5-.2-2.2"/>
          <path class="cls-4" d="M44.9,30.4c-.3.4-.5,1.2-.4,1.9h0c0,0,.2,0,.2,0,.1,0,0,0,.1,0,.2-.3-.1-.7,0-1.1,0-.3.2-.3.2-.7h0c0,0,0,0-.2,0"/>
          <path class="cls-4" d="M46.6,31.8h.1c0-.1,0-.2,0-.4-.2-.2,0-.6-.2-.9v1.2"/>
          <path class="cls-4" d="M45.6,31.1c0,.1,0,.3,0,.6.1.1,0,.2.3.3h0c.1-.3,0-.7,0-.9h-.1"/>
          <path class="cls-4" d="M47.7,31.5c-.1.1-.2.1-.3.3-.2.2-.2.7,0,1,0,0,.1,0,.3,0,.1-.1.3-.2.5-.3,0-.2.1-.6,0-.9,0,0,0,0-.2,0,0,0-.1,0-.2,0"/>
          <path class="cls-4" d="M46.6,32.6c0,0-.2.1-.2.3-.2.2,0,.6.1.8,0,.4,0,.7.1,1,0,.1.2.2.3.2.2.2.3.5.4.9-.1.2-.1.5-.3.6-.2.2-.7,0-.9,0,0,.1,0,.2,0,.4,0,.1,0,.4.3.5.2,0,.5,0,.8,0,.4.2.2.7,1,.5h0c.2-.4,0-.9,0-1.2.2-.7.9-1,.9-1.9-.1,0-.1-.1-.3-.1,0,0-.2,0-.3.1-.2.2-.8,1.1-1.1,0-.2-.7.3-2.2-.6-2.3"/>
          <path class="cls-4" d="M45.7,32.6c-.1.2,0,.6,0,.9.2.2.2.5.6.4,0-.4-.2-.7-.2-1.2h0c0,0-.2,0-.2,0"/>
          <path class="cls-4" d="M48.2,33.1c-.2.2-.4.1-.4.5,0,0,0,.1,0,.2.2.1.6.1.6-.2,0,0,0-.4-.1-.5,0,0,0,0-.2,0"/>
          <path class="cls-5" d="M17.8,43.2h-.2s0,0,0-.1c-.2-.3,0-.9-.2-1.2,0,0,0,0-.2,0,0,.1-.2.2-.3.4-.2.2,0,.7,0,.9h.1v-.5c0,0,0,0,.2,0,0,0,0,0,0,.1.1.2,0,.6,0,.8,0,0,.1,0,.2.1.4.3,2.4,0,2.5-.3.1-.2.1-.7.1-1.1.1,0,.2-.2.3-.3.2-.1.4,0,.6-.2.4-.2.9-.6.9-1.1-.4-.3-.2-.8-.4-1.4-.3-1.2-.4-2.5-.5-3.8-.6-.3-1.4-.2-1.8-.7-.2-.3-.1-1.2-.5-1.4-.5-.3-1.1.5-1.1,1,0,0,0,.1,0,.2.4.2.9.4,1,.9.1.4,0,.8,0,1.2,0,.3.3.8,0,1-.1,0-.5,0-.6,0,0,0,0,.1,0,.2.1.2.2.6,0,.8-.2.5-1,.6-1.1.9-.1.2-.1.8,0,1,0,.1,0,.4.2.6,0,.1.3.2.3.4v.7c0,.3,0,.7,0,1"/>
          <path class="cls-4" d="M47.6,34.3c0,.2,0,.3,0,.5,0,0,0,0,.2,0,0,0,0,0,0,0,0-.2,0-.2,0-.4,0,0-.1,0-.2-.1h-.2"/>
          <path class="cls-4" d="M52.4,34.5c-.2.2-.4.6-.8.7s-.7-.2-.9-.2c-.5-.1-.9,0-1.2.2-.4.6-1,1.2-1,2.1h0s0,0,0,0c.3-.2.2-.5.8-.5.2.2.5.3.8.3,0,0,0,0,0,0,.2-.4.2-1,.8-1,.2,0,.6,0,.8,0,.1.2.3.5.5.6.4-.4.8-.5,1.6-.5,0-.2,0-.2,0-.5.1-.2,0-.6,0-.7s-.4.1-.7,0c-.4-.1-.5-.5-.9-.6"/>
          <path class="cls-4" d="M54.9,34.5h-.1c0,.1,0,.3,0,.5-.3.4,0,1.7,0,2.1.1,0,.2.1.5.1,0,0,.1,0,.2-.2,0-.1.2-.5,0-.7-.1-.6-.4-1.1-.5-1.7"/>
          <path class="cls-4" d="M55.7,34.8c0,0,0,.1,0,.3,0,0,0,0,0,.1,0,0,0,0,0,0,.1-.1,0-.2,0-.4h-.2"/>
          <path class="cls-4" d="M56.5,35.3c-.5.5-.6,1-.6,1.9,0,0,0,0,.2.1h0s0,0,0,0c0,0,.7-.7.8-.8.3,0,.7,0,.9.1,0,0,.1.2.2.3.2,0,.4,0,.7,0,.1,0,.3,0,.4.1.1.2.2.2.2.5,0,0-.1.2-.2.4h0s0,0,0,0c.4-.2,1.1-1.3,1.1-1.9-.2-.2-.3-.5-.5-.6-.3-.1-.3.2-.5.4-.2.2-.5.4-.9.4-.2-.2-.5-.2-.7-.3-.5-.3-.4-.6-1.4-.6"/>
          <path class="cls-4" d="M61.5,35.7c-.2.3-.5.5-.5,1h0c0,0,.2,0,.3,0,.3,0,.5-.4.7-.6,0,0,0,0,0,0,0-.2-.2-.2-.3-.3h-.3"/>
          <path class="cls-3" d="M19.9,36c0,0,0,0,.1,0,0,.1,0,.3.2.4.1,0,.5,0,.7,0,0,.1,0,.2,0,.4.2.3,0,.9.1,1.2.2.8.4,2.2.3,3-.2,0-.3.2-.5.2,0-.1-.1-.4-.2-.5,0,.2,0,.3,0,.4,0,0,0,0-.1,0-.3-.5-.3-1.5-.5-2.1,0-.2,0-.5,0-.6,0,1.2.2,2.2.2,3.4,0,0,0,0-.2,0h0c-.2-.4,0-1-.2-1.4-.1-.5-.1-1.1-.3-1.6v-.7c0-.4-.2-.9-.1-1.3,0,0,0,0,.2,0,0,0,.1.2.2.3.1.4,0,.9.1,1.2,0-.9-.2-1.7,0-2.4"/>
          <path class="cls-5" d="M66.4,36.4c0,.1,0,.2,0,.4,0,0,.2.3.3.4.3,0,.5,0,.5-.5,0,0,0,0,0,0-.2-.1-.3-.2-.6-.2"/>
          <path class="cls-4" d="M46.5,37.6c-.1.1-.2.1-.2.4.2,0,.5.4.6.3.2,0,.1,0,.1-.3-.1-.2-.1-.3-.3-.4,0,0-.1,0-.2,0"/>
          <path class="cls-4" d="M46.1,38.4c-.1,0-.3,0-.4.1-.2.3-.5.6-.6,1.1,0,.1.3.3.4.5.2.5,0,.7.5,1.1,0,0,.3.3.4.3.2-.2,0-.5.2-.8.2-.8.5-1.9-.4-2.2"/>
          <path class="cls-3" d="M18.6,38.8h.2s0,0,0,.1c.2.2,0,.6.1,1,0,.4,0,1,.1,1.4.1.5.2,1.1.2,1.7,0,0,0,0,0,0,0,0,0,0,0,0-.2-.3-.1-.9-.2-1.3-.1-.5-.5-2.5-.3-2.9"/>
          <path class="cls-4" d="M44.7,39c-.3.3-.2.4-.2.9-.1.2,0,1.1,0,1.6,0,0,0,0,.3,0h0c0-.2,0-.3,0-.4,0-.2.3-.4.5-.6,0-.5-.2-.4-.4-.7-.1-.2,0-.7,0-.8h-.3"/>
          <path class="cls-4" d="M26.1,39.3s0,0-.1,0c0,0-.1.2-.2.2,0,.6.1,1.3.6,1.5,0,0,.1,0,.2,0,0,0,.2-.1.3-.2.1-.2,0-.3.4-.4.2-.1.6-.1.8,0,.4.1.5.5.9.6.6.2,1.2-.5,1.7-.1.6.2.3,1,.9,1.2,0,0,.1,0,.3,0,.1-.1.2-.2.4-.3,0-.2,0-.4,0-.5-.1-.3-.9-1.3-1.2-1.3-.2.1-.4.2-.7.2-.4-.3-1.3-1-2.1-.7-.5.2-.4.5-1.1.5-.2-.3-.7-.6-1.1-.7"/>
          <path class="cls-3" d="M18.1,39.4h.1c0,0,0,0,0,.3.2.3,0,.7.1,1,.1.5.3,1.8.1,2.4-.1,0-.5-.2-.5-.4-.3-.3-.3-2-.3-2.6.2-.2.3-.3.4-.6"/>
          <path class="cls-4" d="M31.9,39.9c0,.1,0,.1,0,.3.2.2.3.3.5.5.2.3.2.7.5.8.4.2.7-.3,1.2-.2.2,0,.4.2.6.2.2,0,.5,0,.6-.1.4,0,.8,0,1.1,0,0,.2.2.6.3.8.2,0,1.1-.5,1.2-.8-.4-.5-.3-1.3-1.2-1.3-.1,0-.3,0-.4.2-.2.1-.4.4-.6.5-.5.2-1.2,0-1.6-.2-.4-.1-1,0-1.3,0-.3-.1-.5-.5-.8-.7"/>
          <path class="cls-4" d="M23.2,40.1s0,0-.1,0c-.1.2-.3.3-.4.5-.1.2,0,.4-.2.6-.1.3-.4.7-.7.9-.3.2-.8.1-1,.4-.3.4,0,1.2-.5,1.4-.2.2-.8,0-.9.5.2.1.3.4.5.5.2,0,.4-.2.5-.3.2-.2,1.4-.4,1.5-.6v-.3c-.1-.2,0-.8,0-.9.2-.3.5-.4.8-.6.4-.3.9-1,1.4-1.1.2,0,.8.1,1.1.1,0,0,0-.1,0-.2,0,0,0-.1,0-.2-.7-.3-1.4-.6-2.2-.7"/>
          <path class="cls-4" d="M40,40.2c-.4.3-.5.5-1.2.6-.7,1.1.3.6.8,1,.3.2.3.5.6.5.3-.3.6-.8,1.1-.9.1,0,.2,0,.4.1.2.2.2.5.6.5.2-.2.3-.6.5-.8.2-.2.4,0,.5-.5,0,0,0,0,0,0-.3,0-.8-.2-1.1,0-.2.1-.3.3-.7.3-.3-.4-.6-.8-1.4-.8"/>
          <path class="cls-4" d="M47,40.5c0,0-.2.2-.2.2,0,.3,0,.6,0,.8,0,0,0,0,.1,0,0,0,0,0,.1,0,0-.5.2-.9-.1-1.1"/>
          <path class="cls-4" d="M44,40.6c0,0,0,0,0,.2-.1.2,0,.9,0,1,0,0,0,0,.1,0,0-.1,0-.2,0-.4,0-.2,0-.6,0-.8h0c0,0-.1,0-.1,0"/>
          <path class="cls-5" d="M30,48.2c.2,0,.3,0,.4-.2.2-.3,0-1.1,0-1.4.1,0,.3,0,.5,0,.5-.1.6-.3,1.2-.2.1.2.3.5.5.6.2.2.4,0,.7,0,0,0,0,0,0-.1,0-.2,0-.4,0-.5,0-.4.2-1.2.4-1.4.1-.2.9-.6,1.1-.7.2,0,.3,0,.5,0,.3-.2.5-.7.7-1.1.3-.6.5-1.2-.5-1.2-.6.4-1.1-.2-1.6,0-.4.1-.7.2-1.1.4-.2.1-.3.3-.5.5-.2.1-.5.2-.7,0-.6-.2-.7-.9-1.1-1.3-.6,0-1.1.3-1.6.1-.3,0-.7-.7-1.1-.6-.3,0-.3.2-.5.4-.3.2-.8.5-1.1.5-.6.2-1.1-.5-1.7-.3-.4.1-1.5,1.2-1.8,1.6,0,.5.3,1.1-.2,1.3-.3.2-.8.1-1.2.3-.5.2-.7.9-1.2,1-.4.1-.6-.3-.9-.4-.3,0-.5,0-.6.1-.3,0-.6,0-.9,0-.3-.4-.6-.7-1.4-.7,0,.1-.1.1-.1.4.2.2.3.4.3.8,0,0-.1.2-.2.2-.4.2-.5,0-.5.7.1.1.1.2.5.2,0,0,0,0,0,0,0-.2,0-.3.1-.5.1,0,.2-.2.5-.2,0,.1.1.2.1.4.1.2,0,.6,0,.8-.2,0-.3.2-.3.5,0,0,0,.3.1.4,0,0,0,0,.1,0,0-.2.2-.5.4-.6.2-.2.5-.2.7-.4.2-.3,0-1,0-1.4,0,0,0,0,0,0,.1.1,0,.3,0,.5.1.6.1,1.3.6,1.6.2.1,1,.1,1.4.1,0-.1,0-.3,0-.5-.1-.2,0-.5,0-.7h.2s0,0,0,0c0,.4,0,.7,0,1.2.2.1.4.2.6.4.6,0,.7-.3,1.1-.5.1,0,.2,0,.4,0,.2-.1.4-.3.6-.4.3,0,.5,0,.8,0,0,0,0,0,0-.2,0,0,0,0,0,0-.2,0-.3,0-.3-.2-.2-.2-.4-1.8,0-1.9.1.1.4.2.5.4.1.2,0,.7.2.8,0,0,0,0,0,0v-.4c0,0,0-.2,0-.4,0,0,0,0,0,0,0,0,0,0,.1,0,0,.3.4,1.8.2,2.2,0,.1-.1.1-.2.3.2.1,1,.6,1.2.2.1-.2,0-.7,0-.8,0-.6-.2-2.1-.1-2.4,0,0,0,0,.1,0,.1.8.2,1.8.4,2.5,0,0,.1,0,.2,0,0,0,0,0,0,0,0-.7-.1-1.2-.1-1.9,0,0,0,0,0,0,0,0,.1,0,.2,0,0,.6.1,1.3.3,1.8h.1c0-.2,0-.4,0-.7-.1-.2-.1-.8,0-1,0,0,0,0,0,0,0,0,0,0,0,0,.1,0,.1.1.1.3.2.3.1,1.3.2,1.7.1,0,.1,0,.3,0h0c.2-.3-.1-1.7-.1-2.2,0,0,0,0,0,0,0,0,0,0,.1,0,0,.5.1,2.5.5,2.6.1-.2.1-.5,0-.8-.1-.2-.2-1.6,0-1.7,0,0,0,0,0,0,.2.2.3,1.8.4,2.2h0s0,0,0,0v-.8c-.2-.2,0-.7,0-.8,0,0,0,0,.1,0,.2.5,0,1.3.3,1.7,0,0,0,0,.1,0v-.4c0-.1-.3-1.8-.2-2,0-.2.3-.2.4-.3,0-.1,0-.3,0-.4,0,0,0,0,.1,0,.1.6,0,1.3.2,1.9,0,.2.1.4,0,.6,0,.2-.2.3-.2.5"/>
          <path class="cls-4" d="M47.7,41c0,0,0,0,0,.1-.2.2,0,1.5.2,1.6,0,0,0,0,0-.2.1-.2.1-1.3,0-1.4,0,0,0,0-.2,0"/>
          <path class="cls-5" d="M43.7,50.9h.1c0-.7,0-1.5-.2-2.2,0-.3-.1-.7,0-.8.3,0,.1.3.2.7.1.6,0,2.1.5,2.4.1,0,.2,0,.4,0,0-.3,0-.5-.1-.8,0-.3.2-.5.1-.7,0,0-.1-.2-.1-.3,0-.4,0-.8,0-1.2,0,0,.3,0,.4-.2.2-.3.1-.7.7-.8.6-.4,1,.6,1.7.6.6-.4,2.2-.5,2.5-1.2.2-.3-.2-.7,0-1.1.2-.5.8-.6.8-1.2-.2-.1-.3-.4-.5-.5-.2-.1-.4-.2-.5-.4-.2-.3-.3-1-.8-1,0,0,0,0,0,0-.2.4-.6,1-1.3,1-.2-.3-.2-.8-.3-1.2-.3-.2-.5,0-.8-.1-.3,0-.3-.4-.6-.5-.2.3-.3.5-.5.7-.4,0-1.2.2-1.6.1-.2,0-.3-.2-.6-.2-.2.2-.4.3-.8.3-.2-.2-.5-.5-.8-.6-.1.2-.6.7-.7.8-.5.3-1.1-.4-1.3-.7-.3,0-.5,0-.8.1-.6.2-1.2,0-1.2.8.2.1.5.4.6.6v.7c0,.2.2.4.1.7-.1.4-.5.3-.5,1.1.2.1.7.3.8.6.3.3,0,.9-.1,1.3.1,0,.2.1.4.1.1-.1.3,0,.5,0,.3.6.2.8,0,1.4-.4.2-.8.5-1.4.5-.1-.1-.4-.4-.5-.4-.3,0-.7.2-1,0,0,0-.4-.5-.5-.6-.2,0-.3,0-.5,0-.1.2-.2.3-.2.7.2.2.4.4.5.6,0,0,0,0,0,0,0-.1,0-.2.2-.3h0s0,0,0,0c.3,0,.8.3.9.6.2.3,0,.8.1,1.2,0,.4.1,1,.2,1.4,0,.3,0,.7.2.8,0,0,0,0,.1,0v-.5c-.2-.3,0-1-.1-1.4,0-.2-.1-.6-.2-.8,0-.2,0-.6,0-.7,0-.1,0,0,0-.2,0,0,0,0,0,0,.1,0,.1.2.1.5.2.3.3,1.9.4,2.4h0v-.3c0-.1-.2-1.2-.1-1.5l.4-.4c.1-.3,0-.7.5-.7,0,0,0,0,0,.1.3.5.1,1.9.4,2.4,0-.6-.1-1,0-1.6,0,0,.1,0,.2,0h0c0,1,.3,2,.4,3h0c0,0,0,0,0,0,0,0,0-.2,0-.4-.2-.2-.2-1.7-.2-1.9,0,0,.1,0,.2,0,0,.2.1.5.2.6,0-.3,0-.6.3-.6,0,0,0,0,0,.1.1.2.2,1.1.2,1.3h.1c.3-.5-.3-1.5,0-2,.1,0,.2,0,.3-.2.2-.3-.1-1.3,0-1.7,0,0,.1,0,.2,0h0c.1,1.2.2,2.4.5,3.4h0v-.6c-.2-.3,0-.8,0-1.1-.2-.7-.4-1.9-.2-2.7.3-.1.3-.2.5-.5h0s0,0,0,0c.2.3,0,.8.2,1.2.2.7.1,1.5.3,2.2,0,.5,0,1.2.3,1.4h0s0,0,0,0c.2-.2.1-.8,0-1.1-.2-.8-.4-2.3-.4-3.2,0,0,0,0,.2,0,.3.6.2,2,.4,2.8,0,.4,0,1.1.3,1.2h0c.1-.3,0-1.3,0-1.5,0-.4,0-.8,0-1.2-.1-.6-.3-1.7-.1-2.2h0c0,0,0,0,0,.2.2.2,0,.6.1,1,.2.7.2,1.5.3,2.2"/>
          <path class="cls-4" d="M49.8,42.1s0,0-.1,0c0,.1,0,.1,0,.3.2.2.2.4.3.6,0,.1.3.2.4.3.3.2.5.6.8.8v.3c-.3.3-.6.7-.9,1,0,.4.2.7.1,1,0,.1-.2.2-.2.5.4.2.7.5,1.2.5.2-.4.8-.7.9-1.2v-.6c0-.2.2-.3.2-.6-.3-.3-.8-.3-1-.6-.5-.7.5-1.3.8-1.6v-.2h-.1c-.3-.3-.7,0-1.2,0-.1-.2-.3-.4-.4-.6h-.7"/>
          <path class="cls-4" d="M36.6,42.8c-.3.5-.5,1.2-.9,1.7-.2.2-.5.2-.5.5-.2.3,0,1.1,0,1.4,0,0,0,0,0,0,.4-.1.6-.5.9-.7.2-.1.6,0,.8-.2.2-.4.7-.9.4-1.7,0-.3-.4-.4-.5-.6-.1-.2,0-.4-.3-.5"/>
          <path class="cls-4" d="M52.6,43.8c0,.2,0,.5,0,.7h0v-.4c0-.1,0-.2-.2-.3"/>
          <path class="cls-4" d="M52,43.9c0,.1-.1.2-.1.4h0s0,0,.2,0c.1-.2.1-.2,0-.5h-.2"/>
          <path class="cls-4" d="M55.8,45.3c-.2.2-.4.2-.6.3-.4.3-.7.6-1.2.8-.3.1-1.2.2-1.4.4,0,.1-.2.2-.3.4,0,0,0,0,0,0,0,.1,0,0,.1,0,.3.2.9-.3,1.1-.4,1.1-.5,1.8-.7,2.6-1.5,0,0,0,0,0,0,0-.1,0,0,0,0,0,0,0,0-.1,0"/>
          <path class="cls-3" d="M21,45.5c.4,0,.7.1,1,.3.2.5.2,1.3.2,2.1,0,0,0,0-.2,0,0,0-.1-.1-.2,0-.2.2-.4.3-.5.5-.3-.2-.2-.7-.4-1v.9c0,0,0,0-.2,0-.2-.7-.4-1.7-.2-2.5,0,0,0,0,.2,0,0,0,0,0,.1.1,0-.1,0-.3.1-.4"/>
          <path class="cls-4" d="M30.9,50.7c0-.4-.3-.7-.2-1.1.1-.3,1.1-1.4,1.4-1.5.4-.1.7.2,1,0,.2,0,.3-.2.5-.3.2,0,.9,0,1.2,0,0-.1.2-.2.2-.3.1-.2,0-.4-.1-.5-.2-.4-.4-1.2-.9-1.2,0,0,0,0,0,.1-.2.3.1.6,0,.9,0,.4-.4.5-.7.7-.5,0-.8,0-1.2-.1-.1-.3-.1-.7-.6-.7,0,0,0,0,0,0-.2.4,0,.6,0,1.1,0,.1,0,.3-.1.4-.2.1-.6.2-.7.4-.2.3-.3.8-.2,1.2.3.2.2.7.7.7"/>
          <path class="cls-3" d="M17.1,46c.2,0,.2.2.3.4.1,0,.1-.1.3-.1,0,0,0,.1,0,.3,0,.1,0,.5,0,.7h0s-.2,0-.2,0c-.1,0,0,.1-.3.2,0,0,0,0,0,0,0-.4-.1-.9,0-1.3"/>
          <path class="cls-4" d="M36.4,46c-.2.2-.5.3-.7.6-.2.3,0,.6-.1.9,0,.3-.2.5-.3.8.2.1.6.2.8.3.2.2.2.3.5.4,0-.1.3-.3.5-.1.3.1.4.5.9.5.1,0,.4-.1.6-.2,0-.2.1-.2.1-.5-.2,0-.6-.2-.8-.2-.4-.8,0-.8,0-1.7-.4-.3-.8-.4-1-.8h-.3"/>
          <path class="cls-4" d="M54.8,47.2c.5,0,1.5,0,1.6-.5,0,0,0,0,0,0,0-.2-.2-.3-.5-.3-.3.3-.8.5-1.1.6v.2"/>
          <path class="cls-3" d="M19,46.4c.1,0,.2,0,.2.3.2.3.1,1,0,1.2-.2,0-.4-.1-.5-.3,0-.1-.1-.7,0-.8,0-.2.2-.3.4-.5"/>
          <path class="cls-4" d="M57.8,46.7c-.5.4-1.4.7-2.2.9-.3,0-.6,0-.9.1-.6.2-1,.7-1.5,1-.3.2-1,.5-1.1.9h0c.2.1.6-.2,1.1,0,0,0,.7.6.8.6.2.2.1.6.4.7.2.2,1.2,0,1.2-.2,0-.2,0-.4,0-.6,0-.1,0-.4.1-.6.3-.1.8-.2,1-.5,0-.1,0-.3.1-.5.1-.3.7-.6.9-.7.7-.2,1.1.2,1.5.4.4,0,.7-.1.9-.2.3,0,.4.1.7.1,0,0,0,0,0-.1.2-.2,0-.5,0-.7h-.3c-.1.2-.3.2-.5.4-1.2,0-1.4-1.1-2.5-1.1"/>
          <path class="cls-5" d="M51.4,53.6c0-.2,0-.5,0-.7,0,0,0,0,0,0,.2.3,0,.9.3,1.2h0c0-.1,0-.2.1-.3h0c0,0,0,0,0,.3.2.4,0,1,.1,1.6.2,1,.2,2.2.4,3.1,0,.3,0,.5,0,.8.2.1.3.1.6,0,.2-1.3-.2-2.9-.3-4.2h.1c0,.9.1,2,.3,2.8s0,1.8.7,1.9c0,0,0,0,.1,0h0c-.3-.4,0-.9-.2-1.4-.2-.8-.4-2.3-.3-3.1h.1c0,.6.2,1.2.3,1.7v.5c0,.5.1,1,.2,1.4h.1c.1-1-.2-2-.2-3h0s0,0,0,0c.2.2,0,.6.1.9.2.7.2,1.5.3,2.2,0,0,.2,0,.4,0,0,0,.1,0,.2-.2.3-.4-.3-.9-.4-1.5,0,0,0-.2.2-.2.2-.2.5-.2.5-.6.1-.2-.1-1.3-.1-1.7,0,0,0,0,0,0,0,0,0,0,0,0,.1.2.2,1.7.3,2,0,0,.1,0,.2,0,0-.1,0-.4,0-.6-.1-.2,0-.6,0-.8,0,0,.1,0,.2,0,0,.1,0,.5.1.6,0-.5,0-1.2,0-1.6,0,0,0,0,0,0,.2.3,0,.8.1,1.2,0,.4,0,.8.1,1.2.2.7.3,1.5.3,2.4.1,0,.2,0,.4,0,.1-.2.3-.3.3-.5,0-.4-.1-1.2-.2-1.5,0-.3,0-.6,0-.9-.1-.6-.2-1.5-.2-2.2h.1c.1.3,0,.6,0,.8.2.8,0,1.7.3,2.5.1.5-.1,1.3.5,1.3,0,0,0,0,.1-.2.1-.2,0-.6,0-.8,0-.3,0-.6,0-.9,0-.4-.2-1-.1-1.5h.1s0,0,0,0c0,1.1.2,3.4.8,4,0,0,0,0,0,0,.1,0,0-.5,0-.7-.1-.2-.3-2.2-.2-2.5h0c0,.1,0,.1,0,.3.1.2,0,.5,0,.8.2.9,0,2.3.7,2.8,0,0,0,0,.1,0,0-1.2-.2-2-.3-3.1,0,0,0,0,.2,0h0c.2.4,0,1,.2,1.5.2.8.3,1.7.3,2.5.4.3.6.2.6-.5-.2-.3,0-.9-.1-1.2-.1-.6,0-1.3-.2-2-.1-.5-.3-1.3-.1-1.9,0,0,0,0,.1,0,.2,1.7.4,3.3.6,5,0,0,0,0,.3,0,0,0,0,0,.1-.2.1-.2,0-.5,0-.8,0-.7-.2-1.5-.1-2.1h.1s0,0,0,0c.1.9.2,1.8.4,2.7h0c0,0,0,0,0,0,.1,0,0-.2,0-.5-.2-.2-.2-1,0-1.2h.2c.2.5.1,1.3.4,1.7,0-.5-.2-.8,0-1.2,0,0,0,0,.2,0,0,.3,0,.5.5.5.1-.1.2,0,.4-.1.8-.2.9,0,1.3.6.7,0,.9-.2,1.2-.5,0-.3-.2-.3-.2-.8.3-.2.8-.4.9-.7,0-.1,0-.3.2-.5.2-.2.6-.2.7-.4.2-.4-.2-.7.5-.8.2.1.4.2.5.4.1.2,0,.5,0,.8.2.2.6.4.8.7h.3c.2-.2.5-.8.9-.8.4-.3.8.2,1.2.2.1-.2.2-.5.4-.8.3-.4.7,0,.7-.8,0,0,0-.2,0-.2.1-.2.4-.2.5-.5,0-.1,0-.2,0-.3,0-.2,0-.4,0-.6,0,0,.2-.2.3-.2.3-.1.6,0,.9,0,.2-.3.5-1.4,0-1.7-.2-.2-.5,0-.8,0-.2-.2-.3-.3-.4-.5v-.4c.2-.1.4-.3.4-.6-.2-.3,0-.8-.6-.8-.2.2-.5.5-.7.7,0,.6.3,1.5-.3,1.7-.4.3-.8-.3-1.2-.4,0,.2-.1.6-.2.8-.4.2-1.1.2-1.6.1-.2-.2-.5-1.1-.7-1.2-.3-.2-.7.4-1.2.3-.4,0-.5-.5-.8-.7-.2,0-.3,0-.5,0-.3-.2-.4-.5-.8-.5-.3-.1-.5.5-.9.5-.2.1-.7,0-.8-.1-.4-.6-.4-.9-.4-1.9.2-.1.3-.2.3-.5-1-.7-1.7.2-2.7.3-.1-.1-.3-.2-.4-.3-.2-.2,0-.5-.4-.6-.3-.2-.8.1-1.2,0-.7-.2-1.3-.7-1.8,0-.2.3.2,1-.2,1.2-.2.2-.5-.2-.9,0-.1.3,0,.5,0,.9,0,.1,0,.2-.1.4-.5.3-1.3.5-2,.4-.3-.5-.5-1.4-1.3-1.5-.3,0-.6.3-1,.1-.3-.1-.7-.7-.8-1.1,0-.2,0-.4,0-.5-.1-.3-.4-.6-.6-.8-.4,0-.6.3-.9.2-.3,0-.6-.4-1.1-.3-.5.1-1.3.7-1.8.5-.2,0-.5-.4-.7-.6-.2,0-.3,0-.5,0,0,.1,0,.2,0,.4.3.3.6.2.9.4,0,0,.5.8.6.8,0,.3,0,.6,0,.9,0,.2.1.6.2.8,0,.5-.1,1,.3,1.2,0,0,0,0,0-.2-.2-.2-.3-1.6-.3-2,0,0,0,0,0,0,0,0,0,0,0,0,.1.1.2.4.2.5.2,0,.2,0,.4-.1.1.1.3.2.4.4.2.4,0,1,.2,1.5,0,.5,0,1.1.1,1.6.1.6.2,1.4.2,2.1.2.1.6.2.8.2,0,.2.2.5.3.7,0-1.3-.2-2.2-.2-3.4h0s0,0,0,0c.2.2,0,.6.1.9.2.8.2,1.8.3,2.6,0,.3-.2.3-.1.5,0,0,.2,0,.3,0,0,0,0,0,0,0,0-.2,0-.3,0-.6-.2-.2,0-.6,0-.9-.1-.6-.2-1.3-.2-2,0,0,0,0,.2,0,0,.1.1.2.2.3h0c0-.2,0-.3,0-.5.2,0,.2,0,.4,0"/>
          <path class="cls-4" d="M53.5,47.6c-.3.3-1.3.3-1.9.3,0,.1-.1.2-.1.4.1.2,0,.6.3.7.2,0,.4-.2.6-.3.2-.1.4-.2.6-.3.3-.2.4-.5.7-.7h0s-.1,0-.1,0"/>
          <path class="cls-4" d="M61.8,47.7c0,0,0,0,0,.1-.1.2,0,.6,0,.9,0,0,0,0,0,0h0c.2-.3.3-.3.4-.8-.1-.1-.2-.2-.3-.3"/>
          <path class="cls-4" d="M63.8,47.8c-.1,0-.2,0-.4.2l-.4.4c-.2.1-.5,0-.5.3h0c.7,0,1.1.2,1.6.3.2.3.4.7.1,1.2,0,.1-.2.2-.3.4,0,.3,0,.7,0,.8,0,0,.2.1.2.2.8,0,.7-.6,1.4-.7.2.2.5.4.8.5.2-.1.3-.2.6-.2.1.1.2,0,.3.3.2.3,0,.7.4.7,0,0,0,0,0-.1.1-.2,0-.7,0-.8,0-.2,0-.4,0-.5,0-.3-.1-.6-.1-.9,0,0,0,0-.2,0-.3-.2-1.4.4-1.9,0-.4-.3-.7-1.5-1-1.6-.2-.2-.5-.2-.9-.2"/>
          <path class="cls-4" d="M23.2,48.3c-.2.1-.4.2-.5.4,0,0,0,0,0,.2.5.3,2,1.1,2.5,1,0-.2.2-.2.2-.5,0,0,0-.2,0-.3-.6-.3-1.3-.8-2.1-.8"/>
          <path class="cls-4" d="M26.7,48.3c-.1.1-.4.4-.3.6.1.3.4.3.6.4.4.2.7.8,1.2.8.3-.2.7-.3.7-.8,0,0,0,0,0,0,0,0-.2-.1-.2-.1-.2,0-.5,0-.7,0-.4-.1-.8-.5-1-.8h-.3"/>
          <path class="cls-4" d="M44.9,48.4c0,.3,0,.7,0,1,.3,0,.5.2.9.2,0,0,.2-.2.2-.3,0-.7-.4-.5-.8-.7-.2,0-.2-.2-.4-.3"/>
          <path class="cls-5" d="M20.9,54.5c0-.8-.1-1.3-.1-2,0,0,0,0,0,0,0,0,0,0,0,0,.1.2,0,.4.1.7.2.7.3,1.5.3,2.4,0,0,0,0,0,0,0,0,0,0,0,0-.1-.1-.1-.4-.2-.6h0c-.1.2-.2.3-.2.6.1.2.2.4.4.5,0,0,.1,0,.2,0,.2-.4.5-.4,1-.5v-.2c-.2,0-.3-.2-.5-.3q0,.2-.2.2s0,0,0-.1c-.2-.3-.2-1.5-.2-2.1,0,0,0,0,0,0,.1,0,.2.2.3.2.1,0,.2,0,.3,0l.5.4c0,0,0,.3,0,.4.2.1.2,0,.4.1.3.4.2,1.8.2,2.4.7.2,1,.1,1.5.7h0c.1-.2,0-.9,0-1h0s0,0,0,0c0,0,0,.2-.2.3,0,0,0,0-.1,0v-.3c.1-.2,0-.6,0-.8,0-.6,0-1.3-.1-1.9,0,0,0,0,0,0,0,0,0,0,0,0,.3.3,0,1,.2,1.4,0,.2.3.2.4.3,0,.3,0,.5,0,.8.1.6.4,1.7.2,2.4,0,0,0,0-.2,0,0-.2-.1-.4,0-.7,0,0,0-.3,0-.5h0c-.4.5.2,1.9.7,1.9,0-.2,0-.5,0-.8-.2-.3-.3-1.8-.3-2.2,0,0,0,0,.2,0,0,.1,0,.2,0,.4.2.3.2,1.7.3,2.1s-.2.8.3.9c.2-.3.5-.5.7-.8.4,0,.6.2,1,.2,0,0,0,0,0-.1.1-.2,0-.8,0-1,0-.4,0-.8,0-1.2-.1-.5-.2-1.1-.1-1.6h.1s0,0,0,0c.1,1.3.3,2.7.5,3.9,0,0,.1,0,.3,0,.5-.5.5-.4.5-1.3-.1-.2-.2-1.2-.2-1.6,0,0,0,0,.2,0,0,0,0,0,0,.3.2.3.1,1.3.3,1.7,0,0,0,0,.2,0,0,0,0-.2,0-.4-.2-.2-.2-1.5-.1-1.8,0,0,0,0,.2,0q0,0,.2.1c0-.5-.1-1.1,0-1.6h.1c.1.3,0,.7.1,1,.1.6.4,1.9.3,2.5h-.2s0,0,0,0c0-.4,0-1.2-.3-1.4,0,0,0,0,0,0v.7c.2.3,0,.9.3,1,.1,0,.3,0,.5,0,0-.1,0-.3,0-.5,0,0-.3-1.5-.2-1.7.1,0,.2-.2.3-.3.1-.3-.1-.5.1-.6,0,0,0,0,0,.3.2.3.2,1.7.2,2h0c0,0-.2-.2-.3-.2v.7c0,0,0,.2.2.3h0s0,0,0,0c.8-.3.4-1.4.4-2.3h0s0,0,0,0c0,0,0,0,0,.3.1.2,0,.5.3.6h0c.1-.3,0-.8,0-1h0c.2.4,0,.8.6.8.2,0,.5,0,.7,0,.5-.2.7-.9.9-1.2.2-.2.4-.3.6-.5.2,0,.5,0,.8,0,.3,0,.5.2.8.1h0c.2-.3-.4-2-.6-2.1-.2-.1-.4,0-.6,0-.2,0-.4,0-.6,0-.2-.2-.4-.7-.3-1.2,0-.2.2-.4.1-.6,0-.3-.2-.7,0-1.1,0-.3.2-.5.2-.8,0,0,0,0-.3,0-.4-.3-1,.2-1.2.2-.3,0-.6-.3-.8,0-.4.1-.7.7-1,1,0,.7.3.9.3,1.6-.1,0-.2.2-.4.3-.8-.2-1.3-1-1.8-1.5-.5.2-.7.6-1.4.6-.2-.2-.4-.2-.6-.4-.2-.2-.4-.5-.7-.6-.2,0-.5-.2-.7,0-.4.2-.2.7-.8.9-.8.2-1.3-.6-1.9-.6-.2.3-.5.7-.8.9s-.6,0-1,.2c-.2,0-.4.2-.6.2-.8-.1-1.4-.9-1.9-1.5-.4,0-.7.1-.8.4,0,0,0,.1,0,.2.2.2.4.4.6.6,0,.6-.4.7-.5,1.1-.1.4.2.8.3,1.1.1.6-.2,1,.6,1,.8-.6,1.5.5,1.8.5"/>
          <path class="cls-4" d="M19.3,48.8s0,0-.1,0c0,0,0,0,0,0,0,.2.2.2.4.4.2.2.2.6.5.8.2.1.4.2.6.4.9,0,1.9,0,1.9-.9-.1-.2-.2-.3-.4-.4-.3-.2-.7.3-1.2.1-.1,0-.2-.2-.4-.3-.3-.2-.8-.2-1.2-.2"/>
          <path class="cls-4" d="M68.8,49c-.1.1-.3.2-.4.3,0,.2-.1.6,0,.8,0,0,0,0,.1,0,.2-.2.8-.6.6-.9,0,0,0,0,0-.2h-.4"/>
          <path class="cls-4" d="M46.6,50c0,.1,0,0,0,.2h0v-.2h0"/>
          <path class="cls-4" d="M35.5,50.8c0,.1,0,.2,0,.3,0-.1,0-.2,0-.3"/>
          <path class="cls-4" d="M46.2,51.4c0,.2,0,.3,0,.4,0-.2,0-.3,0-.4"/>
          <path class="cls-4" d="M47.8,52h.2c0-.2-.1-.4-.2-.5v.5"/>
          <path class="cls-4" d="M44.2,51.7c0,0,0,.1,0,.3.1,0,.1.1.3.1,0,0,0-.1,0-.3,0,0,0,0-.1-.1h-.2"/>
          <path class="cls-3" d="M20.2,52c.2,0,.2.1.2.4.1.2.1.7,0,1.1,0,0,0,0-.2,0,0-.2-.1-.4-.2-.5h0c-.1.2,0,.5-.2.5h0s0,0,0,0c-.2-.2-.1-1-.1-1.4,0,0,0,0,0,0h0c0,0,.1.2.2.2,0-.1,0-.2.1-.3"/>
          <path class="cls-4" d="M40,52.8c0,.3,0,.5,0,.9h.1s0-.3,0-.3c0-.1,0-.4-.1-.6"/>
          <path class="cls-4" d="M50.9,54.4c0,.2,0,.6.1.8,0-.3,0-.6-.1-.8"/>
          <path class="cls-4" d="M51.8,54.6c0,.3,0,1.1.1,1.2,0-.4,0-1-.1-1.2"/>
          <path class="cls-4" d="M22.7,55.3c0,.2-.1.2-.1.5,0,0,0,0,.1,0h0s0,0,0,0c.1-.1,0-.4,0-.5"/>
          <path class="cls-4" d="M51,55.8c0,.4,0,.8.1,1,0-.4,0-.8-.1-1"/>
          <path class="cls-4" d="M52,56.2c0,.6,0,1.4.1,1.8h0c0-.3,0-1.6-.2-1.8"/>
        </g>
      </g>
    </g>
  </g>
</svg>