<svg id="Layer_3" data-name="Layer 3" xmlns="http://www.w3.org/2000/svg" viewBox="0 0 403.82 52.71"><defs><style>.cls-1{fill:#12273f;}</style></defs><path class="cls-1" d="M28.33,29.18c0,6.59-5.33,11.16-12,11.16H0V1.84H15.19c6.49,0,11.71,4.4,11.71,10.84a9.52,9.52,0,0,1-3.63,7.7A9.75,9.75,0,0,1,28.33,29.18ZM7.6,8.94v8.47h7.59a4.08,4.08,0,0,0,4.12-4.24,4,4,0,0,0-4.12-4.23Zm8.74,24.31a4.37,4.37,0,0,0,4.46-4.57,4.35,4.35,0,0,0-4.46-4.51H7.6v9.08Z"/><path class="cls-1" d="M60.34,14.49V40.34H53.25V37.2c-1.54,2.2-4.07,3.91-8.31,3.91-6.38,0-13-4.51-13-14.24,0-9.41,6.38-14.8,16.61-14.8C53.3,12.07,58.09,13.23,60.34,14.49ZM53.25,31.38V19.28a20.56,20.56,0,0,0-4.79-.61c-5.77,0-9.46,2.92-9.46,8.2s3.63,7.75,7.59,7.75A8.2,8.2,0,0,0,53.25,31.38Z"/><path class="cls-1" d="M92.52,23.46V40.34h-7.1v-16c0-3.74-2.25-5.67-5.44-5.67-3.47,0-6,2-6,6.82V40.34H66.84V12.84h7.09v3.08c1.65-2.47,4.51-3.85,8.19-3.85C88,12.07,92.52,16.14,92.52,23.46Z"/><path class="cls-1" d="M98.57,40.34V1.29l7.09-1.1V24.94l9.46-12.1h8.47l-11,13.59,11.38,13.91h-8.25l-10-12.48V40.34Z"/><path class="cls-1" d="M135.31,26.59a14.55,14.55,0,1,1,14.52,14.52A14.37,14.37,0,0,1,135.31,26.59Zm22,0a7.46,7.46,0,1,0-14.91,0,7.46,7.46,0,1,0,14.91,0Z"/><path class="cls-1" d="M170.4,40.34V19.66h-4V12.84h4V10.75C170.4,4,174,.08,181.67.08c.72,0,1.43.06,2.2.11V7.07C183.21,7,182.61,7,182.06,7c-2.92,0-4.57,1-4.57,3.79v2.09h6.38v6.82h-6.38V40.34Z"/><path class="cls-1" d="M225,33.08v7.26H201.2V1.84h23.54V9.1h-16v8.2h14.57v7.15H208.79v8.63Z"/><path class="cls-1" d="M255.7,23.46V40.34h-7.09v-16c0-3.74-2.26-5.67-5.45-5.67-3.46,0-6,2-6,6.82V40.34H230V12.84h7.09v3.08c1.65-2.47,4.51-3.85,8.2-3.85C251.14,12.07,255.7,16.14,255.7,23.46Z"/><path class="cls-1" d="M288.54,14.49v25.3c0,8.25-5.17,12.87-13.59,12.87-5.22,0-10-2-12.81-5.5l5.77-3.63a8.71,8.71,0,0,0,6.93,2.8c4.18,0,6.77-2,6.77-6.54V36.54c-1.54,2.2-4.07,3.91-8.31,3.91-6.38,0-13-4.51-13-13.91,0-9.19,6.38-14.47,16.61-14.47C281.61,12.07,286.34,13.23,288.54,14.49Zm-6.93,16.22V19.28a20.56,20.56,0,0,0-4.79-.61c-5.77,0-9.46,2.81-9.46,7.87C267.36,31.43,271,34,275,34A8.18,8.18,0,0,0,281.61,30.71Z"/><path class="cls-1" d="M294.59,31.1V1.29l7.09-1.1V31.1c0,2.42,1.38,2.91,4,2.91a16.32,16.32,0,0,0,2.26-.11v6.49a29.69,29.69,0,0,1-3.69.22C297.12,40.61,294.59,37.59,294.59,31.1Z"/><path class="cls-1" d="M338.64,14.49V40.34h-7.09V37.2c-1.54,2.2-4.07,3.91-8.31,3.91-6.38,0-13-4.51-13-14.24,0-9.41,6.38-14.8,16.61-14.8C331.6,12.07,336.39,13.23,338.64,14.49Zm-7.09,16.89V19.28a20.56,20.56,0,0,0-4.79-.61c-5.77,0-9.46,2.92-9.46,8.2s3.63,7.75,7.59,7.75A8.2,8.2,0,0,0,331.55,31.38Z"/><path class="cls-1" d="M370.81,23.46V40.34h-7.09v-16c0-3.74-2.25-5.67-5.44-5.67-3.47,0-6,2-6,6.82V40.34h-7.1V12.84h7.1v3.08c1.65-2.47,4.51-3.85,8.19-3.85C366.25,12.07,370.81,16.14,370.81,23.46Z"/><path class="cls-1" d="M396.72,1.29l7.09-1.1V40.34h-7.09V37.2c-1.54,2.2-4.07,3.91-8.3,3.91-6.38,0-13-4.51-13-14.24,0-9.41,6.38-14.8,16.61-14.8a33.55,33.55,0,0,1,4.73.33Zm0,30.09V19.28a20.41,20.41,0,0,0-4.78-.61c-5.78,0-9.46,2.92-9.46,8.2s3.63,7.75,7.59,7.75A8.18,8.18,0,0,0,396.72,31.38Z"/></svg>