<?xml version="1.0" encoding="UTF-8"?>
<svg id="Layer_1" data-name="Layer 1" xmlns="http://www.w3.org/2000/svg" xmlns:xlink="http://www.w3.org/1999/xlink" viewBox="0 0 1920 453.42">
  <defs>
    <style>
      .cls-1 {
        fill: #00a1aa;
      }

      .cls-1, .cls-2, .cls-3, .cls-4, .cls-5, .cls-6, .cls-7 {
        stroke-width: 0px;
      }

      .cls-2 {
        fill: url(#linear-gradient);
      }

      .cls-3 {
        fill: #7b969f;
      }

      .cls-4 {
        fill: #5b254e;
      }

      .cls-5 {
        fill: url(#linear-gradient-4);
      }

      .cls-6 {
        fill: url(#linear-gradient-2);
      }

      .cls-7 {
        fill: url(#linear-gradient-3);
      }
    </style>
    <linearGradient id="linear-gradient" x1="10895.14" y1="3219.39" x2="11045.97" y2="3219.39" gradientTransform="translate(11318.02 3401.95) rotate(-180)" gradientUnits="userSpaceOnUse">
      <stop offset=".03" stop-color="#00565b"/>
      <stop offset="1" stop-color="#00a1aa"/>
    </linearGradient>
    <linearGradient id="linear-gradient-2" x1="356.25" y1="335.45" x2="507.08" y2="335.45" gradientTransform="translate(-84.2 -266.54)" xlink:href="#linear-gradient"/>
    <linearGradient id="linear-gradient-3" x1="220.53" y1="68.91" x2="371.36" y2="68.91" gradientUnits="userSpaceOnUse">
      <stop offset="0" stop-color="#30042a"/>
      <stop offset=".06" stop-color="#421139"/>
      <stop offset=".15" stop-color="#58214c"/>
      <stop offset=".26" stop-color="#6a2d5b"/>
      <stop offset=".39" stop-color="#763666"/>
      <stop offset=".57" stop-color="#7d3b6c"/>
      <stop offset="1" stop-color="#803d6e"/>
    </linearGradient>
    <linearGradient id="linear-gradient-4" x1="11030.86" y1="3485.93" x2="11181.69" y2="3485.93" gradientTransform="translate(11402.22 3668.49) rotate(-180)" gradientUnits="userSpaceOnUse">
      <stop offset="0" stop-color="#79386a"/>
      <stop offset=".19" stop-color="#723364"/>
      <stop offset=".47" stop-color="#5f2654"/>
      <stop offset=".79" stop-color="#411039"/>
      <stop offset=".95" stop-color="#30042a"/>
    </linearGradient>
  </defs>
  <g>
    <path class="cls-4" d="M32.95,320.75c12.71,0,18.86,1.05,24.37,4.19,7.21,4.06,11,11.13,11,20.83s-3.67,16.77-10.87,20.83c-5.76,3.28-12.31,4.45-24.63,4.45h-10.74v37.07H7.4v-87.38h25.55ZM33.87,366.47c12.71,0,18.73-6.55,18.73-20.7s-6.03-20.57-19.13-20.57h-11.4v41.27h11.79Z"/>
    <path class="cls-4" d="M133.56,380.49c0,9.04-3.41,17.69-8.91,22.4-4.98,4.45-12.71,7.07-20.7,7.07-18.34,0-29.61-11.4-29.61-30.13s11.4-30,29.61-30,29.61,11.4,29.61,30.65ZM88.49,380.62c0,16.51,5.11,25.15,15.2,25.15,10.61,0,15.72-8.12,15.72-25.41s-4.85-26.33-15.46-26.33-15.46,8.51-15.46,26.59Z"/>
    <path class="cls-4" d="M138.67,351.54h14.41l14.8,43.36,15.46-43.62h7.86l15.59,44.54,13.23-44.28h8.38l-22.01,57.51h-7.73l-15.59-43.89-15.46,43.89h-7.86l-21.09-57.51Z"/>
    <path class="cls-4" d="M247.14,380.36c.13,16.51,5.76,24.89,17.03,24.89,8.38,0,14.93-5.11,17.42-13.76h6.03c-3.14,11.92-11.66,18.08-25.15,18.08-18.08,0-29.21-11.4-29.21-30s10.87-29.34,28.17-29.34c10.22,0,19.13,4.45,23.06,11.4,2.88,5.24,4.19,10.61,4.45,18.73h-41.79ZM274.91,376.3c-.13-14.28-4.85-22.01-13.49-22.01-6.29,0-10.22,3.41-12.44,10.61-1.18,3.67-1.7,7.34-1.83,11.4h27.77Z"/>
    <path class="cls-4" d="M315.78,351.54v16.64c4.06-12.31,9.83-16.9,21.75-17.82v14.15c-4.32-1.57-6.42-1.97-9.43-1.97-7.07,0-11.53,5.76-11.53,15.07v30.52h-13.23v-56.59h12.44Z"/>
    <path class="cls-4" d="M358.88,380.36c.13,16.51,5.76,24.89,17.03,24.89,8.38,0,14.93-5.11,17.42-13.76h6.03c-3.14,11.92-11.66,18.08-25.15,18.08-18.08,0-29.21-11.4-29.21-30s10.87-29.34,28.17-29.34c10.22,0,19.13,4.45,23.06,11.4,2.88,5.24,4.19,10.61,4.45,18.73h-41.79ZM386.65,376.3c-.13-14.28-4.85-22.01-13.49-22.01-6.29,0-10.22,3.41-12.44,10.61-1.18,3.67-1.7,7.34-1.83,11.4h27.77Z"/>
    <path class="cls-4" d="M455.56,408.13v-13.23c-1.57,4.72-2.75,6.68-5.5,9.17-3.93,3.54-8.78,5.37-14.41,5.37-6.94,0-13.36-2.75-17.82-7.6-4.32-4.59-6.94-13.1-6.94-22.14,0-10.35,3.14-18.86,8.51-23.58,4.45-3.8,10.09-5.9,16.24-5.9,9.43,0,15.72,4.32,19.39,13.36v-48.08h13.23v92.62h-12.71ZM430.01,358.87c-2.88,3.01-4.98,11.13-4.98,19.65,0,10.74,1.18,16.64,4.06,21.09,1.96,3.01,5.76,4.98,9.56,4.98,9.82,0,16.38-10.09,16.38-24.89s-6.68-24.63-16.51-24.63c-3.14,0-6.03,1.31-8.51,3.8Z"/>
    <path class="cls-4" d="M532.72,315.51v48.21c3.28-8.91,9.96-13.49,19.52-13.49,6.81,0,13.36,2.75,17.82,7.6,4.19,4.45,6.81,12.84,6.81,21.88,0,10.48-3.14,19-8.65,23.84-4.45,3.8-10.09,5.89-16.11,5.89-5.63,0-10.48-1.83-14.41-5.37-2.75-2.49-3.93-4.45-5.5-9.17v13.23h-12.71v-92.62h13.23ZM532.72,379.83c0,9.17,2.62,17.03,7.07,20.83,3.01,2.62,6.03,3.93,9.3,3.93s6.29-1.31,8.65-3.8c2.88-3.01,4.98-11,4.98-19.52,0-10.87-1.18-16.9-4.06-21.22-1.96-3.01-5.76-4.98-9.56-4.98-9.69,0-16.38,10.09-16.38,24.76Z"/>
    <path class="cls-4" d="M595.99,351.54l17.29,41.92,14.41-41.92h8.51l-28.3,67.2c-5.76,13.62-9.69,19.52-15.2,22.79-3.14,1.96-10.22,3.93-12.84,3.54h-.26v-11.27c14.28,0,17.82-2.75,24.5-18.73l2.23-5.76-25.15-57.77h14.8Z"/>
  </g>
  <g>
    <path class="cls-4" d="M960.03,377.75c-1.81,5.26-4.33,9.72-7.54,13.37-3.23,3.66-7.05,6.46-11.48,8.4-4.43,1.95-9.26,2.93-14.5,2.93h-1.51c-3.22,0-10.32-.82-11.33-1.02v-79.69c1.01-.1,9.81-1.02,11.33-1.02h1.2c5.44,0,10.4,1,14.88,2.99,4.47,2.01,8.33,4.86,11.55,8.56,3.22,3.7,5.71,8.16,7.47,13.37,1.76,5.22,2.64,8.01,2.64,14.44s-.91,12.43-2.72,17.68M981.46,342.56c-2.61-5.9-6.54-10.88-11.77-14.98-5.23-4.09-11.73-7.24-19.48-9.43-7.76-2.18-16.82-3.28-27.19-3.28h-28.99v93.42h32.92c9.46,0,17.84-1.19,25.14-3.58,7.3-2.39,13.41-5.72,18.35-10.01,4.94-4.29,8.66-9.42,11.19-15.42,2.51-5.99,3.77-12.59,3.77-19.8s-1.31-11.02-3.94-16.92"/>
    <path class="cls-4" d="M865.91,379.07l-51.95-55.43c-2.32-2.92-5.26-5.12-8.83-6.57-2.72-1.11-6.22-1.81-10.18-2.07,0,3.09-.01,15.57-.01,17.41v75.89h7.55v-69.31l64.03,69.74h6.95v-93.86h-7.55v64.2"/>
    <path class="cls-4" d="M754.72,389.29c0,3.71.2,6.77.6,9.21.4,2.43,1.13,4.39,2.19,5.85,1.06,1.46,2.47,2.48,4.23,3.06,1.76.58,3.95.87,6.56.87h6.04s0-14.61,0-18.99v-74.42h-19.63v74.42"/>
    <polyline class="cls-4" points="681.27 314.87 681.27 408.29 700.9 408.29 700.9 362.25 734.13 362.25 734.13 355.69 700.9 355.69 700.9 321.44 741.12 321.44 741.15 314.87 681.27 314.87"/>
    <polygon class="cls-3" points="1057.88 361.8 1008.83 324.84 1008.83 398.75 1057.88 361.8"/>
    <polygon class="cls-1" points="1048.11 318.54 1048.11 345.07 1062.38 355.82 1070.3 361.8 1062.38 367.77 1048.11 378.52 1048.11 405.05 1105.51 361.8 1048.11 318.54"/>
    <polygon class="cls-4" points="1096.53 312.67 1096.53 345.67 1110.01 355.82 1117.93 361.8 1110.01 367.77 1096.53 377.92 1096.53 410.92 1161.73 361.8 1096.53 312.67"/>
  </g>
  <g>
    <g>
      <polyline class="cls-2" points="272.05 125.73 422.88 239.39 422.88 163.05 391.71 139.55 373.37 125.74"/>
      <polyline class="cls-6" points="373.37 125.74 391.71 111.92 422.88 88.42 422.88 12.08 272.05 125.73"/>
    </g>
    <g>
      <polyline class="cls-7" points="371.36 125.74 220.53 12.08 220.53 88.42 251.71 111.92 270.05 125.73"/>
      <polyline class="cls-5" points="270.05 125.73 251.71 139.55 220.53 163.05 220.53 239.39 371.36 125.74"/>
    </g>
  </g>
  <g>
    <path class="cls-4" d="M616.27,222.41c-16.97,15.53-38.68,23.3-65.12,23.3-32.71,0-58.43-10.49-77.15-31.48-18.72-21.09-28.08-49.99-28.08-86.72,0-39.71,10.65-70.31,31.94-91.81,18.52-18.72,42.07-28.08,70.67-28.08,38.27,0,66.25,12.55,83.94,37.65,9.77,14.1,15.02,28.24,15.74,42.43h-47.53c-3.09-10.9-7.05-19.13-11.88-24.69-8.64-9.88-21.45-14.81-38.42-14.81s-30.91,6.97-40.89,20.91c-9.98,13.94-14.97,33.66-14.97,59.18s5.27,44.62,15.82,57.32c10.54,12.71,23.94,19.06,40.2,19.06s29.37-5.45,38.11-16.36c4.83-5.86,8.85-14.66,12.04-26.38h47.06c-4.12,24.79-14.61,44.95-31.48,60.49Z"/>
    <path class="cls-4" d="M771.34,245.71c-32.51,0-57.35-8.85-74.53-26.54-23.04-21.7-34.56-52.98-34.56-93.82s11.52-72.93,34.56-93.82c17.18-17.69,42.02-26.54,74.53-26.54s57.35,8.85,74.53,26.54c22.94,20.88,34.41,52.15,34.41,93.82s-11.47,72.11-34.41,93.82c-17.18,17.69-42.02,26.54-74.53,26.54ZM816.25,184.61c11.01-13.89,16.51-33.64,16.51-59.25s-5.53-45.23-16.59-59.18c-11.06-13.94-26-20.91-44.83-20.91s-33.85,6.95-45.06,20.83c-11.21,13.89-16.82,33.64-16.82,59.25s5.61,45.36,16.82,59.25c11.21,13.89,26.23,20.83,45.06,20.83s33.79-6.95,44.9-20.83Z"/>
    <path class="cls-4" d="M1087.2,239.39h-47.53l-92.89-161.56v161.56h-44.29V11.94h49.84l90.58,158.78V11.94h44.29v227.44Z"/>
    <path class="cls-4" d="M1302.14,239.39h-47.53l-92.89-161.56v161.56h-44.29V11.94h49.84l90.58,158.78V11.94h44.29v227.44Z"/>
    <path class="cls-4" d="M1491.47,140.02h-110.48v58.48h125.91v40.89h-172.36V11.94h166.8v40.27h-120.36v48.3h110.48v39.5Z"/>
    <path class="cls-4" d="M1691.14,222.41c-16.97,15.53-38.68,23.3-65.12,23.3-32.71,0-58.43-10.49-77.15-31.48-18.72-21.09-28.08-49.99-28.08-86.72,0-39.71,10.65-70.31,31.94-91.81,18.52-18.72,42.07-28.08,70.67-28.08,38.27,0,66.25,12.55,83.94,37.65,9.77,14.1,15.02,28.24,15.74,42.43h-47.53c-3.09-10.9-7.05-19.13-11.88-24.69-8.64-9.88-21.45-14.81-38.42-14.81s-30.91,6.97-40.89,20.91c-9.98,13.94-14.97,33.66-14.97,59.18s5.27,44.62,15.82,57.32c10.54,12.71,23.94,19.06,40.19,19.06s29.37-5.45,38.11-16.36c4.84-5.86,8.85-14.66,12.04-26.38h47.06c-4.12,24.79-14.61,44.95-31.48,60.49Z"/>
    <path class="cls-4" d="M1910.86,11.94v40.27h-68.05v187.17h-47.83V52.22h-68.36V11.94h184.24Z"/>
  </g>
  <path class="cls-4" d="M105.39,239.39H7.4V11.95h97.98c14.09.21,25.82,1.85,35.18,4.94,15.94,5.25,28.86,14.87,38.73,28.86,7.92,11.32,13.32,23.56,16.2,36.72,2.88,13.17,4.32,25.72,4.32,37.65,0,30.24-6.07,55.86-18.21,76.84-16.46,28.29-41.87,42.43-76.23,42.43ZM140.72,69.96c-7.31-12.34-21.76-18.52-43.36-18.52h-43.82v148.44h43.82c22.42,0,38.06-11.06,46.91-33.17,4.83-12.14,7.25-26.59,7.25-43.36,0-23.15-3.6-40.94-10.8-53.39Z"/>
</svg>