<svg width="262" height="56" viewBox="0 0 262 56" fill="none" xmlns="http://www.w3.org/2000/svg" preserveAspectRatio="xMinYMid" aria-hidden="true" focusable="false">
<path d="M28.866 44.1892C28.7671 44.1618 28.6135 44.0488 28.6067 43.8433C28.6067 43.7987 28.6135 43.7508 28.634 43.7062C28.5794 43.7199 28.5316 43.7268 28.4839 43.7268C28.3508 43.7302 28.2723 43.6377 28.1973 43.5761C28.5248 43.6823 28.6477 43.5624 28.7773 43.5042L28.8592 43.6172C28.7739 43.7131 28.75 43.7885 28.75 43.8467C28.7466 43.9186 28.7944 43.9768 28.8353 44.0145C28.8626 43.9631 28.9036 43.922 28.9479 43.8809C29.023 43.8159 29.1151 43.7645 29.2106 43.7508L29.2516 43.7439L29.2755 43.7782C29.3403 43.857 29.3471 43.8844 29.4154 43.8844C29.4734 43.8844 29.586 43.8535 29.777 43.7576L29.8555 43.7199C29.8555 43.7199 29.8794 44.2337 30.3639 44.0522C30.3127 44.1378 30.2104 44.1892 30.1149 44.1858C29.9715 44.1858 29.8385 44.0865 29.7668 43.922C29.6064 43.9974 29.5041 44.0282 29.412 44.0282C29.2994 44.0282 29.2345 43.9597 29.1868 43.9015C29.139 43.9186 28.8797 44.0454 28.9582 44.2166C28.9036 44.2098 28.866 44.1892 28.866 44.1892Z" fill="white"/>
<path d="M29.0368 43.4013C29.0265 43.3979 29.0163 43.3876 29.0129 43.3774C29.0095 43.3671 29.0095 43.3534 29.0197 43.3431C29.0538 43.2986 29.0743 43.2061 29.0709 43.1102C29.0709 43.0485 29.0641 42.9869 29.0538 42.9423C29.0504 42.9218 29.047 42.9047 29.0402 42.8944C28.989 42.9355 28.931 42.9526 28.8798 42.9526C28.7877 42.9526 28.7229 42.9047 28.7195 42.9047C28.7058 42.8944 28.699 42.8807 28.7058 42.8635C28.7092 42.8464 28.7229 42.8362 28.7399 42.8362C28.774 42.8327 28.7843 42.8259 28.7945 42.8122C28.8048 42.7985 28.8116 42.7745 28.8116 42.7368C28.8116 42.6066 28.7331 42.3771 28.7297 42.1614C28.7263 41.9867 28.7843 41.8085 28.9856 41.7092C29.1289 41.6373 29.1733 41.4146 29.204 41.2776C29.2176 41.2331 29.221 41.1954 29.2517 41.168C29.2688 41.1543 29.2927 41.1543 29.3063 41.168C29.32 41.1851 29.32 41.2091 29.3029 41.2228C29.3029 41.2228 29.3029 41.2228 29.2995 41.2228C29.2995 41.2262 29.2961 41.2331 29.2927 41.2399C29.2859 41.2502 29.2824 41.2707 29.2756 41.2913C29.2654 41.3358 29.2517 41.3906 29.2347 41.4523C29.2005 41.5722 29.1425 41.7092 29.0163 41.7777C28.8491 41.8633 28.8048 41.9969 28.8048 42.1579C28.8048 42.3566 28.8832 42.5793 28.8866 42.7334C28.8866 42.7779 28.8798 42.8156 28.8559 42.8533C28.8525 42.8601 28.8457 42.867 28.8423 42.8704C28.8525 42.8738 28.8662 42.8738 28.8798 42.8738C28.9242 42.8738 28.9685 42.8601 29.0163 42.8019C29.0231 42.7916 29.0334 42.7882 29.0436 42.7882C29.0538 42.7848 29.0641 42.7916 29.0743 42.7985C29.1016 42.8293 29.1118 42.8704 29.1255 42.9252C29.1357 42.98 29.1425 43.0451 29.1425 43.1136C29.1425 43.1924 29.1357 43.2712 29.105 43.3363C29.1084 43.3363 29.1118 43.3363 29.1152 43.3363C29.2551 43.3363 29.5281 43.2643 29.7362 43.0314C29.7431 43.0211 29.7567 43.0177 29.767 43.0177C29.7942 43.0211 29.8215 43.0382 29.8318 43.0588C29.842 43.0794 29.8454 43.1033 29.8454 43.1273C29.8454 43.1684 29.8352 43.2061 29.8215 43.2438C29.9034 43.2301 30.0263 43.1992 30.1491 43.1239C30.3231 43.0177 30.4971 42.8293 30.562 42.4799C30.5654 42.4628 30.579 42.4491 30.5995 42.4491C30.6473 42.4491 30.6712 42.4251 30.6916 42.3943C30.7121 42.3703 30.7223 42.3395 30.7394 42.3121C30.7394 42.2847 30.7257 42.2025 30.7087 42.1031C30.6916 42.0038 30.678 41.8839 30.678 41.7743C30.678 41.6715 30.6916 41.5756 30.7428 41.5071C30.7565 41.49 30.7803 41.4866 30.7974 41.5003C30.8145 41.514 30.8179 41.5379 30.8042 41.5551C30.7735 41.5927 30.7565 41.6749 30.7565 41.7709C30.7565 41.8736 30.7701 41.9867 30.7872 42.086C30.8042 42.1888 30.8179 42.2675 30.8213 42.3121C30.8179 42.3223 30.8247 42.3326 30.8076 42.3532C30.8008 42.3566 30.7838 42.3977 30.7565 42.4388C30.7326 42.4696 30.6916 42.5073 30.637 42.5176C30.5654 42.8704 30.3777 43.0725 30.1935 43.1855C30.0024 43.302 29.8215 43.3226 29.7567 43.3226C29.7397 43.3226 29.726 43.3157 29.7192 43.302C29.7124 43.2883 29.7158 43.2712 29.726 43.2609C29.7465 43.2369 29.7738 43.165 29.7704 43.1205C29.7704 43.1136 29.7704 43.1068 29.7704 43.1033C29.5486 43.3363 29.2722 43.4116 29.1152 43.4116C29.0879 43.4116 29.0607 43.4082 29.0368 43.4013Z" fill="white"/>
<path d="M33.0812 40.4384C33.2245 40.3459 33.344 40.6062 33.3576 40.596C33.3713 40.5857 33.46 40.5549 33.4327 40.4555C33.4054 40.3562 33.2552 40.2431 33.0949 40.226C32.9345 40.2089 32.8151 40.3254 32.7673 40.3288C32.3101 40.3356 32.2828 40.9042 32.4875 41.0618C32.1293 41.1783 31.8392 40.846 32.2009 40.7021C31.9996 40.4624 31.3957 41.1337 32.2862 41.3872C31.8938 41.8496 32.3817 41.9421 32.5523 41.8634C32.5012 41.8634 32.2999 41.603 32.6615 41.603C33.1563 41.603 32.7537 42.2812 32.4602 43.0451C32.1668 43.809 32.4739 44.4941 32.4739 44.4941C32.4739 44.4941 32.2794 44.3707 32.0849 44.2543C31.7403 44.083 31.8631 43.7987 32.0917 43.8672C32.1429 43.7302 31.6891 43.6 31.6891 44.0282C31.6891 44.4598 32.2419 44.5043 32.4363 44.8332C32.2726 44.7715 32.0781 44.9359 32.0781 44.9359C31.8495 45.2202 32.0576 45.5422 32.3954 45.4463C32.044 45.186 32.5148 44.9359 32.6922 45.275C32.9379 45.7512 32.6069 46.2992 32.4193 46.3061C32.2316 46.3129 31.9825 46.3849 31.788 45.6861C31.614 45.0592 30.918 44.6927 30.6348 44.0624V44.059C30.7917 44.1001 30.9555 43.9083 30.993 43.7747C30.9214 43.8329 30.8497 43.8021 30.7576 43.761C30.6655 43.7199 30.6484 43.1924 30.7508 43.1924C30.8531 43.1924 30.9453 43.1479 30.9316 43.0143C30.7303 43.0931 30.7951 42.7608 30.9896 42.6032C31.1841 42.4457 31.1329 41.7435 31.0749 41.6236C31.2114 41.6373 31.5219 41.1817 31.5185 41.0824C31.5117 40.9865 31.3479 41.0241 31.324 40.9762C31.2967 40.9317 31.3172 40.8666 31.2967 40.7535C31.2762 40.6439 31.1329 40.6816 31.0579 40.6747C31.1159 40.6336 31.1432 40.3151 31.0954 40.3288C31.051 40.3391 30.9726 40.4178 30.9009 40.4178C31.0033 40.2808 30.9248 40.0205 30.8634 39.9691C30.8634 39.9691 30.86 40.2534 30.5222 40.1644C30.2185 40.089 30.0411 40.2329 29.9558 40.3151C29.8978 40.2842 29.9489 40.1712 29.9182 40.1301C29.8875 40.089 29.7135 40.0034 29.6691 40.1301C29.5088 40.5994 29.2563 40.4589 29.3996 40.6816C28.9117 40.5446 29.0174 41.1166 28.6353 40.959C28.6387 40.9762 28.625 41.0789 28.8195 41.1714C28.6216 41.4112 28.6796 41.6441 28.2395 41.603C28.2327 41.6613 28.2258 41.7572 28.4101 41.8017C28.3077 41.812 28.2804 41.9558 28.2327 42.1066C27.9495 41.6715 27.5298 41.4283 27.3216 41.168C27.0964 40.8837 27.4001 40.7844 27.5093 40.5891C27.6628 40.3185 27.4376 40.0239 27.1476 40.0239C27.2432 40.1986 27.2636 40.6234 27.0384 40.596C27.018 40.4247 26.6733 39.9314 26.3424 40.387C26.4993 40.3082 26.8508 40.5172 26.8371 41.0892C26.7075 41.0447 26.1103 40.9796 26.3117 41.6304C26.356 41.192 27.0145 41.4489 26.9804 41.5927C26.9463 41.7366 26.8064 41.8257 26.5983 41.9045C26.7143 42.1477 26.9668 42.0278 27.0316 41.9901C27.0964 41.9524 27.3421 42.271 27.2841 42.4525C27.2261 42.6341 27.2193 42.7471 27.4513 42.8122C27.4513 43.1102 27.714 43.1856 27.772 43.2541C27.8096 43.2986 27.888 43.4425 27.8505 43.5795C27.6765 43.6308 27.3796 43.6857 27.0964 43.6172C26.8098 43.5486 26.9122 42.8259 26.4243 43.1136C26.5437 43.0965 26.6904 43.4356 26.6358 43.6377C26.4243 43.6069 26.4857 43.3808 26.2707 43.3089C25.9227 43.1856 25.7384 43.5247 25.8442 43.6891C25.9124 43.3808 26.4004 43.5692 26.4959 43.8809C25.9432 43.9528 25.8579 44.5112 26.1274 44.6002C26.0626 44.3091 26.5334 44.0145 26.8405 44.2509C27.1476 44.4804 26.8508 44.6242 26.7723 44.6482C27.0964 44.8297 27.1817 44.4221 27.3592 44.3947C27.5366 44.3673 27.598 44.4803 27.697 44.59C27.7379 44.5454 27.8061 44.4975 27.9153 44.4324C28.1781 44.6687 28.393 44.727 28.5978 44.6927C28.8571 44.703 29.7476 44.6002 30.6109 45.46C30.0206 45.4532 29.5702 45.2202 29.3655 45.2408C29.1232 45.2613 28.9458 45.4258 28.84 45.4258C28.5159 45.4258 28.492 44.9942 28.8093 45.1243C28.6455 44.8469 28.3316 45.0216 28.3316 45.2305C28.3316 45.4429 28.5056 45.5354 28.5636 45.5594C28.3691 45.6416 28.1064 45.4737 28.0723 45.4155C28.0348 45.3538 28.1269 45.7923 28.6285 45.8437C28.4817 45.9978 28.3418 46.1382 28.434 46.3814C28.434 46.3814 28.0928 46.104 27.8334 46.0732C27.8505 45.9807 27.9836 45.6416 27.5673 45.5217C27.5673 45.5217 27.7618 45.8231 27.5502 45.9361C27.3046 45.4771 26.6938 45.7135 26.8201 46.104C26.8201 46.104 27.0896 45.6929 27.4479 46.2341C27.325 46.217 26.8201 46.3643 26.9361 46.7891C26.9361 46.7891 27.3558 46.4157 27.7004 46.4499C27.871 46.5733 27.6458 47.0494 27.5605 47.183C27.714 47.2241 27.9597 47.0117 28.1405 46.8473C28.625 46.998 28.5602 47.4913 28.9048 47.6146C28.8537 47.4125 28.8912 47.3029 28.9628 47.2686C29.0379 47.3817 29.2051 47.6797 29.4269 47.4947C28.7581 47.0083 29.6828 46.2821 30.2458 46.5048C30.2356 46.5287 30.2253 46.5527 30.2151 46.5767C30.1605 46.7856 30.1468 46.9775 30.1639 47.1316C30.198 47.2618 29.9319 47.5221 29.8329 47.1008C29.5497 47.4639 30.0411 47.6694 30.1912 47.5152C30.2117 47.642 30.0922 47.9537 29.7613 47.8612C30.0547 48.2688 30.4062 47.6865 30.43 47.7071C30.546 47.7996 30.7644 47.9742 30.8122 48.0085C30.4539 48.1866 30.4744 48.6285 30.3379 48.6251C30.198 48.6216 30.2628 48.4709 30.0445 48.3921C29.6316 48.3305 29.5668 48.6114 29.6009 48.6764C29.7135 48.5668 29.9626 48.6662 30.0069 48.7895C29.6828 48.7587 29.13 48.9676 29.4508 49.365C29.5736 49.0361 30.2901 49.0156 30.2901 49.0156C30.3174 49.3581 29.8773 49.4266 30.1639 49.7691C30.587 49.6561 30.546 49.0464 30.6348 49.1046C30.7269 49.1594 30.7883 49.0943 30.8463 49.0498C30.9248 49.0943 31.0817 49.1903 31.051 49.43C31.3479 49.4369 31.2831 48.9642 31.2285 48.8443C31.4537 48.858 31.7232 48.6456 31.7027 48.262C32.0781 48.5497 32.235 48.1695 32.235 48.1695C31.8699 48.3099 31.8768 47.9742 32.044 47.8133C32.3169 47.7996 32.4022 47.4878 32.3817 47.4296C32.3237 47.4844 32.2487 47.5564 32.0849 47.5392C31.5901 47.4296 31.6584 46.402 31.6891 46.265C31.73 46.3951 32.0098 46.6555 32.3545 46.6452C32.6991 46.6349 33.1426 46.3301 33.0812 45.6861C33.0198 45.0387 32.6377 44.6311 32.7264 43.5692C32.74 43.3842 32.9857 43.2369 33.0915 43.3602C33.1836 43.5692 33.0266 43.5452 33.0027 43.6274C33.3576 43.576 33.2791 43.2746 33.1631 43.141C33.129 42.9321 33.0096 42.9287 32.8083 42.9355C32.798 42.706 33.2621 42.408 33.3883 41.8634C33.5146 41.3153 32.9993 41.0926 32.9243 40.8803C32.839 40.685 32.9379 40.5309 33.0812 40.4384ZM29.9421 40.822C29.9455 40.822 29.9489 40.8255 29.9523 40.8255C29.9489 40.8152 29.9489 40.8049 29.9455 40.7981C29.9387 40.733 29.966 40.709 29.9421 40.6199C29.9182 40.5309 29.8739 40.5035 29.8739 40.5035C29.9216 40.5138 29.9558 40.5377 29.9796 40.5686C30.0035 40.596 30.0138 40.6302 30.0172 40.6645C30.0274 40.7296 30.024 40.7981 30.0376 40.8289C30.0479 40.8529 30.0581 40.8803 30.082 40.8837C30.1093 40.8871 30.1605 40.8015 30.2424 40.8015C30.2321 40.8152 30.2185 40.822 30.2048 40.8494C30.1912 40.8734 30.181 40.9008 30.1571 40.9248C30.1434 40.9419 30.1161 40.9556 30.0888 40.9556C30.082 40.9556 30.0752 40.9556 30.0684 40.9522C30.0684 40.9556 30.0684 40.9591 30.0684 40.9625C30.0684 40.9796 30.0649 40.9933 30.0615 41.007C30.0479 40.9899 30.024 40.9796 29.9967 40.9796C29.9523 40.9796 29.9182 41.007 29.9182 41.0378C29.9182 41.0652 29.9455 41.0892 29.9796 41.0961C29.966 41.0995 29.9523 41.1029 29.9387 41.1029C29.8636 41.1029 29.8056 41.0413 29.8056 40.9625C29.8056 40.8871 29.867 40.822 29.9421 40.822ZM30.3106 42.1614C30.2355 42.2538 30.1468 42.3498 30.1025 42.4457C30.0581 42.5382 30.0376 42.6306 30.0172 42.6957C30.0069 42.73 29.9967 42.754 29.9899 42.7677C29.9796 42.7814 29.9796 42.7779 29.9728 42.7779C29.9728 42.7779 29.966 42.7779 29.9626 42.7745C29.9319 42.7677 29.8943 42.7163 29.8398 42.6272C29.8159 42.5895 29.7715 42.5621 29.7067 42.5621C29.618 42.5621 29.5327 42.7402 29.3484 42.6272C29.1607 42.5107 29.2836 42.3943 29.2597 42.2813C29.246 42.223 29.2085 42.2127 29.1744 42.2127C29.1198 42.2127 29.0754 42.2127 29.0413 42.2059C29.0106 42.1956 28.997 42.1888 28.9833 42.1614C28.9731 42.1442 28.9731 42.134 28.9731 42.1271C28.9731 42.1168 28.9731 42.1168 28.9867 42.1031C29.0243 42.0654 29.1573 42.0141 29.2188 41.8394C29.2563 41.7298 29.3006 41.603 29.3518 41.5071C29.3757 41.4592 29.403 41.4215 29.4269 41.3941C29.4508 41.3701 29.4712 41.3598 29.4815 41.3598C29.4883 41.3598 29.4951 41.3598 29.5054 41.3667C29.5224 41.3804 29.5292 41.3975 29.5327 41.4283C29.3143 41.675 29.2938 41.973 29.2938 41.973C29.2938 41.973 29.3928 41.8051 29.4883 41.7229C29.4917 41.7674 29.5088 41.8154 29.5565 41.8394C29.5668 41.8462 29.577 41.8497 29.5838 41.8531C29.618 41.8668 29.6521 41.8736 29.6828 41.8736C29.7101 41.8736 29.7306 41.8702 29.7545 41.8668C29.7954 41.8599 29.8261 41.8497 29.8432 41.8497C29.8193 41.7503 29.7715 41.3769 29.7715 41.3769L29.9216 41.74C29.9523 41.74 30.256 41.7058 30.297 41.6989C30.0684 41.788 29.9796 41.8325 29.867 41.8668C29.8705 41.8702 29.8705 41.8736 29.8739 41.8805C29.8807 41.8976 29.8841 41.925 29.8909 41.9558C29.8943 41.9661 29.8943 41.9764 29.8978 41.9867C29.9046 42.0072 29.9114 42.0278 29.9251 42.0483C29.9285 42.0586 29.9387 42.0689 29.9489 42.0757C29.9592 42.086 29.9728 42.0929 29.9865 42.0963C29.9933 42.0997 30.0035 42.0997 30.0104 42.0997C30.0308 42.0997 30.0479 42.0929 30.0649 42.086C30.0513 42.2059 29.9421 42.4354 29.9421 42.4354C29.9421 42.4354 30.239 42.2641 30.314 41.8976C30.3516 41.8771 30.3857 41.8599 30.4027 41.8599C30.4164 41.8634 30.4198 41.8634 30.43 41.8771C30.4369 41.8908 30.4403 41.9045 30.4403 41.9182C30.4471 41.973 30.3857 42.0689 30.3106 42.1614ZM30.6348 41.442C30.6177 41.4523 30.5938 41.4592 30.5699 41.4592C30.4949 41.4592 30.4369 41.3975 30.4369 41.3187C30.4369 41.2673 30.4642 41.2228 30.5051 41.1988C30.5017 41.1954 30.4983 41.192 30.4983 41.1851C30.4846 41.1611 30.4846 41.1337 30.4915 41.1132C30.5017 41.0789 30.5222 41.055 30.5324 41.0344C30.5461 41.0104 30.5495 40.9899 30.5563 40.9796C30.5972 41.0515 30.5461 41.1406 30.5631 41.1577C30.5802 41.1783 30.6075 41.1714 30.6313 41.1714C30.6689 41.168 30.7235 41.1338 30.7883 41.1063C30.819 41.0961 30.8531 41.0858 30.8907 41.0892C30.9282 41.0926 30.9657 41.1132 30.9964 41.1509C30.9964 41.1509 30.9521 41.1269 30.8634 41.1509C30.7747 41.1748 30.7678 41.2125 30.7064 41.2365C30.6996 41.2399 30.6894 41.2434 30.6825 41.2434C30.6962 41.2673 30.703 41.2913 30.703 41.3187C30.703 41.3324 30.703 41.3393 30.6996 41.3495C30.6859 41.3324 30.6621 41.3221 30.6348 41.3221C30.5904 41.3221 30.5563 41.3495 30.5563 41.3804C30.5529 41.4181 30.5904 41.442 30.6348 41.442Z" fill="white"/>
<path d="M16.5005 13.6998C16.2105 13.8677 15.5042 14.3472 15.7328 15.3269C15.0469 16.1627 15.0469 17.4952 16.4595 18.098C16.8724 17.8891 17.0191 17.3684 16.9577 17.18C17.2068 17.3239 17.5207 17.7829 18.227 17.5157C18.1656 16.7244 17.9131 16.3477 17.7288 16.1387C17.937 16.0531 18.1656 15.8887 18.3123 15.6386C18.1042 15.0768 16.9611 15.0768 16.6097 14.7857C16.2514 14.4911 16.3162 14.0972 16.5005 13.6998Z" fill="white"/>
<path d="M45.8423 51.9203C45.9958 51.7114 46.2312 51.6189 46.5247 51.6189C46.8864 51.6189 47.3163 51.773 47.6404 51.9991C47.9714 52.2252 48.1795 52.5232 48.1727 52.7596C48.1727 52.7904 48.1693 52.8246 48.1625 52.8589C48.0942 53.1398 47.9714 53.3042 47.7803 53.4172C47.5892 53.5303 47.3163 53.5851 46.9614 53.5851C46.8215 53.5851 46.668 53.5748 46.5042 53.5611C46.552 53.4241 46.6236 53.2151 46.6919 52.9891L46.7396 52.8418L46.5895 52.8007C46.4121 52.7493 46.1937 52.6431 46.0333 52.5129C45.8696 52.3793 45.774 52.2286 45.7774 52.1122C45.7774 52.0471 45.7911 51.9923 45.8423 51.9203Z" fill="white"/>
<path d="M45.8418 52.7424C45.9988 52.8691 46.183 52.9719 46.3605 53.0404C46.2956 53.2425 46.2342 53.4172 46.1967 53.5234C45.9067 53.4823 45.5996 53.3384 45.2891 53.1329C45.3573 52.989 45.487 52.7116 45.5927 52.4786C45.6644 52.5745 45.7497 52.667 45.8418 52.7424Z" fill="white"/>
<path d="M43.4907 53.5234C43.4224 53.5405 43.3167 53.5542 43.1836 53.5542C42.6684 53.5542 41.7505 53.383 40.6348 53.15C40.6996 52.9171 40.8327 52.4615 40.9453 52.0745C41.0374 52.1944 41.1636 52.2937 41.3035 52.3759C41.7335 52.6294 42.334 52.7732 42.8219 52.9308C43.0676 53.0096 43.2825 53.0884 43.4224 53.1706C43.4941 53.2117 43.5453 53.2528 43.5726 53.2871C43.5999 53.3247 43.6067 53.3453 43.6101 53.3727C43.6101 53.3898 43.6067 53.4104 43.5964 53.4343L43.5896 53.4309L43.5555 53.496C43.5419 53.5028 43.5214 53.5131 43.4907 53.5234Z" fill="white"/>
<path d="M46.4864 55.9384C46.3533 55.9726 46.21 55.9932 46.0564 55.9932C45.4969 55.9932 44.811 55.7637 44.2446 55.5068C43.9614 55.3766 43.7055 55.2396 43.5076 55.1231C43.3814 55.0478 43.2756 54.9792 43.2039 54.9313L43.842 53.6844C43.8591 53.6673 43.8727 53.6433 43.8864 53.6228C43.9307 53.544 43.9546 53.4584 43.9546 53.3727C43.9546 53.2323 43.8795 53.109 43.784 53.0233C43.6134 52.8726 43.3643 52.7767 43.0811 52.6774C42.6546 52.5369 42.1462 52.4068 41.7538 52.2389C41.5593 52.1533 41.3955 52.0608 41.2898 51.9546C41.1806 51.8519 41.1328 51.7525 41.1328 51.6292C41.1328 51.6018 41.1362 51.5744 41.1396 51.5436C41.1567 51.4819 41.1704 51.4408 41.1738 51.4237C41.2147 51.3209 41.283 51.2593 41.3853 51.2147C41.4877 51.1702 41.6276 51.1462 41.7709 51.1462C42.0404 51.1462 42.3305 51.2182 42.4635 51.2627C42.8013 51.3723 43.2005 51.7046 43.6236 52.1019C44.0501 52.4993 44.5074 52.9583 45.0124 53.3077C45.3877 53.5646 45.7732 53.7667 46.1759 53.818C46.4625 53.8557 46.7218 53.8763 46.9606 53.8763C47.1858 53.8763 47.3872 53.8557 47.5714 53.8112C47.1347 54.462 46.8549 55.0615 46.4864 55.9384Z" fill="white"/>
<path d="M33.0943 53.2288C33.0568 53.2151 33.0226 53.2049 32.9851 53.2014L32.8759 53.1946L32.8418 53.6947L32.951 53.705C33.0158 53.7084 33.0738 53.6947 33.125 53.6673C33.1762 53.6399 33.2069 53.5748 33.2103 53.4789C33.2137 53.407 33.2035 53.3556 33.183 53.3145C33.1591 53.2699 33.1318 53.2425 33.0943 53.2288Z" fill="white"/>
<path d="M32.0632 53.1638C32.0359 53.1466 31.9949 53.1398 31.9403 53.1364L31.8891 53.1329L31.8789 53.3385L31.9335 53.3419C31.9949 53.3453 32.0393 53.3385 32.0632 53.3248C32.087 53.3111 32.1007 53.2871 32.1007 53.246C32.1007 53.2083 32.087 53.1809 32.0632 53.1638Z" fill="white"/>
<path d="M35.6282 53.5543C35.6146 53.5337 35.5907 53.5166 35.5668 53.5029C35.5395 53.4892 35.5088 53.4789 35.4747 53.4755C35.4065 53.4652 35.3519 53.4823 35.3075 53.5166C35.2666 53.5509 35.2393 53.5988 35.2324 53.6639C35.2256 53.729 35.2359 53.7838 35.2734 53.8283C35.3075 53.8728 35.3553 53.9002 35.4235 53.9071C35.4713 53.9139 35.5122 53.9105 35.5463 53.8934C35.5805 53.8797 35.6078 53.8591 35.6282 53.8283C35.6487 53.7975 35.6624 53.7598 35.6692 53.7221C35.6726 53.6879 35.6726 53.6605 35.6658 53.6331C35.6589 53.5988 35.6453 53.5748 35.6282 53.5543Z" fill="white"/>
<path d="M30.8145 53.4651L31.0635 53.4686L30.9475 53.1569L30.8145 53.4651Z" fill="white"/>
<path d="M25.249 53.5439C25.2388 53.52 25.2217 53.4994 25.2013 53.4823C25.1808 53.4651 25.1535 53.4514 25.1296 53.4446C25.0989 53.4377 25.0682 53.4343 25.0341 53.4377C24.9658 53.4446 24.9147 53.4754 24.8805 53.5165C24.8464 53.5611 24.8328 53.6159 24.8396 53.6775C24.8464 53.7426 24.8737 53.794 24.9147 53.8282C24.959 53.8659 25.0136 53.8796 25.0819 53.8693C25.1296 53.8659 25.1672 53.8522 25.1979 53.8282C25.2286 53.8077 25.2491 53.7769 25.2627 53.7426C25.2763 53.7083 25.2798 53.6707 25.2763 53.6261C25.2661 53.5953 25.2593 53.5679 25.249 53.5439Z" fill="white"/>
<path d="M28.5109 53.1467C28.4836 53.1329 28.4427 53.1261 28.3847 53.1261L28.3301 53.1295L28.3403 53.3316L28.3949 53.3282C28.4563 53.3282 28.5007 53.3179 28.5212 53.3042C28.545 53.2905 28.5553 53.2631 28.5519 53.2254C28.5519 53.1877 28.5382 53.1604 28.5109 53.1467Z" fill="white"/>
<path d="M27.5521 53.2768C27.5316 53.2562 27.5078 53.2425 27.4805 53.2357C27.4532 53.2254 27.4225 53.222 27.3849 53.2254C27.3167 53.2288 27.2655 53.2528 27.228 53.2973C27.1904 53.3385 27.1768 53.3933 27.1802 53.4583C27.1836 53.52 27.2075 53.5714 27.2484 53.6125C27.2894 53.6467 27.344 53.6639 27.4122 53.6604C27.46 53.657 27.4975 53.6467 27.5282 53.6262C27.5589 53.6022 27.5828 53.5748 27.5965 53.544C27.6135 53.5097 27.6169 53.472 27.6135 53.4309C27.6135 53.4001 27.6067 53.3693 27.5965 53.3453C27.5862 53.3179 27.5726 53.2939 27.5521 53.2768Z" fill="white"/>
<path d="M43.207 53.818C42.6235 53.818 41.6886 53.633 40.5421 53.3967C39.3957 53.1569 38.0479 52.8657 36.666 52.6362C34.1172 52.2183 30.9986 52.1875 29.818 52.1875C28.6408 52.1875 25.8634 52.2183 23.3146 52.6362C21.9327 52.8657 20.5849 53.1569 19.4384 53.3967C18.292 53.6364 17.3571 53.818 16.7736 53.818C16.7054 53.818 16.6439 53.818 16.5859 53.8111L17.6915 55.9726C19.3429 55.7259 23.6728 54.414 29.9818 54.414C36.2941 54.414 40.6377 55.7259 42.2925 55.9726L43.3981 53.8111C43.3366 53.818 43.2752 53.818 43.207 53.818ZM18.2988 55.2292L18.1214 54.4037L18.3705 54.3489L18.5035 54.9792L18.8823 54.897L18.9232 55.0957L18.2988 55.2292ZM19.1109 55.058L18.9403 54.229L19.5544 54.1023L19.5886 54.2701L19.2269 54.3455L19.2576 54.4962L19.6056 54.4243L19.6397 54.5921L19.2951 54.6641L19.3292 54.8422L19.7046 54.7668L19.7387 54.9312L19.1109 55.058ZM20.4348 54.7908L20.1857 54.8422L20.0663 54.2119L19.7626 54.2701L19.725 54.068L20.5815 53.9036L20.619 54.1057L20.3153 54.164L20.4348 54.7908ZM22.1306 54.2941C22.1135 54.3489 22.0828 54.3969 22.0453 54.4311C22.0077 54.4688 21.9634 54.4962 21.9156 54.5168C21.8678 54.5373 21.8201 54.551 21.7655 54.5613C21.6938 54.5716 21.6256 54.5716 21.5539 54.5579C21.4823 54.5476 21.4209 54.5133 21.3663 54.4654C21.3117 54.414 21.2775 54.3455 21.2605 54.253L21.182 53.7906L21.4311 53.7461L21.4993 54.1434C21.5096 54.1982 21.5232 54.2427 21.5471 54.2736C21.5676 54.3078 21.5949 54.3318 21.6256 54.3421C21.6563 54.3558 21.6904 54.3558 21.7314 54.3489C21.7655 54.3455 21.7996 54.3318 21.8235 54.3078C21.8508 54.2838 21.8678 54.253 21.8747 54.2153C21.8849 54.1777 21.8849 54.1331 21.8747 54.0749L21.8064 53.6775L22.0555 53.6364L22.134 54.0954C22.151 54.1742 22.1476 54.2393 22.1306 54.2941ZM22.9699 54.2462C22.9495 54.2873 22.9153 54.3249 22.871 54.3523C22.8266 54.3798 22.772 54.3969 22.714 54.4072C22.697 54.4106 22.6765 54.4106 22.6492 54.414C22.6253 54.4174 22.5878 54.4174 22.5468 54.414C22.5025 54.4106 22.4581 54.4003 22.4104 54.39L22.3796 54.1845C22.4274 54.2051 22.4718 54.2222 22.5161 54.2325C22.5571 54.2427 22.6048 54.2462 22.6492 54.2393C22.6901 54.2325 22.7174 54.2222 22.7277 54.2051C22.7379 54.1879 22.7413 54.1742 22.7413 54.1605C22.7379 54.1365 22.7243 54.1194 22.7004 54.1057C22.6765 54.0954 22.6424 54.0852 22.598 54.0749C22.5503 54.0612 22.5059 54.0475 22.4684 54.0304C22.4308 54.0132 22.3967 53.9893 22.3694 53.9584C22.3421 53.9276 22.3251 53.8899 22.3182 53.842C22.3114 53.7974 22.3148 53.7563 22.3319 53.7152C22.3489 53.6741 22.3796 53.6399 22.4206 53.609C22.4615 53.5816 22.5161 53.5611 22.581 53.5542C22.6287 53.5474 22.6731 53.544 22.7106 53.5474C22.7516 53.5508 22.7857 53.5542 22.813 53.5611C22.8403 53.5679 22.8607 53.5748 22.871 53.5782L22.9017 53.7769C22.8642 53.7563 22.8232 53.7392 22.7789 53.7289C22.7345 53.7152 22.6867 53.7118 22.639 53.7186C22.6083 53.7255 22.5844 53.7324 22.5741 53.7461C22.5639 53.7598 22.5571 53.7769 22.5605 53.794C22.5639 53.8111 22.5707 53.8214 22.5878 53.8351C22.6048 53.8454 22.6321 53.8557 22.6697 53.8659C22.7379 53.8865 22.7925 53.9036 22.8369 53.9242C22.8778 53.9413 22.9153 53.9653 22.9392 53.9927C22.9665 54.0235 22.9836 54.0612 22.9904 54.1057C22.9972 54.1571 22.9904 54.2051 22.9699 54.2462ZM24.3825 54.116C24.3723 54.1228 24.3586 54.1297 24.3484 54.1331C24.3382 54.14 24.3211 54.1468 24.2972 54.1537C24.2597 54.1674 24.2222 54.1811 24.1881 54.1879C24.1505 54.1982 24.1096 54.2051 24.0686 54.2085C23.9833 54.2188 23.9048 54.2153 23.8264 54.1948C23.7513 54.1742 23.6865 54.1331 23.6353 54.0749C23.5841 54.0132 23.55 53.9345 23.5397 53.842C23.5295 53.7803 23.5329 53.7186 23.55 53.6536C23.5636 53.5919 23.5909 53.5405 23.6319 53.4994C23.666 53.4652 23.7001 53.4378 23.7377 53.4172C23.7752 53.3932 23.8093 53.3795 23.8468 53.3693C23.8844 53.359 23.9219 53.3521 23.9663 53.3453C24.0413 53.335 24.1027 53.3316 24.1505 53.3384C24.1983 53.3419 24.2529 53.3521 24.3143 53.359L24.3416 53.5577C24.3006 53.5405 24.2597 53.5268 24.2119 53.5166C24.1676 53.5063 24.1164 53.5063 24.0516 53.5166C23.9799 53.5268 23.9219 53.544 23.8844 53.5816C23.8434 53.6159 23.8195 53.6501 23.8059 53.6947C23.7957 53.7324 23.7888 53.7735 23.7957 53.8077C23.8025 53.8488 23.8161 53.8865 23.84 53.9207C23.8639 53.9516 23.898 53.979 23.9424 53.9961C23.9833 54.0132 24.0345 54.0167 24.0891 54.0098C24.1232 54.003 24.1539 53.9961 24.1915 53.9824L24.1778 53.8831L24.0652 53.8968L24.0413 53.7289L24.3757 53.6844L24.4269 54.0852C24.4098 54.1023 24.3962 54.1091 24.3825 54.116ZM25.4983 53.8214C25.471 53.8934 25.4232 53.9516 25.355 53.9995C25.2867 54.0441 25.2014 54.0749 25.0991 54.0886C24.9933 54.0989 24.9046 54.0886 24.8295 54.0578C24.7544 54.0235 24.693 53.9756 24.6521 53.9139C24.6111 53.8522 24.5838 53.7837 24.577 53.7084C24.5668 53.6364 24.577 53.5611 24.6043 53.4926C24.6316 53.4241 24.6794 53.3624 24.7476 53.3145C24.8159 53.2665 24.9012 53.2357 25.0035 53.2254C25.082 53.2151 25.1503 53.2185 25.2151 53.2357C25.2799 53.2528 25.3311 53.2768 25.3754 53.311C25.4198 53.3453 25.4539 53.3898 25.4812 53.4378C25.5085 53.4892 25.5222 53.544 25.529 53.6022C25.5392 53.6775 25.529 53.7529 25.4983 53.8214ZM26.4434 53.9379L26.1875 53.9619L26.1159 53.1158L26.7164 53.0644L26.7335 53.2357L26.3854 53.2665L26.3991 53.4275L26.7471 53.3967L26.7608 53.5679L26.4127 53.5988L26.4434 53.9379ZM27.8356 53.633C27.8048 53.7015 27.7537 53.7563 27.6854 53.8009C27.6172 53.8454 27.5319 53.8694 27.4295 53.8762C27.3238 53.8831 27.235 53.8694 27.16 53.8351C27.0849 53.7974 27.0269 53.7495 26.9894 53.6844C26.9518 53.6227 26.9279 53.5542 26.9245 53.4754C26.9177 53.4001 26.9314 53.3282 26.9621 53.2596C26.9928 53.1911 27.044 53.1363 27.1122 53.0884C27.1804 53.0404 27.2692 53.0165 27.3715 53.0096C27.45 53.0062 27.5216 53.013 27.5831 53.0302C27.6445 53.0507 27.6957 53.0781 27.74 53.1158C27.7844 53.15 27.8151 53.198 27.839 53.2459C27.8629 53.2973 27.8765 53.3521 27.8799 53.4104C27.8799 53.4892 27.8697 53.5645 27.8356 53.633ZM28.651 53.8009L28.5794 53.6536C28.5521 53.5988 28.5282 53.5611 28.5077 53.5337C28.4873 53.5097 28.4668 53.4926 28.4497 53.4857C28.4327 53.4823 28.4088 53.4755 28.3781 53.4789H28.3508L28.3644 53.8111L28.1119 53.8214L28.0778 52.9753L28.5112 52.9582C28.5828 52.9548 28.6374 52.9651 28.6852 52.9925C28.7295 53.0199 28.7636 53.0541 28.7841 53.0918C28.8046 53.1329 28.8182 53.1706 28.8182 53.2083C28.8182 53.2528 28.8114 53.2871 28.7978 53.3179C28.7807 53.3487 28.7671 53.3693 28.75 53.3864C28.7329 53.3967 28.7125 53.4138 28.6886 53.4275C28.7159 53.4412 28.7398 53.4583 28.7568 53.4789C28.7739 53.4994 28.8012 53.544 28.8353 53.609L28.9274 53.7906L28.651 53.8009ZM29.9203 53.7872L29.6951 53.2871L29.4768 53.7906L29.33 53.794L28.965 52.9411L29.2277 52.9377L29.4051 53.4035L29.603 52.9308H29.7839L29.9852 53.4001L30.1626 52.9274L30.4219 52.924L30.0671 53.7837L29.9203 53.7872ZM31.1828 53.7906L31.118 53.6193L30.7529 53.609L30.6778 53.7803L30.4185 53.7769L30.8075 52.9377L31.0873 52.9445L31.4421 53.8009L31.1828 53.7906ZM32.145 53.8283L32.0836 53.6741C32.0631 53.6193 32.0427 53.5748 32.0222 53.5508C32.0051 53.5234 31.9881 53.5063 31.9676 53.4994C31.9505 53.4926 31.9266 53.4857 31.8959 53.4857H31.8686L31.8516 53.818L31.5991 53.8043L31.6366 52.9582L32.0699 52.9788C32.1416 52.9822 32.1962 52.9993 32.2405 53.0302C32.2849 53.061 32.3156 53.0952 32.3327 53.1398C32.3497 53.1809 32.36 53.2185 32.3566 53.2562C32.3531 53.2973 32.3429 53.335 32.3259 53.3624C32.3088 53.3898 32.2883 53.4104 32.2713 53.4241C32.2542 53.4378 32.2337 53.4515 32.2064 53.4617C32.2337 53.4789 32.2542 53.4994 32.2713 53.52C32.2883 53.544 32.3088 53.5885 32.3361 53.657L32.4112 53.8454L32.145 53.8283ZM33.4689 53.5028C33.4621 53.5885 33.4416 53.657 33.4075 53.7084C33.3734 53.7563 33.3324 53.7974 33.2881 53.8283C33.2232 53.8694 33.1379 53.8899 33.0322 53.8831H33.0185L32.5784 53.8522L32.6364 53.0062L32.9878 53.0302C33.039 53.0336 33.0833 53.0404 33.1209 53.0473C33.1584 53.0576 33.1925 53.0644 33.2198 53.0781C33.2505 53.0918 33.2744 53.1021 33.2949 53.1158C33.3154 53.1295 33.3324 53.1466 33.3495 53.1603C33.3768 53.1877 33.4007 53.2151 33.4177 53.2494C33.4382 53.2802 33.4518 53.3213 33.4621 53.3624C33.4689 53.4035 33.4723 53.4515 33.4689 53.5028ZM34.9224 53.4035L34.6154 53.3727L34.5505 54.0132L34.298 53.9858L34.3629 53.3487L34.0558 53.3179L34.0762 53.1124L34.9429 53.198L34.9224 53.4035ZM35.9256 53.7461C35.9154 53.8248 35.8881 53.8933 35.8471 53.955C35.8028 54.0167 35.7413 54.0612 35.6663 54.092C35.5912 54.1228 35.5025 54.1297 35.4001 54.1194C35.2978 54.1091 35.2125 54.0783 35.1442 54.0269C35.0794 53.9756 35.0316 53.9173 35.0043 53.8488C34.977 53.7769 34.9702 53.705 34.977 53.6296C34.9873 53.5542 35.0112 53.4857 35.0555 53.4241C35.0965 53.3624 35.1579 53.3179 35.2364 53.2871C35.3114 53.2562 35.4001 53.2425 35.5059 53.2596C35.5844 53.2699 35.6492 53.2871 35.7072 53.3179C35.7652 53.3487 35.8096 53.3864 35.8437 53.4309C35.8778 53.4754 35.9017 53.5268 35.9154 53.5816C35.929 53.633 35.9324 53.6878 35.9256 53.7461ZM36.9288 53.7152C36.8946 53.6844 36.8571 53.6604 36.8161 53.6399C36.7786 53.6193 36.724 53.6022 36.6626 53.5953C36.591 53.5851 36.5295 53.5885 36.4818 53.6125C36.434 53.633 36.3999 53.6604 36.376 53.6981C36.3555 53.7358 36.3419 53.77 36.335 53.8077C36.3282 53.8488 36.335 53.8899 36.3487 53.9276C36.3623 53.9653 36.3896 53.9995 36.4272 54.0269C36.4647 54.0543 36.5091 54.0715 36.5671 54.0783C36.6012 54.0852 36.6353 54.0852 36.6728 54.0817L36.6865 53.9824L36.5739 53.9653L36.5978 53.7974L36.9288 53.8454L36.8707 54.2496C36.8503 54.253 36.8366 54.2599 36.823 54.2599C36.8093 54.2633 36.7957 54.2633 36.782 54.2667C36.7684 54.2701 36.7513 54.2701 36.7308 54.2701C36.6933 54.2736 36.6524 54.2736 36.6148 54.2736C36.5773 54.2736 36.5364 54.2701 36.492 54.2633C36.4067 54.2496 36.3316 54.2222 36.2668 54.1811C36.1986 54.14 36.1474 54.0817 36.1133 54.0098C36.0791 53.9379 36.0689 53.8557 36.086 53.7632C36.0928 53.7015 36.1133 53.6399 36.144 53.5851C36.1747 53.5268 36.2156 53.4857 36.2668 53.4583C36.3078 53.4343 36.3487 53.4172 36.3896 53.4069C36.4306 53.3967 36.4715 53.3898 36.5091 53.3898C36.5466 53.3898 36.5875 53.3932 36.6319 53.4001C36.707 53.4104 36.765 53.4241 36.8127 53.4412C36.8571 53.4583 36.9083 53.4789 36.9629 53.5063L36.9288 53.7152ZM37.8261 53.7769L37.4576 53.7152L37.4337 53.8694L37.7852 53.9242L37.7579 54.0954L37.4064 54.0372L37.3791 54.2188L37.7545 54.2804L37.7272 54.4483L37.0994 54.3455L37.2324 53.5097L37.85 53.609L37.8261 53.7769ZM38.8497 53.9961L38.5461 53.9413L38.4335 54.5716L38.1844 54.527L38.297 53.8968L37.9933 53.842L38.0308 53.6399L38.8907 53.794L38.8497 53.9961ZM39.7983 54.8319L39.5492 54.7805L39.6141 54.4585L39.2387 54.3866L39.1773 54.7086L38.9282 54.6606L39.0886 53.8317L39.3377 53.8831L39.2797 54.1879L39.655 54.2599L39.713 53.955L39.9621 54.003L39.7983 54.8319ZM40.798 54.3489L40.4364 54.2736L40.4057 54.4243L40.7537 54.4962L40.7196 54.6641L40.3715 54.5921L40.334 54.7702L40.7093 54.8456L40.6718 55.0134L40.0508 54.8833L40.2214 54.0543L40.8322 54.1811L40.798 54.3489ZM41.7159 54.6367C41.7057 54.6812 41.692 54.712 41.6715 54.7394C41.6477 54.7634 41.6272 54.7805 41.6067 54.7908C41.5862 54.8011 41.5623 54.8079 41.5385 54.8182C41.5623 54.8388 41.5794 54.8627 41.5931 54.8867C41.6067 54.9107 41.6204 54.9586 41.6374 55.0306L41.6818 55.2292L41.4122 55.171L41.3781 55.01C41.3644 54.9518 41.3542 54.9073 41.3372 54.8799C41.3235 54.849 41.3099 54.8319 41.2928 54.8182C41.2757 54.8079 41.2553 54.7977 41.2246 54.7942L41.1973 54.7874L41.129 55.1094L40.8799 55.0545L41.054 54.229L41.477 54.3181C41.5453 54.3318 41.5999 54.3592 41.6374 54.3935C41.6749 54.4311 41.6988 54.4722 41.7125 54.5168C41.7227 54.5647 41.7227 54.6024 41.7159 54.6367Z" fill="white"/>
<path d="M41.3226 54.4517L41.2714 54.4414L41.2305 54.6435L41.2851 54.6538C41.3465 54.6675 41.3874 54.6675 41.4147 54.6606C41.4386 54.6503 41.4557 54.6264 41.4659 54.5921C41.4727 54.5544 41.4659 54.5236 41.4454 54.5031C41.4181 54.4825 41.3806 54.462 41.3226 54.4517Z" fill="white"/>
<path d="M14.1014 52.1053C14.1048 52.2218 14.0092 52.3759 13.8455 52.5061C13.6851 52.6363 13.4667 52.7459 13.2893 52.7938L13.1392 52.8349L13.1835 52.9822C13.2518 53.2083 13.3234 53.4172 13.3712 53.5543C13.2074 53.568 13.0539 53.5782 12.914 53.5782C12.5591 53.5782 12.2861 53.5234 12.0951 53.4104C11.9074 53.2974 11.7812 53.1329 11.7129 52.8521C11.7061 52.8178 11.7027 52.7836 11.6993 52.7527C11.6958 52.5198 11.904 52.2184 12.2315 51.9923C12.5591 51.7662 12.9856 51.6121 13.3473 51.6121C13.6407 51.6155 13.8796 51.7045 14.0297 51.9135C14.0877 51.9923 14.1014 52.0471 14.1014 52.1053Z" fill="white"/>
<path d="M14.2833 52.4786C14.3925 52.7081 14.5188 52.9856 14.587 53.1329C14.2731 53.3384 13.966 53.4823 13.6794 53.5234C13.6419 53.4138 13.5805 53.2425 13.5156 53.0404C13.6931 52.9719 13.8773 52.8691 14.0343 52.7424C14.1332 52.667 14.2185 52.5745 14.2833 52.4786Z" fill="white"/>
<path d="M16.2826 53.496L16.2485 53.4309L16.2383 53.4343C16.2314 53.4104 16.2246 53.3898 16.2246 53.3727C16.2246 53.3453 16.2314 53.3213 16.2621 53.2871C16.2894 53.2528 16.3406 53.2117 16.4123 53.1706C16.5522 53.0849 16.7705 53.0062 17.0128 52.9308C17.5041 52.7732 18.1047 52.626 18.5312 52.3759C18.6677 52.2937 18.7973 52.1978 18.8894 52.0745C19.002 52.4615 19.1317 52.9171 19.1999 53.15C18.0842 53.383 17.1698 53.5577 16.6511 53.5542C16.518 53.5542 16.4123 53.5405 16.344 53.5234C16.3167 53.5131 16.2963 53.5028 16.2826 53.496Z" fill="white"/>
<path d="M12.3047 53.818C12.4889 53.8626 12.6903 53.8831 12.9155 53.8831C13.1543 53.8831 13.417 53.8626 13.7036 53.8249C14.1029 53.7735 14.4884 53.5714 14.8637 53.3145C15.3687 52.9651 15.826 52.5061 16.2525 52.1088C16.679 51.7114 17.0748 51.3792 17.4126 51.2695C17.5456 51.225 17.8357 51.1531 18.1018 51.1531C18.2485 51.1531 18.385 51.1736 18.4874 51.2216C18.5897 51.2661 18.6546 51.3278 18.6955 51.4305C18.7023 51.4477 18.7126 51.4888 18.7296 51.5504C18.7365 51.5813 18.7399 51.6087 18.7399 51.6361C18.7365 51.7594 18.6887 51.8553 18.5829 51.9615C18.4771 52.0642 18.3134 52.1601 18.1189 52.2458C17.7265 52.4136 17.2181 52.5438 16.7916 52.6842C16.505 52.7801 16.2593 52.8795 16.0853 53.0302C15.9897 53.1158 15.9147 53.2391 15.9147 53.3796C15.9147 53.4652 15.9386 53.5509 15.9829 53.6296C15.9966 53.6502 16.0136 53.6742 16.0273 53.6913L16.6653 54.9381C16.5937 54.9861 16.4879 55.0546 16.3616 55.1299C16.1637 55.2464 15.9078 55.3834 15.6246 55.5136C15.0582 55.7705 14.3724 56.0034 13.8128 56C13.6593 56 13.5126 55.9794 13.3829 55.9452C13.0246 55.0614 12.7448 54.462 12.3047 53.818Z" fill="white"/>
<path d="M38.2468 6.97239C38.0762 8.17813 37.7452 8.97282 36.6977 9.17492C35.6536 9.37702 33.9783 8.35282 30.6071 8.35282C29.5596 8.35282 28.5906 8.52752 27.9525 8.29117C30.3546 5.705 32.5179 3.37574 32.7158 3.17022C33.1696 2.69751 33.8145 2.13575 34.1659 2.06724C34.5754 1.98846 34.862 2.13231 35.0462 1.78978C35.2407 1.42668 34.8893 0.878632 34.3331 0.440183C33.777 0.00173295 33.0638 -0.09761 32.8352 0.0907863C32.4633 0.426474 32.9854 0.782712 32.6953 1.3616C32.6646 1.58425 30.1021 4.57119 27.3588 7.702C27.0483 6.98609 26.8811 5.77009 25.1103 5.56799C24.6189 5.51318 24.4688 5.80091 24.015 5.83174C23.5612 5.86257 23.5339 5.9482 23.4247 6.14687C23.3155 6.34554 22.3294 6.43118 22.3158 6.68809C22.3021 6.94499 22.7628 7.83217 23.0153 7.82532C23.2678 7.82189 23.3155 7.61979 24.0014 7.51702C24.5268 7.43824 24.6872 7.69857 24.7384 7.86299C24.7077 7.83559 24.6667 7.81161 24.6189 7.78763C24.4995 7.73625 24.3391 7.70886 24.1924 7.70886C24.1583 7.70886 24.1208 7.71227 24.0901 7.71227C23.626 7.75338 22.889 8.19526 22.6263 8.27404C22.5922 8.28432 22.558 8.28774 22.5239 8.28774C22.2919 8.28774 22.1076 8.07537 22.0258 8.05481C22.0087 8.04796 21.9882 8.04454 21.9678 8.04454C21.8961 8.04454 21.8108 8.08222 21.7426 8.13017C21.6846 8.16785 21.6436 8.22609 21.6402 8.24322C21.7869 8.28089 21.8586 8.41791 21.9473 8.53095C22.0326 8.64741 22.1247 8.74332 22.3021 8.74332C22.4079 8.74332 22.5444 8.70906 22.7286 8.61315C22.9504 8.50011 23.1279 8.41448 23.2678 8.35282C23.2405 8.36995 23.2268 8.38365 23.2268 8.38365C23.2029 8.43503 23.1483 8.85978 23.3531 9.05845C23.6056 9.04132 24.3221 8.55149 24.5848 8.71934C24.4859 10.2745 24.7725 9.9696 24.8476 10.11C24.8748 10.1614 24.909 10.2916 24.9329 10.456C24.6121 10.8157 24.3016 11.1685 24.0014 11.5042C23.278 11.5898 22.3636 11.7268 22.2407 12.0077C21.9848 12.6003 21.9473 13.2409 21.9985 13.7444C21.6334 14.1486 21.3365 14.4774 21.125 14.7035C20.9817 14.8337 20.736 14.9364 20.5654 14.9981C20.5279 14.9878 20.4903 14.9775 20.4562 14.9775C20.405 14.9775 20.3538 14.9912 20.3129 15.0289C20.2754 15.0666 20.2617 15.1214 20.2617 15.1694C20.2651 15.3372 20.388 15.5393 20.5825 15.7311C20.7769 15.9195 20.9783 16.0428 21.142 16.0462H21.1454C21.1966 16.0462 21.2478 16.0325 21.2853 15.9914C21.3229 15.9538 21.3365 15.899 21.3365 15.851C21.3365 15.7928 21.3195 15.7277 21.2888 15.6626C21.3126 15.5427 21.3672 15.3714 21.4867 15.2413C21.6607 15.0529 21.8995 14.7994 22.1861 14.4911C22.2305 14.5802 22.2783 14.6281 22.3192 14.6179C22.5205 14.5665 22.3943 14.265 22.7594 14.0869C22.8651 14.0355 22.9129 13.8848 22.9334 13.693C23.3019 13.2957 23.7181 12.8504 24.1583 12.3742C24.3118 12.3777 24.4859 12.3811 24.6872 12.3811C26.1203 12.3811 25.4822 11.8878 26.4103 12.0009C27.3418 12.1139 26.4853 14.4911 26.4103 14.7926C26.3352 15.0974 26.1714 15.3988 25.6562 15.4879C25.141 15.577 25.1888 16.1833 25.2775 16.334C25.2809 16.3408 25.2843 16.3443 25.2911 16.3511C25.141 16.5909 25.0216 16.8478 24.9465 17.1115C26.0964 16.5087 28.1504 16.2312 29.8497 16.2312C31.2043 16.2312 32.5896 16.447 33.7428 16.8444C34.0841 16.9608 34.5413 17.1424 34.9268 17.3753C34.8722 17.0636 34.7596 16.7622 34.5993 16.4813C34.6709 16.4881 34.7187 16.4881 34.7187 16.4881C35.3226 16.4881 35.6229 14.6316 35.5615 13.7067C34.8586 13.1792 34.5924 12.7579 34.5549 11.9255C34.5174 11.0931 34.8211 11.4322 34.5549 9.80176C37.247 10.5862 38.141 9.22972 38.4037 8.72277C38.6494 8.25006 38.6972 7.90752 38.7415 7.43482C38.8268 6.5682 38.9599 6.38323 39.3659 5.86257C39.1271 5.92765 38.4276 6.18112 38.2468 6.97239ZM23.9945 6.95869C23.9468 6.93814 24.0355 6.88675 24.1515 6.82167C24.0935 6.79769 24.0491 6.71549 24.0491 6.61273C24.0491 6.49284 24.1105 6.39693 24.1856 6.39693C24.2607 6.39693 24.3221 6.49284 24.3221 6.61273C24.3221 6.66068 24.3119 6.70521 24.2948 6.74289C24.4176 6.66754 24.5302 6.59217 24.5029 6.53394C24.3972 6.28731 23.8342 6.28389 23.8819 6.25991C24.0798 6.15715 24.5814 6.29074 24.6804 6.49627C24.7793 6.70179 24.1276 7.01008 23.9945 6.95869ZM22.9095 12.7339C22.8993 12.5523 22.8958 12.4119 22.93 12.3708C22.9846 12.2989 23.063 12.2989 23.2848 12.316C23.1552 12.4599 23.0289 12.6003 22.9095 12.7339ZM25.9701 8.82553C25.1683 8.82553 25.4993 7.77736 25.0386 6.41748C25.5129 6.89018 25.2468 8.16101 25.8985 8.1473C26.1885 8.14045 26.7413 7.58896 26.4581 6.61957C26.7993 7.13338 26.6696 8.82553 25.9701 8.82553ZM34.8245 15.3269C34.7119 15.5427 34.4457 15.4023 34.3945 15.529C34.3672 15.5975 34.2546 15.7277 34.1591 15.8716C33.6098 15.2653 32.8079 14.7857 31.8628 14.5048C32.0232 14.3815 32.1767 14.2068 32.3268 13.9499C32.0812 13.3162 31.9993 12.8846 32.1016 12.7202C32.1767 12.6037 32.2825 12.4051 32.3917 12.2201C32.3814 12.1995 32.3644 12.1721 32.3541 12.1482C32.2211 11.857 32.0607 11.6926 31.8969 11.5932C31.7331 11.4939 31.5591 11.4597 31.3817 11.4597C31.1531 11.4597 30.9279 11.5179 30.7573 11.5693C30.7368 11.5761 30.7095 11.5864 30.6856 11.5967C30.8289 12.0933 31.1599 13.0559 31.31 13.5663C31.2486 13.878 31.0336 14.1075 30.8016 14.2753C30.5116 14.2376 30.2148 14.2205 29.9111 14.2205C28.9352 14.2205 28.0208 14.4192 27.2462 14.7617C27.6386 14.0218 28.0344 11.9358 28.5155 12.0111C29.4573 12.1619 30.1704 11.5316 30.614 11.3261C30.6549 11.3055 30.6959 11.2918 30.73 11.2781C31.1565 11.1514 32.0266 10.9253 32.494 11.9358C32.5043 11.9563 32.5145 11.9735 32.5213 11.994C33.0058 12.9668 34.1728 13.4841 34.5071 13.854C34.8484 14.2411 34.9371 15.1145 34.8245 15.3269Z" fill="white"/>
<path d="M31.0128 33.6116C30.8968 33.6116 30.7944 33.6733 30.7364 33.7623L30.7091 33.8068H30.2928V31.3611C30.2928 31.2755 30.2485 30.9638 30.1768 30.676C30.1154 30.4054 30.0062 30.1314 29.938 30.0492C29.9243 30.0697 29.9039 30.0972 29.8834 30.1383C29.8288 30.2376 29.7742 30.3952 29.7299 30.5562C29.6377 30.8816 29.5797 31.2618 29.5797 31.3646V33.8103H29.1634L29.1362 33.7657C29.0747 33.6767 28.9758 33.615 28.8598 33.615C28.6755 33.615 28.5254 33.7657 28.5254 33.9507C28.5254 34.1357 28.6755 34.283 28.8564 34.283L29.5763 34.2796V35.5881C29.5763 35.749 29.7264 35.9032 29.9346 35.9032C30.1427 35.9032 30.2928 35.749 30.2928 35.5881V34.2796H31.0435C31.2141 34.2658 31.3472 34.122 31.3472 33.9507C31.3438 33.7623 31.1971 33.6116 31.0128 33.6116Z" fill="white"/>
<path d="M15.6279 30.4808C14.5736 30.4808 14.5736 29.9465 13.5227 29.9465C12.8983 29.9465 12.6424 30.1349 12.3182 30.2856C12.2193 30.0732 12.0896 29.7992 11.9531 29.484C12.2773 29.3299 12.5264 29.1346 13.1474 29.1346C14.1812 29.1346 14.1812 29.669 15.2151 29.669C16.2489 29.669 16.2489 29.1346 17.2828 29.1346C17.7912 29.1346 18.0471 29.2648 18.303 29.3984C18.4054 29.6073 18.5009 29.8471 18.5828 30.1143C18.3747 30.0218 18.129 29.9465 17.7332 29.9465C16.6823 29.9465 16.6823 30.4808 15.6279 30.4808Z" fill="white"/>
<path d="M13.7982 40.6679C14.1701 40.8597 14.5591 41.031 15.0334 40.9419C15.7329 40.8186 16.1662 39.8663 17.0533 39.8663C17.0533 39.8663 18.0463 39.8184 18.251 41.0652C18.4523 42.3121 17.862 44.6516 17.862 45.3196C17.862 45.9909 18.9641 46.5835 19.493 46.5527C20.0218 46.5219 19.8205 45.8539 20.4722 45.6621C20.8237 45.5628 21.3116 45.5079 21.8234 45.9772C21.373 45.9601 20.735 46.5219 20.8442 46.7548C20.8919 46.8336 22.5673 46.193 22.8027 47.5803C22.2295 47.2857 21.3423 47.6728 21.1547 47.7208C21.6221 48.0496 22.4274 48.2037 22.3182 49.1217C20.8442 49.2622 20.7657 48.3407 20.3631 48.4195C20.6565 48.9642 20.5814 50.0397 20.0969 50.2418C19.8035 49.5705 19.1825 48.2928 18.7935 48.214C18.7935 48.214 18.8071 48.8683 18.6229 48.9916C18.0326 48.8683 17.8313 48.5086 17.7392 48.2928C17.63 48.5257 17.6163 48.7449 17.3502 48.8374C16.9783 48.3544 16.8077 47.9331 16.6371 47.779C16.5586 48.0599 16.5279 48.0907 16.3743 48.1695C16.2174 48.2448 15.4872 47.3268 15.6919 46.6692C15.2859 46.7479 15.0709 46.5938 14.931 46.4225C15.5657 45.8265 15.7056 45.0181 15.1801 44.3947C14.7365 43.8706 14.409 43.5384 13.9074 43.5007C13.7368 43.2232 13.3512 41.6989 13.7982 40.6679Z" fill="white"/>
<path d="M16.2477 25.1612C16.9574 24.9625 17.2509 25.0139 17.4624 25.0447C17.7661 25.0858 17.9572 25.2194 18.0664 25.7058C18.5884 25.2194 18.6157 24.4384 18.4007 23.9931C18.1858 23.5478 17.4215 23.4656 17.2475 23.4416C17.2065 23.3594 17.2065 23.2669 16.937 23.1162C16.7868 23.034 15.6267 22.9004 14.6338 22.7634C14.1186 22.3763 13.6818 21.2905 13.8115 20.6739C13.8388 20.5403 13.2041 21.6912 13.1495 22.4311C12.9516 21.9413 11.9451 20.6671 11.5083 20.6362C11.3753 21.4892 11.7642 23.243 12.2931 24.322C10.8771 25.4558 11.1432 27.2541 11.6312 28.6688C11.9997 28.5112 12.2317 28.2851 12.9073 28.2851C13.9412 28.2851 13.9411 28.8195 14.975 28.8195C16.0089 28.8195 16.0089 28.2851 17.0427 28.2851C17.3123 28.2851 17.5102 28.3228 17.6774 28.3776C17.6637 28.3605 17.6501 28.3399 17.6398 28.3228C17.4692 28.0796 17.1451 27.8604 16.7868 27.672C16.8244 27.5076 16.9677 27.2095 17.285 26.7882C16.9438 26.7163 16.3637 26.3943 15.8826 26.1031C16.4183 26.0244 17.0257 26.4902 17.6774 26.5382C18.179 26.5758 18.7556 26.4628 19.032 26.0107C17.7729 26.1614 16.5719 25.4729 16.2477 25.1612ZM16.2341 27.4082C15.8178 27.2232 15.4288 27.0725 15.2309 26.9526C14.7669 26.6752 14.8215 26.3224 14.8215 26.3224C15.48 26.3429 16.3262 26.7129 16.2341 27.4082ZM16.5173 24.0582C16.432 24.0034 16.2989 23.9828 16.2477 24.0239C16.1965 24.0616 16.2648 24.161 16.2579 24.2397C16.2477 24.3185 16.1727 24.4316 15.9372 24.4179C15.7018 24.4042 15.637 24.1233 15.6779 23.9246C15.5619 23.8938 15.4732 23.9726 15.4493 24.0719C15.4254 24.1712 15.4322 24.3151 15.3879 24.3973C15.2719 24.113 15.2548 23.9794 14.9921 23.8527C14.702 23.7156 14.5417 23.5238 14.5417 23.5238C14.7293 23.5375 16.681 23.6506 16.9199 23.9006C17.0496 24.0376 16.8107 24.5172 16.2136 24.5035C16.7254 24.3151 16.6026 24.113 16.5173 24.0582Z" fill="white"/>
<path d="M44.2888 30.4808C45.3432 30.4808 45.3432 29.9465 46.3941 29.9465C47.0185 29.9465 47.2744 30.1349 47.5986 30.2856C47.6975 30.0732 47.8272 29.7992 47.9636 29.484C47.6395 29.3299 47.3938 29.1346 46.7694 29.1346C45.7356 29.1346 45.7356 29.669 44.7017 29.669C43.6678 29.669 43.6678 29.1346 42.634 29.1346C42.1256 29.1346 41.8663 29.2648 41.6138 29.3984C41.5114 29.6073 41.4159 29.8471 41.334 30.1143C41.5421 30.0218 41.7878 29.9465 42.1802 29.9465C43.2345 29.9465 43.2345 30.4808 44.2888 30.4808Z" fill="white"/>
<path d="M46.1387 40.7091C45.7668 40.9009 45.3574 41.0311 44.8797 40.9455C44.1802 40.8221 43.7469 39.8699 42.8597 39.8699C42.8597 39.8699 41.8668 39.8219 41.6655 41.0688C41.4642 42.3156 42.0545 44.6551 42.0545 45.3231C42.0545 45.9945 40.9524 46.5871 40.4235 46.5562C39.8946 46.5254 40.0959 45.8575 39.4442 45.6656C39.0928 45.5663 38.6049 45.5115 38.093 45.9808C38.5434 45.9636 39.1815 46.5254 39.0723 46.7583C39.0245 46.8371 37.3492 46.1966 37.1172 47.5838C37.6904 47.2893 38.5776 47.6763 38.7652 47.7243C38.2978 48.0531 37.4925 48.2073 37.6017 49.1253C39.0757 49.2657 39.1542 48.3443 39.5568 48.4231C39.2634 48.9677 39.3385 50.0433 39.8196 50.2454C40.1164 49.574 40.7374 48.2963 41.1264 48.2175C41.1264 48.2175 41.1093 48.8718 41.297 48.9951C41.8873 48.8718 42.0886 48.5121 42.1841 48.2963C42.2933 48.5293 42.307 48.7485 42.5731 48.841C42.945 48.358 43.1156 47.9367 43.2862 47.7825C43.3647 48.0634 43.3954 48.0942 43.549 48.173C43.7059 48.2484 44.4361 47.3304 44.2348 46.6727C44.6374 46.7515 44.8558 46.5973 44.9957 46.4261C44.3576 45.8301 44.2177 45.0217 44.7466 44.3982C45.1902 43.8742 45.5382 43.5796 46.0398 43.5419C46.207 43.0486 46.5891 41.7367 46.1387 40.7091Z" fill="white"/>
<path d="M57.3307 27.0315C56.6585 27.0041 55.5973 27.0966 54.9729 27.3775C55.8123 26.7609 57.6002 24.7879 57.6923 23.1985C57.2078 23.3869 56.1433 24.7879 55.1196 25.1818C55.4847 24.7331 57.9244 22.188 57.3102 20.3554C56.928 20.7494 55.8294 22.3285 54.6727 22.8902C55.3448 22.003 56.5527 19.3073 56.0989 17.8001C55.8839 18.8757 54.1233 21.5509 53.5467 21.7838C53.5467 21.4824 53.5194 21.2323 53.4341 21.0542C52.332 22.9142 50.2233 24.5139 49.8446 25.0653C49.4658 25.6134 49.0905 25.9011 49.5614 28.0043C50.0322 30.1075 49.012 32.1936 48.1249 32.2484C47.4254 32.2929 47.2889 31.6935 47.3435 31.1283C47.0262 30.9776 46.7703 30.7926 46.1493 30.7926C45.095 30.7926 45.0949 31.3304 44.044 31.3304C42.9897 31.3304 42.9897 30.7926 41.9388 30.7926C41.5771 30.7926 41.3417 30.8543 41.1438 30.9365C41.0823 31.3338 41.0516 31.7791 41.0653 32.2861C41.0448 33.4233 39.5537 34.4098 39.0829 34.3893C39.1784 34.5879 39.3285 34.7695 39.6868 34.8277C39.1784 34.9921 38.9259 35.3929 38.9089 35.7765C39.1511 35.8861 39.3831 35.8313 39.5844 35.7183C39.3558 36.215 39.0692 36.8418 38.7894 37.479V28.9223H35.4524C34.0603 26.5211 34.1592 22.4278 34.1934 22.6333C34.6062 25.1955 34.9406 26.5554 35.2989 27.5145C35.5821 27.8194 36.0222 28.1687 36.7558 28.1996C36.923 27.4083 36.9469 26.641 36.6501 25.8566C36.9947 26.0656 37.1619 27.1583 39.2364 27.2062C39.448 26.9973 40.1133 24.5413 38.09 24.346C38.5062 23.7192 39.7858 24.209 40.1065 24.1542C40.9527 24.0103 41.8023 23.1094 41.8194 22.7395C41.8364 22.3696 40.922 21.02 39.2501 22.3182C39.0897 21.5749 42.7747 20.5781 43.3343 20.4137C43.3241 20.1876 43.3002 20.1876 43.1671 19.8314C43.5936 19.7012 43.7847 19.3313 44.0338 19.0435C43.8427 18.7695 43.3104 18.5674 43.1091 18.5297C43.0989 18.4338 43.133 18.2454 43.0614 17.9097C42.3619 17.6939 41.1506 18.9716 40.997 18.862C40.8742 18.7798 41.3587 17.2041 41.4031 17.1287C41.038 17.0739 40.7138 17.4165 40.6217 17.5363C40.4443 17.4439 40.3556 17.115 40.3283 16.8821C40.26 16.2484 40.4341 15.2482 41.3178 14.8474C41.328 14.1281 41.9047 13.7616 42.1469 13.7684C42.3892 13.7753 42.611 14.1315 42.6519 14.1281C42.6928 14.1247 42.669 13.8027 42.5803 13.5869C42.4745 13.3231 42.0173 12.8162 41.5464 12.9326C41.3485 12.9874 40.9152 13.2135 40.6251 13.491C39.4036 14.6693 40.0724 16.5361 39.7175 16.5259C39.3627 16.5156 39.349 14.7275 38.3698 14.2959C38.264 14.3165 37.9671 14.5871 38.0183 15.2208C37.8204 15.1454 37.4212 14.1932 36.3873 14.7173C36.2406 15.6524 36.9469 16.0086 36.8889 16.0566C36.8309 16.1045 36.5409 16.2518 36.4726 16.5807C36.7115 17.0088 38.4619 17.3205 38.6427 18.5914C38.7826 19.5847 38.2299 19.6156 38.2299 19.6156C38.0251 19.0264 37.8579 18.1632 37.0322 17.8583C36.8241 18.057 36.9162 18.2523 36.9776 18.5297C36.6637 18.2283 36.3941 18.0502 35.8687 18.0399C35.1044 20.2458 36.9128 21.1912 36.807 21.3968C36.7012 21.6023 36.5648 21.6194 36.3123 21.6194C35.5582 21.6194 34.9918 20.0163 34.9474 19.6361L34.9338 19.5162C35.2682 19.3552 35.3978 18.8414 35.3364 18.2694C35.2613 17.5775 32.75 16.5635 29.8634 16.5635C26.9768 16.5635 24.2881 17.3068 24.3939 18.2694C24.3939 18.7147 24.5406 19.3415 24.9671 19.4272C24.6054 19.7697 24.3325 20.1807 24.1209 20.6021C24.1209 20.6021 22.4831 21.616 22.8004 21.9448C23.3498 22.5169 25.786 22.5169 27.3317 22.2908C28.6692 22.0955 28.8296 20.811 29.0684 20.2047C29.3277 19.5368 31.7844 19.3998 32.7262 19.5128C30.6687 19.6806 29.9658 19.9478 29.6144 20.2904C29.1537 20.7391 29.6075 22.2531 27.434 22.7155C26.1136 23.0615 23.5613 22.969 22.3569 22.3593C21.4663 21.9037 23.2747 20.9309 23.7831 20.5336C24.2915 20.1362 23.865 19.1052 23.749 18.3071C23.3873 18.7215 23.2952 18.79 23.0563 19.088C23.0017 18.9031 22.9437 18.8072 22.8346 18.6153C22.4388 18.9373 22.1146 19.1634 21.8621 20.0951C21.5618 18.5777 22.4865 17.807 23.2406 17.0088C23.07 16.8958 22.6367 16.8958 22.6367 16.8958C22.6367 16.8958 23.07 16.1285 22.971 15.5462C22.5923 15.4914 21.654 16.4197 21.6164 16.7417C21.3332 16.382 21.0637 16.3683 21.0637 16.3683C21.0637 16.3683 20.429 17.3856 20.8044 18.9956C20.2994 19.088 19.5897 13.1621 16.9112 13.5869L16.7952 13.8335C16.5632 14.3233 16.7269 14.4603 16.8122 14.5289C16.8191 14.5357 16.8293 14.5426 16.8395 14.546C16.8941 14.5802 16.9828 14.6145 17.0886 14.6453C17.1739 14.6727 17.266 14.6967 17.3513 14.7207C17.8324 14.8543 18.4296 15.0187 18.6138 15.5188L18.6513 15.6181L18.6684 15.6627L18.607 15.7723L18.5933 15.7962C18.5695 15.8374 18.5422 15.8785 18.5149 15.9196C18.4296 16.0394 18.3238 16.1456 18.2044 16.2347C18.7264 16.793 18.4876 18.4235 19.3338 19.9615C18.7469 19.41 17.9758 18.2523 17.0306 18.4441C17.0306 18.7661 17.1807 18.862 17.2933 18.9921C16.6519 18.8414 16.3311 18.6701 15.7647 19.1429C15.8978 19.5231 15.9729 19.9581 16.6723 20.1499C16.4267 20.3383 16.4471 20.6809 16.4642 20.7768C17.4844 21.2495 17.8563 20.0917 20.7668 21.8934C20.7668 21.8934 18.7708 21.4961 18.2214 22.8628C18.6275 23.9692 19.8695 24.0788 20.1902 24.2638C19.8695 24.531 19.4805 25.5449 19.5214 26.2505C19.6545 26.3773 20.3301 27.5419 23.401 27.1377C23.2747 27.6584 23.3361 27.8022 23.517 28.1687C24.6532 28.2852 25.4243 27.7029 25.8133 27.1309C25.9122 26.23 25.7348 24.9592 24.643 23.7055C26.813 25.2572 26.4411 27.6173 25.8781 28.9189H21.0876V37.3625C20.8214 36.7665 20.5553 36.1842 20.3403 35.7149C20.5416 35.8313 20.7702 35.8827 21.0159 35.7731C20.9989 35.3895 20.7464 34.9887 20.238 34.8243C20.5962 34.766 20.7464 34.5845 20.8419 34.3858C20.371 34.4064 18.8765 33.4199 18.8595 32.2826C18.8731 31.7757 18.8424 31.3304 18.781 30.933C18.5831 30.8543 18.3477 30.7892 17.986 30.7892C16.9317 30.7892 16.9317 31.327 15.8773 31.327C14.823 31.327 14.823 30.7892 13.7687 30.7892C13.1477 30.7892 12.8918 30.9741 12.5744 31.1249C12.629 31.69 12.4925 32.2895 11.7965 32.245C10.9093 32.1902 9.88913 30.1041 10.36 28.0009C10.8309 25.8943 10.4555 25.61 10.0768 25.0619C9.70146 24.5139 7.58939 22.9142 6.4907 21.0508C6.4054 21.2289 6.3781 21.479 6.3781 21.7804C5.80146 21.5475 4.03742 18.8722 3.82587 17.7967C3.36865 19.3038 4.57993 21.9962 5.25211 22.8868C4.09883 22.325 3.00014 20.7459 2.61458 20.352C2.0004 22.1846 4.44004 24.7297 4.80513 25.1784C3.78151 24.7845 2.71694 23.3835 2.23242 23.1951C2.32455 24.7845 4.11589 26.7575 4.95185 27.3741C4.32744 27.0932 3.26629 27.0007 2.59411 27.0281C3.06156 28.9943 4.95185 29.4327 5.70592 29.9363C5.10881 29.6554 3.93505 29.8061 3.40277 30.2C4.50146 31.8716 5.31353 31.5085 6.02324 31.9196C5.20093 31.8716 4.61406 32.7725 4.61406 32.7725C4.76419 33.7727 5.91747 33.6494 6.66471 33.7179C6.24503 33.6905 5.86288 33.9234 5.58309 34.5605C6.47705 35.0846 6.82167 34.9236 7.26183 34.766C7.02981 35.1326 6.9718 35.5368 7.04686 36.1225C7.72928 36.5609 8.51747 36.2081 8.8075 35.9204C8.68466 36.352 8.6949 36.7048 8.90986 37.1912C9.78677 37.2289 10.261 36.6021 10.5408 35.9855C10.3736 36.8658 10.6637 37.2289 10.9878 37.6982C11.7419 37.3865 12.0217 36.5541 12.107 36.2287C12.0899 37.0063 12.2571 37.2871 12.5915 37.6023C13.5435 37.2563 13.8198 36.537 13.9256 36.2835C14.0826 36.4411 14.3078 36.6671 14.6046 36.8076C15.3041 36.1225 15.3416 35.4991 15.3485 35.112C15.5634 35.3004 15.7852 35.571 16.1332 35.6567C16.2254 35.5265 16.2254 35.6395 16.4233 34.9373C17.0477 36.5747 18.259 36.7528 18.259 36.7528C18.4466 36.6877 18.6786 36.191 18.5933 35.8485C18.7162 35.9649 19.0301 36.1739 19.3338 36.328C19.4634 36.5849 19.5965 36.9103 19.5794 37.1638C19.0199 36.9754 17.4366 36.835 17.1739 37.8318C17.6857 37.7393 19.4122 37.5749 19.6613 38.325C19.9104 39.0752 19.1632 39.6781 18.4159 40.7159C18.7981 41.0756 19.8763 40.2227 20.2175 39.5308C20.2482 40.4625 20.2038 41.1681 19.6443 42.1375C21.4015 41.7573 20.9306 39.9315 21.0296 39.6644C21.1183 39.774 21.2718 39.9692 21.3981 40.4008C21.439 40.6132 21.4868 40.829 21.538 41.0585C21.5789 41.3428 21.6096 41.6819 21.6164 42.0929C21.6574 42.0792 21.712 42.0347 21.77 41.9662C22.6912 45.2101 24.8579 49.4199 29.9351 51.6566H29.9487C35.0498 49.4096 37.2096 45.1724 38.1275 41.9217C38.2025 42.0107 38.2708 42.0724 38.322 42.0895C38.3595 40.3563 38.7485 39.863 38.9089 39.6644C39.0112 39.935 38.5369 41.7573 40.2976 42.1375C39.738 41.1681 39.6936 40.4625 39.7243 39.5308C40.0656 40.2227 41.1404 41.0756 41.5259 40.7159C40.7821 39.6781 40.0348 39.0752 40.2839 38.325C40.533 37.5749 42.2595 37.7393 42.7713 37.8318C42.5052 36.835 40.922 36.9754 40.3624 37.1638C40.3453 36.9103 40.4784 36.5849 40.6081 36.328C40.9152 36.1773 41.2257 35.9649 41.3519 35.8485C41.2666 36.1944 41.4986 36.6877 41.6863 36.7528C41.6863 36.7528 42.8976 36.5747 43.522 34.9373C43.7199 35.6395 43.7199 35.5265 43.812 35.6567C44.1566 35.571 44.3818 35.3004 44.5934 35.112C44.6036 35.4957 44.6411 36.1225 45.3406 36.8076C45.6409 36.6671 45.8627 36.4411 46.0196 36.2835C46.122 36.537 46.4018 37.2563 47.3503 37.6023C47.6847 37.2871 47.8553 37.0063 47.8349 36.2287C47.9202 36.5541 48.1965 37.3865 48.954 37.6982C49.2816 37.2289 49.5682 36.8658 49.401 35.9855C49.6808 36.6021 50.1551 37.2289 51.032 37.1912C51.2469 36.7048 51.2537 36.3486 51.1343 35.9204C51.4244 36.2081 52.216 36.5644 52.895 36.1225C52.97 35.5368 52.912 35.1326 52.68 34.766C53.1168 34.927 53.4614 35.0846 54.3553 34.5605C54.0755 33.9234 53.6934 33.6905 53.2737 33.7179C54.021 33.6528 55.1742 33.7727 55.3244 32.7725C55.3244 32.7725 54.7375 31.8716 53.9186 31.9196C54.6283 31.5085 55.437 31.8716 56.5357 30.2C56.0068 29.8061 54.8296 29.6554 54.2359 29.9363C54.9729 29.4361 56.8632 28.9977 57.3307 27.0315ZM9.32273 32.4916C9.26813 32.4916 9.21695 32.4813 9.16918 32.4608L8.65737 32.3854L8.54136 33.7042C8.58913 33.7761 8.61983 33.8617 8.61983 33.9577C8.61983 34.2043 8.42194 34.403 8.17627 34.403C7.9306 34.403 7.7327 34.2043 7.7327 33.9577C7.7327 33.8789 7.75317 33.8035 7.7907 33.7419L7.93742 32.2826L7.59962 32.2313C7.5348 32.3546 7.40514 32.4368 7.25842 32.4368C7.04687 32.4368 6.87285 32.2621 6.87285 32.0497C6.87285 31.8373 7.04687 31.6626 7.25842 31.6626C7.28571 31.6626 7.3096 31.6661 7.33348 31.6695L7.98519 31.7791C8.01589 30.8851 7.76341 29.3574 7.45632 28.1037C7.47679 28.1037 7.49385 28.1071 7.51091 28.1071C7.78729 28.1071 8.01248 27.881 8.01248 27.6036C8.01248 27.3261 7.78729 27.1 7.51091 27.1C7.40513 27.1 7.30618 27.1343 7.22429 27.1925C7.06393 26.5965 6.92744 26.1341 6.86602 25.932C7.6781 25.3325 7.72587 24.531 7.75317 24.209C9.23401 26.7164 8.74267 31.4845 8.71196 31.899L8.97469 31.9435C9.03611 31.8099 9.16918 31.7175 9.32273 31.7175C9.53427 31.7175 9.70829 31.8921 9.70829 32.1045C9.70829 32.3203 9.53427 32.4916 9.32273 32.4916ZM32.5044 27.7235C33.5587 27.7646 34.1831 28.4565 34.4834 28.9223H29.6416C30.6755 28.2338 31.5797 27.6858 32.5044 27.7235ZM21.5789 29.4259H38.2879V37.0439C37.9193 36.996 37.7146 36.8829 37.4382 36.7391C37.08 36.5473 36.5886 36.304 35.7936 36.3143C34.9986 36.3075 34.5073 36.5473 34.149 36.7391C33.7805 36.924 33.5451 37.0645 32.8865 37.0713C32.2314 37.0645 31.9926 36.924 31.6275 36.7391C31.2692 36.5473 30.7779 36.304 29.9829 36.3143C29.1878 36.3075 28.6965 36.5473 28.3382 36.7391C27.9697 36.924 27.7343 37.0645 27.0758 37.0713C26.4206 37.0645 26.1818 36.924 25.8133 36.7391C25.455 36.5473 24.9671 36.304 24.1687 36.3143C23.3737 36.3075 22.8823 36.5473 22.5241 36.7391C22.2204 36.8932 22.0054 37.0165 21.5721 37.0542V29.4259H21.5789ZM21.5789 37.8934C22.1965 37.8455 22.6059 37.6434 22.913 37.479C23.2815 37.294 23.517 37.1501 24.1755 37.1467C24.8306 37.1501 25.0695 37.294 25.438 37.479C25.7962 37.6708 26.2842 37.9106 27.0826 37.9037C27.881 37.9106 28.3689 37.6708 28.7272 37.479C29.0923 37.294 29.3312 37.1501 29.9863 37.1467C30.6414 37.1501 30.8802 37.294 31.2487 37.479C31.607 37.6708 32.0983 37.9106 32.8934 37.9037C32.9036 37.9037 32.9172 37.9037 32.9275 37.9037C33.702 37.9037 34.1831 37.6708 34.538 37.479C34.9065 37.294 35.1419 37.1501 35.8005 37.1467C36.4556 37.1501 36.6944 37.294 37.0595 37.479C37.3529 37.6365 37.7317 37.8249 38.2913 37.8832C38.2913 37.9688 38.2878 38.2771 38.2435 38.7463C38.2367 38.7669 38.2298 38.7772 38.223 38.7943C37.8989 38.7395 37.701 38.6333 37.4417 38.4997C37.0834 38.3079 36.5921 38.0647 35.797 38.0715C35.002 38.0647 34.5107 38.3045 34.1524 38.4997C33.7839 38.6847 33.5485 38.8251 32.89 38.8286C32.2348 38.8217 31.996 38.6847 31.6309 38.4997C31.2726 38.3079 30.7813 38.0647 29.9863 38.0715C29.1913 38.0647 28.6999 38.3045 28.3416 38.4997C27.9731 38.6847 27.7377 38.8251 27.0792 38.8286C26.4241 38.8217 26.1852 38.6847 25.8167 38.4997C25.4584 38.3079 24.9705 38.0647 24.1721 38.0715C23.3771 38.0647 22.8857 38.3045 22.5275 38.4997C22.2545 38.6367 22.0532 38.7498 21.6983 38.8012C21.671 38.7326 21.6403 38.6607 21.6096 38.5888C21.5823 38.2188 21.5789 37.9722 21.5789 37.8934ZM37.2745 42.85C36.6705 44.4256 35.8243 45.8403 34.7632 47.0529C33.4666 48.5361 31.8424 49.7247 29.9317 50.5845C28.0209 49.7247 26.3968 48.5361 25.1036 47.0529C24.0424 45.8403 23.1996 44.4291 22.5923 42.85C22.3944 42.3362 22.2374 41.8429 22.1078 41.3736C22.2238 41.0722 22.2955 40.6988 22.2272 40.2946C22.2033 40.1439 22.1248 39.9007 22.0122 39.5958C22.3978 39.5102 22.681 39.3663 22.913 39.243C23.2815 39.0546 23.517 38.9176 24.1755 38.9108C24.8306 38.9176 25.0695 39.0581 25.438 39.243C25.7962 39.4349 26.2842 39.6781 27.0826 39.6712C27.881 39.6781 28.3689 39.4383 28.7272 39.243C29.0923 39.0546 29.3312 38.9176 29.9863 38.9108C30.6414 38.9176 30.8802 39.0581 31.2487 39.243C31.607 39.4349 32.0983 39.6781 32.8934 39.6712C33.6884 39.6781 34.1797 39.4383 34.538 39.243C34.9065 39.0546 35.1419 38.9176 35.8005 38.9108C36.4556 38.9176 36.6944 39.0581 37.0595 39.243C37.2813 39.3629 37.5508 39.4965 37.9125 39.5856C37.7965 39.8939 37.718 40.1405 37.6942 40.2946C37.6327 40.6611 37.6839 41.0071 37.7829 41.2914C37.6464 41.7812 37.4826 42.3053 37.2745 42.85ZM52.4036 28.1071C52.4241 28.1071 52.4412 28.1071 52.4582 28.1037C52.1545 29.3539 51.9021 30.8817 51.9328 31.7791L52.5845 31.6695C52.6083 31.6661 52.6356 31.6626 52.6595 31.6626C52.8745 31.6626 53.0451 31.8373 53.0451 32.0497C53.0451 32.2621 52.8711 32.4368 52.6595 32.4368C52.5128 32.4368 52.3831 32.3546 52.3183 32.2313L51.9839 32.2826L52.1307 33.7419C52.1648 33.8069 52.1887 33.8789 52.1887 33.9577C52.1887 34.2043 51.9908 34.403 51.7451 34.403C51.4994 34.403 51.3015 34.2043 51.3015 33.9577C51.3015 33.8652 51.3288 33.7761 51.38 33.7042L51.264 32.3854L50.7522 32.4608C50.7044 32.4813 50.6532 32.4916 50.5986 32.4916C50.3837 32.4916 50.2131 32.3169 50.2131 32.1045C50.2131 31.8921 50.3837 31.7175 50.5986 31.7175C50.7522 31.7175 50.8887 31.8099 50.9501 31.9435L51.2094 31.899C51.1787 31.4845 50.6874 26.7164 52.1682 24.209C52.1955 24.531 52.2398 25.3325 53.0553 25.932C52.9939 26.1306 52.854 26.5965 52.6971 27.1925C52.6152 27.1343 52.5162 27.1 52.407 27.1C52.1307 27.1 51.9055 27.3261 51.9055 27.6036C51.9055 27.881 52.1272 28.1071 52.4036 28.1071Z" fill="white"/>
<path d="M47.6183 24.3254C48.1471 23.2464 48.5361 21.4891 48.403 20.6396C47.9697 20.6705 46.9597 21.9447 46.7618 22.4345C46.7072 21.6947 46.0726 20.5437 46.0999 20.6773C46.2295 21.2939 45.7894 22.3797 45.2776 22.7668C44.2847 22.9038 43.128 23.034 42.9744 23.1196C42.7049 23.2669 42.7049 23.3628 42.6673 23.445C42.4933 23.4724 41.7256 23.5512 41.514 23.9965C41.2991 24.4418 41.3264 25.2228 41.8484 25.7092C41.9542 25.2228 42.1487 25.0927 42.4524 25.0481C42.6639 25.0173 42.9539 24.9625 43.6671 25.1646C43.3429 25.4729 42.1419 26.1614 40.8828 26.0141C41.1592 26.4662 41.7358 26.5827 42.2374 26.5416C42.8891 26.4936 43.4999 26.0278 44.0322 26.1066C43.5511 26.3977 42.971 26.7197 42.6298 26.7916C42.9471 27.213 43.0904 27.511 43.128 27.6754C42.7697 27.8638 42.4455 28.083 42.2749 28.3262C42.2613 28.3433 42.2511 28.3605 42.2374 28.381C42.4046 28.3262 42.6025 28.2885 42.872 28.2885C43.9059 28.2885 43.9059 28.8229 44.9398 28.8229C45.9736 28.8229 45.9736 28.2885 47.0075 28.2885C47.6797 28.2885 47.9151 28.5146 48.2802 28.6722C48.7715 27.2575 49.0343 25.4592 47.6183 24.3254ZM44.6839 26.9561C44.486 27.0759 44.0936 27.2267 43.6807 27.4116C43.5886 26.7129 44.4382 26.3429 45.0899 26.3292C45.0899 26.3258 45.1445 26.6786 44.6839 26.9561ZM44.9227 23.8527C44.66 23.9794 44.6429 24.113 44.5269 24.3973C44.4826 24.3151 44.4894 24.1678 44.4655 24.0719C44.4416 23.9725 44.3529 23.8938 44.2369 23.9246C44.2812 24.1233 44.213 24.4041 43.981 24.4179C43.7455 24.4316 43.6705 24.3185 43.6602 24.2397C43.65 24.1609 43.7217 24.0616 43.6705 24.0239C43.6193 23.9828 43.4828 24.0034 43.3975 24.0582C43.3122 24.113 43.1894 24.3117 43.7012 24.5001C43.1041 24.5138 42.8652 24.0342 42.9949 23.8972C43.2337 23.6471 45.1854 23.5341 45.3731 23.5204C45.3731 23.5238 45.2127 23.7156 44.9227 23.8527Z" fill="white"/>
<path d="M42.1971 12.8024C42.3813 12.6996 44.4798 12.936 44.3979 15.3509C44.2341 17.3034 42.4632 17.1013 42.279 17.0293C42.8727 16.6525 42.9921 16.4059 43.1184 16.0394C42.4325 16.7176 42.0333 16.7005 41.4942 16.7656C40.9551 16.8307 40.7026 17.0567 40.6617 17.1458C40.6173 17.2417 40.3887 15.3543 41.6512 15.0769C41.5317 14.2616 42.1186 14.0766 42.1698 14.0698C42.2244 14.0595 42.4905 14.6384 42.8283 14.4534C43.1627 14.2685 42.8966 13.0251 42.1971 12.8024Z" fill="white"/>
<path d="M29.2526 34.605H28.8534H28.85C28.4917 34.605 28.1983 34.3104 28.1949 33.9507C28.1949 33.9439 28.1949 33.937 28.1983 33.9302C27.997 33.9713 27.8264 33.9713 27.7786 33.8445C27.6592 33.5328 28.3996 33.5191 28.3825 32.9094C28.3689 32.2997 26.8778 31.0631 27.144 30.3232C26.8027 30.5014 26.4342 30.9295 26.5537 31.3851C25.977 31.1008 25.3936 30.6213 24.9875 29.8848C24.9875 29.8848 24.5337 30.6624 24.8886 31.2412C23.9571 30.9193 23.3941 30.4055 22.9949 29.8129C22.7014 30.8542 23.2747 31.7482 24.7077 32.238C24.2949 32.2654 22.582 31.7927 22.2852 31.0803C22.3295 31.9092 23.1279 33.4232 24.3358 33.2143C23.6568 33.4643 22.9778 33.4506 22.5342 33.1697C22.623 33.7486 23.8035 34.8139 25.1035 34.3104C25.281 34.533 24.9568 35.0195 24.6736 35.1119C25.1035 35.3791 25.5437 35.5264 26.6526 35.2455C26.755 35.4236 26.4001 35.7662 26.3114 35.8381C26.2329 35.9066 28.1266 36.1464 29.2492 35.5983C29.2492 35.5949 29.2492 35.5915 29.2492 35.5846V34.605H29.2526Z" fill="white"/>
<path d="M35.5623 33.2177C36.7735 33.4266 37.572 31.9126 37.6129 31.0837C37.3195 31.7962 35.6066 32.2689 35.1903 32.2415C36.6234 31.7516 37.1932 30.8576 36.9032 29.8163C36.504 30.4089 35.941 30.9227 35.0095 31.2447C35.3644 30.6658 34.9105 29.8882 34.9105 29.8882C34.5079 30.6213 33.921 31.1042 33.3444 31.3885C33.4638 30.9295 33.0919 30.5048 32.7541 30.3267C33.0203 31.0666 31.5292 32.3031 31.5121 32.9128C31.4951 33.5191 32.2355 33.5363 32.1161 33.848C32.0649 33.9816 31.8772 33.9781 31.6623 33.9267C31.6623 33.937 31.6657 33.9439 31.6657 33.9542C31.6657 34.2967 31.4098 34.5776 31.0685 34.6084H31.0549H31.0413H30.6113V35.5949C31.7305 36.1601 33.6617 35.9169 33.5798 35.8484C33.4911 35.7765 33.1363 35.4339 33.242 35.2558C34.3476 35.5401 34.7911 35.3894 35.221 35.1222C34.9413 35.0332 34.6137 34.5433 34.7911 34.3207C36.0911 34.8242 37.2717 33.7555 37.3604 33.18C36.9203 33.454 36.2413 33.4677 35.5623 33.2177Z" fill="white"/>
<path d="M52.8363 36.6808C52.6282 36.763 52.4064 36.8075 52.1744 36.8075C52.072 36.8075 51.9697 36.7973 51.8707 36.7836C51.9048 37.359 52.0618 37.8626 52.1642 38.0338C51.6865 38.14 50.9938 38.0544 50.6526 37.6468C50.639 37.6468 50.6253 37.6433 50.6117 37.6399C50.5878 38.0407 50.482 39.1437 51.5159 39.2498C52.5975 39.3629 52.5873 39.404 52.6965 39.5307C52.403 39.8116 51.8878 39.9966 51.144 39.5444C51.2531 40.62 51.8605 41.1989 52.4951 41.1201C53.1332 41.0413 53.7371 40.9009 53.9555 41.1989C53.5529 41.2914 53.3482 41.6031 52.6214 41.4318C52.7783 42.0724 53.0479 42.2676 53.6314 42.367C54.0818 42.4457 53.8804 43.1479 53.181 43.1925C52.4815 43.2404 51.7513 42.6341 51.161 41.6031C50.7345 40.8598 49.7621 39.1265 49.2127 38.1366L49.1138 38.277L48.7657 38.1366C48.4416 38.003 48.1891 37.8009 47.9912 37.5748C47.8991 37.7118 47.7899 37.8317 47.6636 37.9516L47.4555 38.1537L47.1825 38.0544C46.5035 37.8078 46.1043 37.3967 45.8689 37.0439C45.7665 37.1158 45.6539 37.1843 45.5311 37.2426L45.2342 37.383L45.0022 37.1535C44.5825 36.7425 44.3642 36.3417 44.2481 35.9957C44.1492 36.0471 44.0366 36.0951 43.9138 36.1225L43.6067 36.1978L43.4804 36.0197C43.1972 36.4205 42.8833 36.6911 42.6035 36.8726C43.7739 38.3079 46.5172 38.9142 46.7526 41.377C47.0358 44.3023 45.1523 44.0899 45.7904 46.6932C47.8035 46.5117 51.335 48.4093 50.7754 50.8859C50.7754 50.8859 49.223 50.1837 48.9568 51.3552C49.455 51.7594 50.0589 51.2456 50.308 51.4648C49.4993 51.869 48.4313 52.9445 48.834 53.6022C49.472 53.085 49.9668 53.2426 50.5264 52.4787C50.5264 52.8829 50.1852 54.1469 51.2088 54.4106C51.6285 53.9276 51.2395 52.2766 51.7206 52.2423C52.2017 52.2115 52.5907 53.1775 52.7783 53.5371C53.0888 53.4275 53.3823 52.2732 52.6521 51.4031C53.1195 51.4785 53.3038 51.2935 53.4778 51.1839C53.4778 51.1839 53.0411 50.8242 52.9489 50.0912C53.43 50.0775 53.7713 49.9199 53.819 49.7178C53.4915 49.5466 53.0581 49.1561 52.9967 48.7827C53.2936 48.6286 53.6177 48.3305 53.6177 48.0017C53.2902 48.0497 50.8232 47.1625 50.4649 45.8369C50.1067 44.5112 50.4513 43.2781 50.4649 43.028C50.8539 43.4014 52.5531 44.9291 54.4571 43.9803C56.1188 43.1548 54.5185 40.113 54.1943 39.5684C53.9248 39.1334 52.7852 37.8043 52.8363 36.6808Z" fill="white"/>
<path d="M58.3605 37.0507C58.3605 37.0507 58.7495 36.7082 59.6332 37.0986C59.5855 35.2421 58.0023 36.0779 56.9002 35.3037C56.3576 34.9235 55.5729 34.3823 54.6994 34.2179C54.7267 34.2659 54.7471 34.3172 54.771 34.372L54.9416 34.7557L54.5799 34.9681C54.1125 35.2421 53.7269 35.3757 53.3652 35.3894C53.3755 35.4682 53.3789 35.5538 53.3789 35.6394C54.5322 35.1667 55.9311 35.9374 55.8458 36.7013C55.7537 37.5131 55.4739 38.2907 55.8765 38.6332C56.2792 38.9792 56.4975 39.147 56.4975 39.4142C56.9309 39.0237 56.4361 37.7597 56.6852 37.6981C56.808 37.9344 56.965 38.9929 57.6303 39.3046C58.2991 39.6163 59.6981 39.8047 59.8038 40.1952C60.3191 39.3765 58.3912 38.9244 58.3605 37.0507Z" fill="white"/>
<path d="M7.05902 36.6808C7.26716 36.763 7.48894 36.8075 7.72096 36.8075C7.82333 36.8075 7.92569 36.7973 8.02464 36.7836C7.99052 37.359 7.83356 37.8626 7.7312 38.0338C8.20889 38.14 8.90154 38.0544 9.24616 37.6468C9.25981 37.6468 9.27346 37.6433 9.28711 37.6399C9.31099 38.0407 9.41677 39.1437 8.38291 39.2498C7.30128 39.3629 7.31151 39.404 7.20233 39.5307C7.49918 39.8116 8.01099 39.9966 8.75482 39.5444C8.64564 40.62 8.0417 41.1989 7.40364 41.1201C6.76558 41.0413 6.16164 40.9009 5.94327 41.1989C6.3459 41.2914 6.54721 41.6031 7.2808 41.4318C7.12385 42.0724 6.85089 42.2676 6.27083 42.367C5.82044 42.4457 6.02175 43.1479 6.72122 43.1925C7.4207 43.2404 8.15088 42.6341 8.74117 41.6031C9.16768 40.8598 10.1401 39.1265 10.6895 38.1366L10.785 38.277L11.133 38.1366C11.4572 38.003 11.7097 37.8009 11.9076 37.5748C11.9963 37.7118 12.1089 37.8317 12.2317 37.9516L12.4433 38.1537L12.7162 38.0544C13.3953 37.8078 13.7945 37.3967 14.0299 37.0439C14.1288 37.1158 14.2449 37.1843 14.3677 37.2426L14.6611 37.383L14.8932 37.1535C15.3128 36.7425 15.5346 36.3417 15.6472 35.9957C15.7462 36.0471 15.8554 36.0951 15.9782 36.1225L16.2887 36.1978L16.4149 36.0197C16.6981 36.4205 17.0086 36.6911 17.2918 36.8726C16.1215 38.3079 13.3782 38.9142 13.1393 41.377C12.8561 44.3023 14.7362 44.0899 14.1016 46.6932C12.0884 46.5117 8.55692 48.4093 9.1165 50.8859C9.1165 50.8859 10.669 50.1837 10.9351 51.3552C10.437 51.7594 9.83304 51.2456 9.58396 51.4648C10.3926 51.869 11.464 52.9445 11.0614 53.6022C10.4233 53.085 9.92858 53.2426 9.369 52.4787C9.369 52.8829 9.71021 54.1469 8.68658 54.4106C8.2669 53.9276 8.65588 52.2766 8.17477 52.2423C7.69367 52.2115 7.30469 53.1775 7.11703 53.5371C6.80653 53.4275 6.50967 52.2732 7.24327 51.4031C6.77923 51.4785 6.59157 51.2935 6.42096 51.1839C6.42096 51.1839 6.85771 50.8242 6.94983 50.0912C6.46873 50.0775 6.12753 49.9199 6.07976 49.7178C6.40732 49.5466 6.84065 49.1561 6.90206 48.7827C6.60862 48.6286 6.28107 48.3305 6.28107 48.0017C6.60863 48.0497 9.07556 47.1625 9.43382 45.8369C9.79209 44.5112 9.44747 43.2781 9.43382 43.028C9.04485 43.4014 7.34563 44.9291 5.44169 43.9803C3.78001 43.1548 5.38028 40.113 5.70443 39.5684C5.96716 39.1334 7.10679 37.8043 7.05902 36.6808Z" fill="white"/>
<path d="M1.53219 37.0507C1.53219 37.0507 1.14321 36.7082 0.259484 37.0986C0.307254 35.2421 1.89046 36.0779 2.99256 35.3037C3.53508 34.9235 4.31986 34.3823 5.19335 34.2179C5.16947 34.2659 5.14558 34.3172 5.11829 34.372L4.94768 34.7557L5.31278 34.9681C5.78023 35.2421 6.1658 35.3757 6.52748 35.3894C6.52065 35.4682 6.51724 35.5538 6.51382 35.6394C5.36054 35.1667 3.96159 35.9374 4.04689 36.7013C4.13902 37.5131 4.41881 38.2907 4.01619 38.6332C3.61356 38.9792 3.39519 39.147 3.39519 39.4142C2.95844 39.0237 3.4566 37.7597 3.20752 37.6981C3.08469 37.9344 2.92773 38.9929 2.25896 39.3046C1.5902 39.6163 0.194657 39.8047 0.0854704 40.1952C-0.422929 39.3765 1.50148 38.9244 1.53219 37.0507Z" fill="white"/>
<path d="M68.1465 9.08923H71.6814V24.0034H78.5294V26.7951H68.1465V9.08923Z" fill="white"/>
<path d="M86.4375 13.4258C90.3034 13.4258 93.2582 16.0394 93.2582 20.3485C93.2582 24.1027 90.7572 27.0931 86.4375 27.0931C82.1417 27.0931 79.6406 24.1027 79.6406 20.3485C79.6406 16.0394 82.5955 13.4258 86.4375 13.4258ZM86.4375 24.459C89.0409 24.459 89.7233 22.1263 89.7233 19.9443C89.7233 17.9404 88.6622 16.0633 86.4375 16.0633C84.2401 16.0633 83.1789 17.9918 83.1789 19.9443C83.1789 22.0989 83.8614 24.459 86.4375 24.459Z" fill="white"/>
<path d="M95.8379 13.7306H99.0452V15.505H99.0964C100.158 14.0081 101.597 13.4258 103.365 13.4258C106.446 13.4258 107.787 15.6078 107.787 18.5502V26.7917H104.402V19.8176C104.402 18.2213 104.378 16.0633 102.205 16.0633C99.755 16.0633 99.2227 18.7283 99.2227 20.3999V26.7917H95.8379V13.7306Z" fill="white"/>
<path d="M119.939 25.3222H119.887C118.878 26.5896 117.489 27.0965 115.895 27.0965C111.903 27.0965 110.439 23.8013 110.439 20.2252C110.439 16.6217 111.903 13.4292 115.895 13.4292C117.588 13.4292 118.775 14.0116 119.785 15.255H119.836V7.77393H123.221V26.7951H119.935V25.3222H119.939ZM116.83 24.459C119.079 24.459 119.812 22.0749 119.812 20.2252C119.812 18.3995 118.953 16.0668 116.779 16.0668C114.582 16.0668 113.974 18.4748 113.974 20.2252C113.978 22.0235 114.609 24.459 116.83 24.459Z" fill="white"/>
<path d="M132.672 13.4258C136.538 13.4258 139.493 16.0394 139.493 20.3485C139.493 24.1027 136.992 27.0931 132.672 27.0931C128.376 27.0931 125.875 24.1027 125.875 20.3485C125.875 16.0394 128.83 13.4258 132.672 13.4258ZM132.672 24.459C135.275 24.459 135.958 22.1263 135.958 19.9443C135.958 17.9404 134.897 16.0633 132.672 16.0633C130.474 16.0633 129.413 17.9918 129.413 19.9443C129.413 22.0989 130.096 24.459 132.672 24.459Z" fill="white"/>
<path d="M142.145 13.7306H145.352V15.505H145.403C146.464 14.0081 147.904 13.4258 149.672 13.4258C152.753 13.4258 154.094 15.6078 154.094 18.5502V26.7917H150.709V19.8176C150.709 18.2213 150.682 16.0633 148.511 16.0633C146.062 16.0633 145.529 18.7283 145.529 20.3999V26.7917H142.145V13.7306Z" fill="white"/>
<path d="M164.391 9.08923H170.556C172.829 9.08923 176.241 9.75033 176.241 13.6279C176.241 15.7311 174.825 17.204 172.73 17.5842V17.6356C175.128 17.8651 176.773 19.4853 176.773 21.6673C176.773 26.1305 172.781 26.7916 170.56 26.7916H164.394V9.08923H164.391ZM167.926 16.2414H169.365C170.857 16.2414 172.699 15.9126 172.699 14.0869C172.699 12.0316 170.904 11.8809 169.287 11.8809H167.922V16.2414H167.926ZM167.926 24.0034H169.591C171.235 24.0034 173.231 23.5992 173.231 21.5439C173.231 19.2352 171.362 18.8824 169.591 18.8824H167.926V24.0034Z" fill="white"/>
<path d="M185.484 13.4258C189.35 13.4258 192.305 16.0394 192.305 20.3485C192.305 24.1027 189.804 27.0931 185.484 27.0931C181.189 27.0931 178.688 24.1027 178.688 20.3485C178.688 16.0394 181.642 13.4258 185.484 13.4258ZM185.484 24.459C188.088 24.459 188.767 22.1263 188.767 19.9443C188.767 17.9404 187.706 16.0633 185.484 16.0633C183.287 16.0633 182.226 17.9918 182.226 19.9443C182.226 22.0989 182.908 24.459 185.484 24.459Z" fill="white"/>
<path d="M195.035 13.7306H198.041V16.697H198.089C198.243 15.4776 199.631 13.4258 201.651 13.4258C201.979 13.4258 202.334 13.4258 202.688 13.5285V16.9539C202.385 16.7758 201.781 16.6731 201.174 16.6731C198.42 16.6731 198.42 20.1224 198.42 21.9995V26.7917H195.035V13.7306Z" fill="white"/>
<path d="M210.297 13.4258C214.163 13.4258 217.118 16.0394 217.118 20.3485C217.118 24.1027 214.617 27.0931 210.297 27.0931C206.001 27.0931 203.5 24.1027 203.5 20.3485C203.5 16.0394 206.458 13.4258 210.297 13.4258ZM210.297 24.459C212.9 24.459 213.579 22.1263 213.579 19.9443C213.579 17.9404 212.518 16.0633 210.297 16.0633C208.099 16.0633 207.038 17.9918 207.038 19.9443C207.038 22.0989 207.721 24.459 210.297 24.459Z" fill="white"/>
<path d="M231.67 26.7917H228.462V25.0174H228.411C227.377 26.2848 225.91 27.0966 224.143 27.0966C221.058 27.0966 219.721 24.9146 219.721 21.9722V13.7307H223.105V20.7048C223.105 22.301 223.133 24.459 225.306 24.459C227.756 24.459 228.288 21.7975 228.288 20.1225V13.7307H231.673V26.7917H231.67Z" fill="white"/>
<path d="M247.105 13.7306V25.5243C247.105 29.073 245.693 32.423 240.233 32.423C238.896 32.423 237.354 32.2175 235.736 31.5358L236.016 28.6448C237.05 29.2031 238.746 29.7854 239.804 29.7854C243.543 29.7854 243.721 26.9698 243.721 24.7124H243.669C243.038 25.8291 241.523 26.7917 239.626 26.7917C235.788 26.7917 234.32 23.6985 234.32 20.1978C234.32 17.0533 235.938 13.4258 239.827 13.4258C241.544 13.4258 242.885 14.0081 243.82 15.505H243.871V13.7306H247.105ZM243.721 20.1224C243.721 17.8891 242.864 16.0633 240.892 16.0633C238.592 16.0633 237.862 18.1939 237.862 20.1978C237.862 21.9721 238.797 24.1541 240.742 24.1541C242.861 24.1541 243.721 22.3044 243.721 20.1224Z" fill="white"/>
<path d="M250.051 7.77051H253.436V15.505H253.487C254.343 14.2376 255.81 13.4258 257.578 13.4258C260.662 13.4258 262 15.6078 262 18.5502V26.7917H258.615V19.8176C258.615 18.2214 258.591 16.0634 256.418 16.0634C253.968 16.0634 253.436 18.7283 253.436 20.3999V26.7917H250.051V7.77051Z" fill="white"/>
<path d="M73.8066 39.4965C77.6725 39.4965 80.6274 42.11 80.6274 46.4192C80.6274 50.1734 78.1263 53.1672 73.8066 53.1672C69.5108 53.1672 67.0098 50.1734 67.0098 46.4192C67.0098 42.11 69.9646 39.4965 73.8066 39.4965ZM73.8066 50.5296C76.41 50.5296 77.0925 48.1969 77.0925 46.015C77.0925 44.0111 76.0313 42.134 73.8066 42.134C71.6092 42.134 70.5481 44.0625 70.5481 46.015C70.5481 48.173 71.2271 50.5296 73.8066 50.5296Z" fill="white"/>
<path d="M84.5167 42.2881H82.0156V39.8047H84.5167V37.9756C84.5167 35.3654 85.9839 33.5397 88.6589 33.5397C89.5188 33.5397 90.4776 33.6664 91.1327 33.8171L90.8563 36.6328C90.5526 36.4547 90.1227 36.1772 89.3891 36.1772C88.2529 36.1772 87.898 37.1672 87.898 38.1811V39.8047H90.8529V42.2881H87.898V52.8623H84.5133V42.2881H84.5167Z" fill="white"/>
<path d="M100.432 35.1599H103.97V42.3121H111.043V35.1599H114.582V52.8623H111.043V45.1004H103.97V52.8623H100.432V35.1599Z" fill="white"/>
<path d="M124.234 39.4965C128.1 39.4965 131.055 42.11 131.055 46.4192C131.055 50.1734 128.554 53.1672 124.234 53.1672C119.939 53.1672 117.438 50.1734 117.438 46.4192C117.437 42.11 120.392 39.4965 124.234 39.4965ZM124.234 50.5296C126.838 50.5296 127.52 48.1969 127.52 46.015C127.52 44.0111 126.459 42.134 124.234 42.134C122.037 42.134 120.976 44.0625 120.976 46.015C120.976 48.173 121.658 50.5296 124.234 50.5296Z" fill="white"/>
<path d="M145.607 52.8623H142.399V51.0879H142.348C141.311 52.3553 139.847 53.1671 138.076 53.1671C134.995 53.1671 133.654 50.9852 133.654 48.0428V39.8013H137.039V46.7754C137.039 48.375 137.066 50.5296 139.236 50.5296C141.686 50.5296 142.219 47.8646 142.219 46.193V39.8013H145.603V52.8623H145.607Z" fill="white"/>
<path d="M148.523 39.8047H151.734V41.5791H151.785C152.847 40.0856 154.286 39.4999 156.054 39.4999C159.135 39.4999 160.476 41.6818 160.476 44.6243V52.8692H157.091V45.8951C157.091 44.2954 157.067 42.1408 154.894 42.1408C152.444 42.1408 151.915 44.8058 151.915 46.4774V52.8692H148.527V39.8047H148.523Z" fill="white"/>
<path d="M171.693 42.5416C170.655 42.1854 169.898 41.9833 168.663 41.9833C167.752 41.9833 166.667 42.3121 166.667 43.4288C166.667 45.508 172.553 44.1892 172.553 48.906C172.553 51.9477 169.85 53.1672 167.097 53.1672C165.807 53.1672 164.493 52.9377 163.255 52.6088L163.456 49.8206C164.517 50.3549 165.629 50.6838 166.79 50.6838C167.649 50.6838 169.011 50.3549 169.011 49.0841C169.011 46.5219 163.125 48.2723 163.125 43.5555C163.125 40.7399 165.578 39.4965 168.229 39.4965C169.823 39.4965 170.857 39.7499 171.918 39.9794L171.693 42.5416Z" fill="white"/>
<path d="M175.254 33.8445H178.639V52.8657H175.254V33.8445Z" fill="white"/>
<path d="M188.162 39.4965C192.028 39.4965 194.983 42.11 194.983 46.4192C194.983 50.1734 192.482 53.1672 188.162 53.1672C183.866 53.1672 181.365 50.1734 181.365 46.4192C181.365 42.11 184.324 39.4965 188.162 39.4965ZM188.162 50.5296C190.766 50.5296 191.448 48.1969 191.448 46.015C191.448 44.0111 190.387 42.134 188.162 42.134C185.965 42.134 184.904 44.0625 184.904 46.015C184.904 48.173 185.586 50.5296 188.162 50.5296Z" fill="white"/>
<path d="M196.17 39.8047H199.759L202.639 49.4677H202.69L205.318 39.8047H209.259L212.091 49.4677H212.138L214.841 39.8047H218.075L214.083 52.8657H210.091L207.263 42.8978H207.211L204.431 52.8657H200.565L196.17 39.8047Z" fill="white"/>
</svg>
