<svg width="352" height="75" viewBox="0 0 352 75" fill="none" xmlns="http://www.w3.org/2000/svg" preserveAspectRatio="xMinYMid" aria-hidden="true" focusable="false">
<path d="M38.7823 59.1819C38.6493 59.1452 38.443 58.9938 38.4339 58.7186C38.4339 58.6589 38.4431 58.5947 38.4706 58.5351C38.3972 58.5534 38.333 58.5626 38.2689 58.5626C38.0901 58.5672 37.9846 58.4433 37.8838 58.3607C38.3239 58.503 38.4889 58.3424 38.6631 58.2644L38.7731 58.4158C38.6585 58.5442 38.6264 58.6452 38.6264 58.7232C38.6218 58.8195 38.686 58.8975 38.741 58.9479C38.7777 58.8791 38.8327 58.8241 38.8923 58.769C38.9931 58.6819 39.1169 58.613 39.2453 58.5947L39.3003 58.5855L39.3324 58.6314C39.4195 58.7369 39.4286 58.7736 39.5203 58.7736C39.5983 58.7736 39.7495 58.7323 40.0062 58.6039L40.1117 58.5534C40.1117 58.5534 40.1438 59.2415 40.7947 58.9984C40.726 59.1131 40.5884 59.1819 40.4601 59.1773C40.2676 59.1773 40.0888 59.0443 39.9925 58.8241C39.777 58.925 39.6395 58.9663 39.5158 58.9663C39.3645 58.9663 39.2774 58.8745 39.2132 58.7966C39.149 58.8195 38.8006 58.9892 38.906 59.2186C38.8327 59.2094 38.7823 59.1819 38.7823 59.1819Z" fill="#242424"/>
<path d="M39.0115 58.1269C38.9977 58.1223 38.984 58.1086 38.9794 58.0948C38.9748 58.081 38.9748 58.0627 38.9886 58.0489C39.0344 57.9893 39.0619 57.8654 39.0573 57.737C39.0573 57.6544 39.0482 57.5718 39.0344 57.5122C39.0298 57.4847 39.0252 57.4617 39.0161 57.448C38.9473 57.503 38.8694 57.526 38.8006 57.526C38.6769 57.526 38.5898 57.4617 38.5852 57.4617C38.5668 57.448 38.5577 57.4296 38.5668 57.4067C38.5714 57.3837 38.5898 57.37 38.6127 57.37C38.6585 57.3654 38.6723 57.3562 38.686 57.3379C38.6998 57.3195 38.7089 57.2874 38.7089 57.2369C38.7089 57.0626 38.6035 56.7552 38.5989 56.4662C38.5943 56.2323 38.6723 55.9937 38.9427 55.8607C39.1353 55.7643 39.1949 55.4661 39.2361 55.2826C39.2544 55.223 39.259 55.1725 39.3003 55.1358C39.3232 55.1175 39.3553 55.1175 39.3736 55.1358C39.392 55.1588 39.392 55.1909 39.3691 55.2092C39.3691 55.2092 39.3691 55.2092 39.3645 55.2092C39.3645 55.2138 39.3599 55.223 39.3553 55.2322C39.3461 55.2459 39.3415 55.2735 39.3324 55.301C39.3186 55.3606 39.3003 55.434 39.2774 55.5166C39.2315 55.6772 39.1536 55.8607 38.984 55.9524C38.7594 56.0671 38.6998 56.246 38.6998 56.4616C38.6998 56.7277 38.8052 57.0259 38.8098 57.2324C38.8098 57.292 38.8006 57.3424 38.7685 57.3929C38.7639 57.4021 38.7548 57.4113 38.7502 57.4159C38.7639 57.4204 38.7823 57.4204 38.8006 57.4204C38.8602 57.4204 38.9198 57.4021 38.984 57.3241C38.9932 57.3103 39.0069 57.3057 39.0207 57.3057C39.0344 57.3012 39.0482 57.3103 39.0619 57.3195C39.0986 57.3608 39.1123 57.4159 39.1307 57.4893C39.1444 57.5627 39.1536 57.6498 39.1536 57.7416C39.1536 57.8471 39.1444 57.9526 39.1032 58.0398C39.1078 58.0398 39.1123 58.0398 39.1169 58.0398C39.3049 58.0398 39.6716 57.9434 39.9512 57.6315C39.9604 57.6177 39.9787 57.6131 39.9925 57.6131C40.0292 57.6177 40.0658 57.6406 40.0796 57.6682C40.0934 57.6957 40.0979 57.7278 40.0979 57.7599C40.0979 57.815 40.0842 57.8654 40.0658 57.9159C40.1759 57.8975 40.3409 57.8563 40.5059 57.7553C40.7397 57.6131 40.9735 57.3608 41.0606 56.8929C41.0652 56.8699 41.0835 56.8516 41.111 56.8516C41.1752 56.8516 41.2073 56.8195 41.2348 56.7782C41.2623 56.7461 41.2761 56.7048 41.299 56.6681C41.299 56.6314 41.2807 56.5213 41.2577 56.3882C41.2348 56.2552 41.2165 56.0946 41.2165 55.9478C41.2165 55.8102 41.2348 55.6817 41.3036 55.59C41.3219 55.5671 41.354 55.5625 41.3769 55.5808C41.3998 55.5992 41.4044 55.6313 41.3861 55.6542C41.3448 55.7047 41.3219 55.8148 41.3219 55.9432C41.3219 56.0809 41.3403 56.2323 41.3632 56.3653C41.3861 56.5029 41.4044 56.6084 41.409 56.6681C41.4044 56.6818 41.4136 56.6956 41.3907 56.7231C41.3815 56.7277 41.3586 56.7828 41.3219 56.8378C41.2898 56.8791 41.2348 56.9296 41.1615 56.9433C41.0652 57.4159 40.8131 57.6865 40.5655 57.8379C40.3088 57.9939 40.0658 58.0214 39.9787 58.0214C39.9558 58.0214 39.9375 58.0122 39.9283 57.9939C39.9192 57.9755 39.9237 57.9526 39.9375 57.9388C39.965 57.9067 40.0017 57.8104 39.9971 57.7507C39.9971 57.7416 39.9971 57.7324 39.9971 57.7278C39.6991 58.0398 39.3278 58.1407 39.1169 58.1407C39.0802 58.1407 39.0436 58.1361 39.0115 58.1269Z" fill="#242424"/>
<path d="M44.4437 54.1585C44.6362 54.0347 44.7966 54.3833 44.815 54.3695C44.8333 54.3558 44.9525 54.3145 44.9158 54.1815C44.8792 54.0484 44.6774 53.897 44.462 53.8741C44.2465 53.8512 44.0861 54.0071 44.0219 54.0117C43.4076 54.0209 43.371 54.7824 43.646 54.9935C43.1647 55.1494 42.775 54.7044 43.2609 54.5118C42.9905 54.1906 42.1791 55.0898 43.3755 55.4293C42.8484 56.0486 43.5039 56.1725 43.7331 56.067C43.6643 56.067 43.3939 55.7183 43.8798 55.7183C44.5445 55.7183 44.0036 56.6266 43.6093 57.6497C43.2151 58.6727 43.6277 59.5902 43.6277 59.5902C43.6277 59.5902 43.3664 59.4251 43.1051 59.2691C42.6421 59.0397 42.8071 58.6589 43.1142 58.7507C43.183 58.5672 42.5733 58.3929 42.5733 58.9663C42.5733 59.5443 43.3159 59.604 43.5772 60.0444C43.3572 59.9618 43.0959 60.182 43.0959 60.182C42.7888 60.5628 43.0684 60.994 43.5222 60.8656C43.0501 60.5169 43.6827 60.182 43.9211 60.6362C44.2511 61.2738 43.8065 62.0079 43.5543 62.017C43.3022 62.0262 42.9676 62.1226 42.7063 61.1867C42.4725 60.3472 41.5373 59.8563 41.1568 59.0122V59.0076C41.3677 59.0626 41.5877 58.8057 41.6381 58.6268C41.5419 58.7048 41.4456 58.6635 41.3218 58.6085C41.1981 58.5534 41.1751 57.8469 41.3127 57.8469C41.4502 57.8469 41.574 57.7873 41.5556 57.6084C41.2852 57.7139 41.3723 57.2689 41.6336 57.0579C41.8949 56.8468 41.8261 55.9064 41.7482 55.7458C41.9315 55.7642 42.3487 55.154 42.3441 55.021C42.3349 54.8925 42.1149 54.943 42.0828 54.8788C42.0461 54.8191 42.0736 54.732 42.0461 54.5806C42.0186 54.4338 41.8261 54.4842 41.7252 54.4751C41.8032 54.42 41.8398 53.9934 41.7757 54.0117C41.7161 54.0255 41.6106 54.131 41.5144 54.131C41.6519 53.9475 41.5465 53.5988 41.4639 53.53C41.4639 53.53 41.4594 53.9108 41.0055 53.7915C40.5975 53.6906 40.3592 53.8833 40.2446 53.9934C40.1666 53.9521 40.2354 53.8007 40.1941 53.7456C40.1529 53.6906 39.9191 53.5759 39.8595 53.7456C39.644 54.3741 39.3048 54.186 39.4973 54.4842C38.8418 54.3007 38.9839 55.0669 38.4705 54.8558C38.4751 54.8788 38.4567 55.0164 38.718 55.1403C38.4521 55.4614 38.5301 55.7733 37.9387 55.7183C37.9296 55.7963 37.9204 55.9247 38.1679 55.9844C38.0304 55.9981 37.9937 56.1908 37.9295 56.3927C37.5491 55.81 36.9852 55.4843 36.7056 55.1357C36.403 54.7549 36.811 54.6219 36.9577 54.3604C37.164 53.998 36.8614 53.6034 36.4718 53.6034C36.6001 53.8374 36.6276 54.4062 36.3251 54.3695C36.2976 54.1402 35.8346 53.4796 35.3899 54.0897C35.6008 53.9842 36.073 54.264 36.0546 55.0302C35.8804 54.9705 35.0782 54.8834 35.3487 55.755C35.4083 55.1678 36.293 55.5119 36.2472 55.7045C36.2013 55.8972 36.0134 56.0165 35.7337 56.122C35.8896 56.4477 36.2288 56.2872 36.3159 56.2367C36.403 56.1862 36.7331 56.6129 36.6551 56.856C36.5772 57.0992 36.5681 57.2505 36.8798 57.3377C36.8798 57.7368 37.2328 57.8378 37.3107 57.9295C37.3611 57.9891 37.4665 58.1818 37.4161 58.3653C37.1823 58.4341 36.7835 58.5075 36.403 58.4158C36.018 58.324 36.1555 57.3561 35.4999 57.7414C35.6604 57.7185 35.8575 58.1726 35.7842 58.4433C35.4999 58.402 35.5825 58.0993 35.2937 58.0029C34.8261 57.8378 34.5785 58.2919 34.7206 58.5121C34.8123 58.0992 35.4679 58.3516 35.5962 58.769C34.8536 58.8654 34.739 59.6131 35.1011 59.7324C35.014 59.3425 35.6466 58.948 36.0592 59.2645C36.4718 59.5719 36.073 59.7645 35.9675 59.7967C36.403 60.0398 36.5176 59.4939 36.756 59.4572C36.9944 59.4205 37.0769 59.5719 37.2098 59.7187C37.2649 59.659 37.3565 59.5948 37.5032 59.5076C37.8562 59.8242 38.145 59.9022 38.4201 59.8563C38.7685 59.87 39.9649 59.7324 41.1247 60.8839C40.3316 60.8747 39.7265 60.5628 39.4515 60.5903C39.126 60.6178 38.8876 60.838 38.7455 60.838C38.31 60.838 38.2779 60.26 38.7043 60.4343C38.4842 60.0627 38.0625 60.2967 38.0625 60.5765C38.0625 60.861 38.2963 60.9848 38.3742 61.017C38.1129 61.1271 37.7599 60.9023 37.7141 60.8243C37.6637 60.7417 37.7874 61.3289 38.4613 61.3977C38.2642 61.6042 38.0762 61.7922 38.2 62.118C38.2 62.118 37.7416 61.7464 37.3932 61.7051C37.4161 61.5812 37.5949 61.127 37.0356 60.9665C37.0356 60.9665 37.2969 61.3702 37.0127 61.5216C36.6827 60.9068 35.8621 61.2234 36.0317 61.7464C36.0317 61.7464 36.3939 61.1959 36.8752 61.9207C36.7102 61.8978 36.0317 62.095 36.1876 62.6639C36.1876 62.6639 36.7514 62.1638 37.2144 62.2097C37.4436 62.3749 37.1411 63.0125 37.0265 63.1915C37.2328 63.2465 37.5628 62.9621 37.8058 62.7419C38.4567 62.9437 38.3696 63.6043 38.8326 63.7695C38.7639 63.4988 38.8143 63.352 38.9106 63.3061C39.0114 63.4575 39.236 63.8567 39.534 63.6089C38.6355 62.9575 39.8778 61.9849 40.6342 62.2831C40.6205 62.3152 40.6067 62.3473 40.5929 62.3794C40.5196 62.6593 40.5013 62.9162 40.5242 63.1226C40.57 63.297 40.2125 63.6456 40.0795 63.0814C39.699 63.5676 40.3592 63.8429 40.5609 63.6365C40.5884 63.8062 40.4279 64.2237 39.9833 64.0998C40.3775 64.6457 40.8497 63.8658 40.8818 63.8934C41.0376 64.0172 41.331 64.2512 41.3952 64.2971C40.9138 64.5356 40.9413 65.1274 40.758 65.1228C40.57 65.1182 40.6571 64.9164 40.3637 64.8109C39.8091 64.7283 39.722 65.1045 39.7678 65.1916C39.9191 65.0448 40.2537 65.1779 40.3133 65.343C39.8778 65.3017 39.1352 65.5816 39.5661 66.1137C39.7311 65.6733 40.6938 65.6458 40.6938 65.6458C40.7305 66.1046 40.1391 66.1963 40.5242 66.6551C41.0926 66.5037 41.0376 65.6871 41.1568 65.7651C41.2806 65.8385 41.3631 65.7513 41.441 65.6917C41.5465 65.7513 41.7573 65.8798 41.7161 66.2009C42.1149 66.2101 42.0278 65.577 41.9544 65.4164C42.257 65.4348 42.6192 65.1503 42.5916 64.6365C43.0959 65.0219 43.3068 64.5127 43.3068 64.5127C42.8163 64.7008 42.8254 64.2512 43.0501 64.0356C43.4168 64.0172 43.5314 63.5998 43.5039 63.5218C43.426 63.5952 43.3251 63.6915 43.1051 63.6686C42.4404 63.5218 42.5321 62.1455 42.5733 61.962C42.6283 62.1363 43.0042 62.485 43.4672 62.4712C43.9302 62.4574 44.5262 62.0492 44.4437 61.1867C44.3611 60.3196 43.8477 59.7737 43.9669 58.3516C43.9852 58.1038 44.3153 57.9066 44.4574 58.0717C44.5812 58.3516 44.3703 58.3195 44.3382 58.4296C44.815 58.3607 44.7095 57.957 44.5537 57.7781C44.5078 57.4983 44.3474 57.4937 44.0769 57.5029C44.0632 57.1955 44.6866 56.7964 44.8562 56.067C45.0258 55.3329 44.3336 55.0348 44.2328 54.7503C44.1182 54.4888 44.2511 54.2824 44.4437 54.1585ZM40.2262 54.6723C40.2308 54.6723 40.2354 54.6769 40.24 54.6769C40.2354 54.6632 40.2354 54.6494 40.2308 54.6402C40.2216 54.5531 40.2583 54.5209 40.2262 54.4017C40.1941 54.2824 40.1345 54.2457 40.1345 54.2457C40.1987 54.2595 40.2445 54.2916 40.2766 54.3329C40.3087 54.3696 40.3225 54.4154 40.3271 54.4613C40.3408 54.5485 40.3362 54.6402 40.3546 54.6815C40.3683 54.7136 40.3821 54.7503 40.4142 54.7549C40.4508 54.7595 40.5196 54.6448 40.6296 54.6448C40.6159 54.6632 40.5975 54.6723 40.5792 54.709C40.5609 54.7412 40.5471 54.7778 40.515 54.81C40.4967 54.8329 40.46 54.8513 40.4233 54.8513C40.4142 54.8513 40.405 54.8512 40.3958 54.8467C40.3958 54.8512 40.3958 54.8558 40.3958 54.8604C40.3958 54.8834 40.3913 54.9017 40.3867 54.9201C40.3683 54.8971 40.3362 54.8834 40.2996 54.8834C40.24 54.8834 40.1941 54.9201 40.1941 54.9614C40.1941 54.9981 40.2308 55.0302 40.2766 55.0393C40.2583 55.0439 40.24 55.0485 40.2216 55.0485C40.1208 55.0485 40.0429 54.9659 40.0429 54.8604C40.0429 54.7595 40.1254 54.6723 40.2262 54.6723ZM40.7213 56.4661C40.6205 56.5899 40.5013 56.7184 40.4417 56.8468C40.3821 56.9707 40.3546 57.0946 40.3271 57.1817C40.3133 57.2276 40.2996 57.2597 40.2904 57.2781C40.2767 57.2964 40.2766 57.2918 40.2675 57.2918C40.2675 57.2918 40.2583 57.2918 40.2537 57.2873C40.2125 57.2781 40.162 57.2093 40.0887 57.09C40.0566 57.0395 39.997 57.0028 39.9099 57.0028C39.7907 57.0028 39.6761 57.2414 39.4286 57.09C39.1764 56.934 39.3415 56.778 39.3094 56.6266C39.291 56.5487 39.2406 56.5349 39.1948 56.5349C39.1214 56.5349 39.0618 56.5349 39.016 56.5257C38.9747 56.512 38.9564 56.5028 38.9381 56.4661C38.9243 56.4431 38.9243 56.4294 38.9243 56.4202C38.9243 56.4064 38.9243 56.4064 38.9427 56.3881C38.9931 56.3376 39.1719 56.2688 39.2544 56.0348C39.3048 55.888 39.3644 55.7183 39.4332 55.5898C39.4652 55.5256 39.5019 55.4752 39.534 55.4385C39.5661 55.4063 39.5936 55.3926 39.6074 55.3926C39.6165 55.3926 39.6257 55.3926 39.6394 55.4018C39.6624 55.4201 39.6715 55.443 39.6761 55.4843C39.3827 55.8146 39.3552 56.2138 39.3552 56.2138C39.3552 56.2138 39.4882 55.989 39.6165 55.8789C39.6211 55.9385 39.644 56.0027 39.7082 56.0348C39.722 56.044 39.7357 56.0486 39.7449 56.0532C39.7907 56.0715 39.8366 56.0807 39.8778 56.0807C39.9145 56.0807 39.942 56.0761 39.9741 56.0715C40.0291 56.0624 40.0704 56.0486 40.0933 56.0486C40.0612 55.9156 39.997 55.4155 39.997 55.4155L40.1987 55.9018C40.24 55.9018 40.648 55.8559 40.703 55.8467C40.3958 55.966 40.2766 56.0257 40.1254 56.0715C40.1299 56.0761 40.1299 56.0807 40.1345 56.0899C40.1437 56.1128 40.1483 56.1495 40.1575 56.1908C40.162 56.2046 40.162 56.2183 40.1666 56.2321C40.1758 56.2596 40.185 56.2872 40.2033 56.3147C40.2079 56.3285 40.2216 56.3422 40.2354 56.3514C40.2491 56.3651 40.2675 56.3743 40.2858 56.3789C40.295 56.3835 40.3087 56.3835 40.3179 56.3835C40.3454 56.3835 40.3683 56.3743 40.3912 56.3651C40.3729 56.5257 40.2262 56.8331 40.2262 56.8331C40.2262 56.8331 40.625 56.6037 40.7259 56.1128C40.7763 56.0853 40.8222 56.0624 40.8451 56.0624C40.8634 56.067 40.868 56.067 40.8818 56.0853C40.8909 56.1037 40.8955 56.122 40.8955 56.1404C40.9047 56.2138 40.8222 56.3422 40.7213 56.4661ZM41.1568 55.5027C41.1339 55.5164 41.1018 55.5256 41.0697 55.5256C40.9689 55.5256 40.8909 55.443 40.8909 55.3375C40.8909 55.2687 40.9276 55.2091 40.9826 55.177C40.978 55.1724 40.9734 55.1678 40.9734 55.1586C40.9551 55.1265 40.9551 55.0898 40.9643 55.0623C40.978 55.0164 41.0055 54.9843 41.0193 54.9568C41.0376 54.9246 41.0422 54.8971 41.0514 54.8834C41.1064 54.9797 41.0376 55.099 41.0605 55.1219C41.0835 55.1494 41.1201 55.1403 41.1522 55.1403C41.2026 55.1357 41.276 55.0898 41.3631 55.0531C41.4044 55.0393 41.4502 55.0256 41.5006 55.0302C41.551 55.0347 41.6015 55.0623 41.6427 55.1127C41.6427 55.1127 41.5831 55.0806 41.4639 55.1127C41.3448 55.1448 41.3356 55.1953 41.2531 55.2274C41.2439 55.232 41.2302 55.2366 41.221 55.2366C41.2393 55.2687 41.2485 55.3008 41.2485 55.3375C41.2485 55.3559 41.2485 55.3651 41.2439 55.3788C41.2256 55.3559 41.1935 55.3421 41.1568 55.3421C41.0972 55.3421 41.0514 55.3788 41.0514 55.4201C41.0468 55.4706 41.0972 55.5027 41.1568 55.5027Z" fill="#242424"/>
<path d="M22.1692 18.3481C21.7795 18.5729 20.8306 19.2152 21.1378 20.5272C20.2163 21.6466 20.2163 23.4312 22.1142 24.2386C22.6689 23.9587 22.866 23.2614 22.7835 23.0091C23.1181 23.2018 23.5399 23.8165 24.4888 23.4587C24.4063 22.399 24.067 21.8943 23.8195 21.6145C24.0991 21.4998 24.4063 21.2796 24.6034 20.9447C24.3237 20.1924 22.788 20.1923 22.3159 19.8024C21.8345 19.4079 21.9216 18.8803 22.1692 18.3481Z" fill="#242424"/>
<path d="M61.5884 69.536C61.7947 69.2562 62.111 69.1323 62.5053 69.1323C62.9912 69.1323 63.5688 69.3388 64.0043 69.6416C64.449 69.9443 64.7286 70.3435 64.7194 70.66C64.7194 70.7013 64.7148 70.7472 64.7057 70.793C64.614 71.1692 64.449 71.3894 64.1922 71.5408C63.9355 71.6922 63.5688 71.7656 63.092 71.7656C62.9041 71.7656 62.6978 71.7518 62.4778 71.7335C62.5419 71.55 62.6382 71.2701 62.7299 70.9674L62.7941 70.7701L62.5924 70.715C62.354 70.6462 62.0606 70.504 61.8452 70.3297C61.6251 70.1508 61.4968 69.9489 61.5013 69.7929C61.5013 69.7058 61.5197 69.6324 61.5884 69.536Z" fill="#242424"/>
<path d="M61.5886 70.6372C61.7995 70.8069 62.047 70.9446 62.2854 71.0363C62.1983 71.307 62.1158 71.5409 62.0653 71.6832C61.6757 71.6281 61.2631 71.4354 60.8459 71.1602C60.9376 70.9675 61.1118 70.5959 61.2539 70.2839C61.3502 70.4124 61.4648 70.5362 61.5886 70.6372Z" fill="#242424"/>
<path d="M58.43 71.6832C58.3383 71.7062 58.1962 71.7245 58.0174 71.7245C57.3252 71.7245 56.092 71.4951 54.593 71.1832C54.6801 70.8712 54.8589 70.2611 55.0102 69.7427C55.134 69.9032 55.3036 70.0363 55.4915 70.1464C56.0691 70.4859 56.8759 70.6785 57.5315 70.8896C57.8615 70.9951 58.1503 71.1006 58.3383 71.2107C58.4346 71.2657 58.5033 71.3208 58.54 71.3667C58.5767 71.4171 58.5858 71.4447 58.5904 71.4814C58.5904 71.5043 58.5858 71.5318 58.5721 71.5639L58.5629 71.5594L58.5171 71.6465C58.4987 71.6557 58.4712 71.6695 58.43 71.6832Z" fill="#242424"/>
<path d="M62.455 74.9173C62.2762 74.9632 62.0837 74.9907 61.8774 74.9907C61.1256 74.9907 60.2042 74.6833 59.4432 74.3392C59.0627 74.1649 58.7189 73.9814 58.453 73.8254C58.2834 73.7245 58.1413 73.6328 58.045 73.5685L58.9023 71.8986C58.9252 71.8757 58.9435 71.8436 58.9619 71.8161C59.0215 71.7106 59.0536 71.5959 59.0536 71.4812C59.0536 71.2931 58.9527 71.1279 58.8244 71.0133C58.5951 70.8114 58.2605 70.683 57.88 70.5499C57.307 70.3618 56.624 70.1875 56.0968 69.9627C55.8355 69.848 55.6154 69.7241 55.4733 69.5819C55.3266 69.4443 55.2625 69.3113 55.2625 69.1461C55.2625 69.1094 55.267 69.0727 55.2716 69.0314C55.2945 68.9488 55.3129 68.8938 55.3175 68.8709C55.3725 68.7332 55.4642 68.6506 55.6017 68.591C55.7392 68.5314 55.9272 68.4993 56.1197 68.4993C56.4819 68.4993 56.8715 68.5956 57.0503 68.6552C57.5041 68.802 58.0405 69.247 58.6089 69.7792C59.1819 70.3113 59.7962 70.9261 60.4747 71.394C60.9789 71.7381 61.4969 72.0088 62.0378 72.0776C62.4229 72.128 62.7713 72.1556 63.0922 72.1556C63.3948 72.1556 63.6652 72.128 63.9128 72.0684C63.326 72.94 62.9501 73.7429 62.455 74.9173Z" fill="#242424"/>
<path d="M44.462 71.2886C44.4116 71.2702 44.3658 71.2564 44.3153 71.2519L44.1686 71.2427L44.1228 71.9125L44.2695 71.9262C44.3566 71.9308 44.4345 71.9125 44.5033 71.8758C44.572 71.8391 44.6133 71.7519 44.6179 71.6235C44.6225 71.5271 44.6087 71.4583 44.5812 71.4032C44.5491 71.3436 44.5125 71.3069 44.462 71.2886Z" fill="#242424"/>
<path d="M43.0776 71.2014C43.041 71.1785 42.9859 71.1693 42.9126 71.1647L42.8438 71.1602L42.8301 71.4354L42.9034 71.44C42.9859 71.4446 43.0455 71.4354 43.0776 71.4171C43.1097 71.3987 43.128 71.3666 43.128 71.3115C43.128 71.2611 43.1097 71.2244 43.0776 71.2014Z" fill="#242424"/>
<path d="M47.8682 71.7245C47.8498 71.697 47.8177 71.674 47.7856 71.6557C47.749 71.6373 47.7077 71.6235 47.6619 71.619C47.5702 71.6052 47.4968 71.6281 47.4372 71.674C47.3822 71.7199 47.3456 71.7841 47.3364 71.8713C47.3272 71.9584 47.341 72.0318 47.3914 72.0915C47.4372 72.1511 47.5014 72.1878 47.5931 72.197C47.6573 72.2062 47.7123 72.2016 47.7581 72.1786C47.804 72.1603 47.8407 72.1328 47.8682 72.0915C47.8957 72.0502 47.914 71.9997 47.9232 71.9493C47.9277 71.9034 47.9277 71.8667 47.9186 71.83C47.9094 71.7841 47.8911 71.752 47.8682 71.7245Z" fill="#242424"/>
<path d="M41.3999 71.6053L41.7346 71.6099L41.5787 71.1924L41.3999 71.6053Z" fill="#242424"/>
<path d="M33.9232 71.7107C33.9095 71.6786 33.8866 71.651 33.8591 71.6281C33.8316 71.6051 33.7949 71.5868 33.7628 71.5776C33.7215 71.5684 33.6803 71.5639 33.6344 71.5685C33.5428 71.5776 33.474 71.6189 33.4282 71.674C33.3823 71.7336 33.364 71.807 33.3731 71.8896C33.3823 71.9767 33.419 72.0456 33.474 72.0914C33.5336 72.1419 33.6069 72.1602 33.6986 72.1465C33.7628 72.1419 33.8132 72.1235 33.8545 72.0914C33.8957 72.0639 33.9232 72.0226 33.9416 71.9767C33.9599 71.9309 33.9645 71.8804 33.9599 71.8208C33.9462 71.7795 33.937 71.7428 33.9232 71.7107Z" fill="#242424"/>
<path d="M38.3057 71.1786C38.269 71.1603 38.214 71.1511 38.1361 71.1511L38.0627 71.1557L38.0765 71.4264L38.1498 71.4218C38.2324 71.4218 38.292 71.408 38.3195 71.3897C38.3515 71.3713 38.3653 71.3346 38.3607 71.2842C38.3607 71.2337 38.3424 71.197 38.3057 71.1786Z" fill="#242424"/>
<path d="M37.0174 71.353C36.9899 71.3255 36.9579 71.3071 36.9212 71.298C36.8845 71.2842 36.8432 71.2796 36.7928 71.2842C36.7011 71.2888 36.6324 71.3209 36.5819 71.3805C36.5315 71.4356 36.5132 71.509 36.5178 71.5962C36.5224 71.6787 36.5544 71.7475 36.6094 71.8026C36.6645 71.8485 36.7378 71.8714 36.8295 71.8668C36.8937 71.8622 36.9441 71.8485 36.9853 71.8209C37.0266 71.7888 37.0587 71.7521 37.077 71.7108C37.1 71.665 37.1045 71.6145 37.1 71.5594C37.1 71.5182 37.0908 71.4769 37.077 71.4448C37.0633 71.4081 37.0449 71.376 37.0174 71.353Z" fill="#242424"/>
<path d="M58.0496 72.0777C57.2657 72.0777 56.0097 71.83 54.4694 71.5135C52.9291 71.1923 51.1183 70.8024 49.2618 70.495C45.8374 69.9353 41.6475 69.894 40.0613 69.894C38.4798 69.894 34.7483 69.9353 31.3239 70.495C29.4673 70.8024 27.6566 71.1923 26.1163 71.5135C24.576 71.8346 23.32 72.0777 22.5361 72.0777C22.4444 72.0777 22.3619 72.0777 22.2839 72.0686L23.7692 74.9633C25.9879 74.633 31.8052 72.876 40.2814 72.876C48.7621 72.876 54.5977 74.633 56.821 74.9633L58.3063 72.0686C58.2238 72.0777 58.1413 72.0777 58.0496 72.0777ZM24.5852 73.9678L24.3468 72.8622L24.6815 72.7888L24.8602 73.6329L25.3691 73.5228L25.4241 73.7889L24.5852 73.9678ZM25.6762 73.7384L25.447 72.6282L26.2722 72.4585L26.318 72.6833L25.8321 72.7842L25.8733 72.9861L26.3409 72.8897L26.3868 73.1145L25.9238 73.2109L25.9696 73.4494L26.4739 73.3485L26.5197 73.5687L25.6762 73.7384ZM27.4549 73.3806L27.1202 73.4494L26.9598 72.6053L26.5518 72.6833L26.5014 72.4126L27.652 72.1924L27.7024 72.4631L27.2944 72.5411L27.4549 73.3806ZM29.7332 72.7154C29.7103 72.7888 29.669 72.853 29.6186 72.8989C29.5682 72.9494 29.5086 72.9861 29.4444 73.0136C29.3802 73.0411 29.3161 73.0595 29.2427 73.0732C29.1464 73.087 29.0548 73.087 28.9585 73.0686C28.8622 73.0549 28.7797 73.009 28.7064 72.9448C28.633 72.876 28.5872 72.7842 28.5642 72.6603L28.4588 72.041L28.7935 71.9814L28.8851 72.5136C28.8989 72.587 28.9172 72.6466 28.9493 72.6879C28.9768 72.7337 29.0135 72.7659 29.0548 72.7796C29.096 72.798 29.1418 72.798 29.1969 72.7888C29.2427 72.7842 29.2885 72.7659 29.3206 72.7338C29.3573 72.7016 29.3802 72.6604 29.3894 72.6099C29.4031 72.5594 29.4031 72.4998 29.3894 72.4218L29.2977 71.8896L29.6324 71.8346L29.7378 72.4493C29.7607 72.5548 29.7561 72.642 29.7332 72.7154ZM30.8609 72.6512C30.8334 72.7062 30.7876 72.7567 30.728 72.7934C30.6684 72.8301 30.595 72.853 30.5171 72.8668C30.4942 72.8714 30.4667 72.8714 30.43 72.876C30.3979 72.8806 30.3475 72.8806 30.2925 72.876C30.2329 72.8714 30.1733 72.8576 30.1091 72.8439L30.0678 72.5686C30.132 72.5961 30.1916 72.6191 30.2512 72.6328C30.3062 72.6466 30.3704 72.6512 30.43 72.642C30.485 72.6328 30.5217 72.6191 30.5354 72.5961C30.5492 72.5732 30.5538 72.5548 30.5538 72.5365C30.5492 72.5044 30.5309 72.4814 30.4988 72.4631C30.4667 72.4493 30.4208 72.4356 30.3612 72.4218C30.2971 72.4034 30.2375 72.3851 30.187 72.3622C30.1366 72.3392 30.0908 72.3071 30.0541 72.2658C30.0174 72.2245 29.9945 72.1741 29.9853 72.1098C29.9762 72.0502 29.9808 71.9952 30.0037 71.9401C30.0266 71.8851 30.0678 71.8392 30.1229 71.7979C30.1779 71.7612 30.2512 71.7337 30.3383 71.7245C30.4025 71.7153 30.4621 71.7107 30.5125 71.7153C30.5675 71.7199 30.6134 71.7245 30.65 71.7337C30.6867 71.7428 30.7142 71.752 30.728 71.7566L30.7692 72.0227C30.7188 71.9952 30.6638 71.9722 30.6042 71.9585C30.5446 71.9401 30.4804 71.9355 30.4162 71.9447C30.375 71.9539 30.3429 71.963 30.3291 71.9814C30.3154 71.9997 30.3062 72.0227 30.3108 72.0456C30.3154 72.0686 30.3246 72.0823 30.3475 72.1007C30.3704 72.1144 30.4071 72.1282 30.4575 72.142C30.5492 72.1695 30.6225 72.1924 30.6821 72.2199C30.7371 72.2429 30.7876 72.275 30.8197 72.3117C30.8563 72.353 30.8792 72.4034 30.8884 72.4631C30.8976 72.5319 30.8884 72.5961 30.8609 72.6512ZM32.7588 72.4768C32.745 72.486 32.7267 72.4952 32.7129 72.4998C32.6992 72.509 32.6762 72.5181 32.6441 72.5273C32.5937 72.5457 32.5433 72.564 32.4975 72.5732C32.447 72.5869 32.392 72.5961 32.337 72.6007C32.2224 72.6145 32.117 72.6099 32.0115 72.5824C31.9107 72.5548 31.8236 72.4998 31.7548 72.4218C31.6861 72.3392 31.6402 72.2337 31.6265 72.1098C31.6127 72.0273 31.6173 71.9447 31.6402 71.8575C31.6586 71.7749 31.6952 71.7061 31.7502 71.6511C31.7961 71.6052 31.8419 71.5685 31.8924 71.541C31.9428 71.5089 31.9886 71.4905 32.039 71.4768C32.0895 71.463 32.1399 71.4538 32.1995 71.4446C32.3003 71.4309 32.3829 71.4263 32.447 71.4355C32.5112 71.4401 32.5846 71.4538 32.6671 71.463L32.7037 71.7291C32.6487 71.7061 32.5937 71.6878 32.5295 71.674C32.4699 71.6603 32.4012 71.6603 32.3141 71.674C32.2178 71.6878 32.1399 71.7107 32.0895 71.7612C32.0345 71.8071 32.0024 71.8529 31.984 71.9126C31.9703 71.963 31.9611 72.0181 31.9703 72.064C31.9794 72.119 31.9978 72.1695 32.0299 72.2154C32.062 72.2566 32.1078 72.2933 32.1674 72.3163C32.2224 72.3392 32.2912 72.3438 32.3645 72.3346C32.4104 72.3255 32.4516 72.3163 32.502 72.2979L32.4837 72.1649L32.3324 72.1833L32.3003 71.9585L32.7496 71.8988L32.8183 72.4356C32.7954 72.4585 32.7771 72.4677 32.7588 72.4768ZM34.2578 72.0823C34.2211 72.1787 34.1569 72.2566 34.0652 72.3209C33.9736 72.3805 33.859 72.4218 33.7214 72.4402C33.5793 72.4539 33.4601 72.4402 33.3593 72.3989C33.2584 72.353 33.1759 72.2888 33.1209 72.2062C33.0659 72.1236 33.0292 72.0319 33.0201 71.9309C33.0063 71.8346 33.02 71.7337 33.0567 71.6419C33.0934 71.5502 33.1576 71.4676 33.2493 71.4034C33.3409 71.3391 33.4555 71.2978 33.5931 71.2841C33.6985 71.2703 33.7902 71.2749 33.8773 71.2978C33.9644 71.3208 34.0332 71.3529 34.0927 71.3988C34.1523 71.4446 34.1982 71.5043 34.2349 71.5685C34.2715 71.6373 34.2899 71.7107 34.299 71.7887C34.3128 71.8896 34.299 71.9906 34.2578 72.0823ZM35.5276 72.2383L35.1838 72.2704L35.0875 71.1373L35.8943 71.0685L35.9172 71.2978L35.4497 71.3391L35.468 71.5547L35.9356 71.5135L35.9539 71.7428L35.4863 71.7841L35.5276 72.2383ZM37.3979 71.83C37.3567 71.9218 37.2879 71.9952 37.1962 72.0548C37.1046 72.1144 36.9899 72.1466 36.8524 72.1557C36.7103 72.1649 36.5911 72.1465 36.4903 72.1007C36.3894 72.0502 36.3115 71.986 36.2611 71.8988C36.2106 71.8162 36.1785 71.7245 36.174 71.619C36.1648 71.518 36.1831 71.4217 36.2244 71.33C36.2656 71.2382 36.3344 71.1648 36.4261 71.1006C36.5178 71.0364 36.637 71.0042 36.7745 70.9951C36.8799 70.9905 36.9762 70.9997 37.0587 71.0226C37.1412 71.0501 37.21 71.0868 37.2696 71.1373C37.3292 71.1832 37.3704 71.2474 37.4025 71.3116C37.4346 71.3804 37.4529 71.4538 37.4575 71.5318C37.4575 71.6373 37.4438 71.7382 37.3979 71.83ZM38.4935 72.0548L38.3973 71.8575C38.3606 71.7841 38.3285 71.7337 38.301 71.697C38.2735 71.6649 38.246 71.6419 38.2231 71.6327C38.2002 71.6281 38.1681 71.619 38.1268 71.6236H38.0901L38.1085 72.0686L37.7693 72.0823L37.7234 70.9492L38.3056 70.9262C38.4019 70.9217 38.4752 70.9354 38.5394 70.9721C38.599 71.0088 38.6448 71.0547 38.6723 71.1052C38.6998 71.1602 38.7182 71.2107 38.7182 71.2611C38.7182 71.3208 38.709 71.3667 38.6907 71.408C38.6677 71.4492 38.6494 71.4768 38.6265 71.4997C38.6036 71.5135 38.5761 71.5364 38.544 71.5547C38.5806 71.5731 38.6127 71.596 38.6357 71.6236C38.6586 71.6511 38.6953 71.7107 38.7411 71.7979L38.8649 72.041L38.4935 72.0548ZM40.1989 72.0364L39.8963 71.3667L39.6029 72.041L39.4058 72.0456L38.9153 70.9033L39.2683 70.8987L39.5066 71.5226L39.7725 70.8896H40.0155L40.286 71.518L40.5243 70.885L40.8727 70.8804L40.396 72.0319L40.1989 72.0364ZM41.895 72.041L41.8079 71.8117L41.3174 71.7979L41.2165 72.0273L40.8681 72.0227L41.3907 70.8987L41.7666 70.9079L42.2434 72.0548L41.895 72.041ZM43.1877 72.0915L43.1052 71.885C43.0777 71.8116 43.0502 71.752 43.0227 71.7199C42.9998 71.6832 42.9769 71.6603 42.9494 71.6511C42.9264 71.6419 42.8944 71.6327 42.8531 71.6327H42.8164L42.7935 72.0777L42.4543 72.0594L42.5047 70.9262L43.0869 70.9538C43.1831 70.9584 43.2565 70.9813 43.3161 71.0226C43.3757 71.0639 43.4169 71.1097 43.4399 71.1694C43.4628 71.2244 43.4765 71.2749 43.4719 71.3254C43.4674 71.3804 43.4536 71.4309 43.4307 71.4676C43.4078 71.5043 43.3803 71.5318 43.3573 71.5502C43.3344 71.5685 43.3069 71.5869 43.2703 71.6006C43.3069 71.6236 43.3344 71.6511 43.3573 71.6786C43.3803 71.7107 43.4078 71.7704 43.4444 71.8621L43.5453 72.1144L43.1877 72.0915ZM44.9664 71.6557C44.9572 71.7704 44.9297 71.8621 44.8839 71.9309C44.838 71.9952 44.783 72.0502 44.7234 72.0915C44.6363 72.1465 44.5217 72.1741 44.3796 72.1649H44.3613L43.7699 72.1236L43.8479 70.9905L44.32 71.0226C44.3888 71.0272 44.4484 71.0364 44.4988 71.0455C44.5492 71.0593 44.5951 71.0685 44.6317 71.0868C44.673 71.1052 44.7051 71.1189 44.7326 71.1373C44.7601 71.1556 44.783 71.1786 44.8059 71.1969C44.8426 71.2336 44.8747 71.2703 44.8976 71.3162C44.9251 71.3575 44.9435 71.4125 44.9572 71.4676C44.9664 71.5226 44.971 71.5869 44.9664 71.6557ZM46.9192 71.5226L46.5067 71.4814L46.4196 72.3392L46.0803 72.3025L46.1674 71.4492L45.7549 71.408L45.7824 71.1327L46.9468 71.2474L46.9192 71.5226ZM48.267 71.9814C48.2532 72.0869 48.2166 72.1787 48.1616 72.2612C48.102 72.3438 48.0194 72.4034 47.9186 72.4447C47.8177 72.486 47.6986 72.4952 47.561 72.4814C47.4235 72.4677 47.3089 72.4264 47.2172 72.3576C47.1301 72.2888 47.0659 72.2108 47.0293 72.119C46.9926 72.0227 46.9834 71.9263 46.9926 71.8254C47.0063 71.7245 47.0384 71.6327 47.098 71.5502C47.153 71.4676 47.2355 71.408 47.341 71.3667C47.4418 71.3254 47.561 71.307 47.7031 71.33C47.8086 71.3437 47.8957 71.3667 47.9736 71.408C48.0515 71.4492 48.1111 71.4997 48.157 71.5593C48.2028 71.619 48.2349 71.6878 48.2532 71.7612C48.2716 71.83 48.2762 71.9034 48.267 71.9814ZM49.6147 71.9401C49.5689 71.8988 49.5185 71.8667 49.4635 71.8392C49.413 71.8117 49.3397 71.7887 49.2572 71.7795C49.1609 71.7658 49.0784 71.7704 49.0142 71.8025C48.95 71.83 48.9042 71.8667 48.8721 71.9172C48.8446 71.9676 48.8263 72.0135 48.8171 72.064C48.8079 72.119 48.8171 72.1741 48.8354 72.2245C48.8538 72.275 48.8904 72.3209 48.9409 72.3576C48.9913 72.3943 49.0509 72.4172 49.1288 72.4264C49.1747 72.4356 49.2205 72.4356 49.2709 72.431L49.2893 72.2979L49.138 72.275L49.1701 72.0502L49.6147 72.1144L49.5368 72.6558C49.5093 72.6604 49.491 72.6695 49.4726 72.6695C49.4543 72.6741 49.4359 72.6741 49.4176 72.6787C49.3993 72.6833 49.3764 72.6833 49.3489 72.6833C49.2984 72.6879 49.2434 72.6879 49.193 72.6879C49.1426 72.6879 49.0876 72.6833 49.028 72.6741C48.9134 72.6558 48.8125 72.6191 48.7254 72.564C48.6337 72.509 48.565 72.431 48.5191 72.3346C48.4733 72.2383 48.4595 72.1282 48.4825 72.0043C48.4916 71.9218 48.5191 71.8392 48.5604 71.7658C48.6016 71.6878 48.6566 71.6327 48.7254 71.596C48.7804 71.5639 48.8354 71.541 48.8904 71.5272C48.9454 71.5135 49.0005 71.5043 49.0509 71.5043C49.1013 71.5043 49.1563 71.5089 49.2159 71.518C49.3168 71.5318 49.3947 71.5502 49.4589 71.5731C49.5185 71.596 49.5872 71.6236 49.6606 71.6603L49.6147 71.9401ZM50.8204 72.0227L50.3253 71.9401L50.2932 72.1465L50.7654 72.2199L50.7287 72.4493L50.2565 72.3713L50.2198 72.6145L50.7241 72.6971L50.6874 72.9218L49.8439 72.7842L50.0227 71.6649L50.8525 71.7979L50.8204 72.0227ZM52.1956 72.3163L51.7876 72.2429L51.6364 73.087L51.3017 73.0274L51.453 72.1833L51.045 72.1098L51.0954 71.8392L52.2506 72.0456L52.1956 72.3163ZM53.47 73.4356L53.1354 73.3668L53.2225 72.9356L52.7182 72.8393L52.6357 73.2705L52.3011 73.2063L52.5165 72.0961L52.8512 72.1649L52.7732 72.5732L53.2775 72.6695L53.3554 72.2612L53.6901 72.3255L53.47 73.4356ZM54.8132 72.7888L54.3273 72.6879L54.286 72.8897L54.7536 72.9861L54.7077 73.2109L54.2402 73.1145L54.1897 73.3531L54.694 73.454L54.6436 73.6788L53.8092 73.5045L54.0385 72.3943L54.859 72.564L54.8132 72.7888ZM56.0463 73.1742C56.0326 73.2338 56.0142 73.2751 55.9867 73.3118C55.9546 73.3439 55.9271 73.3668 55.8996 73.3806C55.8721 73.3944 55.84 73.4035 55.8079 73.4173C55.84 73.4448 55.863 73.4769 55.8813 73.5091C55.8996 73.5412 55.918 73.6054 55.9409 73.7017L56.0005 73.9678L55.6383 73.8898L55.5925 73.6742C55.5741 73.5962 55.5604 73.5366 55.5375 73.4999C55.5191 73.4586 55.5008 73.4357 55.4779 73.4173C55.455 73.4035 55.4275 73.3898 55.3862 73.3852L55.3495 73.376L55.2578 73.8072L54.9232 73.7338L55.157 72.6282L55.7254 72.7475C55.8171 72.7659 55.8905 72.8026 55.9409 72.8484C55.9913 72.8989 56.0234 72.954 56.0417 73.0136C56.0555 73.0778 56.0555 73.1283 56.0463 73.1742Z" fill="#242424"/>
<path d="M55.519 72.9264L55.4503 72.9126L55.3953 73.1833L55.4686 73.197C55.5511 73.2154 55.6061 73.2154 55.6428 73.2062C55.6749 73.1924 55.6978 73.1603 55.7116 73.1144C55.7207 73.064 55.7116 73.0227 55.6841 72.9952C55.6474 72.9676 55.597 72.9401 55.519 72.9264Z" fill="#242424"/>
<path d="M18.9466 69.7839C18.9511 69.9399 18.8228 70.1463 18.6027 70.3207C18.3873 70.495 18.0939 70.6418 17.8555 70.706L17.6538 70.7611L17.7134 70.9583C17.8051 71.2611 17.9014 71.5409 17.9655 71.7245C17.7455 71.7428 17.5392 71.7566 17.3513 71.7566C16.8745 71.7566 16.5078 71.6832 16.2511 71.5318C15.9989 71.3804 15.8293 71.1602 15.7376 70.784C15.7285 70.7381 15.7239 70.6922 15.7193 70.651C15.7147 70.339 15.9943 69.9353 16.4344 69.6325C16.8745 69.3297 17.4475 69.1233 17.9334 69.1233C18.3277 69.1279 18.6486 69.2472 18.8503 69.527C18.9282 69.6325 18.9466 69.7059 18.9466 69.7839Z" fill="#242424"/>
<path d="M19.1896 70.2839C19.3363 70.5913 19.5059 70.9629 19.5976 71.1602C19.1759 71.4354 18.7633 71.6281 18.3782 71.6832C18.3278 71.5363 18.2453 71.307 18.1582 71.0363C18.3966 70.9446 18.6441 70.8069 18.855 70.6372C18.9879 70.5362 19.1025 70.4124 19.1896 70.2839Z" fill="#242424"/>
<path d="M21.8758 71.6465L21.8299 71.5593L21.8162 71.5639C21.807 71.5318 21.7979 71.5043 21.7979 71.4814C21.7979 71.4447 21.807 71.4126 21.8483 71.3667C21.885 71.3208 21.9537 71.2657 22.05 71.2107C22.2379 71.096 22.5313 70.9905 22.8568 70.8896C23.5169 70.6785 24.3237 70.4813 24.8967 70.1464C25.0801 70.0363 25.2543 69.9078 25.3781 69.7427C25.5294 70.2611 25.7036 70.8712 25.7952 71.1832C24.2962 71.4951 23.0677 71.7291 22.3709 71.7245C22.1921 71.7245 22.05 71.7062 21.9583 71.6832C21.9216 71.6695 21.8941 71.6557 21.8758 71.6465Z" fill="#242424"/>
<path d="M16.5308 72.0777C16.7783 72.1373 17.0488 72.1648 17.3513 72.1648C17.6722 72.1648 18.0252 72.1373 18.4103 72.0868C18.9466 72.018 19.4646 71.7474 19.9689 71.4033C20.6473 70.9354 21.2616 70.3206 21.8346 69.7885C22.4077 69.2563 22.9394 68.8113 23.3933 68.6645C23.572 68.6049 23.9617 68.5085 24.3193 68.5085C24.5164 68.5085 24.6997 68.5361 24.8373 68.6003C24.9748 68.6599 25.0619 68.7425 25.1169 68.8801C25.1261 68.9031 25.1398 68.9581 25.1628 69.0407C25.1719 69.082 25.1765 69.1187 25.1765 69.1554C25.1719 69.3205 25.1077 69.449 24.9656 69.5912C24.8235 69.7288 24.6035 69.8573 24.3422 69.972C23.815 70.1968 23.132 70.3711 22.5589 70.5592C22.1739 70.6876 21.8438 70.8207 21.61 71.0225C21.4817 71.1372 21.3808 71.3024 21.3808 71.4905C21.3808 71.6052 21.4129 71.7199 21.4725 71.8254C21.4908 71.8529 21.5138 71.885 21.5321 71.9079L22.3893 73.5778C22.2931 73.642 22.1509 73.7338 21.9813 73.8347C21.7155 73.9907 21.3716 74.1742 20.9912 74.3485C20.2302 74.6926 19.3088 75.0045 18.557 75C18.3507 75 18.1536 74.9724 17.9794 74.9266C17.498 73.743 17.1221 72.9401 16.5308 72.0777Z" fill="#242424"/>
<path d="M51.3841 9.33802C51.1549 10.9528 50.7102 12.0172 49.3029 12.2878C47.9001 12.5585 45.6493 11.1868 41.1201 11.1868C39.7128 11.1868 38.4109 11.4208 37.5537 11.1042C40.7809 7.64062 43.6873 4.52108 43.9532 4.24583C44.5628 3.61274 45.4293 2.86038 45.9014 2.76863C46.4515 2.66311 46.8366 2.85578 47.0841 2.39702C47.3454 1.91074 46.8733 1.17674 46.126 0.58953C45.3788 0.00232091 44.4207 -0.130728 44.1136 0.121589C43.6139 0.571171 44.3153 1.04827 43.9256 1.82357C43.8844 2.12177 40.4417 6.12213 36.756 10.3152C36.3388 9.35637 36.1142 7.72779 33.735 7.45713C33.0749 7.38373 32.8732 7.76908 32.2635 7.81036C31.6538 7.85165 31.6172 7.96633 31.4705 8.23241C31.3238 8.49849 29.9989 8.61319 29.9806 8.95726C29.9623 9.30133 30.5811 10.4895 30.9204 10.4803C31.2596 10.4757 31.3238 10.2051 32.2452 10.0674C32.9512 9.96193 33.1666 10.3106 33.2354 10.5308C33.1941 10.4941 33.1391 10.462 33.0749 10.4299C32.9145 10.3611 32.699 10.3244 32.5019 10.3244C32.4561 10.3244 32.4056 10.3289 32.3644 10.3289C31.7409 10.384 30.7508 10.9758 30.3978 11.0813C30.3519 11.0951 30.3061 11.0996 30.2603 11.0996C29.9485 11.0996 29.701 10.8152 29.591 10.7877C29.568 10.7785 29.5405 10.7739 29.513 10.7739C29.4168 10.7739 29.3022 10.8244 29.2105 10.8886C29.1325 10.9391 29.0775 11.0171 29.073 11.04C29.2701 11.0905 29.3663 11.274 29.4855 11.4254C29.6001 11.5814 29.7239 11.7098 29.9623 11.7098C30.1044 11.7098 30.2877 11.6639 30.5353 11.5355C30.8333 11.3841 31.0716 11.2694 31.2596 11.1868C31.2229 11.2097 31.2046 11.2281 31.2046 11.2281C31.1725 11.2969 31.0992 11.8658 31.3742 12.1319C31.7134 12.1089 32.6761 11.4529 33.0291 11.6777C32.8961 13.7604 33.2812 13.3521 33.3821 13.5402C33.4187 13.6091 33.4646 13.7834 33.4967 14.0036C33.0658 14.4853 32.6486 14.9578 32.2452 15.4074C31.2733 15.5221 30.0448 15.7056 29.8798 16.0818C29.5359 16.8754 29.4855 17.7333 29.5543 18.4077C29.0638 18.949 28.665 19.3894 28.3807 19.6922C28.1882 19.8665 27.8581 20.0041 27.6289 20.0867C27.5785 20.073 27.5281 20.0592 27.4822 20.0592C27.4135 20.0592 27.3447 20.0775 27.2897 20.128C27.2393 20.1785 27.2209 20.2519 27.2209 20.3161C27.2255 20.5409 27.3906 20.8115 27.6519 21.0684C27.9132 21.3208 28.1836 21.4859 28.4037 21.4905H28.4082C28.477 21.4905 28.5458 21.4722 28.5962 21.4171C28.6466 21.3666 28.665 21.2932 28.665 21.229C28.665 21.151 28.642 21.0639 28.6008 20.9767C28.6329 20.8161 28.7062 20.5868 28.8667 20.4124C29.1005 20.1601 29.4213 19.8206 29.8064 19.4077C29.866 19.527 29.9302 19.5912 29.9852 19.5775C30.2557 19.5087 30.0861 19.105 30.5766 18.8664C30.7187 18.7976 30.7828 18.5957 30.8103 18.3388C31.3054 17.8067 31.8647 17.2103 32.4561 16.5726C32.6623 16.5772 32.8961 16.5818 33.1666 16.5818C35.092 16.5818 34.2347 15.9212 35.4816 16.0726C36.7331 16.224 35.5825 19.4078 35.4816 19.8115C35.3808 20.2198 35.1607 20.6235 34.4685 20.7427C33.7763 20.862 33.8405 21.674 33.9597 21.8759C33.9642 21.885 33.9688 21.8896 33.978 21.8988C33.7763 22.2199 33.6158 22.564 33.515 22.9172C35.0599 22.1098 37.8195 21.7382 40.1025 21.7382C41.9224 21.7382 43.7835 22.0273 45.333 22.5594C45.7914 22.7154 46.4057 22.9585 46.9237 23.2705C46.8503 22.853 46.6991 22.4493 46.4836 22.0731C46.5799 22.0823 46.6441 22.0823 46.6441 22.0823C47.4555 22.0823 47.8589 19.5958 47.7763 18.3572C46.832 17.6507 46.4744 17.0864 46.424 15.9717C46.3736 14.8569 46.7816 15.311 46.424 13.1274C50.0409 14.1779 51.242 12.3612 51.5949 11.6823C51.925 11.0492 51.9892 10.5904 52.0488 9.95735C52.1634 8.79669 52.3422 8.54896 52.8877 7.85165C52.5668 7.93882 51.627 8.27829 51.3841 9.33802ZM32.236 9.31968C32.1718 9.29215 32.291 9.22333 32.4469 9.13617C32.369 9.10405 32.3094 8.99396 32.3094 8.85633C32.3094 8.69577 32.3919 8.56731 32.4927 8.56731C32.5936 8.56731 32.6761 8.69577 32.6761 8.85633C32.6761 8.92056 32.6624 8.9802 32.6394 9.03066C32.8045 8.92973 32.9557 8.8288 32.9191 8.75081C32.777 8.42051 32.0206 8.41592 32.0847 8.38381C32.3506 8.24618 33.0245 8.4251 33.1574 8.70035C33.2904 8.97561 32.4148 9.38849 32.236 9.31968ZM30.7783 17.0543C30.7645 16.8112 30.7599 16.6231 30.8058 16.568C30.8791 16.4717 30.9845 16.4717 31.2825 16.4946C31.1083 16.6873 30.9387 16.8754 30.7783 17.0543ZM34.8902 11.8199C33.813 11.8199 34.2576 10.4161 33.6388 8.59484C34.276 9.22792 33.9184 10.9299 34.794 10.9116C35.1836 10.9024 35.9263 10.1638 35.5458 8.8655C36.0042 9.55364 35.83 11.8199 34.8902 11.8199ZM46.7862 20.5271C46.6349 20.8161 46.2773 20.628 46.2086 20.7978C46.1719 20.8895 46.0206 21.0639 45.8922 21.2565C45.1542 20.4445 44.0769 19.8023 42.8071 19.4261C43.0226 19.261 43.2288 19.027 43.4306 18.6829C43.1005 17.8342 42.9905 17.2562 43.128 17.036C43.2288 16.88 43.371 16.6139 43.5177 16.3662C43.5039 16.3387 43.481 16.302 43.4672 16.2698C43.2885 15.8799 43.073 15.6597 42.853 15.5267C42.6329 15.3936 42.3991 15.3477 42.1607 15.3477C41.8536 15.3477 41.5511 15.4257 41.3218 15.4945C41.2943 15.5037 41.2577 15.5175 41.2256 15.5312C41.4181 16.1964 41.8628 17.4855 42.0645 18.1691C41.982 18.5866 41.6932 18.8939 41.3814 19.1187C40.9918 19.0683 40.593 19.0453 40.185 19.0453C38.8739 19.0453 37.6453 19.3114 36.6047 19.7702C37.1319 18.7793 37.6637 15.9854 38.31 16.0863C39.5753 16.2882 40.5334 15.4441 41.1293 15.1688C41.1843 15.1413 41.2393 15.123 41.2852 15.1046C41.8582 14.9349 43.0272 14.6321 43.6552 15.9854C43.6689 16.0129 43.6827 16.0359 43.6919 16.0634C44.3428 17.3663 45.9106 18.059 46.3598 18.5545C46.8183 19.0728 46.9374 20.2427 46.7862 20.5271Z" fill="#242424"/>
<path d="M41.6658 45.0155C41.51 45.0155 41.3724 45.0981 41.2945 45.2173L41.2578 45.277H40.6986V42.0014C40.6986 41.8867 40.639 41.4693 40.5427 41.0839C40.4602 40.7215 40.3135 40.3545 40.2218 40.2444C40.2035 40.2719 40.176 40.3086 40.1485 40.3637C40.0751 40.4967 40.0018 40.7077 39.9422 40.9234C39.8184 41.3592 39.7405 41.8684 39.7405 42.006V45.2815H39.1812L39.1445 45.2219C39.062 45.1026 38.9291 45.0201 38.7732 45.0201C38.5257 45.0201 38.324 45.2219 38.324 45.4696C38.324 45.7174 38.5257 45.9146 38.7686 45.9146L39.7359 45.91V47.6625C39.7359 47.8781 39.9376 48.0846 40.2172 48.0846C40.4969 48.0846 40.6986 47.8781 40.6986 47.6625V45.91H41.7071C41.9363 45.8917 42.1151 45.699 42.1151 45.4696C42.1105 45.2173 41.9134 45.0155 41.6658 45.0155Z" fill="#242424"/>
<path d="M20.9957 40.8224C19.5792 40.8224 19.5792 40.1068 18.1673 40.1068C17.3284 40.1068 16.9846 40.3591 16.5491 40.5609C16.4162 40.2765 16.242 39.9095 16.0586 39.4875C16.4941 39.281 16.8287 39.0195 17.6631 39.0195C19.0521 39.0195 19.0521 39.7352 20.4411 39.7352C21.8301 39.7352 21.8301 39.0195 23.2191 39.0195C23.9021 39.0195 24.2459 39.1939 24.5897 39.3728C24.7273 39.6526 24.8556 39.9737 24.9656 40.3316C24.686 40.2077 24.3559 40.1068 23.8242 40.1068C22.4122 40.1068 22.4123 40.8224 20.9957 40.8224Z" fill="#242424"/>
<path d="M18.5385 54.4659C19.0382 54.7228 19.5608 54.9522 20.198 54.8329C21.1377 54.6678 21.7199 53.3924 22.9118 53.3924C22.9118 53.3924 24.2458 53.3282 24.5208 54.9981C24.7913 56.6679 23.9982 59.8013 23.9982 60.6958C23.9982 61.595 25.4789 62.3887 26.1895 62.3474C26.9 62.3061 26.6295 61.4115 27.5051 61.1546C27.9773 61.0216 28.6328 60.9481 29.3204 61.5766C28.7153 61.5537 27.8581 62.3061 28.0048 62.618C28.069 62.7235 30.3198 61.8657 30.6361 63.7236C29.866 63.3291 28.6741 63.8475 28.422 63.9117C29.05 64.3521 30.1319 64.5586 29.9852 65.788C28.0048 65.9761 27.8994 64.7421 27.3584 64.8476C27.7527 65.577 27.6518 67.0175 27.0009 67.2882C26.6066 66.389 25.7723 64.6779 25.2497 64.5723C25.2497 64.5723 25.268 65.4486 25.0205 65.6137C24.2274 65.4486 23.957 64.9669 23.8332 64.6778C23.6865 64.9898 23.6682 65.2834 23.3106 65.4073C22.8109 64.7604 22.5817 64.1962 22.3525 63.9897C22.2471 64.3659 22.2058 64.4072 21.9995 64.5127C21.7887 64.6136 20.8077 63.3842 21.0827 62.5033C20.5372 62.6089 20.2484 62.4024 20.0604 62.173C20.9131 61.3748 21.101 60.2921 20.3951 59.4572C19.7991 58.7553 19.3591 58.3103 18.6852 58.2598C18.456 57.8882 17.938 55.8468 18.5385 54.4659Z" fill="#242424"/>
<path d="M21.8299 33.6981C22.7834 33.432 23.1776 33.5009 23.4619 33.5421C23.8699 33.5972 24.1266 33.7761 24.2733 34.4275C24.9746 33.7761 25.0113 32.7301 24.7225 32.1338C24.4337 31.5374 23.4069 31.4273 23.1731 31.3952C23.1181 31.2851 23.1181 31.1612 22.7559 30.9593C22.5542 30.8492 20.9956 30.6703 19.6616 30.4868C18.9694 29.9684 18.3826 28.5142 18.5568 27.6884C18.5935 27.5095 17.7408 29.0509 17.6675 30.0418C17.4016 29.3858 16.0493 27.6792 15.4625 27.6379C15.2837 28.7802 15.8063 31.1291 16.5169 32.5742C14.6144 34.0927 14.972 36.5011 15.6275 38.3958C16.1226 38.1848 16.4343 37.882 17.342 37.882C18.731 37.882 18.731 38.5976 20.12 38.5976C21.509 38.5976 21.509 37.882 22.898 37.882C23.2602 37.882 23.526 37.9325 23.7507 38.0059C23.7323 37.9829 23.714 37.9554 23.7002 37.9325C23.471 37.6067 23.0355 37.3131 22.5542 37.0608C22.6046 36.8406 22.7972 36.4415 23.2235 35.8772C22.7651 35.7809 21.9858 35.3496 21.3394 34.9597C22.0591 34.8542 22.8751 35.4781 23.7507 35.5423C24.4245 35.5928 25.1993 35.4414 25.5706 34.8358C23.879 35.0377 22.2654 34.1156 21.8299 33.6981ZM21.8116 36.7076C21.2523 36.4598 20.7297 36.258 20.4638 36.0974C19.8404 35.7258 19.9137 35.2533 19.9137 35.2533C20.7985 35.2808 21.9353 35.7763 21.8116 36.7076ZM22.1921 32.2209C22.0774 32.1475 21.8987 32.12 21.8299 32.175C21.7611 32.2255 21.8528 32.3585 21.8437 32.4641C21.8299 32.5696 21.7291 32.721 21.4127 32.7026C21.0964 32.6843 21.0093 32.3081 21.0643 32.042C20.9085 32.0007 20.7893 32.1062 20.7572 32.2393C20.7251 32.3723 20.7343 32.565 20.6747 32.6751C20.5188 32.2943 20.4959 32.1154 20.1429 31.9457C19.7533 31.7622 19.5378 31.5053 19.5378 31.5053C19.7899 31.5236 22.4121 31.675 22.733 32.0099C22.9072 32.1934 22.5863 32.8357 21.7841 32.8173C22.4717 32.565 22.3067 32.2943 22.1921 32.2209Z" fill="#242424"/>
<path d="M59.5026 40.8224C60.9191 40.8224 60.9191 40.1068 62.331 40.1068C63.1699 40.1068 63.5137 40.3591 63.9492 40.5609C64.0822 40.2765 64.2564 39.9095 64.4397 39.4875C64.0043 39.281 63.6742 39.0195 62.8353 39.0195C61.4463 39.0195 61.4463 39.7352 60.0573 39.7352C58.6683 39.7352 58.6683 39.0195 57.2793 39.0195C56.5962 39.0195 56.2478 39.1939 55.9086 39.3728C55.7711 39.6526 55.6427 39.9737 55.5327 40.3316C55.8123 40.2077 56.1424 40.1068 56.6696 40.1068C58.0861 40.1068 58.0861 40.8224 59.5026 40.8224Z" fill="#242424"/>
<path d="M61.9872 54.521C61.4876 54.7779 60.9375 54.9522 60.2957 54.8376C59.3559 54.6724 58.7737 53.3971 57.5818 53.3971C57.5818 53.3971 56.2479 53.3328 55.9774 55.0027C55.7069 56.6726 56.5 59.8059 56.5 60.7005C56.5 61.5996 55.0193 62.3933 54.3088 62.352C53.5982 62.3107 53.8687 61.4161 52.9931 61.1592C52.5209 61.0262 51.8654 60.9528 51.1778 61.5813C51.7829 61.5583 52.6401 62.3107 52.4934 62.6227C52.4293 62.7282 50.1784 61.8703 49.8667 63.7283C50.6368 63.3337 51.8287 63.8521 52.0808 63.9164C51.4528 64.3568 50.371 64.5632 50.5177 65.7927C52.498 65.9808 52.6034 64.7467 53.1444 64.8522C52.7501 65.5816 52.851 67.0221 53.4974 67.2928C53.8962 66.3937 54.7305 64.6825 55.2531 64.577C55.2531 64.577 55.2302 65.4532 55.4823 65.6184C56.2754 65.4532 56.5458 64.9715 56.6742 64.6825C56.8209 64.9944 56.8392 65.288 57.1968 65.4119C57.6964 64.7651 57.9257 64.2008 58.1549 63.9944C58.2603 64.3705 58.3016 64.4118 58.5079 64.5173C58.7187 64.6183 59.6997 63.3888 59.4293 62.508C59.9702 62.6135 60.2636 62.4071 60.4515 62.1777C59.5943 61.3794 59.4064 60.2968 60.1169 59.4618C60.7128 58.7599 61.1804 58.3654 61.8543 58.3149C62.0789 57.6543 62.5923 55.8973 61.9872 54.521Z" fill="#242424"/>
<path d="M77.0234 36.2029C76.1203 36.1662 74.6946 36.2901 73.8557 36.6663C74.9834 35.8405 77.3856 33.1981 77.5093 31.0695C76.8584 31.3218 75.4281 33.1981 74.0529 33.7257C74.5434 33.1247 77.8211 29.7161 76.9959 27.2618C76.4825 27.7893 75.0064 29.9042 73.4523 30.6566C74.3554 29.4684 75.9782 25.858 75.3685 23.8394C75.0797 25.2799 72.7143 28.8628 71.9396 29.1748C71.9396 28.7711 71.9029 28.4362 71.7883 28.1976C70.3076 30.6887 67.4746 32.8311 66.9657 33.5697C66.4569 34.3037 65.9526 34.6891 66.5853 37.5058C67.2179 40.3226 65.8472 43.1164 64.6553 43.1898C63.7156 43.2495 63.5322 42.4466 63.6056 41.6897C63.1792 41.4878 62.8354 41.2401 62.0011 41.2401C60.5846 41.2401 60.5846 41.9604 59.1727 41.9604C57.7562 41.9604 57.7562 41.2401 56.3442 41.2401C55.8583 41.2401 55.542 41.3227 55.2761 41.4328C55.1936 41.965 55.1524 42.5613 55.1707 43.2403C55.1432 44.7634 53.1399 46.0846 52.5073 46.0571C52.6356 46.3231 52.8373 46.5663 53.3187 46.6443C52.6356 46.8645 52.2964 47.4012 52.2735 47.915C52.599 48.0618 52.9107 47.9884 53.1812 47.837C52.874 48.5022 52.4889 49.3418 52.113 50.195V38.7353H47.6297C45.7594 35.5194 45.8923 30.0373 45.9382 30.3125C46.4929 33.744 46.9421 35.5653 47.4235 36.8498C47.8039 37.2581 48.3953 37.726 49.3809 37.7673C49.6055 36.7076 49.6376 35.68 49.2388 34.6294C49.7018 34.9093 49.9264 36.3727 52.7136 36.4369C52.9978 36.1571 53.8917 32.8678 51.1733 32.6063C51.7326 31.7668 53.4516 32.4228 53.8825 32.3494C55.0194 32.1567 56.1609 30.9502 56.1838 30.4547C56.2067 29.9593 54.9782 28.1518 52.7319 29.8905C52.5165 28.895 57.4674 27.56 58.2192 27.3398C58.2054 27.037 58.1733 27.037 57.9945 26.5599C58.5676 26.3855 58.8243 25.8901 59.1589 25.5047C58.9022 25.1377 58.1871 24.8671 57.9166 24.8166C57.9029 24.6882 57.9487 24.4358 57.8524 23.9863C56.9127 23.6972 55.2853 25.4084 55.079 25.2616C54.914 25.1515 55.5649 23.0412 55.6245 22.9403C55.134 22.8669 54.6985 23.3256 54.5747 23.4862C54.3364 23.3623 54.2172 22.9219 54.1805 22.61C54.0888 21.7613 54.3226 20.4217 55.5099 19.885C55.5237 18.9216 56.2984 18.4307 56.6239 18.4399C56.9493 18.449 57.2473 18.9262 57.3023 18.9216C57.3573 18.917 57.3252 18.4857 57.2061 18.1967C57.064 17.8435 56.4497 17.1645 55.8171 17.3205C55.5512 17.3939 54.969 17.6967 54.5793 18.0683C52.9382 19.6464 53.8367 22.1466 53.3599 22.1329C52.8832 22.1191 52.8649 19.7244 51.5492 19.1464C51.4071 19.1739 51.0083 19.5363 51.077 20.385C50.8112 20.2841 50.2748 19.0087 48.8858 19.7106C48.6887 20.963 49.6376 21.4402 49.5597 21.5044C49.4817 21.5686 49.0921 21.7659 49.0004 22.2063C49.3213 22.7797 51.673 23.1972 51.9159 24.8992C52.1039 26.2296 51.3613 26.2709 51.3613 26.2709C51.0862 25.4818 50.8616 24.3257 49.7522 23.9174C49.4726 24.1835 49.5963 24.445 49.6789 24.8166C49.2571 24.4129 48.895 24.1743 48.189 24.1606C47.1621 27.115 49.5918 28.3811 49.4496 28.6564C49.3075 28.9317 49.1242 28.9546 48.785 28.9546C47.7719 28.9546 47.0109 26.8076 46.9513 26.2984L46.9329 26.1378C47.3822 25.9222 47.5564 25.2341 47.4739 24.4679C47.373 23.5413 43.9991 22.1833 40.1209 22.1833C36.2427 22.1833 32.6303 23.1788 32.7724 24.4679C32.7724 25.0643 32.9696 25.9039 33.5426 26.0185C33.0567 26.4773 32.6899 27.0278 32.4057 27.5921C32.4057 27.5921 30.2053 28.95 30.6317 29.3904C31.3697 30.1565 34.6428 30.1565 36.7194 29.8538C38.5164 29.5923 38.7319 27.8719 39.0528 27.0599C39.4012 26.1653 42.7018 25.9818 43.967 26.1332C41.2027 26.358 40.2584 26.7159 39.7862 27.1746C39.1674 27.7756 39.7771 29.8033 36.8569 30.4226C35.0829 30.886 31.6539 30.7621 30.0357 29.9455C28.8392 29.3354 31.2689 28.0325 31.9519 27.5003C32.6349 26.9682 32.0619 25.5873 31.906 24.5184C31.4201 25.0735 31.2964 25.1652 30.9755 25.5644C30.9021 25.3166 30.8242 25.1882 30.6775 24.9313C30.1457 25.3625 29.7102 25.6653 29.371 26.9131C28.9676 24.8808 30.2099 23.8486 31.223 22.7797C30.9938 22.6283 30.4116 22.6283 30.4116 22.6283C30.4116 22.6283 30.9938 21.6007 30.8609 20.8208C30.352 20.7474 29.0914 21.9907 29.0409 22.4219C28.6605 21.9402 28.2983 21.9218 28.2983 21.9218C28.2983 21.9218 27.4457 23.2843 27.9499 25.4405C27.2715 25.5644 26.3179 17.6279 22.7194 18.1967L22.5635 18.527C22.2518 19.1831 22.4718 19.3666 22.5864 19.4583C22.5956 19.4675 22.6094 19.4767 22.6231 19.4813C22.6965 19.5271 22.8156 19.573 22.9578 19.6143C23.0724 19.651 23.1961 19.6831 23.3107 19.7152C23.9571 19.8941 24.7593 20.1143 25.0069 20.7841L25.0573 20.9172L25.0802 20.9768L24.9977 21.1236L24.9794 21.1557C24.9473 21.2108 24.9106 21.2658 24.8739 21.3209C24.7593 21.4814 24.6172 21.6236 24.4568 21.7429C25.1582 22.4907 24.8373 24.6744 25.9741 26.7342C25.1857 25.9956 24.1496 24.445 22.8798 24.7019C22.8798 25.1331 23.0815 25.2616 23.2328 25.4359C22.371 25.2341 21.9401 25.0047 21.1791 25.6378C21.3579 26.147 21.4587 26.7296 22.3985 26.9865C22.0684 27.2388 22.0959 27.6976 22.1189 27.8261C23.4895 28.4591 23.9892 26.9085 27.8995 29.3216C27.8995 29.3216 25.2177 28.7894 24.4797 30.6199C25.0252 32.1017 26.6939 32.2485 27.1248 32.4962C26.6939 32.854 26.1712 34.2119 26.2263 35.157C26.405 35.3267 27.3127 36.8865 31.4385 36.3452C31.2688 37.0425 31.3514 37.2352 31.5943 37.726C33.1209 37.882 34.1569 37.1021 34.6795 36.336C34.8124 35.1295 34.574 33.4275 33.1071 31.7484C36.0226 33.8266 35.5229 36.9874 34.7666 38.7307H28.3304V50.0391C27.9728 49.2408 27.6153 48.4609 27.3265 47.8324C27.5969 47.9884 27.9041 48.0572 28.2341 47.9104C28.2112 47.3966 27.872 46.8599 27.1889 46.6397C27.6703 46.5617 27.872 46.3185 28.0003 46.0525C27.3677 46.08 25.3599 44.7588 25.3369 43.2357C25.3553 42.5567 25.314 41.9604 25.2315 41.4282C24.9656 41.3227 24.6493 41.2355 24.1634 41.2355C22.7469 41.2355 22.7469 41.9558 21.3304 41.9558C19.9139 41.9558 19.9139 41.2355 18.4974 41.2355C17.663 41.2355 17.3192 41.4832 16.8929 41.6851C16.9663 42.4421 16.7829 43.2449 15.8477 43.1852C14.6558 43.1118 13.2852 40.318 13.9178 37.5012C14.5504 34.6799 14.0461 34.2991 13.5373 33.5651C13.033 32.8311 10.1954 30.6887 8.71934 28.1931C8.60473 28.4316 8.56806 28.7665 8.56806 29.1702C7.79333 28.8583 5.42332 25.2754 5.1391 23.8349C4.52482 25.8534 6.1522 29.4592 7.05528 30.652C5.50583 29.8996 4.02973 27.7848 3.51172 27.2572C2.68657 29.7115 5.96425 33.1201 6.45476 33.7211C5.07951 33.1935 3.64924 31.3172 2.99829 31.0649C3.12206 33.1935 5.52875 35.8359 6.65187 36.6617C5.81297 36.2855 4.3873 36.1617 3.48422 36.1984C4.11225 38.8316 6.65188 39.4188 7.66498 40.0932C6.86275 39.717 5.28579 39.9189 4.57066 40.4465C6.04677 42.6852 7.13779 42.1989 8.0913 42.7494C6.98652 42.6852 6.19804 43.8917 6.19804 43.8917C6.39975 45.2313 7.94919 45.0661 8.95313 45.1579C8.38927 45.1212 7.87585 45.4331 7.49995 46.2864C8.701 46.9883 9.164 46.7727 9.75535 46.5617C9.44363 47.0526 9.3657 47.5939 9.46655 48.3784C10.3834 48.9656 11.4423 48.4931 11.832 48.1077C11.667 48.6857 11.6807 49.1583 11.9695 49.8097C13.1476 49.8602 13.7848 49.0206 14.1607 48.1949C13.9361 49.3739 14.3258 49.8602 14.7613 50.4887C15.7744 50.0712 16.1503 48.9564 16.2649 48.5206C16.2419 49.562 16.4666 49.9381 16.9158 50.3602C18.1948 49.8969 18.5661 48.9335 18.7082 48.594C18.9191 48.805 19.2217 49.1078 19.6205 49.2959C20.5602 48.3784 20.6107 47.5434 20.6198 47.025C20.9086 47.2774 21.2066 47.6398 21.6742 47.7545C21.798 47.5801 21.798 47.7315 22.0638 46.7911C22.9027 48.9839 24.5301 49.2225 24.5301 49.2225C24.7822 49.1353 25.094 48.4701 24.9794 48.0114C25.1444 48.1673 25.5661 48.4472 25.9741 48.6536C26.1483 48.9977 26.3271 49.4335 26.3042 49.773C25.5524 49.5207 23.4253 49.3326 23.0724 50.6676C23.76 50.5437 26.0796 50.3235 26.4142 51.3282C26.7489 52.3329 25.7449 53.1403 24.741 54.5303C25.2544 55.012 26.703 53.8697 27.1614 52.943C27.2027 54.1908 27.1431 55.1359 26.3913 56.4341C28.7521 55.9249 28.1195 53.4797 28.2525 53.1219C28.3717 53.2687 28.5779 53.5302 28.7476 54.1082C28.8026 54.3927 28.8667 54.6817 28.9355 54.9891C28.9905 55.3698 29.0318 55.824 29.0409 56.3745C29.096 56.3562 29.1693 56.2965 29.2472 56.2048C30.4849 60.5492 33.3959 66.1873 40.2171 69.183H40.2355C47.0888 66.1736 49.9906 60.4987 51.2237 56.1451C51.3246 56.2644 51.4163 56.347 51.485 56.3699C51.5354 54.0486 52.058 53.388 52.2735 53.1219C52.411 53.4843 51.7738 55.9249 54.1393 56.4341C53.3875 55.1359 53.3279 54.1908 53.3691 52.943C53.8275 53.8697 55.2715 55.012 55.7896 54.5303C54.7902 53.1403 53.7863 52.3329 54.1209 51.3282C54.4556 50.3235 56.7752 50.5437 57.4628 50.6676C57.1052 49.3326 54.9782 49.5207 54.2264 49.773C54.2034 49.4335 54.3822 48.9977 54.5564 48.6536C54.969 48.4518 55.3861 48.1673 55.5558 48.0114C55.4412 48.4747 55.7529 49.1353 56.005 49.2225C56.005 49.2225 57.6324 48.9839 58.4713 46.7911C58.7372 47.7315 58.7372 47.5801 58.8609 47.7545C59.3239 47.6398 59.6265 47.2774 59.9107 47.025C59.9245 47.5389 59.9749 48.3784 60.9146 49.2959C61.3181 49.1078 61.616 48.805 61.8269 48.594C61.9644 48.9335 62.3403 49.8969 63.6147 50.3602C64.064 49.9381 64.2932 49.562 64.2657 48.5206C64.3803 48.9564 64.7516 50.0712 65.7693 50.4887C66.2094 49.8602 66.5944 49.3739 66.3698 48.1949C66.7457 49.0206 67.3829 49.8602 68.561 49.8097C68.8498 49.1583 68.859 48.6812 68.6986 48.1077C69.0882 48.4931 70.1517 48.9702 71.064 48.3784C71.1648 47.5939 71.0869 47.0526 70.7752 46.5617C71.362 46.7773 71.825 46.9883 73.026 46.2864C72.6501 45.4331 72.1367 45.1212 71.5728 45.1579C72.5768 45.0707 74.1262 45.2313 74.3279 43.8917C74.3279 43.8917 73.5394 42.6852 72.4392 42.7494C73.3927 42.1989 74.4792 42.6852 75.9553 40.4465C75.2448 39.9189 73.6632 39.717 72.8656 40.0932C73.8558 39.4234 76.3954 38.8362 77.0234 36.2029ZM12.5242 43.5155C12.4508 43.5155 12.3821 43.5018 12.3179 43.4743L11.6303 43.3733L11.4744 45.1395C11.5386 45.2359 11.5799 45.3506 11.5799 45.479C11.5799 45.8093 11.314 46.0754 10.9839 46.0754C10.6539 46.0754 10.388 45.8093 10.388 45.479C10.388 45.3735 10.4155 45.2726 10.4659 45.19L10.663 43.2357L10.2092 43.1669C10.1221 43.332 9.94789 43.4421 9.75077 43.4421C9.46655 43.4421 9.23276 43.2082 9.23276 42.9238C9.23276 42.6393 9.46655 42.4054 9.75077 42.4054C9.78745 42.4054 9.81954 42.4099 9.85162 42.4145L10.7272 42.5613C10.7685 41.364 10.4292 39.3179 10.0167 37.6389C10.0442 37.6389 10.0671 37.6435 10.09 37.6435C10.4613 37.6435 10.7639 37.3407 10.7639 36.9691C10.7639 36.5975 10.4613 36.2947 10.09 36.2947C9.94789 36.2947 9.81495 36.3406 9.70493 36.4186C9.48947 35.6203 9.3061 35.001 9.22359 34.7303C10.3146 33.9275 10.3788 32.854 10.4155 32.4228C12.405 35.7809 11.7449 42.1668 11.7036 42.7219L12.0566 42.7815C12.1391 42.6026 12.3179 42.4788 12.5242 42.4788C12.8084 42.4788 13.0422 42.7127 13.0422 42.9971C13.0422 43.2862 12.8084 43.5155 12.5242 43.5155ZM43.669 37.1296C45.0855 37.1847 45.9244 38.1114 46.3278 38.7353H39.8229C41.2119 37.8132 42.4267 37.0792 43.669 37.1296ZM28.9905 39.4097H51.4392V49.6124C50.9441 49.5482 50.669 49.3968 50.2977 49.2041C49.8164 48.9472 49.1563 48.6215 48.0882 48.6353C47.02 48.6261 46.3599 48.9472 45.8786 49.2041C45.3835 49.4519 45.0672 49.6399 44.1824 49.6491C43.3023 49.6399 42.9814 49.4519 42.4909 49.2041C42.0095 48.9472 41.3494 48.6215 40.2813 48.6353C39.2132 48.6261 38.5531 48.9472 38.0717 49.2041C37.5767 49.4519 37.2604 49.6399 36.3756 49.6491C35.4954 49.6399 35.1746 49.4519 34.6795 49.2041C34.1981 48.9472 33.5426 48.6215 32.4699 48.6353C31.4018 48.6261 30.7417 48.9472 30.2603 49.2041C29.8523 49.4106 29.5635 49.5757 28.9813 49.6262V39.4097H28.9905ZM28.9905 50.7502C29.8202 50.6859 30.3703 50.4152 30.7829 50.195C31.278 49.9473 31.5943 49.7546 32.4791 49.75C33.3592 49.7546 33.6801 49.9473 34.1752 50.195C34.6565 50.452 35.3121 50.7731 36.3848 50.7639C37.4575 50.7731 38.113 50.452 38.5943 50.195C39.0849 49.9473 39.4057 49.7546 40.2859 49.75C41.1661 49.7546 41.4869 49.9473 41.982 50.195C42.4634 50.452 43.1235 50.7731 44.1916 50.7639C44.2054 50.7639 44.2237 50.7639 44.2375 50.7639C45.2781 50.7639 45.9244 50.452 46.4012 50.195C46.8963 49.9473 47.2126 49.7546 48.0973 49.75C48.9775 49.7546 49.2984 49.9473 49.7889 50.195C50.1831 50.4061 50.692 50.6584 51.4438 50.7364C51.4438 50.8511 51.4392 51.264 51.3796 51.8925C51.3704 51.92 51.3612 51.9337 51.3521 51.9567C50.9166 51.8833 50.6507 51.7411 50.3023 51.5621C49.821 51.3052 49.1608 50.9795 48.0927 50.9887C47.0246 50.9795 46.3645 51.3007 45.8832 51.5621C45.3881 51.8099 45.0718 51.998 44.187 52.0025C43.3069 51.9934 42.986 51.8099 42.4955 51.5621C42.0141 51.3052 41.354 50.9795 40.2859 50.9887C39.2178 50.9795 38.5577 51.3007 38.0763 51.5621C37.5812 51.8099 37.2649 51.998 36.3802 52.0025C35.5 51.9934 35.1791 51.8099 34.6841 51.5621C34.2027 51.3052 33.5472 50.9795 32.4745 50.9887C31.4064 50.9795 30.7462 51.3007 30.2649 51.5621C29.8982 51.7457 29.6277 51.897 29.151 51.9659C29.1143 51.8741 29.073 51.7778 29.0318 51.6814C28.9951 51.186 28.9905 50.8557 28.9905 50.7502ZM50.0777 57.3884C49.2663 59.4987 48.1294 61.3933 46.7037 63.0173C44.9618 65.0037 42.7797 66.5956 40.2126 67.7471C37.6454 66.5956 35.4634 65.0037 33.726 63.0173C32.3003 61.3933 31.168 59.5032 30.352 57.3884C30.0861 56.7002 29.8753 56.0396 29.7011 55.4111C29.8569 55.0074 29.9532 54.5074 29.8615 53.966C29.8294 53.7642 29.724 53.4385 29.5727 53.0302C30.0907 52.9155 30.4712 52.7228 30.7829 52.5577C31.278 52.3053 31.5943 52.1218 32.4791 52.1127C33.3592 52.1218 33.6801 52.3099 34.1752 52.5577C34.6565 52.8146 35.3121 53.1403 36.3848 53.1311C37.4575 53.1403 38.113 52.8191 38.5943 52.5577C39.0849 52.3053 39.4057 52.1218 40.2859 52.1127C41.1661 52.1218 41.4869 52.3099 41.982 52.5577C42.4634 52.8146 43.1235 53.1403 44.1916 53.1311C45.2597 53.1403 45.9198 52.8191 46.4012 52.5577C46.8963 52.3053 47.2126 52.1218 48.0973 52.1127C48.9775 52.1218 49.2984 52.3099 49.7889 52.5577C50.0868 52.7182 50.449 52.8971 50.9349 53.0164C50.779 53.4293 50.6736 53.7596 50.6415 53.966C50.559 54.4569 50.6278 54.9202 50.7607 55.301C50.5774 55.957 50.3573 56.6589 50.0777 57.3884ZM70.4039 37.6435C70.4314 37.6435 70.4543 37.6434 70.4772 37.6389C70.0692 39.3133 69.73 41.3594 69.7713 42.5613L70.6468 42.4145C70.6789 42.4099 70.7156 42.4054 70.7477 42.4054C71.0365 42.4054 71.2657 42.6393 71.2657 42.9238C71.2657 43.2082 71.0319 43.4421 70.7477 43.4421C70.5506 43.4421 70.3764 43.332 70.2893 43.1669L69.84 43.2357L70.0371 45.19C70.083 45.2772 70.1151 45.3735 70.1151 45.479C70.1151 45.8093 69.8492 46.0754 69.5191 46.0754C69.1891 46.0754 68.9232 45.8093 68.9232 45.479C68.9232 45.3552 68.9599 45.2359 69.0286 45.1395L68.8728 43.3733L68.1851 43.4743C68.121 43.5018 68.0522 43.5155 67.9789 43.5155C67.69 43.5155 67.4608 43.2816 67.4608 42.9971C67.4608 42.7127 67.69 42.4788 67.9789 42.4788C68.1851 42.4788 68.3685 42.6026 68.451 42.7815L68.7994 42.7219C68.7581 42.1668 68.098 35.7809 70.0876 32.4228C70.1242 32.854 70.1838 33.9275 71.2794 34.7303C71.1969 34.9964 71.009 35.6203 70.7981 36.4186C70.6881 36.3406 70.5551 36.2947 70.4085 36.2947C70.0371 36.2947 69.7346 36.5975 69.7346 36.9691C69.7346 37.3407 70.0325 37.6435 70.4039 37.6435Z" fill="#242424"/>
<path d="M63.9769 32.5786C64.6874 31.1335 65.21 28.7801 65.0312 27.6423C64.449 27.6836 63.0921 29.3902 62.8262 30.0462C62.7529 29.0553 61.9002 27.5139 61.9369 27.6928C62.1111 28.5186 61.5198 29.9728 60.8321 30.4912C59.4981 30.6747 57.9441 30.849 57.7378 30.9637C57.3757 31.161 57.3757 31.2894 57.3252 31.3995C57.0915 31.4362 56.06 31.5418 55.7758 32.1382C55.487 32.7345 55.5237 33.7805 56.225 34.4319C56.3672 33.7805 56.6285 33.6062 57.0365 33.5465C57.3207 33.5053 57.7103 33.4318 58.6684 33.7025C58.2329 34.1154 56.6193 35.0375 54.9277 34.8402C55.2991 35.4458 56.0738 35.6018 56.7476 35.5467C57.6232 35.4825 58.4438 34.8586 59.1589 34.9641C58.5125 35.354 57.7332 35.7853 57.2748 35.8816C57.7012 36.4459 57.8937 36.845 57.9441 37.0652C57.4628 37.3175 57.0273 37.6111 56.7981 37.9368C56.7797 37.9598 56.766 37.9827 56.7476 38.0102C56.9723 37.9368 57.2381 37.8864 57.6003 37.8864C58.9893 37.8864 58.9893 38.602 60.3783 38.602C61.7673 38.602 61.7673 37.8864 63.1563 37.8864C64.0594 37.8864 64.3757 38.1892 64.8662 38.4002C65.5263 36.5055 65.8793 34.097 63.9769 32.5786ZM60.0345 36.1018C59.7686 36.2624 59.2414 36.4642 58.6867 36.712C58.563 35.7761 59.7044 35.2806 60.58 35.2623C60.58 35.2577 60.6533 35.7302 60.0345 36.1018ZM60.3554 31.9455C60.0024 32.1152 59.9795 32.2941 59.8236 32.6749C59.764 32.5648 59.7732 32.3675 59.7411 32.2391C59.709 32.106 59.5898 32.0005 59.434 32.0418C59.4936 32.3079 59.4019 32.6841 59.0902 32.7024C58.7738 32.7208 58.673 32.5694 58.6592 32.4639C58.6455 32.3583 58.7418 32.2253 58.673 32.1748C58.6042 32.1198 58.4209 32.1473 58.3063 32.2207C58.1917 32.2941 58.0266 32.5602 58.7142 32.8125C57.912 32.8309 57.5911 32.1886 57.7653 32.0051C58.0862 31.6702 60.7084 31.5188 60.9605 31.5005C60.9605 31.5051 60.745 31.762 60.3554 31.9455Z" fill="#242424"/>
<path d="M56.6927 17.1461C56.9402 17.0084 59.7595 17.325 59.6495 20.5592C59.4294 23.1741 57.0503 22.9035 56.8027 22.8071C57.6004 22.3025 57.7608 21.9722 57.9304 21.4813C57.009 22.3897 56.4726 22.3667 55.7483 22.4539C55.024 22.5411 54.6848 22.8438 54.6298 22.9631C54.5702 23.0916 54.2631 20.5638 55.9592 20.1922C55.7988 19.1004 56.5873 18.8526 56.656 18.8435C56.7294 18.8297 57.0869 19.605 57.5408 19.3573C57.99 19.1095 57.6324 17.4443 56.6927 17.1461Z" fill="#242424"/>
<path d="M39.3003 46.346H38.764H38.7594C38.278 46.346 37.8838 45.9515 37.8792 45.4698C37.8792 45.4606 37.8792 45.4514 37.8838 45.4422C37.6134 45.4973 37.3841 45.4973 37.32 45.3275C37.1595 44.9101 38.1543 44.8917 38.1314 44.0751C38.113 43.2585 36.1097 41.6024 36.4673 40.6115C36.0089 40.8501 35.5138 41.4235 35.6742 42.0337C34.8995 41.6529 34.1156 41.0106 33.5701 40.0243C33.5701 40.0243 32.9604 41.0657 33.4372 41.841C32.1857 41.4098 31.4293 40.7216 30.893 39.928C30.4987 41.3226 31.2689 42.52 33.1942 43.176C32.6395 43.2127 30.3383 42.5796 29.9395 41.6254C29.999 42.7356 31.0717 44.7633 32.6945 44.4834C31.7823 44.8183 30.87 44.8 30.2741 44.4238C30.3933 45.1991 31.9794 46.6258 33.726 45.9514C33.9644 46.2496 33.5289 46.9011 33.1484 47.025C33.726 47.3828 34.3173 47.58 35.8072 47.2039C35.9447 47.4424 35.468 47.9012 35.3488 47.9975C35.2433 48.0893 37.7875 48.4104 39.2957 47.6764C39.2957 47.6718 39.2957 47.6672 39.2957 47.658V46.346H39.3003Z" fill="#242424"/>
<path d="M47.7764 44.4881C49.4038 44.7679 50.4765 42.7402 50.5315 41.63C50.1372 42.5842 47.836 43.2173 47.2767 43.1806C49.2021 42.5246 49.9676 41.3272 49.578 39.9326C49.0416 40.7263 48.2852 41.4144 47.0338 41.8456C47.5105 41.0703 46.9008 40.029 46.9008 40.029C46.3599 41.0107 45.5714 41.6575 44.7967 42.0383C44.9571 41.4236 44.4574 40.8547 44.0036 40.6162C44.3612 41.6071 42.3579 43.2632 42.335 44.0798C42.3121 44.8918 43.3068 44.9147 43.1464 45.3322C43.0776 45.5111 42.8255 45.5065 42.5367 45.4377C42.5367 45.4515 42.5413 45.4606 42.5413 45.4744C42.5413 45.9332 42.1974 46.3094 41.739 46.3506H41.7207H41.7024H41.1248V47.6718C42.6284 48.4288 45.223 48.1031 45.113 48.0113C44.9938 47.915 44.517 47.4562 44.6592 47.2177C46.1444 47.5985 46.7404 47.3966 47.318 47.0388C46.9421 46.9195 46.502 46.2635 46.7404 45.9653C48.4869 46.6396 50.073 45.2083 50.1922 44.4376C49.6009 44.8046 48.6886 44.823 47.7764 44.4881Z" fill="#242424"/>
<path d="M70.986 49.126C70.7063 49.2361 70.4084 49.2957 70.0966 49.2957C69.9591 49.2957 69.8216 49.282 69.6886 49.2636C69.7345 50.0343 69.9454 50.7087 70.0829 50.9381C69.4411 51.0803 68.5105 50.9656 68.0521 50.4197C68.0338 50.4197 68.0154 50.4151 67.9971 50.4105C67.965 50.9473 67.8229 52.4245 69.2119 52.5667C70.6651 52.7181 70.6513 52.7731 70.798 52.9429C70.4038 53.3191 69.7116 53.5668 68.7122 52.9612C68.8589 54.4017 69.6749 55.177 70.5275 55.0715C71.3848 54.966 72.1962 54.7779 72.4896 55.177C71.9486 55.3009 71.6736 55.7183 70.6972 55.489C70.908 56.3468 71.2702 56.6083 72.0541 56.7414C72.6592 56.8469 72.3887 57.7874 71.449 57.847C70.5092 57.9112 69.5282 57.0992 68.7351 55.7183C68.1621 54.7228 66.8556 52.4015 66.1176 51.0757L65.9846 51.2638L65.5171 51.0757C65.0816 50.8968 64.7423 50.6261 64.4764 50.3234C64.3527 50.5069 64.206 50.6674 64.0364 50.828L63.7567 51.0987L63.39 50.9656C62.4777 50.6353 61.9414 50.0848 61.6251 49.6123C61.4876 49.7086 61.3363 49.8004 61.1713 49.8784L60.7724 50.0665L60.4607 49.7591C59.8969 49.2086 59.6035 48.6718 59.4476 48.2085C59.3147 48.2773 59.1634 48.3415 58.9984 48.3782L58.5858 48.4792L58.4162 48.2406C58.0357 48.7774 57.6139 49.1398 57.238 49.3829C58.8104 51.3051 62.4961 52.1171 62.8124 55.4156C63.1929 59.3334 60.6624 59.0489 61.5197 62.5355C64.2243 62.2923 68.9689 64.8339 68.2171 68.1507C68.2171 68.1507 66.1313 67.2102 65.7738 68.7792C66.4431 69.3205 67.2544 68.6324 67.5891 68.926C66.5026 69.4673 65.0678 70.9078 65.6087 71.7886C66.466 71.0959 67.1307 71.3069 67.8825 70.2839C67.8825 70.8252 67.4241 72.518 68.7993 72.8713C69.3632 72.2244 68.8406 70.0132 69.4869 69.9673C70.1333 69.9261 70.6559 71.2198 70.908 71.7015C71.3252 71.5546 71.7194 70.0086 70.7384 68.8434C71.3664 68.9443 71.614 68.6966 71.8478 68.5498C71.8478 68.5498 71.261 68.0681 71.1372 67.0864C71.7836 67.068 72.242 66.857 72.3062 66.5863C71.8661 66.3569 71.2839 65.8339 71.2014 65.3339C71.6002 65.1275 72.0357 64.7283 72.0357 64.2879C71.5957 64.3522 68.2813 63.164 67.8 61.3886C67.3186 59.6132 67.7816 57.9617 67.8 57.6268C68.3226 58.1268 70.6055 60.1729 73.1634 58.9021C75.3959 57.7965 73.2459 53.7228 72.8104 52.9933C72.4483 52.4107 70.9172 50.6307 70.986 49.126Z" fill="#242424"/>
<path d="M78.4078 49.6216C78.4078 49.6216 78.9303 49.1628 80.1176 49.6858C80.0535 47.1993 77.9264 48.3187 76.4457 47.2819C75.7169 46.7727 74.6625 46.0478 73.4889 45.8276C73.5256 45.8919 73.5531 45.9607 73.5852 46.0341L73.8144 46.5479L73.3285 46.8323C72.7005 47.1993 72.1825 47.3782 71.6965 47.3966C71.7103 47.5021 71.7149 47.6168 71.7149 47.7315C73.2643 47.0984 75.1438 48.1306 75.0292 49.1536C74.9055 50.2409 74.5296 51.2823 75.0705 51.741C75.6114 52.2044 75.9048 52.4292 75.9048 52.787C76.487 52.264 75.8223 50.5712 76.1569 50.4886C76.322 50.8052 76.5328 52.2227 77.4267 52.6402C78.3252 53.0577 80.2047 53.31 80.3469 53.833C81.0391 52.7365 78.449 52.131 78.4078 49.6216Z" fill="#242424"/>
<path d="M9.48487 49.126C9.76451 49.2361 10.0625 49.2957 10.3742 49.2957C10.5117 49.2957 10.6493 49.282 10.7822 49.2636C10.7364 50.0343 10.5255 50.7087 10.388 50.9381C11.0297 51.0803 11.9603 50.9656 12.4233 50.4197C12.4417 50.4197 12.46 50.4151 12.4783 50.4105C12.5104 50.9473 12.6525 52.4245 11.2635 52.5667C9.81035 52.7181 9.8241 52.7731 9.67741 52.9429C10.0762 53.3191 10.7639 53.5668 11.7632 52.9612C11.6165 54.4017 10.8051 55.177 9.94787 55.0715C9.09063 54.966 8.27924 54.7779 7.98585 55.177C8.52678 55.3009 8.79725 55.7183 9.78284 55.489C9.57197 56.3468 9.20524 56.6083 8.42593 56.7414C7.82082 56.8469 8.09129 57.7874 9.03104 57.847C9.97079 57.9112 10.9518 57.0992 11.7449 55.7183C12.3179 54.7228 13.6244 52.4015 14.3624 51.0757L14.4908 51.2638L14.9584 51.0757C15.3939 50.8968 15.7331 50.6261 15.999 50.3234C16.1182 50.5069 16.2694 50.6674 16.4345 50.828L16.7187 51.0987L17.0854 50.9656C17.9977 50.6353 18.534 50.0848 18.8503 49.6123C18.9833 49.7086 19.1391 49.8004 19.3042 49.8784L19.6984 50.0665L20.0101 49.7591C20.574 49.2086 20.8719 48.6718 21.0232 48.2085C21.1562 48.2773 21.3029 48.3415 21.4679 48.3782L21.885 48.4792L22.0547 48.2406C22.4351 48.7774 22.8523 49.1398 23.2328 49.3829C21.6604 51.3051 17.9747 52.1171 17.6539 55.4156C17.2734 59.3334 19.7992 59.0489 18.9466 62.5355C16.2419 62.2923 11.4973 64.8339 12.2491 68.1507C12.2491 68.1507 14.3349 67.2102 14.6925 68.7792C14.0232 69.3205 13.2118 68.6324 12.8772 68.926C13.9636 69.4673 15.403 70.9078 14.8621 71.7886C14.0049 71.0959 13.3402 71.3069 12.5884 70.2839C12.5884 70.8252 13.0468 72.518 11.6715 72.8713C11.1077 72.2244 11.6303 70.0132 10.9839 69.9673C10.3375 69.9261 9.81493 71.2198 9.5628 71.7015C9.14564 71.5546 8.74682 70.0086 9.73242 68.8434C9.10897 68.9443 8.85685 68.6966 8.62764 68.5498C8.62764 68.5498 9.21441 68.0681 9.33818 67.0864C8.69181 67.068 8.2334 66.857 8.16922 66.5863C8.6093 66.3569 9.19148 65.8339 9.274 65.3339C8.87976 65.1275 8.43968 64.7283 8.43968 64.2879C8.87976 64.3522 12.1941 63.164 12.6754 61.3886C13.1568 59.6132 12.6938 57.9617 12.6754 57.6268C12.1529 58.1268 9.86994 60.1729 7.31198 58.9021C5.07949 57.7965 7.22946 53.7228 7.66496 52.9933C8.01794 52.4107 9.54905 50.6307 9.48487 49.126Z" fill="#242424"/>
<path d="M2.05852 49.6216C2.05852 49.6216 1.53592 49.1628 0.34862 49.6858C0.412799 47.1993 2.53986 48.3187 4.02054 47.2819C4.74942 46.7727 5.80378 46.0478 6.97733 45.8276C6.94524 45.8919 6.91315 45.9607 6.87648 46.0341L6.64727 46.5479L7.13778 46.8323C7.76581 47.1993 8.28382 47.3782 8.76974 47.3966C8.76057 47.5021 8.75598 47.6168 8.7514 47.7315C7.20195 47.0984 5.32244 48.1306 5.43705 49.1536C5.56082 50.2409 5.93672 51.2823 5.39579 51.741C4.85486 52.2044 4.56147 52.4292 4.56147 52.787C3.9747 52.264 4.64398 50.5712 4.30934 50.4886C4.14431 50.8052 3.93344 52.2227 3.03494 52.6402C2.13645 53.0577 0.261524 53.31 0.11483 53.833C-0.56821 52.7365 2.01726 52.131 2.05852 49.6216Z" fill="#242424"/>
<path d="M91.5552 12.1731H96.3044V32.1474H105.505V35.8862H91.5552V12.1731Z" fill="#242424"/>
<path d="M116.131 17.981C121.325 17.981 125.294 21.4813 125.294 27.2525C125.294 32.2804 121.934 36.2854 116.131 36.2854C110.359 36.2854 106.999 32.2804 106.999 27.2525C106.999 21.4813 110.969 17.981 116.131 17.981ZM116.131 32.7575C119.628 32.7575 120.545 29.6334 120.545 26.7111C120.545 24.0274 119.12 21.5134 116.131 21.5134C113.178 21.5134 111.753 24.0962 111.753 26.7111C111.753 29.5967 112.67 32.7575 116.131 32.7575Z" fill="#242424"/>
<path d="M128.76 18.3893H133.069V20.7656H133.138C134.564 18.7608 136.498 17.981 138.873 17.981C143.012 17.981 144.814 20.9033 144.814 24.844V35.8817H140.267V26.5414C140.267 24.4036 140.234 21.5134 137.314 21.5134C134.023 21.5134 133.308 25.0825 133.308 27.3213V35.8817H128.76V18.3893Z" fill="#242424"/>
<path d="M161.138 33.9138H161.069C159.712 35.6112 157.847 36.2901 155.706 36.2901C150.342 36.2901 148.376 31.8769 148.376 27.0875C148.376 22.2613 150.342 17.9857 155.706 17.9857C157.98 17.9857 159.575 18.7656 160.932 20.4309H161.001V10.4116H165.548V35.8864H161.133V33.9138H161.138ZM156.962 32.7577C159.983 32.7577 160.968 29.5647 160.968 27.0875C160.968 24.6423 159.813 21.5181 156.893 21.5181C153.941 21.5181 153.125 24.7432 153.125 27.0875C153.13 29.4959 153.978 32.7577 156.962 32.7577Z" fill="#242424"/>
<path d="M178.246 17.981C183.44 17.981 187.41 21.4813 187.41 27.2525C187.41 32.2804 184.05 36.2854 178.246 36.2854C172.475 36.2854 169.115 32.2804 169.115 27.2525C169.115 21.4813 173.084 17.981 178.246 17.981ZM178.246 32.7575C181.744 32.7575 182.661 29.6334 182.661 26.7111C182.661 24.0274 181.235 21.5134 178.246 21.5134C175.294 21.5134 173.868 24.0962 173.868 26.7111C173.868 29.5967 174.785 32.7575 178.246 32.7575Z" fill="#242424"/>
<path d="M190.972 18.3893H195.281V20.7656H195.35C196.775 18.7608 198.71 17.981 201.085 17.981C205.224 17.981 207.026 20.9033 207.026 24.844V35.8817H202.478V26.5414C202.478 24.4036 202.441 21.5134 199.526 21.5134C196.235 21.5134 195.519 25.0825 195.519 27.3213V35.8817H190.972V18.3893Z" fill="#242424"/>
<path d="M220.861 12.1731H229.144C232.197 12.1731 236.781 13.0585 236.781 18.2516C236.781 21.0684 234.879 23.041 232.064 23.5503V23.6191C235.287 23.9264 237.497 26.0964 237.497 29.0187C237.497 34.9963 232.133 35.8817 229.149 35.8817H220.865V12.1731H220.861ZM225.61 21.7519H227.544C229.548 21.7519 232.023 21.3115 232.023 18.8664C232.023 16.1138 229.612 15.912 227.439 15.912H225.605V21.7519H225.61ZM225.61 32.1474H227.847C230.056 32.1474 232.738 31.606 232.738 28.8535C232.738 25.7615 230.226 25.289 227.847 25.289H225.61V32.1474Z" fill="#242424"/>
<path d="M249.2 17.981C254.394 17.981 258.364 21.4813 258.364 27.2525C258.364 32.2804 255.004 36.2854 249.2 36.2854C243.429 36.2854 240.068 32.2804 240.068 27.2525C240.068 21.4813 244.038 17.981 249.2 17.981ZM249.2 32.7575C252.698 32.7575 253.61 29.6334 253.61 26.7111C253.61 24.0274 252.184 21.5134 249.2 21.5134C246.248 21.5134 244.822 24.0962 244.822 26.7111C244.822 29.5967 245.739 32.7575 249.2 32.7575Z" fill="#242424"/>
<path d="M262.031 18.3893H266.07V22.3621H266.134C266.34 20.7289 268.206 17.981 270.92 17.981C271.36 17.981 271.837 17.981 272.313 18.1186V22.7062C271.905 22.4676 271.094 22.33 270.278 22.33C266.579 22.33 266.579 26.9497 266.579 29.4637V35.8817H262.031V18.3893Z" fill="#242424"/>
<path d="M282.536 17.981C287.73 17.981 291.7 21.4813 291.7 27.2525C291.7 32.2804 288.34 36.2854 282.536 36.2854C276.765 36.2854 273.404 32.2804 273.404 27.2525C273.404 21.4813 277.379 17.981 282.536 17.981ZM282.536 32.7575C286.034 32.7575 286.946 29.6334 286.946 26.7111C286.946 24.0274 285.52 21.5134 282.536 21.5134C279.584 21.5134 278.158 24.0962 278.158 26.7111C278.158 29.5967 279.075 32.7575 282.536 32.7575Z" fill="#242424"/>
<path d="M311.251 35.8818H306.942V33.5055H306.873C305.484 35.2029 303.513 36.2901 301.139 36.2901C296.994 36.2901 295.198 33.3678 295.198 29.4271V18.3894H299.745V27.7297C299.745 29.8675 299.782 32.7577 302.702 32.7577C305.993 32.7577 306.708 29.1931 306.708 26.9498V18.3894H311.256V35.8818H311.251Z" fill="#242424"/>
<path d="M331.99 18.3893V34.1843C331.99 38.937 330.092 43.4236 322.758 43.4236C320.961 43.4236 318.889 43.1484 316.716 42.2355L317.092 38.3636C318.481 39.1113 320.759 39.8912 322.18 39.8912C327.204 39.8912 327.443 36.1202 327.443 33.097H327.374C326.526 34.5926 324.49 35.8817 321.942 35.8817C316.784 35.8817 314.813 31.7391 314.813 27.0506C314.813 22.8392 316.986 17.981 322.212 17.981C324.518 17.981 326.32 18.7608 327.576 20.7656H327.644V18.3893H331.99ZM327.443 26.9497C327.443 23.9586 326.292 21.5134 323.642 21.5134C320.553 21.5134 319.572 24.3669 319.572 27.0506C319.572 29.427 320.828 32.3492 323.441 32.3492C326.287 32.3492 327.443 29.872 327.443 26.9497Z" fill="#242424"/>
<path d="M335.946 10.407H340.494V20.7657H340.562C341.713 19.0683 343.684 17.9811 346.059 17.9811C350.203 17.9811 352 20.9033 352 24.8441V35.8818H347.452V26.5415C347.452 24.4037 347.42 21.5135 344.5 21.5135C341.209 21.5135 340.494 25.0826 340.494 27.3214V35.8818H335.946V10.407Z" fill="#242424"/>
<path d="M99.1602 52.897C104.354 52.897 108.324 56.3973 108.324 62.1685C108.324 67.1964 104.964 71.206 99.1602 71.206C93.3888 71.206 90.0286 67.1964 90.0286 62.1685C90.0286 56.3973 93.9984 52.897 99.1602 52.897ZM99.1602 67.6735C102.658 67.6735 103.575 64.5494 103.575 61.6271C103.575 58.9434 102.149 56.4294 99.1602 56.4294C96.208 56.4294 94.7823 59.0122 94.7823 61.6271C94.7823 64.5173 95.6946 67.6735 99.1602 67.6735Z" fill="#242424"/>
<path d="M113.55 56.6359H110.19V53.3099H113.55V50.8601C113.55 47.3644 115.521 44.9192 119.115 44.9192C120.27 44.9192 121.558 45.0889 122.439 45.2908L122.067 49.0618C121.659 48.8232 121.082 48.4516 120.096 48.4516C118.57 48.4516 118.093 49.7774 118.093 51.1354V53.3099H122.063V56.6359H118.093V70.7977H113.545V56.6359H113.55Z" fill="#242424"/>
<path d="M134.93 47.0891H139.684V56.668H149.187V47.0891H153.941V70.7977H149.187V60.4022H139.684V70.7977H134.93V47.0891Z" fill="#242424"/>
<path d="M166.909 52.897C172.103 52.897 176.073 56.3973 176.073 62.1685C176.073 67.1964 172.713 71.206 166.909 71.206C161.138 71.206 157.778 67.1964 157.778 62.1685C157.778 56.3973 161.748 52.897 166.909 52.897ZM166.909 67.6735C170.407 67.6735 171.324 64.5494 171.324 61.6271C171.324 58.9434 169.898 56.4294 166.909 56.4294C163.957 56.4294 162.532 59.0122 162.532 61.6271C162.532 64.5173 163.448 67.6735 166.909 67.6735Z" fill="#242424"/>
<path d="M195.625 70.7976H191.316V68.4212H191.247C189.853 70.1186 187.887 71.2059 185.507 71.2059C181.368 71.2059 179.566 68.2836 179.566 64.3429V53.3052H184.114V62.6455C184.114 64.7879 184.151 67.6735 187.066 67.6735C190.358 67.6735 191.073 64.1043 191.073 61.8656V53.3052H195.62V70.7976H195.625Z" fill="#242424"/>
<path d="M199.544 53.3099H203.858V55.6863H203.927C205.352 53.6861 207.287 52.9016 209.661 52.9016C213.801 52.9016 215.603 55.8239 215.603 59.7646V70.8069H211.055V61.4666C211.055 59.3242 211.023 56.4386 208.103 56.4386C204.811 56.4386 204.101 60.0078 204.101 62.2465V70.8069H199.549V53.3099H199.544Z" fill="#242424"/>
<path d="M230.671 56.9753C229.277 56.4982 228.259 56.2276 226.6 56.2276C225.376 56.2276 223.918 56.668 223.918 58.1635C223.918 60.9482 231.826 59.1819 231.826 65.499C231.826 69.5728 228.195 71.206 224.496 71.206C222.763 71.206 220.998 70.8986 219.334 70.4582L219.605 66.7239C221.03 67.4396 222.525 67.88 224.083 67.88C225.239 67.88 227.068 67.4396 227.068 65.7376C227.068 62.3061 219.16 64.6503 219.16 58.3332C219.16 54.5623 222.456 52.897 226.018 52.897C228.159 52.897 229.548 53.2365 230.973 53.5438L230.671 56.9753Z" fill="#242424"/>
<path d="M235.457 45.3274H240.004V70.8022H235.457V45.3274Z" fill="#242424"/>
<path d="M252.799 52.897C257.993 52.897 261.962 56.3973 261.962 62.1685C261.962 67.1964 258.602 71.206 252.799 71.206C247.027 71.206 243.667 67.1964 243.667 62.1685C243.667 56.3973 247.641 52.897 252.799 52.897ZM252.799 67.6735C256.296 67.6735 257.213 64.5494 257.213 61.6271C257.213 58.9434 255.788 56.4294 252.799 56.4294C249.846 56.4294 248.421 59.0122 248.421 61.6271C248.421 64.5173 249.338 67.6735 252.799 67.6735Z" fill="#242424"/>
<path d="M263.558 53.3098H268.38L272.249 66.2514H272.318L275.848 53.3098H281.142L284.947 66.2514H285.012L288.642 53.3098H292.988L287.624 70.8022H282.261L278.461 57.4524H278.392L274.656 70.8022H269.462L263.558 53.3098Z" fill="#242424"/>
</svg>
