<?xml version="1.0" encoding="UTF-8" standalone="no"?>
<svg xmlns:svg="http://www.w3.org/2000/svg"
     xmlns="http://www.w3.org/2000/svg" version="1.1"
     width="360.0" height="185.0">
    <!-- Created with parliamentarch (https://github.com/Gouvernathor/parliamentarch/) -->
    <text x="180.0" y="175.0"
          style="font-size:36px;font-weight:bold;text-align:center;text-anchor:middle;font-family:sans-serif">70</text>
    <g style="fill:#12b6cf"
       id="0-Reform-UK">
        <title>Reform UK</title>
        <circle cx="15.01" cy="170.28" r="7.78"/>
        <circle cx="34.49" cy="170.28" r="7.78"/>
        <circle cx="53.99" cy="170.28" r="7.78"/>
        <circle cx="73.50" cy="170.28" r="7.78"/>
        <circle cx="93.04" cy="170.28" r="7.78"/>
        <circle cx="19.33" cy="141.24" r="7.78"/>
        <circle cx="39.34" cy="141.49" r="7.78"/>
        <circle cx="59.51" cy="141.83" r="7.78"/>
        <circle cx="79.91" cy="142.32" r="7.78"/>
        <circle cx="28.73" cy="113.42" r="7.78"/>
        <circle cx="100.67" cy="143.07" r="7.78"/>
        <circle cx="49.83" cy="114.24" r="7.78"/>
        <circle cx="71.38" cy="115.38" r="7.78"/>
        <circle cx="42.89" cy="87.71" r="7.78"/>
        <circle cx="93.53" cy="117.07" r="7.78"/>
        <circle cx="65.54" cy="89.63" r="7.78"/>
        <circle cx="116.58" cy="119.72" r="7.78"/>
        <circle cx="88.95" cy="92.34" r="7.78"/>
        <circle cx="61.39" cy="64.90" r="7.78"/>
        <circle cx="85.84" cy="68.64" r="7.78"/>
        <circle cx="113.37" cy="96.35" r="7.78"/>
        <circle cx="83.62" cy="45.73" r="7.78"/>
        <circle cx="111.31" cy="73.90" r="7.78"/>
        <circle cx="109.91" cy="52.11" r="7.78"/>
        <circle cx="139.09" cy="102.65" r="7.78"/>
        <circle cx="108.90" cy="30.80" r="7.78"/>
        <circle cx="138.00" cy="81.65" r="7.78"/>
        <circle cx="137.29" cy="61.05" r="7.78"/>
        <circle cx="136.79" cy="40.72" r="7.78"/>
        <circle cx="136.42" cy="20.57" r="7.78"/>
        <circle cx="165.87" cy="93.65" r="7.78"/>
        <circle cx="165.66" cy="74.02" r="7.78"/>
        <circle cx="165.51" cy="54.44" r="7.78"/>
        <circle cx="165.40" cy="34.90" r="7.78"/>
        <circle cx="165.32" cy="15.38" r="7.78"/>
        <circle cx="194.68" cy="15.38" r="7.78"/>
        <circle cx="194.60" cy="34.90" r="7.78"/>
        <circle cx="194.49" cy="54.44" r="7.78"/>
        <circle cx="194.34" cy="74.02" r="7.78"/>
        <circle cx="194.13" cy="93.65" r="7.78"/>
        <circle cx="223.58" cy="20.57" r="7.78"/>
        <circle cx="223.21" cy="40.72" r="7.78"/>
        <circle cx="222.71" cy="61.05" r="7.78"/>
        <circle cx="222.00" cy="81.65" r="7.78"/>
    </g>
    <g style="fill:#0087dc"
       id="1-Conservative">
        <title>Conservative</title>
        <circle cx="251.10" cy="30.80" r="7.78"/>
        <circle cx="220.91" cy="102.65" r="7.78"/>
        <circle cx="250.09" cy="52.11" r="7.78"/>
        <circle cx="248.69" cy="73.90" r="7.78"/>
        <circle cx="276.38" cy="45.73" r="7.78"/>
        <circle cx="246.63" cy="96.35" r="7.78"/>
        <circle cx="274.16" cy="68.64" r="7.78"/>
        <circle cx="298.61" cy="64.90" r="7.78"/>
        <circle cx="271.05" cy="92.34" r="7.78"/>
        <circle cx="243.42" cy="119.72" r="7.78"/>
        <circle cx="294.46" cy="89.63" r="7.78"/>
        <circle cx="266.47" cy="117.07" r="7.78"/>
        <circle cx="317.11" cy="87.71" r="7.78"/>
        <circle cx="288.62" cy="115.38" r="7.78"/>
    </g>
    <g style="fill:#faa61a"
       id="2-Liberal-Democrats">
        <title>Liberal Democrats</title>
        <circle cx="310.17" cy="114.24" r="7.78"/>
        <circle cx="259.33" cy="143.07" r="7.78"/>
        <circle cx="331.27" cy="113.42" r="7.78"/>
        <circle cx="280.09" cy="142.32" r="7.78"/>
        <circle cx="300.49" cy="141.83" r="7.78"/>
    </g>
    <g style="fill:#dddddd"
       id="3-Independent">
        <title>Independent</title>
        <circle cx="320.66" cy="141.49" r="7.78"/>
        <circle cx="340.67" cy="141.24" r="7.78"/>
        <circle cx="266.96" cy="170.28" r="7.78"/>
    </g>
    <g style="fill:#e50038"
       id="4-Labour">
        <title>Labour</title>
        <circle cx="286.50" cy="170.28" r="7.78"/>
        <circle cx="306.01" cy="170.28" r="7.78"/>
        <circle cx="325.51" cy="170.28" r="7.78"/>
    </g>
    <g style="fill:#02a95b"
       id="5-Green">
        <title>Green</title>
    </g>
    <g style="fill:#000000"
       id="6-Party-7">
        <title>Party 7</title>
        <circle cx="344.99" cy="170.28" r="7.78"/>
    </g>
</svg>

