<?xml version="1.0" encoding="utf-8"?>
<!-- Generator: Adobe Illustrator 21.1.0, SVG Export Plug-In . SVG Version: 6.00 Build 0)  -->
<svg version="1.1" id="Layer_1" xmlns="http://www.w3.org/2000/svg" xmlns:xlink="http://www.w3.org/1999/xlink" x="0px" y="0px"
	 viewBox="0 0 786 127.1" enable-background="new 0 0 786 127.1" xml:space="preserve">
<g>
	<g>
		<g>
			<polygon fill="#FFC843" points="186.3,37.5 192.7,57.3 192.8,57.3 195.3,46.7 198.7,36.8 208.6,36.8 208.6,38.2 195.7,73.4 
				190.7,73.4 184.4,56.9 184.3,56.9 178.3,73.4 173,73.4 160.1,38.2 160.1,36.8 170,36.8 173.4,46.7 176.2,57.3 176.3,57.3 
				182.4,37.5 			"/>
			<polygon fill="#FFC843" points="230.1,65.4 230.1,73 211.5,73 211.5,65.4 216.1,65.4 216.1,44.5 211.9,44.5 211.9,36.8 
				229.7,36.8 229.7,44.5 225.5,44.5 225.5,65.4 			"/>
			<polygon fill="#FFC843" points="245.9,54.4 245.9,73 236.5,73 236.5,36.7 239.4,36.7 258.3,54.5 258.3,36.8 267.8,36.8 
				267.8,73.1 265,73.1 			"/>
			<polygon fill="#FFC843" points="285,54.4 285,73 275.5,73 275.5,36.7 278.5,36.7 297.3,54.5 297.3,36.8 306.8,36.8 306.8,73.1 
				304,73.1 			"/>
			<polygon fill="#FFC843" points="331.8,65.4 331.8,73 313.2,73 313.2,65.4 317.8,65.4 317.8,44.5 313.6,44.5 313.6,36.8 
				331.4,36.8 331.4,44.5 327.2,44.5 327.2,65.4 			"/>
			<g>
				<path fill="#FFC843" d="M354.2,55.4c2.5,0,3.9-2.6,3.9-5.3c0-2.6-1.3-5.1-3.9-5.1h-6.7v10.4H354.2z M338.3,73V36.8
					c5.4,0,10.6,0,16,0c8.7,0,13.1,6.8,13,13.6c0,6.6-4.4,13.2-13,13.2h-6.5V73H338.3z"/>
			</g>
			<polygon fill="#FFC843" points="394.8,45.1 381.7,45.1 381.7,50.2 393.8,50.2 393.8,58.5 381.7,58.5 381.7,64.4 395.3,64.4 
				395.3,73 372.2,73 372.2,36.8 394.8,36.8 			"/>
			<g>
				<path fill="#FFC843" d="M418.1,36.4c7.2,0,14.7,3.7,16.6,12.5h-9.2c-1.6-2.9-3.9-4-7.4-4c-5.8,0-9,4.6-9,10.1c0,6,3.5,9.9,9,9.9
					c3.7,0,6.1-0.9,7.8-4.4h-7.7v-8h17.1c0.3,3.5,0.2,7-1,10.5c-2.6,7.6-9.5,10.5-16.2,10.5c-9.2,0-18.6-6.2-18.6-18.5
					C399.5,42.6,408.9,36.4,418.1,36.4"/>
			</g>
		</g>
		<g>
			<polygon fill="#263746" points="195.7,90.2 181.4,105.9 167,90.2 163.7,90.2 163.7,126.5 173.1,126.5 173.1,109.8 180.8,117.8 
				181.9,117.8 189.6,109.8 189.6,126.5 199.1,126.5 199.1,90.2 			"/>
			<polygon fill="#263746" points="206.8,90.3 206.8,126.5 229.9,126.5 229.9,117.8 216.3,117.8 216.3,112 228.4,112 228.4,103.7 
				216.3,103.7 216.3,98.5 229.4,98.5 229.4,90.3 			"/>
			<polygon fill="#263746" points="233.5,90.3 233.5,98.6 242.4,98.6 242.4,126.5 251.6,126.5 251.6,98.6 260.4,98.6 260.4,90.3 			
				"/>
			<g>
				<path fill="#263746" d="M281.2,107.4c2.6,0,3.9-2.3,3.9-4.6c0-2.3-1.2-4.4-3.9-4.4h-6.6v8.9H281.2z M296,125.1v1.3h-10
					l-6.2-11.3h-5v11.3h-9.5V90.2c5.4,0,10.6-0.1,15.9,0c8.7,0,13,6.5,13,12.8c0,4.1-1.8,8.1-5.4,10.5L296,125.1z"/>
				<path fill="#263746" d="M317.9,118.2c4.5,0,9.1-3.4,9.1-9.8c0-6.5-4.5-9.8-9-9.8c-4.7,0-9.2,3.2-9.2,9.8
					C308.8,114.8,313.3,118.2,317.9,118.2 M317.9,127.1c-9.6,0-18.5-6.2-18.5-18.8c0-12.5,9.2-18.8,18.7-18.8
					c9.3,0,18.5,6.3,18.5,18.8C336.5,119.4,328.8,127.1,317.9,127.1"/>
				<path fill="#263746" d="M358.4,108.8c2.5,0,3.9-2.6,3.9-5.3c0-2.6-1.3-5.1-3.9-5.1h-6.7v10.4H358.4z M342.4,126.4V90.2
					c5.4,0,10.6-0.1,16,0c8.7,0,13.1,6.8,13,13.6c0,6.6-4.4,13.2-13,13.2h-6.5v9.4H342.4z"/>
				<path fill="#263746" d="M393,118.2c4.5,0,9.1-3.4,9.1-9.8c0-6.5-4.5-9.8-9-9.8c-4.7,0-9.2,3.2-9.2,9.8
					C383.9,114.8,388.4,118.2,393,118.2 M393,127.1c-9.6,0-18.5-6.2-18.5-18.8c0-12.5,9.2-18.8,18.7-18.8c9.3,0,18.5,6.3,18.5,18.8
					C411.6,119.4,403.9,127.1,393,127.1"/>
			</g>
			<polygon fill="#263746" points="417.5,90.3 417.5,126.5 440,126.5 440,118 426.9,118 426.9,90.3 			"/>
			<polygon fill="#263746" points="443.8,90.3 443.8,97.9 448,97.9 448,118.8 443.4,118.8 443.4,126.5 462,126.5 462,118.8 
				457.4,118.8 457.4,97.9 461.6,97.9 461.6,90.3 			"/>
			<polygon fill="#263746" points="465.5,90.3 465.5,98.6 474.4,98.6 474.4,126.5 483.5,126.5 483.5,98.6 492.4,98.6 492.4,90.3 			
				"/>
			<path fill="#263746" d="M511.5,105.3l3.8,8.7h-7.5L511.5,105.3z M509.4,89.9l-16.6,35.3v1.3h9.9l2.1-4.5h13.5l2.1,4.5h9.8v-1.3
				l-16.4-35.3H509.4z"/>
			<polygon fill="#263746" points="533.5,90.1 533.5,126.5 542.9,126.5 542.9,107.8 561.9,126.6 564.7,126.6 564.7,90.3 555.3,90.3 
				555.3,108 536.4,90.1 			"/>
			<g>
				<path fill="#263746" d="M600.8,107.4c2.6,0,3.9-2.3,3.9-4.6c0-2.3-1.2-4.4-3.9-4.4h-6.6v8.9H600.8z M615.6,125.1v1.3h-10
					l-6.2-11.3h-5v11.3h-9.5V90.2c5.4,0,10.6-0.1,15.9,0c8.7,0,13,6.5,13,12.8c-0.1,4.1-1.8,8.1-5.4,10.5L615.6,125.1z"/>
			</g>
			<polygon fill="#263746" points="620.9,90.3 620.9,126.5 643.9,126.5 643.9,117.8 630.3,117.8 630.3,112 642.4,112 642.4,103.7 
				630.3,103.7 630.3,98.5 643.5,98.5 643.5,90.3 			"/>
			<g>
				<path fill="#263746" d="M667.2,89.8c7.2,0,14.7,3.7,16.6,12.5h-9.2c-1.6-2.9-3.9-4-7.4-4c-5.8,0-9,4.6-9,10.1c0,6,3.5,9.9,9,9.9
					c3.7,0,6.1-0.9,7.8-4.4h-7.7v-8h17.1c0.3,3.5,0.2,7-1,10.5c-2.6,7.6-9.5,10.5-16.2,10.5c-9.2,0-18.6-6.2-18.6-18.5
					C648.5,96,657.9,89.8,667.2,89.8"/>
			</g>
			<polygon fill="#263746" points="689.1,90.3 689.1,97.9 693.3,97.9 693.3,118.8 688.7,118.8 688.7,126.5 707.3,126.5 707.3,118.8 
				702.7,118.8 702.7,97.9 706.9,97.9 706.9,90.3 			"/>
			<g>
				<path fill="#263746" d="M730.4,118.2c4.5,0,9.1-3.4,9.1-9.8c0-6.5-4.5-9.8-9-9.8c-4.7,0-9.2,3.2-9.2,9.8
					C721.3,114.8,725.7,118.2,730.4,118.2 M730.3,127.1c-9.6,0-18.5-6.2-18.5-18.8c0-12.5,9.3-18.8,18.7-18.8
					c9.3,0,18.5,6.3,18.5,18.8C748.9,119.4,741.3,127.1,730.3,127.1"/>
			</g>
			<polygon fill="#263746" points="754.8,90.1 754.8,126.5 764.2,126.5 764.2,107.8 783.3,126.6 786,126.6 786,90.3 776.6,90.3 
				776.6,108 757.7,90.1 			"/>
		</g>
	</g>
	<g>
		<g>
			<path fill="#263746" d="M43,121l-11.5,5c-1.3,0.6-2.9,0-3.5-1.4L0.2,61.1c-0.6-1.3,0-2.9,1.4-3.5l11.5-5c1.3-0.6,2.9,0,3.5,1.4
				l27.8,63.5C44.9,118.8,44.3,120.4,43,121"/>
			<path fill="#FFC843" d="M125.1,1.7L89.9,99.3L77.7,73.8c-2.8-5.9-9.1-7.5-14.8-4.8c-5.6,2.7-23,11.3-23,11.3
				c-1.3,0.9-1.6,2.6-0.8,3.9l5.5,12.1c0.9,1.3,2.6,1.6,3.9,0.8l15.1-7.8l17.1,34.1c0.7,1.8,2.4,3,4.3,3h11.4c1.7,0,3.2-1,3.7-2.6
				L143.3,7.9c0.4-1.1-0.2-2.4-1.3-2.8l-13.5-4.9C127.1-0.3,125.6,0.4,125.1,1.7"/>
		</g>
	</g>
</g>
</svg>
