<?xml version="1.0" encoding="UTF-8" standalone="no"?>
<!-- Created with Inkscape (http://www.inkscape.org/) -->

<svg
  className="!fill-secgray"
   version="1.1"
   id="svg1341"
   xml:space="preserve"
   width="682.66669"
   height="682.66669"
   fill="#556987"
   viewBox="0 0 682.66669 682.66669"
   xmlns="http://www.w3.org/2000/svg"
   xmlns:svg="http://www.w3.org/2000/svg"><defs
     id="defs1345"><clipPath
       clipPathUnits="userSpaceOnUse"
       id="clipPath1355"><path
         d="M 0,512 H 512 V 0 H 0 Z"
         id="path1353" /></clipPath></defs><g
     id="g1347"
     transform="matrix(1.3333333,0,0,-1.3333333,0,682.66667)"><g
       id="g1349"><g
         id="g1351"
         clip-path="url(#clipPath1355)"><g
           id="g1357"
           transform="translate(25.7001,429.8763)"><path
             d="m 0,0 c 70.47,53.051 157.374,75.824 244.707,64.125 m 0,0 c 20.1,-2.693 40.044,-7.243 59.28,-13.524 66.854,-21.826 122.721,-63.176 162.631,-116.134"
             style="fill:none;stroke:#556987;stroke-width:30;stroke-linecap:round;stroke-linejoin:round;stroke-miterlimit:10;stroke-dasharray:none;stroke-opacity:1"
             id="path1359" /></g><g
           id="g1361"
           transform="translate(313.7482,21.3975)"><path
             d="m 0,0 c 7.438,12.432 14.141,25.543 20.047,39.255 17.635,40.944 23.224,75.595 24.517,85.24 8.54,63.747 -29.606,124.498 -90.703,144.446 -7.7,2.513 -15.695,4.336 -23.762,5.417 -34.894,4.675 -69.644,-4.443 -97.846,-25.674 -27.508,-20.71 -45.756,-50.734 -51.381,-84.54 -2.703,-16.247 -11.322,-30.918 -24.2,-41.186 m -50.739,188.065 c 13.41,16.347 28.852,31.191 46.12,44.191 56.381,42.445 125.9,60.666 195.754,51.308 16.089,-2.156 32.049,-5.797 47.439,-10.822 C 86.283,365.978 151.854,290.996 172.34,201.986"
             style="fill:none;stroke:#556987;stroke-width:30;stroke-linecap:round;stroke-linejoin:round;stroke-miterlimit:10;stroke-dasharray:none;stroke-opacity:1"
             id="path1363" /></g><g
           id="g1365"
           transform="translate(28.8525,196.483)"><path
             d="m 0,0 c 8.452,50.803 35.72,95.749 77.049,126.864 42.291,31.837 94.426,45.507 146.801,38.49 12.077,-1.618 24.054,-4.35 35.599,-8.119 91.668,-29.928 148.902,-121.058 136.092,-216.685 -1.518,-11.324 -5.786,-36.781 -16.443,-68.812"
             style="fill:none;stroke:#556987;stroke-width:30;stroke-linecap:round;stroke-linejoin:round;stroke-miterlimit:10;stroke-dasharray:none;stroke-opacity:1"
             id="path1367" /></g><g
           id="g1369"
           transform="translate(116.3065,95.4093)"><path
             d="m 0,0 c 34.631,23.563 43.688,76.514 43.758,77.034 4.889,36.497 38.438,62.119 74.934,57.23 36.501,-4.89 62.12,-38.438 57.231,-74.934 -1.282,-9.565 -12.653,-82.848 -66.079,-139.739"
             style="fill:none;stroke:#556987;stroke-width:30;stroke-linecap:round;stroke-linejoin:round;stroke-miterlimit:10;stroke-dasharray:none;stroke-opacity:1"
             id="path1371" /></g><g
           id="g1373"
           transform="translate(226.1467,163.5916)"><path
             d="M 0,0 C 0,0 -10.92,-81.518 -72.335,-123.305"
             style="fill:none;stroke:#556987;stroke-width:30;stroke-linecap:round;stroke-linejoin:round;stroke-miterlimit:10;stroke-dasharray:none;stroke-opacity:1"
             id="path1375" /></g></g></g></g></svg>
