<?xml version="1.0" encoding="iso-8859-1"?>
<!-- Generator: Adobe Illustrator 19.0.0, SVG Export Plug-In . SVG Version: 6.00 Build 0)  -->
<svg version="1.1" id="Layer_1" xmlns="http://www.w3.org/2000/svg" xmlns:xlink="http://www.w3.org/1999/xlink" x="0px" y="0px"
	 viewBox="0 0 512.001 512.001" fill="#556987" style="enable-background:new 0 0 512.001 512.001;" xml:space="preserve">
<g>
	<g>
		<g>
			<path d="M330.118,149.124c0-40.87-33.25-74.12-74.12-74.12c-40.87,0-74.12,33.25-74.12,74.12c0,40.87,33.25,74.12,74.12,74.12
				C296.869,223.243,330.118,189.994,330.118,149.124z M256,183.326c-18.859,0-34.202-15.344-34.202-34.202
				s15.343-34.202,34.202-34.202c18.858,0,34.202,15.343,34.202,34.202C290.203,167.982,274.86,183.326,256,183.326z"/>
			<path d="M337.76,324.974c44.703-83.653,67.359-142.758,67.359-175.854C405.119,66.894,338.224,0,256,0
				S106.88,66.894,106.88,149.12c0,33.095,22.656,92.202,67.36,175.854c-63.644,15.883-103.381,49.351-103.381,88.994
				c0,130.56,370.282,130.862,370.282,0C441.141,374.324,401.402,340.857,337.76,324.974z M146.798,149.12
				c0-60.215,48.988-109.203,109.203-109.203c60.214,0,109.201,48.988,109.201,109.203c0,51.212-82.933,195.188-109.203,239.335
				C229.998,344.756,146.798,200.25,146.798,149.12z M256,472.674c-89.976,0-145.224-34.193-145.224-58.706
				c0-17.944,29.124-41.458,83.42-52.617c64.609,115.031,58.561,115.616,123.607,0c54.297,11.159,83.42,34.673,83.42,52.617
				C401.224,438.481,345.976,472.674,256,472.674z"/>
		</g>
	</g>
</g>
<g>
</g>
<g>
</g>
<g>
</g>
<g>
</g>
<g>
</g>
<g>
</g>
<g>
</g>
<g>
</g>
<g>
</g>
<g>
</g>
<g>
</g>
<g>
</g>
<g>
</g>
<g>
</g>
<g>
</g>
</svg>
